<svg xmlns="http://www.w3.org/2000/svg" width="373" height="36" viewBox="0 0 373 36">
  <g fill="none" fill-rule="evenodd" transform="translate(-23 1)">
    <path stroke="#979797" stroke-dasharray="5" d="M0,43 C68.0314142,14.3333333 138.031414,9.02345768e-16 210,0 C281.968586,0 351.968586,14.3333333 420,43"/>
    <path fill="#000" fill-rule="nonzero" d="M23.1344553,17.6800206 L23.1344553,15.6003412 L13.6698552,9.35973402 L13.6698552,2.0796794 C13.6698552,2.0796794 13.6698552,0 11.5672277,0 C9.46380695,0 9.46380695,2.0796794 9.46380695,2.0796794 L9.46380695,9.35973402 L0,15.6003412 L0,17.6800206 L9.46380695,14.5593248 L9.46380695,20.3849374 L6.30946901,22.8811803 L6.30946901,24.9608597 L11.5672277,22.8811803 L16.8249863,24.9608597 L16.8249863,22.8811803 L13.6698552,20.3849374 L13.6698552,14.5593248 L23.1344553,17.6800206 Z" transform="rotate(74 36.862 54.44)"/>
  </g>
</svg>
