<svg xmlns="http://www.w3.org/2000/svg" width="142" height="56" viewBox="0 0 142 56">
  <g fill="none" fill-rule="evenodd" transform="translate(0 -1)">
    <path fill="#FFF" d="M78.6328162 10.073667C78.7592939 9.895257 78.89497 9.781257 79.0409943 9.731667 79.1893182 9.682647 79.3485652 9.710577 79.5210348 9.816027 79.6940794 9.920907 79.7900874 10.042317 79.8119336 10.177407 79.8314802 10.311927 79.7935368 10.446447 79.7004032 10.578117L77.923966 13.042797 80.0510915 16.013067C80.1172049 16.105977 80.139051 16.213137 80.1154802 16.335117 80.0924842 16.457667 79.9941765 16.574517 79.8217069 16.686807 79.633715 16.805937 79.4796421 16.845267 79.3566138 16.805937 79.2341603 16.765467 79.12263 16.676547 79.0214478 16.538607L77.2047676 14.043147 75.3978607 16.548297C75.1903223 16.845267 74.924719 16.888587 74.5987514 16.676547 74.4642251 16.591047 74.3802899 16.477617 74.3434964 16.335117 74.3067028 16.193757 74.3446462 16.042707 74.4579012 15.884817L76.4855692 13.053627 74.7183304 10.607757C74.6453182 10.496037 74.6286462 10.364937 74.6683142 10.216737 74.7085571 10.068537 74.788468 9.951117 74.908047 9.865047 75.0805166 9.746487 75.2282656 9.692337 75.3530186 9.702597 75.476047 9.712287 75.5939012 9.792657 75.7065814 9.944277L77.2145409 12.053277 78.6328162 10.073667zM82.14677 16.181958C82.14677 16.393428 82.0950291 16.551318 81.9921223 16.656768 81.8892154 16.762788 81.7213449 16.815798 81.4885109 16.815798 81.2545271 16.815798 81.0901061 16.762788 80.994098 16.656768 80.897515 16.551318 80.8497984 16.395708 80.8497984 16.192218L80.8497984 10.350288C80.8497984 9.927918 81.061936 9.717018 81.4885109 9.717018 81.7017984 9.717018 81.8644947 9.763188 81.9771749 9.855528 82.0898551 9.947298 82.14677 10.109748 82.14677 10.340028L82.14677 16.181958zM84.5530089 16.300518C84.5530089 16.432758 84.5029927 16.551318 84.4035352 16.656768 84.3035028 16.762788 84.1373571 16.815798 83.905098 16.815798 83.6711142 16.815798 83.5049684 16.759368 83.4055109 16.647078 83.3054785 16.535358 83.2560372 16.419078 83.2560372 16.300518L83.2560372 10.182138C83.2560372 10.063578 83.2893814 9.955848 83.3554947 9.860088 83.4216081 9.764898 83.5751061 9.717018 83.8136891 9.717018 83.9482154 9.717018 84.0562964 9.756918 84.1390818 9.835578 84.2224421 9.914808 84.2937296 9.994038 84.353519 10.073838L87.5091385 14.281008 87.5091385 10.231728C87.5091385 10.113168 87.5591547 9.997458 87.6597619 9.885168 87.7592194 9.772878 87.9253652 9.717018 88.1581992 9.717018 88.3904583 9.717018 88.5583287 9.769458 88.6583611 9.875478 88.7572437 9.980358 88.8072599 10.100058 88.8072599 10.231728L88.8072599 16.370058C88.8072599 16.482348 88.7744907 16.584948 88.7078024 16.676718 88.6411142 16.769058 88.4922154 16.815798 88.2576567 16.815798 88.1248551 16.815798 88.0138996 16.775328 87.9236405 16.696668 87.8345312 16.617438 87.7592194 16.538208 87.7000049 16.459548L84.5530089 12.390318 84.5530089 16.300518zM94.2392486 10.231443C94.2392486 10.112883 94.2840907 9.997743 94.3754996 9.884883 94.4651838 9.773163 94.6330543 9.717303 94.878536 9.717303 95.1130947 9.717303 95.2809652 9.769743 95.3832972 9.875193 95.4867789 9.980643 95.5379449 10.099773 95.5379449 10.231443L95.5379449 16.300233C95.5379449 16.433043 95.4896534 16.549893 95.3936453 16.651923 95.2970623 16.753953 95.1332162 16.808673 94.8980826 16.816083 94.6658235 16.821783 94.4985279 16.767063 94.3950462 16.651923 94.2909895 16.536783 94.2392486 16.418793 94.2392486 16.300233L94.2392486 13.726113 91.203783 13.726113 91.203783 16.300233C91.203783 16.433043 91.1554915 16.549893 91.0594834 16.651923 90.9629004 16.753953 90.7984794 16.808673 90.5656453 16.816083 90.3316615 16.821783 90.1637911 16.767063 90.0608842 16.651923 89.9585522 16.536783 89.9068113 16.418793 89.9068113 16.300233L89.9068113 10.231443C89.9068113 10.112883 89.9585522 9.997743 90.0608842 9.884883 90.1637911 9.773163 90.3316615 9.717303 90.5656453 9.717303 90.7984794 9.717303 90.9629004 9.769743 91.0594834 9.875193 91.1554915 9.980643 91.203783 10.099773 91.203783 10.231443L91.203783 12.617463 94.2392486 12.617463 94.2392486 10.231443zM99.5632713 15.785922C99.9151093 15.785922 100.209457 15.722082 100.446891 15.592692 100.682599 15.464442 100.873466 15.287742 101.021215 15.063162 101.167814 14.838582 101.270721 14.574672 101.329935 14.271432 101.3903 13.967622 101.419619 13.640442 101.419619 13.291032 101.419619 12.941052 101.38685 12.611022 101.320737 12.301512 101.253474 11.990862 101.147692 11.720112 100.999943 11.488692 100.853919 11.258412 100.662478 11.076012 100.426769 10.944342 100.189336 10.812672 99.9024615 10.745982 99.5632713 10.745982 99.2229312 10.745982 98.9354818 10.814382 98.6980486 10.949472 98.4623401 11.084562 98.2714737 11.266392 98.1254494 11.493822 97.9771255 11.721822 97.8713441 11.987442 97.8046559 12.290682 97.7379676 12.594492 97.7051984 12.917682 97.7051984 13.261392 97.7051984 13.571472 97.7350931 13.878702 97.7948826 14.182512 97.8546721 14.485182 97.9575789 14.755932 98.1053279 14.994192 98.2513522 15.231312 98.4427935 15.422832 98.678502 15.568182 98.9159352 15.713532 99.2097085 15.785922 99.5632713 15.785922M99.5632713 9.617382C100.101951 9.617382 100.569919 9.712002 100.964874 9.899532 101.36213 10.088202 101.688672 10.345272 101.949676 10.671882 102.208955 10.999062 102.401547 11.383242 102.527449 11.825562 102.655652 12.267312 102.718316 12.746682 102.718316 13.261392 102.718316 13.775532 102.655652 14.256612 102.527449 14.701782 102.401547 15.146952 102.208955 15.533412 101.949676 15.860022 101.688672 16.187202 101.36213 16.444842 100.964874 16.632372 100.569919 16.821042 100.101951 16.914522 99.5632713 16.914522 99.0435628 16.914522 98.5870931 16.823322 98.1950121 16.642062 97.8017814 16.461372 97.4723644 16.208292 97.2050364 15.884532 96.9400081 15.561342 96.7405182 15.175452 96.6071417 14.726862 96.4731903 14.277702 96.406502 13.789782 96.406502 13.261392 96.406502 12.753522 96.4680162 12.275862 96.5875951 11.830692 96.7071741 11.384952 96.8945911 10.999062 97.1504211 10.671882 97.4079757 10.345272 97.7333684 10.088202 98.1306235 9.899532 98.5255789 9.712002 99.0033198 9.617382 99.5632713 9.617382M104.883902 16.300518C104.883902 16.432758 104.834461 16.551318 104.734428 16.656768 104.634971 16.762788 104.468825 16.815798 104.236566 16.815798 104.002582 16.815798 103.836436 16.759368 103.736404 16.647078 103.636947 16.535358 103.58693 16.419078 103.58693 16.300518L103.58693 10.182138C103.58693 10.063578 103.620274 9.955848 103.686963 9.860088 103.753076 9.764898 103.905999 9.717018 104.145157 9.717018 104.279683 9.717018 104.387764 9.756918 104.47055 9.835578 104.55391 9.914808 104.625198 9.994038 104.684412 10.073838L107.840032 14.281008 107.840032 10.231728C107.840032 10.113168 107.890048 9.997458 107.99123 9.885168 108.090687 9.772878 108.256833 9.717018 108.489092 9.717018 108.721926 9.717018 108.889797 9.769458 108.989254 9.875478 109.088712 9.980358 109.138153 10.100058 109.138153 10.231728L109.138153 16.370058C109.138153 16.482348 109.105384 16.584948 109.03927 16.676718 108.972582 16.769058 108.823109 16.815798 108.58855 16.815798 108.456323 16.815798 108.345368 16.775328 108.255109 16.696668 108.165424 16.617438 108.090687 16.538208 108.031473 16.459548L104.883902 12.390318 104.883902 16.300518zM115.060243 14.023596L113.992656 14.023596C113.752348 14.023596 113.579304 13.982556 113.472947 13.899906 113.366591 13.817826 113.3137 13.670196 113.3137 13.459296 113.3137 13.247826 113.37004 13.096776 113.482721 13.003296 113.595976 12.910956 113.768445 12.865356 114.002429 12.865356L115.670211 12.865356C115.942138 12.865356 116.124955 12.934326 116.219814 13.073406 116.312947 13.211916 116.358939 13.453026 116.358939 13.795596 116.358939 14.212266 116.307773 14.607846 116.204291 14.984046 116.100235 15.360246 115.93064 15.691986 115.694931 15.978696 115.458648 16.265976 115.153377 16.493976 114.781417 16.662126 114.407733 16.830846 113.952413 16.914636 113.413158 16.914636 112.886551 16.914636 112.414559 16.827996 111.994883 16.656996 111.575206 16.485996 111.217619 16.243176 110.922121 15.929106 110.624899 15.615606 110.399538 15.237696 110.242591 14.795376 110.085069 14.353626 110.006883 13.858866 110.006883 13.310526 110.006883 12.789546 110.083919 12.304476 110.233393 11.854746 110.382291 11.406156 110.599603 11.016846 110.887053 10.686816 111.172777 10.356786 111.523466 10.096296 111.939692 9.904776 112.355344 9.713826 112.830211 9.617496 113.363142 9.617496 113.668988 9.617496 113.955862 9.642006 114.22204 9.692166 114.487644 9.741756 114.771644 9.852336 115.070591 10.023336 115.24996 10.136196 115.41553 10.256466 115.570178 10.384716 115.723101 10.514106 115.845555 10.642356 115.938688 10.770606 116.031822 10.899996 116.082988 11.025396 116.093336 11.147376 116.103109 11.269356 116.048494 11.373666 115.928915 11.459166 115.869126 11.512746 115.797838 11.558916 115.715053 11.598246 115.631692 11.637576 115.543733 11.660376 115.450599 11.667216 115.356316 11.674056 115.263182 11.663796 115.170049 11.637576 115.076915 11.611356 114.99068 11.558916 114.910769 11.479116 114.645166 11.195826 114.392785 11.002026 114.157077 10.899996 113.921368 10.797966 113.641968 10.746096 113.323474 10.746096 113.042923 10.746096 112.780194 10.805946 112.534138 10.924506 112.287506 11.043066 112.074794 11.211786 111.895425 11.429526 111.716057 11.647836 111.571757 11.911746 111.465401 12.221256 111.359045 12.531906 111.306154 12.878466 111.306154 13.261506 111.306154 13.650816 111.35732 14.000226 111.460227 14.310876 111.563134 14.620956 111.709158 14.884866 111.895425 15.102606 112.081117 15.320916 112.303603 15.489066 112.564607 15.607626 112.823312 15.726756 113.109036 15.786036 113.422931 15.786036 113.648866 15.786036 113.859854 15.741576 114.057619 15.651516 114.25366 15.563166 114.425555 15.441186 114.575603 15.285576 114.726802 15.130536 114.844656 14.946426 114.930891 14.731536 115.017126 14.517216 115.060243 14.281236 115.060243 14.023596M120.123779 10.964292L120.123779 16.300632C120.123779 16.432872 120.072038 16.551432 119.972581 16.656882 119.872548 16.762332 119.706977 16.815912 119.474143 16.815912 119.24016 16.815912 119.074589 16.759482 118.974556 16.647192 118.875099 16.534902 118.825083 16.419192 118.825083 16.300632L118.825083 10.964292 117.546508 10.964292C117.426929 10.964292 117.310224 10.921542 117.197544 10.836042 117.083139 10.750542 117.026799 10.601202 117.026799 10.389732 117.026799 10.185672 117.07969 10.038612 117.187771 9.949122 117.294127 9.860202 117.413706 9.815742 117.546508 9.815742L121.401204 9.815742C121.533431 9.815742 121.654734 9.860202 121.761666 9.949122 121.867447 10.038612 121.920338 10.185672 121.920338 10.389732 121.920338 10.601202 121.863998 10.750542 121.751317 10.836042 121.636913 10.921542 121.520783 10.964292 121.401204 10.964292L120.123779 10.964292zM122.709099 10.231443C122.709099 10.112883 122.759115 9.997743 122.859147 9.884883 122.958605 9.773163 123.124751 9.717303 123.358734 9.717303 123.590994 9.717303 123.757139 9.769743 123.856597 9.875193 123.956629 9.980643 124.006645 10.099773 124.006645 10.231443L124.006645 13.894833C124.006645 14.171853 124.029641 14.422653 124.077933 14.647803 124.1245 14.871243 124.202686 15.063333 124.311917 15.221223 124.421722 15.380253 124.570621 15.502233 124.759763 15.587733 124.951204 15.673803 125.192087 15.717123 125.484135 15.717123 125.771585 15.717123 126.007293 15.675513 126.19356 15.592293 126.380977 15.510213 126.529301 15.391653 126.638532 15.236043 126.747763 15.081003 126.8225 14.891193 126.862743 14.667183 126.902411 14.442603 126.922532 14.185533 126.922532 13.894833L126.922532 10.231443C126.922532 10.112883 126.969099 9.997743 127.061657 9.884883 127.156516 9.773163 127.325536 9.717303 127.571593 9.717303 127.803852 9.717303 127.971722 9.769743 128.071755 9.875193 128.171212 9.980643 128.221228 10.099773 128.221228 10.231443L128.221228 14.508153C128.221228 14.904303 128.143042 15.249153 127.987245 15.543273 127.829147 15.836823 127.623334 16.083063 127.367504 16.280853 127.109949 16.479213 126.817326 16.625703 126.489058 16.721463 126.158491 16.816653 125.821601 16.865103 125.474362 16.865103 125.135747 16.865103 124.800006 16.816653 124.471164 16.721463 124.142321 16.625703 123.846823 16.480923 123.587544 16.285983 123.32884 16.091613 123.116127 15.847083 122.953431 15.552963 122.790734 15.259983 122.709099 14.911713 122.709099 14.508153L122.709099 10.231443zM77.7272356 22.635099L77.7272356 27.971439C77.7272356 28.104249 77.6754947 28.222809 77.5760372 28.327689 77.4760049 28.433139 77.3098591 28.486719 77.0776 28.486719 76.8436162 28.486719 76.6774704 28.430289 76.578013 28.317999 76.4779806 28.206279 76.4285393 28.089999 76.4285393 27.971439L76.4285393 22.635099 75.1499644 22.635099C75.0303854 22.635099 74.913681 22.592349 74.8010008 22.506849 74.686596 22.421349 74.629681 22.272009 74.629681 22.060539 74.629681 21.856479 74.6831466 21.709989 74.7912275 21.619929 74.8975838 21.531009 75.0165879 21.486549 75.1499644 21.486549L79.0040858 21.486549C79.1368874 21.486549 79.2581911 21.531009 79.3645474 21.619929 79.4709036 21.709989 79.5237943 21.856479 79.5237943 22.060539 79.5237943 22.272009 79.4674543 22.421349 79.3547741 22.506849 79.2397943 22.592349 79.1236648 22.635099 79.0040858 22.635099L77.7272356 22.635099zM83.2387328 27.456957C83.5905709 27.456957 83.884919 27.392547 84.1223522 27.263727 84.3580607 27.134907 84.5489271 26.958777 84.6966761 26.734197 84.8427004 26.509047 84.9461822 26.245707 85.0053968 25.941897 85.0657611 25.638657 85.095081 25.311477 85.095081 24.962067 85.095081 24.611517 85.0623117 24.281487 84.9961984 23.971977 84.9289352 23.661897 84.8231538 23.391147 84.6754049 23.159727 84.5288057 22.928877 84.3379393 22.747047 84.1022308 22.615377 83.8647976 22.483707 83.5773482 22.417017 83.2387328 22.417017 82.8983927 22.417017 82.6109433 22.485417 82.3735101 22.620507 82.1378016 22.755027 81.9469352 22.937427 81.8009109 23.164287 81.652587 23.392857 81.5468057 23.658477 81.4801174 23.961717 81.4134291 24.264957 81.3806599 24.588717 81.3806599 24.931857 81.3806599 25.242507 81.4099798 25.549167 81.4703441 25.853547 81.5295587 26.156217 81.6330405 26.426967 81.7807895 26.664657 81.9268138 26.901777 82.1176802 27.093867 82.3539636 27.238647 82.5908219 27.384567 82.88517 27.456957 83.2387328 27.456957M83.2387328 21.288417C83.7768381 21.288417 84.2453806 21.383037 84.640336 21.570567 85.0370162 21.759237 85.3641336 22.016307 85.6251377 22.342917 85.884417 22.670097 86.0770081 23.054277 86.2029109 23.496027 86.3311134 23.938347 86.3937773 24.417147 86.3937773 24.931857 86.3937773 25.446567 86.3311134 25.927077 86.2029109 26.372817 86.0770081 26.817987 85.884417 27.204447 85.6251377 27.531057 85.3641336 27.857667 85.0370162 28.115307 84.640336 28.303407 84.2453806 28.491507 83.7768381 28.585557 83.2387328 28.585557 82.7190243 28.585557 82.2625547 28.494357 81.8704737 28.313097 81.4772429 28.131837 81.1478259 27.879327 80.880498 27.555567 80.6154696 27.231807 80.4159798 26.845917 80.2826032 26.397327 80.1480769 25.948737 80.0819636 25.460817 80.0819636 24.931857 80.0819636 24.423987 80.1434777 23.946327 80.2630567 23.501157 80.3820607 23.055987 80.5700526 22.670097 80.8258826 22.342917 81.0834372 22.016307 81.4082551 21.759237 81.8055101 21.570567 82.2004656 21.383037 82.6787814 21.288417 83.2387328 21.288417M87.2624494 21.902535C87.2624494 21.783975 87.3124656 21.668835 87.4119231 21.555975 87.5119555 21.443685 87.6781012 21.387825 87.912085 21.387825 88.1443441 21.387825 88.3104899 21.440835 88.4099474 21.546285 88.5094049 21.651735 88.5594211 21.770865 88.5594211 21.902535L88.5594211 25.565925C88.5594211 25.842375 88.5829919 26.093745 88.6307085 26.318325 88.6772753 26.542335 88.7554615 26.734425 88.8646923 26.892315 88.9750729 27.051345 89.1239717 27.172755 89.3131134 27.258255 89.5039798 27.344895 89.7448623 27.387645 90.0374858 27.387645 90.3243603 27.387645 90.5600688 27.346605 90.7469109 27.263385 90.9343279 27.181305 91.0820769 27.062745 91.1913077 26.907135 91.3011134 26.752095 91.3758502 26.562285 91.4160931 26.338275 91.4557611 26.113695 91.4753077 25.856625 91.4753077 25.565925L91.4753077 21.902535C91.4753077 21.783975 91.5218745 21.668835 91.6150081 21.555975 91.7092915 21.443685 91.8788866 21.387825 92.1249433 21.387825 92.3572024 21.387825 92.5250729 21.440835 92.6245304 21.546285 92.7245628 21.651735 92.774004 21.770865 92.774004 21.902535L92.774004 26.179245C92.774004 26.575395 92.6958178 26.920245 92.5400202 27.213795 92.3819231 27.507915 92.1766842 27.754155 91.9208543 27.951945 91.6632996 28.149735 91.3706761 28.296795 91.041834 28.391985 90.7118421 28.487745 90.3743765 28.536195 90.0277126 28.536195 89.6890972 28.536195 89.3533563 28.487745 89.0239393 28.391985 88.6956721 28.296795 88.4001741 28.151445 88.1408947 27.956505 87.8816154 27.762135 87.6694777 27.518175 87.5067814 27.224055 87.344085 26.931075 87.2624494 26.582805 87.2624494 26.179245L87.2624494 21.902535zM95.0511206 24.368184L96.1003109 24.368184C96.4659466 24.368184 96.7447725 24.309474 96.9339142 24.194334 97.1230559 24.079194 97.2184891 23.836374 97.2184891 23.466444 97.2184891 23.295444 97.1880194 23.152944 97.12823 23.041224 97.0684405 22.928934 96.9873798 22.841724 96.883898 22.778454 96.781566 22.715754 96.6602623 22.673004 96.5240113 22.650204 96.3877603 22.626834 96.2463352 22.615434 96.1003109 22.615434L95.0511206 22.615434 95.0511206 24.368184zM93.754149 22.140624C93.754149 22.001544 93.765647 21.889254 93.7892178 21.803754 93.8122138 21.718254 93.8536065 21.651564 93.913396 21.605394 93.9731854 21.559224 94.0576955 21.527874 94.1675012 21.511344 94.276732 21.494814 94.4198818 21.486834 94.5923514 21.486834L96.1003109 21.486834C96.4923919 21.486834 96.8407806 21.518184 97.1437522 21.580314 97.4472988 21.643014 97.6991045 21.751314 97.9020437 21.902364 98.104983 22.054554 98.2590559 22.257474 98.3625377 22.511694 98.4648696 22.765344 98.5166105 23.080554 98.5166105 23.456754 98.5166105 24.031314 98.3855336 24.470214 98.1216551 24.774024 97.8589263 25.077834 97.5053636 25.278474 97.0586672 25.377654 96.9919789 25.390764 96.9258656 25.403874 96.8597522 25.416984 96.7924891 25.431234 96.7229263 25.440924 96.6499142 25.446624L98.6068696 27.358404C98.7390964 27.490074 98.8086591 27.641694 98.8155579 27.813264 98.8224567 27.984834 98.7592178 28.137024 98.6264162 28.268694 98.4930397 28.400364 98.3337927 28.472754 98.1481004 28.487004 97.9606834 28.499544 97.8112097 28.449954 97.6979547 28.337664L95.0511206 25.576014 95.0511206 27.971724C95.0511206 28.103964 94.9976551 28.222524 94.8918737 28.327974 94.7849425 28.433424 94.6159223 28.487004 94.3836632 28.487004 94.1491045 28.487004 93.9864081 28.430004 93.8932745 28.318284 93.8001409 28.205994 93.754149 28.090284 93.754149 27.971724L93.754149 22.140624zM81.3152939 41.882061C81.1635206 42.273651 80.9956502 42.495951 80.8128324 42.548391 80.6288648 42.600831 80.4253506 42.552951 80.2022899 42.404751 80.0907595 42.326091 80.0102737 42.250281 79.963132 42.175611 79.9154154 42.102081 79.8895449 42.019431 79.8855206 41.927661 79.8814964 41.836461 79.8970186 41.733861 79.9332372 41.620431 79.968881 41.507001 80.0148729 41.376471 80.071213 41.228841 80.2143628 40.871451 80.337966 40.514631 80.4414478 40.157241 80.5455045 39.799851 80.6311644 39.432201 80.6995773 39.052581 80.7668405 38.674101 80.8185814 38.275671 80.8548 37.857291 80.8904437 37.439481 80.9163142 36.990321 80.9324113 36.511521 80.9479336 36.180921 81.0042737 35.940951 81.0997069 35.792751 81.1951401 35.645121 81.3871563 35.579571 81.6740308 35.596671 81.9534316 35.614341 82.1328 35.690721 82.2127109 35.825241 82.292047 35.960331 82.3242413 36.223671 82.308719 36.616401 82.3000955 36.685941 82.2937717 36.751491 82.2903223 36.811911 82.2857231 36.872901 82.280549 36.933891 82.2725004 36.994881L84.8089538 36.994881C85.1441198 36.994881 85.4074235 37.107741 85.5988648 37.334601 85.7903061 37.561461 85.8857393 37.948491 85.8857393 38.497971 85.8857393 38.776131 85.875966 39.046311 85.8558445 39.307371 85.8357231 39.569001 85.8006543 39.834621 85.7483385 40.104801 85.6965976 40.374981 85.6304842 40.651431 85.5511482 40.934151 85.4712372 41.218011 85.3712049 41.520681 85.2516259 41.842731 85.1159498 42.217221 84.9607271 42.432681 84.7848081 42.489681 84.609464 42.546111 84.4099741 42.509061 84.1869134 42.378531 83.9954721 42.248001 83.887966 42.090681 83.8643951 41.907711 83.8402494 41.725311 83.899464 41.454561 84.0431887 41.098311 84.2104842 40.679361 84.3369619 40.283211 84.4197474 39.908721 84.5042575 39.534231 84.5462251 39.146631 84.5462251 38.745921 84.5462251 38.658711 84.5341522 38.602281 84.5100065 38.576061 84.4858607 38.549841 84.4180227 38.536731 84.3064923 38.536731L83.6482332 38.536731 83.6482332 38.915781C83.6482332 39.281721 83.6424842 39.621441 83.6304113 39.934941 83.6189134 40.248441 83.6045409 40.548831 83.5884437 40.836681 83.6919255 41.577111 83.8143789 42.234891 83.9535045 42.809451 84.0932049 43.384581 84.2501522 43.898721 84.4260713 44.351871 84.6019903 44.804451 84.7991806 45.205731 85.018217 45.553431 85.2378283 45.902271 85.4792858 46.219761 85.7425895 46.507611 85.870217 46.655811 85.9679498 46.780071 86.035213 46.880391 86.1036259 46.980141 86.1467433 47.071341 86.1668648 47.153991 86.1869862 47.236641 86.1852615 47.319861 86.1616907 47.403081 86.1375449 47.485731 86.0967271 47.583201 86.0415368 47.696631 85.7701846 48.227871 85.3712049 48.219321 84.8451725 47.670411 84.4145733 47.200161 84.0408891 46.690581 83.7258445 46.141671 83.4113749 45.593331 83.1463466 44.965761 82.9307595 44.260101 82.6990753 44.904771 82.3978283 45.499281 82.0270186 46.043631 81.6562089 46.587981 81.1796178 47.143161 80.5972453 47.709741 80.4535206 47.848821 80.3235935 47.946861 80.2080389 48.003861 80.0924842 48.059721 79.9867028 48.086511 79.8906947 48.081951 79.7952615 48.077391 79.7101765 48.044901 79.633715 47.983911 79.5578283 47.923491 79.491715 47.848821 79.4359498 47.761611 79.3008486 47.500551 79.2571563 47.286801 79.3048729 47.121501 79.3531644 46.956201 79.4842413 46.773231 79.6992534 46.572591 80.1229538 46.181001 80.5018121 45.751791 80.8364032 45.286101 81.1715692 44.819841 81.456719 44.288031 81.6918526 43.691811 81.9269862 43.095021 82.1069296 42.424131 82.2305328 41.679711 82.354136 40.934151 82.4162251 40.087701 82.4162251 39.137511 82.4162251 39.068541 82.4179498 38.981331 82.4219741 38.876451 82.4259984 38.771571 82.428298 38.658711 82.428298 38.536731L82.1172777 38.536731C82.0367919 39.163731 81.9327352 39.741711 81.8062575 40.267821 81.67863 40.795641 81.5142089 41.333721 81.3152939 41.882061M76.0860146 47.069631C75.9744842 47.461221 75.8422575 47.703471 75.6910591 47.794671 75.5398607 47.886441 75.3369215 47.871051 75.0810915 47.748501 74.8419336 47.627091 74.7108567 47.474331 74.686136 47.291361 74.6625652 47.108391 74.7056826 46.842771 74.8177879 46.494501 74.9298931 46.145661 75.027051 45.771741 75.1109862 45.371031 75.1949215 44.970321 75.2627595 44.519451 75.3145004 44.018421 75.3662413 43.517391 75.4041846 42.955371 75.4283304 42.332931 75.4524761 41.709921 75.4639741 41.001981 75.4639741 40.209111L75.4639741 37.831071C75.4639741 37.413261 75.5674559 37.088931 75.7749943 36.857511 75.9825328 36.626661 76.2533101 36.498411 76.589051 36.472191 77.1467028 36.428871 77.6152453 36.365601 77.9952534 36.282951 78.3735368 36.200301 78.6943304 36.119361 78.957634 36.040701 79.2686543 35.945511 79.5026381 35.932401 79.6578607 36.001941 79.8136583 36.071481 79.9274883 36.232791 79.9987757 36.485301 80.071213 36.764031 80.0568405 36.977211 79.9568081 37.125411 79.8567757 37.274181 79.6877555 37.387041 79.4485976 37.465131 79.1134316 37.587111 78.7868891 37.685151 78.4678202 37.759821 78.1481765 37.833351 77.7652939 37.888071 77.3191725 37.922841 77.111634 37.939941 76.9776826 37.983831 76.9178931 38.053371 76.8581036 38.122911 76.827634 38.245461 76.827634 38.419311L76.827634 39.386601 79.400881 39.386601C79.6797069 39.386601 79.8814964 39.449301 80.0050996 39.575271 80.1287028 39.701811 80.1907919 39.891621 80.1907919 40.143561 80.1907919 40.422861 80.1287028 40.621221 80.0050996 40.738641 79.8814964 40.856061 79.6797069 40.914771 79.400881 40.914771L78.9817798 40.914771 78.9817798 47.396241C78.9817798 47.692071 78.9173911 47.892141 78.7903385 47.997021 78.6632858 48.101901 78.4994397 48.153771 78.2999498 48.153771 78.0929862 48.153771 77.9251158 48.101901 77.7974883 47.997021 77.6692858 47.892141 77.606047 47.692071 77.606047 47.396241L77.606047 40.914771 76.816136 40.914771C76.8080874 41.603331 76.7885409 42.234891 76.7563466 42.809451 76.7241522 43.384581 76.6787352 43.918671 76.6183709 44.410581 76.5591563 44.902491 76.4855692 45.366471 76.3970348 45.801951 76.3090753 46.237431 76.2055935 46.659801 76.0860146 47.069631M96.7864526 44.508279C96.6030599 44.211879 96.5294729 43.977039 96.5651166 43.802619 96.6007603 43.628769 96.6864202 43.480569 96.8226713 43.358589 97.006064 43.236609 97.1854324 43.186449 97.3607765 43.208109 97.5361206 43.230339 97.7039911 43.367139 97.863813 43.619649 98.158736 44.116689 98.4421611 44.647929 98.7135134 45.213939 98.9837158 45.780519 99.2234486 46.324869 99.4315619 46.847559 99.5425174 47.161059 99.5885093 47.393619 99.5683879 47.546379 99.5488413 47.698569 99.4551328 47.840499 99.2878372 47.971029 98.7922745 48.249759 98.4461854 48.114669 98.2461206 47.565759 98.2305984 47.522439 98.2116267 47.485389 98.1920802 47.455179 98.1725336 47.424399 98.1547117 47.386779 98.1391895 47.344029L93.0168413 47.709399C92.6586794 47.726499 92.3729547 47.653539 92.1619668 47.487669 91.950404 47.321799 91.8446227 47.090949 91.8446227 46.795119 91.8446227 46.490169 91.9642016 46.185219 92.2039344 45.880269 92.6983474 45.218499 93.1254972 44.632539 93.4836591 44.122959 93.8429709 43.613379 94.1700883 43.115199 94.4650113 42.626709 94.6167846 42.357099 94.7881045 42.187239 94.9795457 42.117129 95.170987 42.047589 95.3704769 42.086919 95.5780154 42.235119 95.7930275 42.382749 95.8993838 42.567999 95.8953595 42.790299 95.8907603 43.012029 95.8091247 43.236609 95.6493028 43.463469 95.3865741 43.872159 95.1232704 44.259759 94.8599668 44.625699 94.5966632 44.991639 94.3057644 45.396909 93.9866955 45.840939 93.8906874 45.962919 93.8527441 46.056969 93.8734405 46.121949 93.892987 46.187499 93.9826713 46.202319 94.1419182 46.167549L97.5165741 45.971469C97.3803231 45.710409 97.2532704 45.451059 97.1336915 45.193989 97.0141126 44.937489 96.897983 44.708919 96.7864526 44.508279zM98.0196105 36.654819C98.6491247 36.654819 99.0940964 36.768819 99.3528008 36.994539 99.6120802 37.221399 99.7425822 37.582779 99.7425822 38.079249 99.7425822 38.210349 99.7201611 38.382489 99.6758939 38.595669 99.6322016 38.808849 99.5540154 39.055089 99.4430599 39.333819 99.323481 39.639339 99.1918291 39.821739 99.0481045 39.882729 98.9049547 39.943719 98.7163879 39.926619 98.4858534 39.830289 98.2139263 39.708309 98.0627279 39.569229 98.0311085 39.412479 97.9989142 39.255159 98.0627279 39.024309 98.2225498 38.719359 98.3099344 38.545509 98.3340802 38.405859 98.2944121 38.301549 98.2541692 38.196669 98.1627603 38.144799 98.0196105 38.144799L90.4447441 38.144799C90.3734567 38.144799 90.3171166 38.157909 90.2774486 38.183559 90.2372057 38.210349 90.2176591 38.262219 90.2176591 38.340879L90.2176591 38.941659C90.2176591 39.194739 90.1618939 39.383979 90.0497887 39.509949 89.9382583 39.637059 89.7554405 39.699759 89.4996105 39.699759 89.2598777 39.699759 89.0828089 39.647319 88.9672543 39.543009 88.8511247 39.438129 88.7936348 39.247179 88.7936348 38.967879L88.7936348 37.883169C88.7936348 37.482459 88.8815943 37.177509 89.0569385 36.968889 89.2322826 36.759699 89.5231814 36.654819 89.9302097 36.654819L93.4002988 36.654819C93.3686794 36.551079 93.3525822 36.439359 93.3525822 36.321939 93.3525822 36.204519 93.3686794 36.091089 93.4002988 35.981649 93.4319182 35.873349 93.4836591 35.773029 93.5560964 35.681259 93.6273838 35.590059 93.7193676 35.522799 93.830898 35.478909 94.0781045 35.375169 94.2781692 35.367759 94.4293676 35.459529 94.5811409 35.550729 94.7007198 35.727429 94.7881045 35.988489 94.8042016 36.040929 94.8220235 36.138969 94.8421449 36.283179 94.8616915 36.426249 94.8800883 36.551079 94.8961854 36.654819L98.0196105 36.654819zM89.8106308 47.173599C89.6669061 47.313249 89.5398534 47.415849 89.4271733 47.480829 89.3156429 47.546379 89.2138858 47.578869 89.1230518 47.578869 89.031068 47.578869 88.9431085 47.546379 88.8597482 47.480829 88.7752381 47.415849 88.6855538 47.321799 88.5901206 47.200389 88.4222502 46.973529 88.3590113 46.764339 88.3986794 46.572819 88.4383474 46.380729 88.5981692 46.167549 88.87757 45.932709 89.2121611 45.653979 89.5375538 45.346749 89.8525984 45.011019 90.1676429 44.675859 90.4734891 44.321319 90.7678372 43.946829 91.0633352 43.571769 91.3398615 43.184169 91.5997158 42.783459 91.8589951 42.382749 92.0964283 41.978049 92.3114405 41.568219L89.4996105 41.568219C89.2288332 41.568219 89.0448656 41.504949 88.9488575 41.378979 88.8528494 41.253009 88.8057077 41.071749 88.8057077 40.836339 88.8057077 40.610619 88.8528494 40.435629 88.9488575 40.313649 89.0448656 40.192239 89.2288332 40.130679 89.4996105 40.130679L92.8857644 40.130679C93.0133919 39.773859 93.120898 39.429579 93.2088575 39.098979 93.2726713 38.811129 93.3801773 38.601939 93.5319506 38.471409 93.6837239 38.340879 93.898736 38.323209 94.1781368 38.418969 94.4333919 38.488509 94.5949385 38.611059 94.6627765 38.784909 94.7300397 38.959329 94.7007198 39.238059 94.5725174 39.621669 94.5414729 39.717429 94.5133028 39.806349 94.4891571 39.889569 94.4650113 39.972219 94.4374162 40.052589 94.4052219 40.130679L98.8440154 40.130679C99.1395134 40.130679 99.3252057 40.203069 99.4010923 40.346139 99.4769789 40.490349 99.5143474 40.675599 99.5143474 40.901889 99.5143474 41.136729 99.4769789 41.307159 99.4010923 41.411469 99.3252057 41.516349 99.1395134 41.568219 98.8440154 41.568219L93.830898 41.568219C93.3525822 42.648369 92.779983 43.656699 92.1136753 44.593209 91.4479425 45.529719 90.6804526 46.385289 89.8106308 47.161059L89.8106308 47.173599zM113.227236 44.730408C113.346815 45.000588 113.40258 45.207498 113.394531 45.351138 113.386483 45.494778 113.278977 45.628158 113.071438 45.749568 112.840329 45.871548 112.650612 45.904608 112.502863 45.847608 112.355114 45.791178 112.222313 45.644688 112.102159 45.409848 111.967057 45.122568 111.829082 44.859228 111.689381 44.619828 111.550256 44.379858 111.376062 44.089728 111.169098 43.750008 111.009276 43.488948 110.933964 43.271208 110.941438 43.096788 110.949487 42.922938 111.057568 42.774738 111.264531 42.652758 111.488742 42.522228 111.67156 42.485178 111.815284 42.541608 111.959009 42.598608 112.110207 42.753078 112.270029 43.005588 112.429276 43.258098 112.583349 43.517448 112.730523 43.783068 112.878272 44.049258 113.043268 44.364468 113.227236 44.730408zM109.493843 37.256568C109.215017 37.561518 108.931017 37.840248 108.644143 38.092758 108.356693 38.345268 108.062345 38.589228 107.758798 38.824068L111.623843 38.824068C111.345017 38.615448 111.047219 38.384598 110.732175 38.131518 110.41713 37.879578 110.115883 37.595718 109.829009 37.282218 109.749098 37.195008 109.687584 37.151688 109.643891 37.151688 109.599049 37.151688 109.549608 37.187028 109.493843 37.256568zM107.974385 43.554498C107.814564 43.886238 107.649568 44.186058 107.477673 44.456238 107.305778 44.725848 107.096515 45.017688 106.849309 45.331758 106.665916 45.558048 106.50092 45.688578 106.353171 45.723918 106.205422 45.758688 106.039851 45.688578 105.856458 45.514158 105.696636 45.366528 105.6173 45.209778 105.6173 45.043908 105.6173 44.878608 105.708709 44.682528 105.892102 44.456238 106.011681 44.316588 106.111713 44.195178 106.191624 44.089728 106.27096 43.985418 106.341098 43.881108 106.400887 43.776798 106.460677 43.671918 106.520466 43.559058 106.580256 43.436508 106.640045 43.314528 106.714207 43.175448 106.801592 43.018698 106.921171 42.783288 107.056847 42.626538 107.208045 42.548448 107.359819 42.470358 107.527114 42.487458 107.711082 42.600888 107.942191 42.731418 108.072118 42.870498 108.099713 43.018698 108.127883 43.166898 108.085916 43.345878 107.974385 43.554498zM110.390685 44.756058C110.390685 45.253098 110.289503 45.614478 110.086564 45.841338 109.883049 46.067628 109.501891 46.181058 108.943665 46.181058 108.759697 46.181058 108.60275 46.171938 108.471673 46.154838 108.339446 46.137168 108.193422 46.106958 108.034175 46.063638 107.762823 45.992958 107.595527 45.880098 107.531713 45.723918 107.467325 45.566598 107.459851 45.375078 107.507568 45.148218 107.531713 45.043908 107.557584 44.954988 107.585179 44.880888 107.613349 44.806788 107.651292 44.752638 107.699584 44.717868 107.7473 44.682528 107.812839 44.663148 107.896774 44.658588 107.980134 44.654598 108.093389 44.665428 108.237114 44.691078 108.421657 44.725848 108.566531 44.750358 108.674037 44.763468 108.782693 44.776008 108.865479 44.776008 108.925843 44.763468 108.985057 44.750358 109.023576 44.723568 109.039098 44.684808 109.055195 44.645478 109.063244 44.591328 109.063244 44.521218L109.063244 42.273708 106.442855 42.273708C106.307179 42.273708 106.197373 42.256608 106.113438 42.221838 106.030078 42.187068 105.967989 42.141468 105.928896 42.084468 105.888078 42.027468 105.862207 41.960208 105.850134 41.882118 105.838062 41.803458 105.832887 41.721378 105.832887 41.633598 105.832887 41.529288 105.838062 41.437518 105.850134 41.359428 105.862207 41.281338 105.888078 41.213508 105.928896 41.156508 105.967989 41.100648 106.030078 41.056758 106.113438 41.025978 106.197373 40.995768 106.307179 40.980378 106.442855 40.980378L109.063244 40.980378 109.063244 40.117968 107.471349 40.117968C107.272434 40.117968 107.129284 40.060968 107.04075 39.948108 106.95279 39.834678 106.897025 39.725808 106.873454 39.621498 106.745827 39.699588 106.614175 39.765138 106.478499 39.817578 106.342823 39.870018 106.21577 39.900228 106.096191 39.908778 105.976612 39.917898 105.865657 39.900228 105.766774 39.856908 105.667317 39.813018 105.593155 39.734928 105.545438 39.621498 105.441381 39.421428 105.413786 39.247008 105.461503 39.098808 105.509794 38.950608 105.648345 38.811528 105.880604 38.680998 106.167479 38.523678 106.432507 38.356098 106.675689 38.177688 106.919446 37.998708 107.15458 37.805478 107.38224 37.595718 107.6099 37.387098 107.83641 37.157958 108.064645 36.910008 108.291155 36.661488 108.528588 36.385608 108.775794 36.080658 108.99943 35.819028 109.270782 35.688498 109.589851 35.688498 109.741624 35.688498 109.886499 35.716428 110.026199 35.773428 110.1659 35.829858 110.299851 35.923338 110.427479 36.053868 110.953511 36.602778 111.44275 37.073028 111.892896 37.465188 112.343616 37.857348 112.808134 38.197068 113.287025 38.484348 113.581948 38.667318 113.743495 38.859408 113.77109 39.059478 113.79926 39.259548 113.742345 39.456198 113.59862 39.647718 113.502612 39.778248 113.406604 39.865458 113.311171 39.908778 113.215163 39.952668 113.121454 39.968058 113.02947 39.954948 112.937487 39.941268 112.846653 39.902508 112.754669 39.837528 112.662685 39.771978 112.564952 39.691608 112.46147 39.595278 112.421228 39.699588 112.359138 39.813018 112.276353 39.934998 112.191843 40.056978 112.066515 40.117968 111.898645 40.117968L110.390685 40.117968 110.390685 40.980378 112.796636 40.980378C113.051891 40.980378 113.220912 41.039088 113.304847 41.156508 113.388782 41.274498 113.43075 41.433528 113.43075 41.633598 113.43075 41.808018 113.388782 41.957928 113.304847 42.084468 113.220912 42.211008 113.051891 42.273708 112.796636 42.273708L110.390685 42.273708 110.390685 44.756058zM105.114839 38.602338C104.947543 38.776188 104.773349 38.846298 104.593981 38.811528 104.415187 38.776188 104.221446 38.645658 104.013908 38.419368 103.837989 38.227848 103.676442 38.055708 103.529268 37.902948 103.381519 37.750758 103.195827 37.561518 102.972766 37.334658 102.565738 36.933948 102.537568 36.528678 102.889406 36.119418 103.048653 35.936448 103.216523 35.847528 103.391867 35.851518 103.566636 35.856078 103.762677 35.967228 103.977689 36.184398 104.184653 36.385608 104.374944 36.576558 104.545689 36.759528 104.717584 36.942498 104.895228 37.147128 105.07862 37.373988 105.27811 37.617378 105.383317 37.833408 105.395389 38.020938 105.407462 38.207898 105.313754 38.401698 105.114839 38.602338zM113.88607 47.252658C113.88607 47.548488 113.837778 47.750838 113.742345 47.859708 113.646337 47.969148 113.466968 48.023298 113.20309 48.023298L107.7473 48.023298C107.3236 48.023298 106.961989 48.001638 106.658442 47.958318 106.354896 47.914428 106.088143 47.846598 105.856458 47.755968 105.624774 47.663628 105.42356 47.548488 105.25224 47.408838 105.080345 47.269758 104.918798 47.099898 104.7676 46.899828 104.607778 47.177988 104.432434 47.415678 104.240993 47.611758 104.050126 47.807838 103.833964 47.988528 103.594806 48.153828L103.606879 48.153828C103.399341 48.302028 103.198126 48.356748 103.002661 48.316848 102.807195 48.278658 102.650248 48.153828 102.530094 47.944638L102.542167 47.971428C102.406491 47.744568 102.356474 47.535378 102.392693 47.343858 102.428337 47.152338 102.597932 46.960818 102.900904 46.768728 103.020483 46.690068 103.140062 46.588038 103.25964 46.462068 103.379794 46.335528 103.487875 46.194168 103.583309 46.036848 103.678742 45.880098 103.754053 45.719358 103.810394 45.553488 103.866159 45.388188 103.894329 45.226878 103.894329 45.070128L103.894329 41.385078C103.894329 41.237448 103.872483 41.135418 103.828215 41.078418 103.783948 41.021418 103.702887 40.993488 103.583309 40.993488L103.03313 40.993488C102.769827 40.993488 102.589309 40.934208 102.49445 40.816788 102.398442 40.699368 102.350726 40.505568 102.350726 40.235388 102.350726 39.965778 102.398442 39.767418 102.49445 39.640878 102.589309 39.514908 102.769827 39.451638 103.03313 39.451638L104.144985 39.451638C104.369195 39.451638 104.553738 39.470448 104.702062 39.510348 104.849236 39.549678 104.96709 39.626058 105.054474 39.739488 105.142434 39.852348 105.204523 40.004538 105.239592 40.196058 105.276385 40.388148 105.293632 40.632108 105.293632 40.928508L105.293632 44.952708 105.293632 45.141948C105.293632 45.198378 105.289608 45.253098 105.282134 45.305538 105.521867 45.731898 105.830588 46.039128 106.209446 46.226658 106.58773 46.414188 107.101114 46.507668 107.7473 46.507668L113.20309 46.507668C113.466968 46.507668 113.646337 46.564098 113.742345 46.677528 113.837778 46.790388 113.88607 46.982478 113.88607 47.252658zM123.147057 40.92828C123.034951 40.95393 122.949291 40.98528 122.889502 41.01948 122.829713 41.05425 122.799818 41.10669 122.799818 41.17623L122.799818 45.89355C122.791769 46.01496 122.811316 46.09191 122.859607 46.12212 122.907324 46.15233 122.967113 46.14549 123.039551 46.10217 123.151081 46.03263 123.260312 45.96309 123.368393 45.89355 123.475324 45.82401 123.60985 45.72825 123.769097 45.60627L123.757024 45.60627C123.980085 45.4233 124.175551 45.32982 124.343421 45.32526 124.510717 45.3207 124.673988 45.44496 124.83381 45.69747 124.94534 45.89754 124.985008 46.08963 124.953389 46.27203 124.921769 46.455 124.762522 46.65108 124.475073 46.86027 124.164053 47.08656 123.884077 47.28492 123.637445 47.45535 123.389664 47.62464 123.102789 47.79678 122.775672 47.9712 121.913899 48.41523 121.4833 47.95809 121.4833 46.59921L121.4833 41.0457C121.4833 40.65354 121.581032 40.30983 121.776498 40.01343 121.971964 39.71703 122.265162 39.54261 122.656093 39.49074 122.967113 39.45597 123.285607 39.4098 123.613874 39.35394 123.940417 39.29694 124.253737 39.23139 124.552684 39.15729 124.851632 39.08376 125.127008 39.00681 125.378814 38.92872 125.628895 38.85006 125.838733 38.77197 126.006603 38.69388 126.293478 38.56335 126.520563 38.50635 126.688433 38.52402 126.855729 38.54112 126.999453 38.67165 127.119032 38.91618 127.24666 39.20289 127.278854 39.42975 127.21504 39.59505 127.151227 39.76092 126.927591 39.90456 126.544709 40.02597 126.193445 40.14852 125.872652 40.25511 125.581178 40.34631 125.290854 40.43808 124.956838 40.52757 124.582579 40.61421 124.645818 40.91916 124.715955 41.20473 124.791267 41.47035 124.867729 41.73597 124.94534 41.98221 125.025826 42.2085 125.328798 42.05175 125.617397 41.88189 125.892198 41.69949 126.16815 41.51652 126.385462 41.35065 126.544709 41.20188L126.544709 41.21556C126.943688 40.84962 127.282304 40.87584 127.562279 41.29422L127.549632 41.26743C127.709453 41.48574 127.773267 41.67498 127.741073 41.83629 127.709453 41.99703 127.566304 42.18228 127.310474 42.39147 126.784441 42.80073 126.181372 43.18434 125.504142 43.54116 125.799065 44.22972 126.118134 44.859 126.460773 45.429 126.803988 45.99957 127.142603 46.45956 127.478344 46.80783 127.669785 47.01759 127.775567 47.21538 127.795113 47.40291 127.81466 47.58987 127.768668 47.77056 127.657713 47.94498 127.354166 48.35424 126.999453 48.33714 126.592425 47.89254L126.592425 47.90565C126.241737 47.53116 125.904846 47.09112 125.581178 46.58553 125.25866 46.08051 124.956838 45.52704 124.678012 44.92626 124.399186 44.32548 124.145656 43.6848 123.917996 43.00593 123.690911 42.32592 123.493721 41.62026 123.326425 40.88895L123.147057 40.92828zM121.207923 37.94832C121.207923 38.09709 121.19585 38.21508 121.172279 38.30172 121.332101 38.02299 121.475826 37.72659 121.602879 37.41309 121.730506 37.09959 121.842611 36.75987 121.93747 36.39393 122.026004 36.04566 122.135235 35.82336 122.267462 35.7276 122.398538 35.63127 122.588255 35.61873 122.835462 35.68827 123.122336 35.7846 123.283883 35.90202 123.320101 36.0411 123.35632 36.18075 123.326425 36.40704 123.230417 36.72054 123.222368 36.72909 123.218344 36.7422 123.218344 36.75987L127.095462 36.75987C127.342093 36.75987 127.510538 36.81402 127.597348 36.92289 127.685883 37.03233 127.729575 37.21245 127.729575 37.46553 127.729575 37.69182 127.685883 37.86795 127.597348 37.99506 127.510538 38.12103 127.342093 38.18373 127.095462 38.18373L122.691737 38.18373C122.556061 38.4978 122.408312 38.80047 122.249065 39.09231 122.089243 39.38415 121.910449 39.68682 121.71096 40.00032 121.551138 40.23573 121.379818 40.36626 121.19585 40.39248 121.013032 40.41813 120.829065 40.33149 120.645672 40.13085L120.657745 40.15707C120.481826 39.98265 120.412263 39.81108 120.448482 39.64065 120.484126 39.47079 120.585883 39.25989 120.753753 39.00681 120.809518 38.92872 120.859534 38.85006 120.903802 38.77197 120.946919 38.69388 120.988312 38.61978 121.028555 38.54967 120.932547 38.62833 120.781348 38.66709 120.57381 38.66709L118.672045 38.66709 118.672045 39.75237 119.509097 39.75237C119.740206 39.75237 119.935672 39.77631 120.095494 39.82362 120.255316 39.87207 120.384668 39.95928 120.484126 40.08525 120.583583 40.21122 120.660045 40.38165 120.711785 40.5954 120.763526 40.80858 120.792846 41.08104 120.80147 41.41164 120.809518 41.80323 120.807794 42.21306 120.795146 42.63999 120.783648 43.06635 120.763526 43.48929 120.735356 43.9071 120.707761 44.32548 120.675567 44.73474 120.639923 45.13545 120.604279 45.53616 120.566336 45.90666 120.525518 46.24638 120.3427 47.77056 119.584984 48.25449 118.252943 47.69646 117.829818 47.49639 117.718287 47.1561 117.917202 46.6773 118.005737 46.47723 118.125316 46.34442 118.276514 46.27887 118.428287 46.21389 118.584085 46.22814 118.743332 46.32447 118.902579 46.42935 119.019858 46.4379 119.09632 46.35069 119.172206 46.26348 119.233721 45.99786 119.281437 45.55383 119.313632 45.23121 119.344101 44.89377 119.371696 44.54094 119.399291 44.18811 119.421713 43.83528 119.437235 43.48245 119.453332 43.12962 119.467704 42.78591 119.479202 42.45018 119.491275 42.11502 119.496449 41.79468 119.496449 41.48973 119.496449 41.38542 119.479202 41.3136 119.443559 41.27427 119.40734 41.23494 119.345826 41.21556 119.257866 41.21556L118.659397 41.21556C118.627777 42.43536 118.516247 43.56738 118.324231 44.61276 118.132789 45.65814 117.869486 46.6032 117.534895 47.44851 117.423364 47.74434 117.261243 47.94042 117.050255 48.03618 116.838117 48.13194 116.649551 48.12339 116.482255 48.00996 116.378773 47.94042 116.296563 47.87316 116.236198 47.80818 116.176984 47.74206 116.13904 47.66397 116.122943 47.57277 116.106846 47.481 116.112595 47.37441 116.140765 47.25243 116.16836 47.13045 116.218377 46.98282 116.290239 46.80783 116.489729 46.31193 116.6553 45.82857 116.786951 45.35775 116.918603 44.8875 117.024385 44.3973 117.103721 43.88772 117.183632 43.37814 117.241696 42.83835 117.277915 42.26778 117.314134 41.69721 117.331381 41.07135 117.331381 40.39248L117.331381 38.66709 116.76913 38.66709C116.513874 38.66709 116.34198 38.61294 116.254595 38.50407 116.166061 38.39577 116.122943 38.20995 116.122943 37.94832 116.122943 37.66104 116.166061 37.46781 116.254595 37.36749 116.34198 37.26717 116.513874 37.21701 116.76913 37.21701L117.989065 37.21701C117.90168 37.07793 117.829818 36.94683 117.773478 36.82485 117.5027 36.34605 117.558466 35.97612 117.941923 35.71449 118.140838 35.56629 118.328255 35.52468 118.504174 35.59023 118.679518 35.65521 118.823243 35.79771 118.934773 36.01488 118.991113 36.11064 119.06815 36.26796 119.168182 36.48513 119.26764 36.70344 119.373421 36.94683 119.484951 37.21701L120.57381 37.21701C120.837113 37.21701 121.009008 37.26717 121.088344 37.36749 121.16883 37.46781 121.207923 37.66104 121.207923 37.94832zM137.540855 44.665257C137.325843 44.665257 137.186717 44.604267 137.121754 44.482287 137.058515 44.360307 137.026321 44.199567 137.026321 43.998927 137.026321 43.789737 137.058515 43.619877 137.121754 43.489347 137.186717 43.358817 137.325843 43.293267 137.540855 43.293267L138.989025 43.293267C138.82173 43.057857 138.646385 42.857787 138.462993 42.691917 138.374458 42.596157 138.300871 42.494127 138.241082 42.385257 138.181292 42.275817 138.151398 42.156117 138.151398 42.025587 138.151398 41.773077 138.283049 41.524557 138.546353 41.281167L138.53428 41.281167C138.598094 41.211057 138.665932 41.148357 138.737219 41.091357 138.809657 41.034357 138.87692 40.976217 138.941309 40.914657 139.124701 40.758477 139.220709 40.655877 139.228758 40.607997 139.236232 40.560117 139.183916 40.536177 139.07296 40.536177L138.043891 40.536177C137.828304 40.536177 137.686304 40.492857 137.619041 40.405647 137.551778 40.318437 137.517284 40.148577 137.517284 39.895497 137.517284 39.669207 137.556952 39.506187 137.636863 39.405297 137.716774 39.306117 137.851875 39.255387 138.043891 39.255387L140.292896 39.255387C140.52458 39.255387 140.703948 39.329487 140.832151 39.477687 140.959203 39.625887 141.023017 39.812847 141.023017 40.039707 141.023017 40.309887 140.927584 40.561827 140.736143 40.797237 140.584369 40.971657 140.434896 41.130687 140.287147 41.274327 140.139398 41.417967 139.9859 41.554767 139.826653 41.685297 139.659357 41.834067 139.565074 41.934387 139.544952 41.986827 139.524831 42.038697 139.551276 42.099687 139.623138 42.169797 139.774337 42.308307 139.912313 42.474747 140.035916 42.665697 140.160094 42.857787 140.2653 43.066407 140.35326 43.293267L141.058661 43.293267C141.266199 43.293267 141.408199 43.358817 141.483511 43.489347 141.559398 43.619877 141.597341 43.785177 141.597341 43.985247 141.597341 44.177337 141.559398 44.338077 141.483511 44.469177 141.408199 44.599707 141.266199 44.665257 141.058661 44.665257L140.556199 44.665257C140.564248 44.760447 140.568847 44.848227 140.568847 44.926317L140.568847 45.148617C140.568847 45.392577 140.552175 45.636537 140.52113 45.879927 140.488361 46.124457 140.440645 46.367847 140.377406 46.612377 140.217009 47.160717 139.989924 47.568267 139.695001 47.833887 139.399503 48.099507 139.048815 48.232317 138.641786 48.232317 138.243381 48.232317 137.800134 48.079557 137.31377 47.774607 137.129802 47.653197 137.006199 47.508987 136.94296 47.343687 136.879147 47.178387 136.890645 47.003967 136.978604 46.820997 137.090709 46.603257 137.221786 46.470447 137.37356 46.422567 137.525333 46.374687 137.680555 46.407177 137.840377 46.520607 137.976053 46.607817 138.10943 46.677357 138.241082 46.729797 138.372159 46.782237 138.487138 46.807887 138.581997 46.807887 138.733195 46.807887 138.853349 46.777677 138.941309 46.716687 139.028693 46.655697 139.116653 46.525167 139.204612 46.324527 139.276474 46.150107 139.325916 45.964857 139.353511 45.769347 139.381681 45.573267 139.396053 45.366357 139.396053 45.148617L139.396053 44.926317C139.396053 44.848227 139.392029 44.760447 139.383981 44.665257L137.540855 44.665257zM137.421276 39.660657C137.245932 39.939387 137.075762 40.085307 136.912491 40.098417 136.749219 40.110957 136.595721 40.035147 136.451997 39.869847 136.340466 39.703977 136.288151 39.554067 136.296774 39.418977 136.304823 39.283887 136.384159 39.103197 136.535932 38.876337 136.719325 38.580507 136.88892 38.225397 137.044717 37.811577 137.19994 37.397757 137.345964 36.903567 137.481066 36.328437 137.528782 36.110697 137.615017 35.949387 137.73862 35.845077 137.862798 35.740767 137.999624 35.700867 138.151398 35.727657 138.335365 35.788647 138.469891 35.899797 138.558426 36.060537 138.646385 36.221847 138.657883 36.411657 138.59407 36.628827 138.577972 36.707487 138.559576 36.781587 138.540604 36.851127 138.519908 36.921237 138.498636 36.990207 138.474491 37.060317L140.9753 37.060317C141.174215 37.060317 141.313916 37.112187 141.393827 37.217067 141.473738 37.321947 141.513981 37.478127 141.513981 37.687317 141.513981 37.895937 141.473738 38.053257 141.393827 38.157567 141.313916 38.262447 141.174215 38.314317 140.9753 38.314317L138.067462 38.314317C137.955932 38.593617 137.847851 38.839287 137.744369 39.052467 137.640887 39.266217 137.532806 39.464577 137.421276 39.647547L137.421276 39.660657zM132.862329 37.792197C132.862329 37.565337 132.898547 37.402317 132.97041 37.301997 133.042272 37.201677 133.205543 37.151517 133.460798 37.151517L134.154701 37.151517C134.114458 37.029537 134.071341 36.916677 134.023624 36.811797 133.975908 36.707487 133.93164 36.607167 133.891398 36.511407 133.827584 36.354087 133.821835 36.206457 133.873576 36.066807 133.925891 35.927727 134.055244 35.818857 134.262782 35.740767 134.421454 35.679777 134.569203 35.672937 134.705454 35.720817 134.840555 35.768697 134.948062 35.902077 135.028547 36.119247 135.091786 36.275997 135.149851 36.424197 135.201592 36.563847 135.253333 36.703497 135.311398 36.899007 135.375211 37.151517L135.973106 37.151517C136.181219 37.151517 136.330693 37.203957 136.422677 37.308267 136.514086 37.413147 136.559503 37.574457 136.559503 37.792197 136.559503 38.018487 136.518685 38.179797 136.434175 38.275557 136.35024 38.371317 136.196742 38.419197 135.973106 38.419197L134.669236 38.419197 134.669236 39.974727 135.279778 39.974727C135.535033 39.974727 135.742572 39.991827 135.901819 40.026027 136.06164 40.060797 136.185244 40.130907 136.272628 40.235787 136.360588 40.340097 136.420377 40.492857 136.451997 40.692927 136.484191 40.892997 136.499713 41.154627 136.499713 41.476677 136.499713 41.860287 136.497989 42.271827 136.493964 42.711297 136.48994 43.151337 136.481891 43.595937 136.470394 44.044527 136.458321 44.493117 136.440499 44.928597 136.416353 45.350967 136.392207 45.773907 136.364612 46.159227 136.332418 46.507497 136.284126 46.925307 136.199041 47.254197 136.075438 47.493597 135.95126 47.733567 135.798337 47.898867 135.614369 47.990637 135.430977 48.081837 135.219989 48.109767 134.980256 48.075567 134.741673 48.040797 134.482394 47.962137 134.202418 47.840727 134.0196 47.762067 133.907495 47.659467 133.867827 47.533497 133.827584 47.406957 133.839657 47.230257 133.90347 47.003967 133.967284 46.768557 134.067317 46.613517 134.202418 46.539987 134.338669 46.465887 134.462272 46.463607 134.573802 46.533147 134.780766 46.638027 134.920466 46.679637 134.992329 46.657977 135.064191 46.635747 135.111908 46.546827 135.136053 46.390077 135.168248 46.085127 135.193543 45.751677 135.21424 45.390297 135.233211 45.028917 135.249883 44.658417 135.261956 44.279937 135.274029 43.900317 135.283228 43.526397 135.291851 43.155897 135.299325 42.785967 135.307373 42.443967 135.315997 42.129897 135.324045 41.764527 135.305074 41.520567 135.261956 41.398587 135.217689 41.276607 135.1556 41.215617 135.076264 41.215617L134.669236 41.215617C134.661187 41.964597 134.619219 42.650877 134.543908 43.273887 134.467446 43.896327 134.367989 44.471457 134.24496 44.998137 134.121357 45.525387 133.975908 46.007037 133.808037 46.442517 133.640167 46.877997 133.456774 47.282697 133.257859 47.657757 133.121608 47.918817 132.964086 48.081837 132.785292 48.147387 132.605349 48.212367 132.43173 48.184437 132.264434 48.061887 132.072418 47.914257 131.965487 47.752947 131.941341 47.579097 131.917195 47.404677 131.993657 47.160717 132.168426 46.847217 132.416207 46.402617 132.621446 45.978537 132.785292 45.573267 132.948564 45.167997 133.080215 44.741637 133.179673 44.292477 133.27913 43.844457 133.351568 43.356537 133.39526 42.829287 133.438377 42.302037 133.460798 41.689857 133.460798 40.993317L133.460798 38.419197C133.205543 38.419197 133.042272 38.373597 132.97041 38.281827 132.898547 38.190627 132.862329 38.027037 132.862329 37.792197zM132.443802 38.510967C132.259835 38.650617 132.078742 38.721867 131.899373 38.726427 131.71943 38.730987 131.538912 38.610717 131.354369 38.366757 131.26756 38.262447 131.191098 38.172957 131.127859 38.098857 131.06347 38.025327 131.004256 37.952937 130.948491 37.883397 130.892726 37.813287 130.832361 37.744317 130.768547 37.674777 130.704734 37.604667 130.632871 37.530567 130.553535 37.452477 130.362094 37.260957 130.266086 37.084257 130.266086 36.922947 130.266086 36.761637 130.3299 36.598617 130.457527 36.433317 130.593203 36.258897 130.746701 36.160857 130.918021 36.138627 131.089341 36.117537 131.242839 36.176247 131.37909 36.315897 131.610199 36.533067 131.807389 36.731427 131.971236 36.909837 132.134507 37.088817 132.264434 37.234737 132.359867 37.347597 132.583503 37.626897 132.690434 37.860027 132.683535 38.046417 132.674912 38.233947 132.595001 38.388417 132.443802 38.510967zM132.396086 41.999367C132.252936 42.139017 132.092539 42.197727 131.917195 42.175497 131.741851 42.154407 131.57858 42.051807 131.426806 41.868837 131.227317 41.624877 131.027827 41.398587 130.828337 41.189397 130.628847 40.980777 130.473049 40.828017 130.362094 40.731687 130.170653 40.575507 130.07292 40.414197 130.068896 40.248327 130.064871 40.083027 130.134434 39.904617 130.278159 39.713097 130.517317 39.381927 130.828337 39.372807 131.211219 39.686877 131.419333 39.861297 131.606175 40.028307 131.77347 40.189617 131.941341 40.350927 132.11611 40.540737 132.300653 40.758477 132.539811 41.036637 132.65479 41.269767 132.646742 41.457297 132.639268 41.644827 132.555333 41.825517 132.396086 41.999367zM132.635244 43.789737C132.259835 45.201057 131.817163 46.481847 131.306653 47.631537 131.195122 47.884047 131.054272 48.033957 130.882377 48.081837 130.710483 48.129717 130.549511 48.092667 130.397738 47.971257 130.254013 47.822487 130.152256 47.650917 130.092466 47.455407 130.032677 47.258757 130.082118 46.999407 130.242515 46.677357 130.449479 46.232757 130.654717 45.708357 130.858232 45.103017 131.061746 44.497677 131.242839 43.881507 131.402661 43.253937L131.402661 43.267047C131.458426 42.962667 131.562483 42.762027 131.713681 42.665697 131.865454 42.570507 132.044823 42.561387 132.252936 42.640047L132.240288 42.626367C132.447827 42.695907 132.585228 42.820737 132.653066 42.999147 132.720904 43.178127 132.71113 43.441467 132.623171 43.789737L132.635244 43.789737z"/>
    <path fill="#419ED1" d="M42.4018324 2.392575C42.6570874 2.402835 42.9117676 2.614875 42.835881 2.809245 42.7697676 2.977965 42.5789012 3.098805 42.4800186 3.201975 42.1448526 3.126735 41.9562858 3.032115 41.9528364 2.763075 41.9499619 2.549325 42.1592251 2.382885 42.4018324 2.392575M29.0687798 1.989015C29.2935652 1.914915 29.5212251 1.824285 29.7540591 1.797495 30.8866097 1.666965 32.0180105 1.519335 33.1551603 1.449225 34.0232575 1.395645 34.929298 1.315275 35.6410227 2.010105 35.6749417 2.043165 35.7422049 2.053425 35.7945206 2.054565 36.6189255 2.072805 37.4444802 2.097315 38.2700348 2.096745 38.536213 2.096745 38.8156138 1.960515 39.0662696 2.006685 39.5330874 2.092755 39.9964559 2.233545 40.4362534 2.412525 41.1065854 2.685555 41.7493223 3.017295 41.9367393 3.813015 41.9465126 3.852345 41.9758324 3.894525 42.0080267 3.920175 42.1149579 4.003965 42.2270632 4.080915 42.3380186 4.160715 42.4116057 4.051275 42.477719 3.936705 42.5599296 3.835245 42.6386907 3.737775 42.7346988 3.581595 42.8215085 3.582735 42.9301644 3.583875 43.0715895 3.699015 43.1348283 3.802755 43.2038162 3.915045 43.1974923 4.071225 43.2250874 4.208595 43.2952251 4.560285 43.5493304 4.763775 43.8477028 4.902855 44.1144559 5.027115 44.2846259 4.841865 44.4622696 4.665165 44.5214842 4.607025 44.7192494 4.593915 44.7807636 4.645785 45.084885 4.902285 45.414302 5.151375 45.6436866 5.468295 46.2755004 6.341535 45.9041158 7.881105 44.9888769 8.328555 44.1811441 8.722995 44.0678891 9.202365 44.6330146 9.914295 44.948634 10.312155 45.2849498 10.694055 45.6160915 11.079375 46.124302 11.669325 46.2456057 11.676735 46.800383 11.138085 46.8113061 11.215605 46.8268283 11.274315 46.8262534 11.332455 46.8210794 11.953185 47.0240186 12.291765 47.6328364 12.400635 48.1255247 12.488985 48.6452332 12.454785 49.1522939 12.437115 49.3489093 12.430275 49.4207717 12.482715 49.4776866 12.653145 49.5415004 12.845805 49.6260105 13.035045 49.7317919 13.208325 49.7668607 13.265895 49.8921887 13.269885 49.9766988 13.297815 49.9916462 13.214595 50.0399377 13.121115 50.0163668 13.051005 49.9278324 12.785955 49.8071036 12.531735 49.71397 12.267825 49.4368688 11.481795 49.2069093 10.686645 49.2730227 9.839055 49.3322372 9.076965 49.7904316 8.624955 50.5544721 8.604435 51.4104964 8.581635 52.2573223 8.683665 53.0420591 9.030795 53.7681563 9.352845 54.462634 9.745575 55.127217 10.084725 55.1260672 10.083015 55.087549 10.023165 55.0404073 9.971295 53.8342696 8.650035 52.5292494 7.431375 51.0966016 6.352365 48.3974518 4.319175 45.4384478 2.788725 42.1868202 1.810035 40.7265773 1.370565 39.2444883 1.055925 37.7399781.826215 37.5278405.793725 37.3818162.796575 37.2357919 1.028565 37.132885 1.192725 36.8327879 1.334085 36.639047 1.314135 36.4280591 1.292475 36.1141644 1.106655 36.0658729.932235 35.9750389.601635 35.7789984.610185 35.5404154.600495 33.5156219.520695 31.498302.590235 29.4942049.902595 28.8531927 1.002915 28.2179296 1.143135 27.5585206 1.269105 27.732715 2.107005 28.4967555 2.178825 29.0687798 1.989015M58.705617 53.749632C57.6552769 53.749632 56.8004024 52.902042 56.8004024 51.860652 56.8004024 50.818692 57.6552769 49.971102 58.705617 49.971102 59.756532 49.971102 60.6108316 50.818692 60.6108316 51.860652 60.6108316 52.902042 59.756532 53.749632 58.705617 53.749632M58.705617 49.713462C57.5115522 49.713462 56.5399733 50.676762 56.5399733 51.860652 56.5399733 53.044542 57.5115522 54.007272 58.705617 54.007272 59.8996818 54.007272 60.8712607 53.044542 60.8712607 51.860652 60.8712607 50.676762 59.8996818 49.713462 58.705617 49.713462"/>
    <path fill="#419ED1" d="M59.4343012 52.596294C59.3986575 52.589454 59.3549652 52.605414 59.3055239 52.643034 59.2405603 52.701174 59.1704227 52.747914 59.094536 52.783824 59.0192243 52.819734 58.9278154 52.838544 58.8197344 52.840824 58.6846332 52.840824 58.5627547 52.816884 58.4546737 52.768434 58.3465927 52.720554 58.2557587 52.652724 58.1810219 52.564374 58.1068599 52.476594 58.0505198 52.371714 58.0102769 52.251444 57.9711838 52.131174 57.9516372 51.999504 57.9516372 51.856434 57.9516372 51.740154 57.9694591 51.623304 58.0062526 51.506454 58.0418964 51.389034 58.0936372 51.284724 58.1609004 51.193524 58.2281636 51.101754 58.310949 51.027084 58.407532 50.968944 58.5046899 50.910804 58.6133457 50.881734 58.7352243 50.881734 58.8231838 50.881734 58.90137 50.896554 58.9715077 50.925624 59.0410704 50.954694 59.1031595 50.986044 59.1577749 51.019104 59.2112405 51.052734 59.2578073 51.082374 59.2974753 51.108024 59.3365684 51.133674 59.3699126 51.143364 59.3975077 51.136524 59.4222283 51.131964 59.4417749 51.123984 59.4561474 51.111444 59.4705198 51.099474 59.4802931 51.084084 59.4848923 51.065844 59.4894915 51.035064 59.4802931 50.998014 59.4578721 50.955834 59.4285522 50.917644 59.3906089 50.880594 59.3428923 50.843544 59.2957506 50.806494 59.2417101 50.774004 59.1813457 50.744364 59.1198316 50.715864 59.0525684 50.692494 58.9784065 50.674254 58.9036696 50.656584 58.8260583 50.647464 58.7455725 50.647464 58.5897749 50.647464 58.4472 50.679384 58.3184227 50.743224 58.1884955 50.806494 58.078115 50.893134 57.9849814 51.002574 57.8929976 51.112014 57.8205603 51.240264 57.7676696 51.387324 57.7147789 51.534954 57.6883336 51.691134 57.6883336 51.856434 57.6883336 52.046244 57.7153538 52.216104 57.7693943 52.367154 57.8234348 52.517634 57.8998964 52.645314 57.9987789 52.750194 58.0982364 52.855644 58.2172405 52.935444 58.3569409 52.991304 58.4966413 53.047164 58.6507142 53.075094 58.8197344 53.075094 58.9168923 53.075094 59.0077263 53.060844 59.0928113 53.033484 59.1790462 53.004984 59.253783 52.971924 59.3175968 52.932594 59.3819854 52.893834 59.4325765 52.853934 59.4699449 52.814034 59.5067385 52.774134 59.526285 52.741074 59.5285846 52.716564 59.5308842 52.692054 59.5239854 52.668114 59.5084632 52.644744 59.4929409 52.621374 59.4682202 52.605414 59.4343012 52.596294M31.5876413 45.590652C31.6681271 45.679572 31.7997789 45.725172 31.9860462 45.725172 32.1717385 45.725172 32.3028154 45.682422 32.3833012 45.598062 32.4620623 45.515412 32.5023053 45.419652 32.5023053 45.315342L32.5023053 41.068842 33.5193012 41.068842C33.6141595 41.068842 33.7072931 41.035212 33.7969773 40.966242 33.8872364 40.898412 33.9326534 40.779852 33.9326534 40.611702 33.9326534 40.449252 33.889536 40.332402 33.804451 40.261722 33.719366 40.190472 33.6245077 40.155132 33.5193012 40.155132L30.4516413 40.155132C30.3464348 40.155132 30.2515765 40.190472 30.1659166 40.261722 30.0814065 40.332402 30.0394389 40.449252 30.0394389 40.611702 30.0394389 40.779852 30.084281 40.898412 30.1739652 40.966242 30.2636494 41.035212 30.3562081 41.068842 30.4516413 41.068842L31.4686372 41.068842 31.4686372 45.315342C31.4686372 45.409392 31.5088802 45.501162 31.5876413 45.590652M38.2938931 43.699506C38.2456016 43.942326 38.163966 44.152086 38.0478364 44.330496 37.931132 44.508906 37.7787838 44.649126 37.5907919 44.751726 37.4022251 44.853756 37.1676664 44.905626 36.8876907 44.905626 36.6071401 44.905626 36.3725814 44.847486 36.1851644 44.731776 35.9960227 44.616066 35.8436745 44.463876 35.72697 44.275206 35.6102656 44.085396 35.5292049 43.870506 35.4809134 43.628826 35.4337717 43.387716 35.4096259 43.143756 35.4096259 42.896376 35.4096259 42.623346 35.4366462 42.365706 35.488387 42.124026 35.5418526 41.882346 35.6269377 41.671446 35.7430672 41.490756 35.8603466 41.309496 36.0121198 41.164716 36.2001117 41.056416 36.3881036 40.949826 36.6174883 40.895676 36.8876907 40.895676 37.1573182 40.895676 37.3872777 40.948686 37.5746947 41.052996 37.7621117 41.158446 37.9144599 41.303226 38.0311644 41.486766 38.1478688 41.670306 38.2329538 41.885196 38.2858445 42.132576 38.3393101 42.379386 38.3646057 42.642156 38.3646057 42.919746 38.3646057 43.199046 38.3421846 43.458396 38.2938931 43.699506M38.0035692 40.221936C37.6885247 40.072026 37.3159903 39.997926 36.8876907 39.997926 36.4421441 39.997926 36.0615611 40.072026 35.7470915 40.221936 35.4314721 40.371276 35.1727676 40.576476 34.9686785 40.836966 34.7645895 41.096886 34.6151158 41.403546 34.5202575 41.758086 34.4248243 42.112626 34.3771077 42.492246 34.3771077 42.896376 34.3771077 43.317606 34.4294235 43.705776 34.5363547 44.063166 34.6415611 44.419986 34.8002332 44.726646 35.011796 44.984286 35.2233587 45.241356 35.4860874 45.441996 35.7994073 45.586776 36.1110024 45.731556 36.4743385 45.802806 36.8876907 45.802806 37.3159903 45.802806 37.6885247 45.728706 38.0035692 45.579366 38.3191887 45.429456 38.5801927 45.224826 38.7871563 44.964336 38.9923951 44.704416 39.1470429 44.397186 39.2470753 44.042646 39.3476826 43.688106 39.3982737 43.306206 39.3982737 42.896376 39.3982737 42.486546 39.3476826 42.106356 39.2470753 41.754666 39.1470429 41.402406 38.9923951 41.096886 38.7871563 40.836966 38.5801927 40.576476 38.3191887 40.371276 38.0035692 40.221936M40.7894138 45.302631C40.9958024 45.458241 41.2297862 45.572811 41.4919401 45.649761 41.7546688 45.726141 42.020847 45.764331 42.2904745 45.764331 42.5664259 45.764331 42.8354785 45.726141 43.0976324 45.649761 43.3603611 45.572811 43.5920453 45.457101 43.7961344 45.298641 44.0002235 45.141891 44.1640696 44.945811 44.2893976 44.711541 44.4141506 44.478981 44.4756648 44.203671 44.4756648 43.889601L44.4756648 40.485561C44.4756648 40.381251 44.4354219 40.286061 44.3566607 40.202841 44.2767498 40.118481 44.145098 40.076301 43.9599806 40.076301 43.7633652 40.076301 43.6276891 40.121331 43.554102 40.210251 43.4793652 40.299741 43.4419968 40.391511 43.4419968 40.485561L43.4419968 43.400541C43.4419968 43.631391 43.4270494 43.836591 43.39543 44.015001 43.3638105 44.193981 43.3040211 44.344461 43.2166364 44.467581 43.1292518 44.590701 43.0108227 44.686461 42.8624988 44.752011 42.7147498 44.816991 42.5267579 44.850051 42.2985231 44.850051 42.0651142 44.850051 41.8736729 44.815851 41.7230494 44.748021 41.571851 44.679051 41.4522721 44.582151 41.3654623 44.456751 41.2780777 44.330781 41.2154138 44.177451 41.1791951 43.998471 41.1406769 43.820061 41.1228551 43.621701 41.1228551 43.400541L41.1228551 40.485561C41.1228551 40.381251 41.0837619 40.286061 41.003851 40.202841 40.9239401 40.118481 40.7922883 40.076301 40.6071709 40.076301 40.4203287 40.076301 40.2886769 40.121331 40.208766 40.210251 40.1305798 40.299741 40.089187 40.391511 40.089187 40.485561L40.089187 43.889601C40.089187 44.209941 40.1541506 44.486391 40.2846526 44.720661 40.4145798 44.954361 40.5830251 45.148161 40.7894138 45.302631M47.1211765 42.44733L46.2869984 42.44733 46.2869984 41.05311 47.1211765 41.05311C47.237881 41.05311 47.3505611 41.0628 47.4586421 41.08047 47.567298 41.09928 47.6627312 41.13348 47.7449417 41.18364 47.8277271 41.23266 47.8921158 41.30334 47.9404073 41.39226 47.987549 41.48175 48.0116947 41.59347 48.0116947 41.73084 48.0116947 42.02496 47.9352332 42.21705 47.7840348 42.30996 47.6339862 42.40173 47.4132251 42.44733 47.1211765 42.44733M47.8846421 43.25046C48.2382049 43.17237 48.52163 43.01163 48.7308931 42.77052 48.9395814 42.52884 49.0436381 42.17943 49.0436381 41.72286 49.0436381 41.42361 49.0028202 41.17224 48.9206097 40.96989 48.8383992 40.76868 48.7165206 40.6068 48.555549 40.48596 48.3945773 40.36512 48.1927879 40.27962 47.9519053 40.22946 47.7104478 40.18044 47.4344964 40.15536 47.1211765 40.15536L45.9213628 40.15536C45.783387 40.15536 45.6718567 40.16163 45.5844721 40.17531 45.4970874 40.18785 45.4298243 40.21293 45.3815328 40.24941 45.3332413 40.28589 45.3004721 40.3389 45.2826502 40.40673 45.2636785 40.4757 45.2544802 40.56519 45.2544802 40.67463L45.2544802 45.315C45.2544802 45.40962 45.2912737 45.50139 45.3660105 45.59088 45.4395976 45.6798 45.5689498 45.72483 45.755217 45.72483 45.9403344 45.72483 46.0754356 45.68208 46.1599457 45.59829 46.2450308 45.51507 46.2869984 45.41931 46.2869984 45.315L46.2869984 43.40892 48.3934275 45.60684C48.4831117 45.69633 48.6021158 45.73509 48.7510146 45.72483 48.8981887 45.71343 49.0258162 45.65586 49.1310227 45.55155 49.2379538 45.4461 49.2873951 45.32526 49.2822211 45.1896 49.277047 45.05223 49.2212818 44.93139 49.1160753 44.82594L47.5586745 43.30575C47.6167393 43.30119 47.6730794 43.29321 47.7248202 43.28181 47.7782858 43.27212 47.8311765 43.26186 47.8846421 43.25046M40.8814551 36.077694L40.8814551 21.292464C40.8814551 20.345694 40.0961433 19.577904 39.126864 19.577904 38.1581595 19.577904 37.3722729 20.345694 37.3722729 21.292464L37.3722729 26.497704 28.5671231 26.497704 28.5671231 21.292464C28.5671231 20.345694 27.7818113 19.577904 26.812532 19.577904 25.8438275 19.577904 25.0585158 20.345694 25.0585158 21.292464L25.0585158 36.077694C25.0585158 37.025034 25.8438275 37.792254 26.812532 37.792254 27.7818113 37.792254 28.5671231 37.025034 28.5671231 36.077694L28.5671231 29.837904 37.3722729 29.837904 37.3722729 36.077694C37.3722729 37.025034 38.1581595 37.792254 39.126864 37.792254 40.0961433 37.792254 40.8814551 37.025034 40.8814551 36.077694M10.8721984 35.284767L10.8721984 35.284197 13.7760121 31.448667 18.0400364 37.081977C18.6166599 37.844067 19.7187409 38.006517 20.5011781 37.445637 21.2836154 36.883617 21.4509109 35.810307 20.8737126 35.048217L15.9623522 28.559907 20.876587 22.056207C21.4244656 21.332877 21.2991377 20.319417 20.5902874 19.743717 19.8187733 19.116717 18.6638016 19.252377 18.0670567 20.040117L13.7944089 25.695657 9.51831174 20.046387C8.94168826 19.284297 7.83960729 19.121847 7.05659514 19.682727 6.27415789 20.244747 6.10686235 21.317487 6.68406073 22.079577L11.6074939 28.584417 6.53113765 35.290467C4.65409312 37.770537 1.8215668 36.432747 1.8215668 36.432747 2.67126721 37.605237 4.43160729 38.064087 4.43160729 38.064087 6.14308097 38.473347 8.59962348 38.286957 10.8721984 35.284767"/>
    <path fill="#419ED1" d="M10.8463854 19.063137L13.8007903 22.965357 16.7534704 19.056867C17.3916081 18.214407 18.4109036 17.711097 19.4807903 17.711097 20.2684016 17.711097 21.0370413 17.982987 21.6441344 18.476607 22.4633652 19.141797 22.8738429 20.108517 22.8646445 21.081507 23.0681587 20.962377 23.2687984 20.845527 23.4723126 20.728107 23.7465393 19.148637 25.1383692 17.940237 26.8199482 17.940237 27.2649198 17.940237 27.6874704 18.030297 28.0772518 18.183627 28.3807984 18.021747 28.559017 17.928837 28.559017 17.928837L33.0098834 18.171657C33.1576324 17.970447 33.3582721 17.805717 33.6037538 17.671767 34.2815595 17.302407 35.0203045 17.113737 35.7826202 17.058447 36.5719563 17.001447 37.3066769 16.828737 37.7792437 16.157277 37.9867822 15.862587 38.203519 15.733767 38.5409846 15.716097 38.8393571 15.700707 39.1664745 15.646557 39.3205474 15.962907 39.4498996 16.228527 39.2929522 16.455387 39.1440534 16.671417 39.5056648 16.811637 39.822434 17.050467 40.0541182 17.363967 40.1231061 17.004867 40.1966931 16.646337 40.2863773 16.292937 40.3777862 15.936687 40.6278672 15.655107 40.9860291 15.527427 41.5574785 15.323367 41.9564583 14.920377 42.293349 14.452407 42.5256081 14.129217 42.6745069 13.752447 42.4985879 13.356867 42.40143 13.137987 42.4681182 12.993777 42.5807984 12.825627 42.7952356 12.505857 42.9998996 12.179817 43.2206607 11.837817 43.1355757 11.802477 43.0895838 11.769987 43.0395676 11.764287 41.9984259 11.646297 40.9768308 11.691327 40.0052518 12.137067 39.907519 12.181527 39.8028874 12.222567 39.6982559 12.236817 39.1923449 12.305787 38.6875838 12.390147 38.1793733 12.423207 36.6944097 12.518397 35.2082964 12.601047 33.7216081 12.667167 33.2467417 12.688257 32.7649765 12.671727 32.2935595 12.616437 31.8911304 12.569697 31.5047984 12.387867 31.0879968 12.546327 31.0276324 12.569127 30.9379482 12.534927 30.8666607 12.512127 30.0255838 12.243657 29.1413895 12.109707 28.3583773 11.654277 27.9921668 11.441097 27.9645717 11.487267 28.1945312 11.171487 28.4802559 10.778187 28.337681 10.456707 27.8409684 10.378047 27.6472275 10.347267 27.451187 10.297677 27.258596 10.305657 26.9021587 10.321047 26.63943 10.174557 26.3870494 9.943137 26.2525231 9.819447 26.0610818 9.691197 25.8903368 9.684357 25.2993409 9.660417 24.6939725 9.592017 24.1639158 9.983037 23.8799158 10.192227 23.5545231 10.110717 23.2320049 10.041177 23.4550656 9.516207 23.4550656 9.516207 22.987098 9.161097 22.9353571 9.122337 22.8726931 9.088137 22.8387741 9.036267 22.7243692 8.861847 22.5651223 8.842467 22.3840291 8.891487 22.0592113 8.979837 21.7366931 9.075597 21.4118753 9.161667 21.2491789 9.204417 21.0859077 9.235197 21.0082964 9.019167 20.8749198 8.649807 20.7036 8.307237 20.3730332 8.060997 20.2954219 8.002857 20.2293085 7.883157 20.220685 7.786257 20.1919401 7.502397 20.1591709 7.211697 20.192515 6.931257 20.2988713 6.022107 20.6420858 5.265147 21.6119401 4.953357 21.845349 4.878117 21.9597538 4.690587 21.9488308 4.454037 21.9264097 4.010007 21.1474219 3.572247 20.7513166 3.778017 18.4752923 4.961337 16.3941587 6.422817 14.5194138 8.165307 12.4532275 10.085637 10.7043854 12.248217 9.29185911 14.670147 8.94519514 15.258957 8.27313846 16.300347 8.27313846 16.300347 7.89715466 16.861227 7.57233684 17.381637 7.29811012 17.837067 7.56256356 17.773227 7.8293166 17.711097 8.10699271 17.711097 9.18147854 17.711097 10.2059482 18.216687 10.8463854 19.063137M5.29050607 35.727258C3.8112915 35.284938 3.0552996 33.657588 3.39276518 31.994898 4.01135628 28.949958 7.12730769 27.589938 7.12730769 27.589938 3.20017409 27.844728.546441296 29.856828.0824979757 31.985208-.238295547 33.459798.436060729 34.576428 1.04200405 35.131038 2.83971255 36.774918 5.29050607 35.727258 5.29050607 35.727258M63.099281 22.019157C63.099281 22.019157 61.4366737 19.740867 56.0492972 19.586397L56.0469976 19.577847 44.8014024 19.577847C43.8533943 19.577847 43.0853296 20.325687 43.0853296 21.247947 43.0853296 22.170207 43.8533943 22.918047 44.8014024 22.918047L49.4431352 22.918047 49.4431352 37.394907C49.4431352 37.614357 49.6225036 37.792197 49.8438397 37.792197L52.5510381 37.792197C52.7723741 37.792197 52.9523174 37.614357 52.9523174 37.394907L52.9523174 22.918047 56.28903 22.918047 57.0093781 22.918047C57.0093781 22.918047 61.7614915 22.918047 61.3176696 26.324367 61.1107061 27.917517 58.3586656 29.329407 56.8409328 29.594457 56.8409328 29.594457 60.662285 30.065277 62.7514672 28.022967 64.2852972 26.523867 64.6538073 23.729157 63.099281 22.019157M62.2021514 40.062963C61.517447 40.105143 59.5553174 40.013373 58.3560785 37.789233 58.3279085 37.736793 58.2543215 37.726533 58.2508721 37.785813 58.2140785 38.428773 57.9421514 40.536063 55.9455279 41.648703 55.8920623 41.678343 55.9001109 41.751873 55.9616251 41.753013 56.6584024 41.768403 58.8493417 41.981583 59.841617 44.003943 59.8692121 44.060373 59.9450988 44.060943 59.9456737 43.997673 59.9548721 43.310823 60.1721838 41.385363 62.215949 40.167843 62.2699895 40.135353 62.2653903 40.058973 62.2021514 40.062963"/>
    <path fill="#419ED1" d="M49.6015198,5.589477 C49.4779166,5.713167 49.3543134,5.836857 49.2318599,5.961687 C47.4640462,7.768017 45.4214308,9.204417 43.1574794,10.323897 C40.1300623,11.820717 36.9204024,12.637527 33.5382729,12.805107 C30.9765239,12.931647 28.4619166,12.667167 25.9841028,12.027057 C23.6241433,11.417727 21.410783,10.470387 19.3411474,9.190737 C17.4853741,8.042757 15.8233417,6.663357 14.3653984,5.048547 C13.0391069,3.580227 11.9416251,1.959147 11.0810016,0.188157 L0.172297166,0.188157 C2.95423239,7.201437 10.2928154,15.467577 21.9563619,17.316087 C32.981196,19.063137 42.9936332,14.142897 48.6213174,6.954057 C48.9973012,6.507177 49.3577628,6.052317 49.6952283,5.585487 C49.7699652,5.482887 49.7061514,5.485167 49.6015198,5.589477" transform="translate(7.474 39.27)"/>
  </g>
</svg>
