<svg xmlns="http://www.w3.org/2000/svg" width="1920" height="197" viewBox="0 0 1920 197">
  <g fill="none" fill-rule="evenodd" transform="translate(-2)">
    <path stroke="#979797" stroke-dasharray="5" d="M0,196.626486 C311.412034,66.2088287 631.83522,1 961.269555,1 C1290.70389,1 1611.12708,66.2088287 1922.53911,196.626486"/>
    <path fill="#000" fill-rule="nonzero" d="M38,29.0407002 L38,25.6246779 L22.4537164,15.3740336 L22.4537164,3.41602238 C22.4537164,3.41602238 22.4537164,0 19,0 C15.5449808,0 15.5449808,3.41602238 15.5449808,3.41602238 L15.5449808,15.3740336 L0,25.6246779 L0,29.0407002 L15.5449808,23.9147338 L15.5449808,33.4837199 L10.3637548,37.5839776 L10.3637548,41 L19,37.5839776 L27.6362452,41 L27.6362452,37.5839776 L22.4537164,33.4837199 L22.4537164,23.9147338 L38,29.0407002 Z" transform="rotate(70 -15.084 162.83)"/>
  </g>
</svg>
