<?xml version="1.0" encoding="UTF-8"?>
<svg width="456px" height="61px" viewBox="0 0 456 61" version="1.1" xmlns="http://www.w3.org/2000/svg" xmlns:xlink="http://www.w3.org/1999/xlink">
    <!-- Generator: Sketch 49.2 (51160) - http://www.bohemiancoding.com/sketch -->
    <title>13</title>
    <desc>Created with Sketch.</desc>
    <defs></defs>
    <g id="Page-1" stroke="none" stroke-width="1" fill="none" fill-rule="evenodd">
        <g id="欣宏途PC端官网首页" transform="translate(-195.000000, -2908.000000)" fill="#5BB8DE" stroke="#5BB8DE">
            <g id="Group-23" transform="translate(196.000000, 2909.000000)">
                <path d="M34.4006934,43.4711299 C33.9456934,43.8611299 33.4256934,44.2511299 33.0356934,44.7061299 C30.1106934,47.1111299 24.9106934,49.9711299 21.2706934,51.5961299 C19.7756934,52.2461299 18.2156934,52.5061299 17.1756934,51.7911299 C16.5256934,51.4011299 16.0706934,50.7511299 15.8756934,49.6461299 C15.8106934,48.9961299 15.8106934,48.2811299 15.8106934,47.5661299 C15.8106934,45.5511299 15.6806934,43.5361299 15.9406934,41.5861299 C15.0306934,41.7811299 14.2506934,42.1711299 13.4056934,42.4961299 C12.4956934,42.8861299 11.4556934,43.1461299 10.3506934,43.0811299 C9.44069336,43.0161299 8.46569336,42.6911299 7.94569336,41.7811299 C8.40069336,40.3511299 9.63569336,39.3761299 11.2606934,38.8561299 L11.0006934,39.6361299 L10.7406934,39.9611299 C10.6106934,40.2211299 10.5456934,40.4161299 10.5456934,40.6111299 C10.8706934,40.8711299 11.3256934,40.8711299 11.7156934,40.8061299 C12.8206934,40.4161299 15.0306934,39.7011299 16.2006934,39.0511299 C16.3956934,37.9461299 16.5256934,36.7111299 16.6556934,35.4761299 C16.8506934,34.1761299 17.1106934,32.9411299 17.7606934,31.9661299 C18.6056934,30.5361299 19.9706934,29.6911299 21.2706934,29.9511299 C23.2206934,31.0561299 25.3006934,32.1611299 27.0556934,33.5911299 C27.3156934,34.0461299 27.5756934,34.7611299 27.1206934,35.1511299 C25.7556934,36.3861299 24.2606934,37.2961299 22.7006934,38.1411299 C21.2056934,38.9861299 19.6456934,39.7011299 18.2156934,40.4811299 C18.0206934,43.4711299 18.0206934,45.9411299 18.2156934,49.1261299 C18.2806934,49.4511299 18.6706934,49.7761299 19.0606934,49.9061299 C20.1006934,49.9711299 22.5056934,48.7361299 25.1706934,47.1111299 C28.8106934,44.9661299 32.3856934,42.6261299 33.9456934,41.2611299 C34.5306934,40.8711299 35.1156934,41.3261299 35.3106934,41.9111299 C35.2456934,42.5611299 34.7906934,43.0811299 34.4006934,43.4711299 Z M35.9606934,22.5411299 C35.3756934,22.6061299 34.7256934,22.6711299 34.2056934,22.8661299 C33.4906934,23.3211299 32.9706934,23.4511299 32.0606934,23.6461299 C31.8006934,23.7111299 31.6056934,23.5161299 31.6056934,23.3211299 C31.5406934,23.1911299 31.6056934,22.9311299 31.8006934,22.8661299 C32.5156934,22.2811299 33.3606934,22.0211299 34.0756934,21.5011299 L34.7256934,21.0461299 C34.7906934,20.6561299 34.5306934,20.3311299 34.2056934,20.0711299 C33.8806934,19.6811299 33.4256934,19.4211299 33.1656934,19.0311299 C31.4106934,17.7961299 28.6806934,15.9111299 25.8206934,14.1561299 C23.1556934,12.5961299 20.4906934,11.1661299 18.5406934,10.7111299 C16.0056934,14.2211299 13.7956934,17.9911299 11.3906934,21.6311299 C9.24569336,24.9461299 6.97069336,28.1311299 4.17569336,30.9911299 C3.20069336,31.7711299 1.90069336,32.4861299 0.535693363,31.9661299 C0.0806933626,31.5111299 -0.0493066374,31.0561299 0.0156933626,30.4711299 C0.0156933626,30.1461299 0.210693363,29.2361299 0.795693363,29.0411299 C1.05569336,29.1711299 1.12069336,29.3661299 1.18569336,29.4961299 L1.44569336,29.8861299 C1.57569336,30.0811299 1.70569336,30.1461299 1.96569336,29.9511299 C3.91569336,28.5861299 5.21569336,26.5061299 6.64569336,24.6211299 C8.53069336,22.1511299 10.2856934,19.1611299 12.1706934,16.1711299 C14.0556934,13.1811299 16.0056934,10.1911299 18.1506934,7.78612988 C18.4756934,7.52612988 18.8656934,7.26612988 19.2556934,7.07112988 C19.7106934,6.94112988 20.1656934,6.94112988 20.5556934,7.39612988 C21.2056934,8.11112988 20.7506934,8.63112988 20.1656934,8.95612988 C21.2706934,9.34612988 22.2456934,9.86612988 23.1556934,10.3861299 C27.9006934,13.1161299 32.7106934,15.8461299 37.0656934,19.4211299 C37.3256934,19.7461299 37.5206934,20.0711299 37.7156934,20.4611299 C37.9106934,20.8511299 37.9756934,21.3061299 37.7156934,21.8261299 C37.1956934,22.2811299 36.6106934,22.4111299 35.9606934,22.5411299 Z M30.3706934,26.3111299 C30.1106934,26.5711299 29.8506934,26.7011299 29.5906934,26.8961299 C29.2656934,27.0911299 29.0706934,27.0911299 28.8756934,26.8961299 C28.8756934,26.8311299 28.8106934,26.8311299 28.8106934,26.7661299 L28.7456934,26.6361299 L28.6156934,26.5061299 C27.8356934,25.8561299 27.0556934,25.9861299 25.9506934,26.1161299 C23.6756934,26.4411299 21.5956934,26.9611299 19.5806934,27.6761299 C17.5006934,28.4561299 15.4206934,29.3011299 13.0156934,30.5361299 C12.3006934,30.6011299 11.5856934,30.4061299 11.1956934,29.8211299 C10.9356934,29.4311299 11.1306934,29.1061299 11.3256934,28.9111299 C11.4556934,28.7811299 11.5856934,28.7161299 11.7156934,28.6511299 C11.8456934,28.5861299 11.9106934,28.5211299 12.0406934,28.5211299 C14.4456934,27.2211299 16.9156934,26.1811299 19.5156934,25.4011299 C22.0506934,24.6211299 24.7156934,24.1011299 27.5106934,23.8411299 C28.0956934,23.9061299 28.6806934,23.9061299 29.2656934,24.1011299 C29.8506934,24.2311299 30.3706934,24.6211299 30.6306934,25.2711299 C30.7606934,25.7261299 30.5656934,26.0511299 30.3706934,26.3111299 Z M24.6506934,34.1761299 C24.1306934,33.3311299 22.3756934,32.3561299 21.4656934,31.9661299 C20.8156934,31.8361299 20.2956934,31.9011299 19.9706934,32.3561299 C19.0606934,33.9811299 18.8006934,36.0611299 18.6056934,37.8811299 C20.6856934,36.7761299 22.7656934,35.8011299 24.6506934,34.4361299 C24.7156934,34.3711299 24.6506934,34.2411299 24.6506934,34.1761299 Z M95.4356934,31.9011299 C95.0456934,33.3961299 94.3306934,34.8261299 92.6406934,35.6711299 C91.2106934,36.3861299 89.5856934,36.2561299 88.2206934,35.2811299 C86.9856934,34.3711299 86.7906934,32.7461299 87.1156934,31.3161299 C87.4406934,30.0811299 87.9606934,28.9761299 88.6106934,27.8711299 C89.1956934,26.7661299 89.8456934,25.6611299 90.4306934,24.4911299 C90.4956934,24.4261299 90.4956934,24.3611299 90.4306934,24.3611299 C86.7256934,26.2461299 83.4106934,28.7811299 80.0956934,31.3161299 C80.0956934,37.3611299 80.8106934,42.4961299 80.7456934,48.4111299 C80.7456934,50.2961299 80.2256934,51.9861299 79.0556934,53.5461299 C77.8206934,55.2361299 75.8706934,56.8611299 73.9856934,57.5761299 C72.1006934,58.2911299 69.5006934,58.4861299 67.6156934,58.1611299 C65.4706934,57.8361299 64.1056934,56.8611299 62.9356934,55.2361299 C62.0906934,54.0011299 61.5706934,52.5061299 61.6356934,50.6211299 C62.4806934,50.3611299 62.8706934,51.0111299 63.1306934,51.5311299 C63.6506934,52.7011299 64.3656934,54.0661299 65.4056934,55.0411299 C66.1856934,55.7561299 67.0956934,56.2761299 68.1356934,56.3411299 C69.1106934,56.3411299 70.0206934,56.2761299 70.8656934,56.1461299 C73.1406934,55.6911299 75.1556934,54.5211299 76.7806934,52.6361299 C78.1456934,50.6861299 78.4056934,48.1511299 78.2756934,45.5511299 L77.7556934,33.0711299 C75.6756934,34.6961299 71.7756934,37.9461299 69.3706934,40.0261299 C69.1106934,40.0911299 68.8506934,40.2211299 68.5906934,40.3511299 C68.2656934,40.4161299 67.9406934,40.4811299 67.5506934,40.2211299 C66.5106934,39.5061299 67.0956934,38.5311299 67.8756934,37.9461299 C70.3456934,36.1911299 73.2056934,34.3061299 74.6356934,31.5761299 C74.6356934,30.9911299 74.1806934,30.4061299 73.6606934,30.0811299 C71.0606934,28.6511299 68.3956934,27.7411299 65.4706934,27.0261299 C63.3906934,31.1211299 61.1806934,35.1511299 57.6706934,38.5961299 C56.5006934,39.5061299 55.0056934,40.5461299 53.3806934,39.7661299 C52.4706934,39.3761299 52.0806934,38.6611299 51.9506934,37.8161299 C51.6906934,36.1261299 51.3656934,33.2011299 51.5606934,31.3161299 C49.0906934,31.9011299 47.5956934,32.5511299 45.1256934,31.3161299 C44.3456934,30.2761299 45.7756934,29.8861299 46.8156934,29.6911299 C47.8556934,29.5611299 48.6356934,29.6911299 49.4156934,29.6911299 C50.1306934,29.6911299 50.7806934,29.6261299 51.7556934,29.3661299 C51.8856934,28.7161299 51.8206934,27.8711299 51.8206934,27.0911299 C51.8856934,26.3111299 51.9506934,25.4661299 52.0156934,24.7511299 C52.1456934,23.1261299 52.6006934,21.6961299 54.2906934,20.9811299 C56.6306934,21.0461299 58.2556934,22.6061299 59.6206934,24.1661299 L61.0506934,25.7911299 C61.1806934,26.6361299 60.8556934,27.3511299 60.2056934,27.8711299 C58.3206934,29.3661299 56.1106934,30.0161299 53.8356934,30.7311299 C53.6406934,32.5511299 53.8356934,35.7361299 54.4206934,37.2311299 C54.6806934,37.4261299 55.1356934,37.4911299 55.3956934,37.2961299 C56.6306934,36.4511299 57.4756934,35.4761299 58.3206934,34.4361299 C61.7006934,30.2111299 65.0156934,24.6211299 66.7056934,19.5511299 C67.4856934,17.2111299 68.8506934,14.8711299 70.7356934,12.9211299 C72.6856934,10.8411299 75.0256934,9.21612988 77.6256934,8.37112988 C77.6906934,8.17612988 77.6906934,7.98112988 77.6906934,7.78612988 C77.7556934,6.87612988 77.6256934,5.77112988 78.4056934,5.12112988 C79.3156934,5.25112988 79.8356934,5.83612988 80.4856934,6.35612988 C81.1356934,6.81112988 81.7206934,7.20112988 82.5656934,6.94112988 C83.1506934,6.94112988 83.8006934,6.81112988 84.4506934,6.87612988 C85.1006934,6.94112988 85.6856934,7.13612988 86.2056934,7.72112988 C86.3356934,8.30612988 85.9456934,8.56612988 85.4906934,8.82612988 L85.1656934,9.08612988 C83.4106934,9.47612988 81.6556934,9.67112988 80.0306934,10.2561299 C79.7706934,16.4961299 80.0306934,22.7361299 80.0306934,29.0411299 C81.9156934,27.8711299 83.7356934,26.4411299 85.6856934,25.2061299 C87.7006934,23.8411299 89.7806934,22.6711299 92.0556934,22.0861299 C93.2256934,21.7611299 93.8756934,22.9311299 93.5506934,23.9061299 C91.7956934,26.0511299 90.3006934,28.2611299 89.3256934,30.6661299 C89.1306934,31.5111299 88.9356934,32.4211299 89.3906934,33.0711299 C89.7806934,33.5911299 90.3006934,33.7861299 90.9506934,33.8511299 C91.6656934,33.8511299 92.1856934,33.4611299 92.5756934,32.8761299 C93.0306934,32.2911299 93.2256934,31.6411299 93.5506934,31.0561299 C93.8756934,29.9511299 94.3956934,27.6111299 94.4606934,26.3111299 C94.5256934,25.4661299 95.3056934,25.2711299 95.5656934,26.2461299 C96.0206934,27.4811299 95.7606934,30.5361299 95.4356934,31.9011299 Z M77.5606934,10.9061299 C75.6106934,11.6211299 73.7256934,12.8561299 72.2956934,14.4811299 C70.8006934,16.1711299 69.5656934,18.3161299 68.6556934,20.2011299 C68.0056934,21.5661299 66.9006934,23.4511299 66.5106934,25.0111299 C68.6556934,25.5311299 70.6706934,26.0511299 72.4256934,26.9611299 C73.7906934,27.6111299 75.0906934,28.5211299 76.1956934,29.7561299 C76.4556934,30.2761299 76.5856934,30.9261299 76.5206934,31.6411299 L77.7556934,30.6011299 C77.4306934,24.4261299 77.6906934,17.2111299 77.5606934,10.9061299 Z M61.5706934,22.8661299 C61.2456934,23.4511299 60.4656934,22.9311299 60.4656934,22.4761299 C60.5306934,22.0861299 60.5306934,21.6961299 60.5306934,21.3061299 C60.5956934,20.2661299 60.4656934,19.2261299 59.3606934,18.6411299 C56.3056934,17.1461299 51.5606934,16.1711299 46.7506934,16.1061299 C46.2306934,15.9111299 46.0356934,15.4561299 45.8406934,15.0661299 C45.6456934,14.6761299 45.6456934,14.2861299 45.9706934,13.8961299 C47.1406934,13.3111299 48.3756934,13.7661299 49.5456934,13.7011299 C51.5606934,14.0911299 53.6406934,14.3511299 55.5906934,14.8061299 C57.5406934,15.2611299 59.4256934,15.9111299 61.1156934,17.1461299 C62.2206934,17.9911299 63.0006934,19.4861299 62.6756934,20.9811299 C62.4156934,21.6961299 62.0256934,22.2811299 61.5706934,22.8661299 Z M92.5756934,7.46112988 C90.2356934,5.77112988 87.4406934,4.34112988 85.8806934,1.74112988 C85.4906934,0.50612988 86.9856934,-0.0788701198 87.7656934,0.50612988 C89.7156934,2.32612988 91.6006934,4.01612988 93.6156934,5.77112988 C93.9406934,6.22612988 94.1356934,6.81112988 93.9406934,7.52612988 C93.5506934,7.91612988 93.0956934,7.46112988 92.5756934,7.46112988 Z M55.7856934,23.1911299 C55.5256934,23.0611299 54.8756934,23.1261299 54.5506934,23.3861299 C54.1606934,25.1411299 53.8356934,26.9611299 53.9656934,28.6511299 C55.4606934,28.1311299 57.0856934,27.6111299 58.2556934,26.7011299 C58.5156934,26.5061299 58.4506934,25.7261299 58.1906934,25.2711299 C57.6056934,24.4261299 56.7606934,23.5811299 55.7856934,23.1911299 Z M120.135693,38.7911299 C119.030693,40.9361299 116.950693,43.6011299 115.325693,45.2261299 C114.675693,45.8761299 114.090693,45.9411299 113.505693,45.8111299 C112.855693,45.6161299 112.335693,44.9011299 112.205693,44.0561299 C111.750693,41.3911299 111.750693,38.0761299 111.750693,35.3461299 C111.750693,34.8261299 112.335693,34.3711299 112.855693,34.3711299 C113.375693,34.3061299 114.025693,34.7611299 114.025693,35.4111299 C113.960693,38.1411299 113.895693,40.5461299 114.220693,42.9511299 C114.285693,43.2111299 114.610693,43.1461299 114.675693,43.0811299 C117.015693,41.0661299 118.445693,38.5311299 120.070693,35.6061299 C120.330693,35.2811299 120.850693,35.0211299 121.305693,35.0861299 C121.825693,35.2161299 122.215693,35.6061299 122.280693,36.3211299 C122.345693,37.2961299 122.280693,38.2711299 122.280693,39.2461299 C122.280693,40.2211299 122.280693,41.1311299 122.475693,42.0411299 C122.605693,42.4311299 122.865693,42.4961299 123.255693,42.4961299 C123.645693,42.4961299 124.100693,42.4311299 124.490693,42.4311299 C126.635693,42.1711299 128.585693,41.5211299 130.665693,40.7411299 C131.185693,40.6761299 131.900693,40.8061299 132.160693,41.3911299 C132.420693,41.7811299 132.355693,42.1711299 132.160693,42.5611299 L131.965693,42.8861299 C130.860693,44.2511299 130.015693,45.0311299 129.040693,45.8111299 C128.130693,46.5911299 127.155693,47.3061299 125.855693,48.4111299 C123.970693,49.9711299 122.020693,51.4011299 119.745693,52.5061299 C119.680693,52.5711299 119.875693,52.8311299 119.940693,52.8311299 C121.890693,52.5061299 123.840693,51.6611299 125.790693,51.0761299 C128.975693,50.1661299 131.965693,48.6711299 134.890693,47.3711299 C135.670693,46.8511299 136.190693,47.9561299 135.735693,48.4761299 C134.695693,49.7111299 129.690693,51.9211299 126.570693,52.9611299 C123.255693,54.0661299 119.810693,54.7811299 116.300693,54.9111299 C115.585693,54.9111299 114.935693,54.3911299 114.740693,53.9361299 C114.675693,53.4811299 114.935693,52.9611299 115.715693,52.6361299 C118.185693,51.7261299 120.460693,50.2311299 122.670693,48.5411299 C125.465693,46.3961299 126.960693,45.3561299 128.845693,43.5361299 C128.910693,43.4061299 128.715693,43.1461299 128.585693,43.2111299 C126.570693,43.9261299 124.555693,44.6411299 122.410693,44.5761299 C121.175693,44.3161299 120.525693,43.2761299 120.330693,42.3011299 C120.135693,41.1961299 120.070693,39.8961299 120.135693,38.7911299 Z M126.310693,8.24112988 C126.115693,10.7761299 126.245693,13.4411299 126.375693,15.7811299 C126.375693,16.2361299 126.050693,16.8211299 125.465693,16.4311299 C124.555693,15.0661299 124.230693,13.5061299 124.165693,11.8811299 C124.035693,10.1261299 124.295693,8.37112988 124.295693,6.74612988 C123.450693,8.11112988 122.605693,9.80112988 121.760693,11.4911299 C120.850693,13.4411299 119.940693,15.3911299 118.900693,17.1461299 C118.575693,17.4711299 117.925693,17.7961299 117.340693,17.4711299 C116.495693,16.1711299 116.170693,14.8061299 115.845693,13.4411299 C115.585693,12.2061299 115.325693,10.9711299 114.870693,9.80112988 C114.220693,9.02112988 113.765693,9.21612988 113.245693,9.67112988 C112.920693,9.99612988 112.660693,10.3861299 112.400693,10.8411299 L111.685693,12.1411299 C110.125693,14.9361299 109.540693,17.9911299 109.020693,21.1111299 C108.955693,21.5011299 108.630693,22.0211299 108.110693,22.0861299 C107.525693,22.1511299 107.070693,21.6961299 106.810693,21.1761299 C106.030693,18.1861299 105.705693,14.8711299 106.095693,11.6861299 C106.420693,8.82612988 107.265693,6.22612988 108.890693,4.01612988 C109.410693,3.30112988 110.060693,2.71612988 110.970693,2.45612988 C111.230693,2.52112988 111.490693,2.52112988 111.750693,2.65112988 C112.010693,2.71612988 112.205693,2.91112988 112.335693,3.17112988 C112.400693,3.82112988 112.075693,4.14612988 111.750693,4.34112988 C111.360693,4.47112988 111.035693,4.66612988 110.840693,4.99112988 C109.150693,6.87612988 108.565693,9.28112988 108.240693,11.7511299 C107.980693,13.3761299 107.915693,15.1961299 108.175693,16.8211299 C109.085693,13.8311299 110.060693,10.9061299 112.010693,8.43612988 C112.920693,7.33112988 113.635693,6.94112988 115.065693,7.26612988 C116.950693,8.37112988 117.210693,10.5811299 117.730693,12.4661299 C117.860693,13.0511299 117.860693,13.6361299 118.120693,14.2211299 C118.250693,14.3511299 118.510693,14.1561299 118.640693,14.0261299 C119.940693,11.8811299 120.980693,9.67112988 122.280693,7.39612988 C123.190693,5.70612988 124.230693,3.95112988 125.595693,2.45612988 C126.050693,1.93612988 127.090693,2.13112988 127.350693,2.91112988 C126.700693,4.60112988 126.440693,6.35612988 126.310693,8.24112988 Z M139.765693,36.1261299 C136.255693,34.1111299 132.745693,30.4711299 130.925693,28.4561299 C130.015693,27.4161299 128.715693,26.3111299 127.415693,25.1411299 C126.115693,24.0361299 124.685693,22.9311299 123.580693,21.9561299 C123.320693,21.7611299 123.125693,21.6961299 122.735693,22.0211299 C118.900693,25.0111299 112.010693,31.1861299 109.670693,33.6561299 C107.785693,35.6711299 105.640693,37.4911299 102.780693,38.7911299 C102.455693,38.9211299 101.935693,38.7911299 101.675693,38.5961299 C101.350693,38.4011299 101.285693,38.0111299 101.805693,37.6861299 C104.275693,36.2561299 106.160693,34.3061299 107.915693,32.2911299 C109.020693,31.0561299 111.425693,28.9111299 113.895693,26.7011299 L120.265693,21.1111299 C120.005693,21.1111299 119.745693,21.1761299 119.550693,21.2411299 C118.900693,21.3711299 118.315693,20.8511299 118.835693,20.1361299 C119.615693,19.0311299 120.590693,18.9011299 121.825693,19.0311299 C122.670693,19.0961299 123.385693,19.4211299 124.035693,19.8111299 C124.685693,20.2011299 125.270693,20.7211299 125.985693,21.2411299 C128.845693,23.3861299 132.095693,26.3761299 134.825693,29.4961299 C136.905693,31.8361299 139.180693,33.7211299 142.365693,34.9561299 C142.820693,35.1511299 143.015693,36.0611299 142.430693,36.3211299 C141.520693,36.8411299 140.545693,36.5811299 139.765693,36.1261299 Z M137.035693,7.72112988 C135.735693,9.02112988 134.175693,10.0611299 131.445693,10.5811299 L134.110693,12.1411299 C135.150693,12.7911299 136.125693,13.4411299 136.970693,14.2861299 C137.750693,15.1311299 137.880693,15.7161299 137.230693,15.9761299 C136.775693,16.1711299 136.060693,16.0411299 135.735693,15.7811299 C133.525693,14.0911299 130.860693,12.4661299 128.520693,11.4261299 C128.000693,11.1661299 127.935693,10.7111299 128.195693,10.3211299 C128.390693,9.93112988 128.910693,9.73612988 129.430693,9.60612988 C129.885693,9.47612988 130.470693,9.34612988 130.795693,9.21612988 C133.070693,8.50112988 134.955693,7.33112988 135.930693,5.57612988 C136.125693,5.18612988 135.670693,4.86112988 135.475693,4.79612988 C134.240693,4.47112988 133.005693,4.47112988 131.575693,4.92612988 C130.535693,5.38112988 129.495693,6.16112988 128.585693,7.33112988 C128.260693,7.65612988 127.805693,7.07112988 127.870693,6.81112988 C128.260693,5.77112988 129.495693,3.82112988 130.600693,3.17112988 C131.900693,2.58612988 133.200693,2.26112988 134.370693,2.32612988 C135.345693,2.39112988 136.320693,2.65112988 137.360693,3.30112988 C137.620693,3.56112988 137.815693,3.88612988 138.010693,4.21112988 C138.205693,4.53612988 138.335693,4.99112988 138.270693,5.51112988 C138.140693,6.29112988 137.620693,7.13612988 137.035693,7.72112988 Z M128.325693,31.4461299 C124.230693,31.0561299 120.265693,32.2261299 116.495693,33.2661299 C115.650693,33.5261299 114.090693,32.8111299 113.700693,32.0311299 C113.375693,31.5111299 113.635693,30.9261299 114.285693,30.9261299 C114.545693,30.9911299 114.805693,31.0561299 115.065693,31.0561299 C115.325693,31.1211299 115.520693,31.1211299 115.650693,31.0561299 C119.095693,30.2111299 122.605693,29.2361299 126.180693,29.2361299 C127.220693,29.2361299 128.390693,29.3661299 128.975693,29.9511299 C129.560693,30.4711299 129.040693,31.5111299 128.325693,31.4461299 Z M191.440693,25.3361299 C191.245693,25.7911299 190.920693,26.1811299 190.660693,26.5711299 C188.320693,30.4711299 185.655693,34.2411299 182.275693,37.4911299 C181.690693,37.6861299 181.170693,37.3611299 180.975693,36.9061299 C180.650693,33.6561299 180.520693,30.4061299 180.715693,27.2211299 C180.845693,24.1661299 181.300693,21.1111299 181.950693,18.2511299 C182.340693,16.5611299 183.510693,15.5861299 184.875693,14.8061299 L187.150693,13.4411299 C187.865693,12.9861299 188.580693,12.4661299 189.035693,11.8161299 C189.100693,11.4911299 188.905693,11.2311299 188.710693,11.0361299 L188.450693,10.8411299 C186.370693,10.2561299 183.900693,10.6461299 181.885693,11.2311299 C179.740693,11.8161299 177.790693,12.9211299 175.970693,14.3511299 C173.370693,16.4311299 171.160693,19.2261299 169.730693,21.9561299 C169.600693,22.2161299 168.950693,22.4111299 168.755693,22.2161299 C168.495693,21.8911299 168.560693,21.3711299 168.690693,20.9811299 C169.405693,19.2911299 170.250693,17.7311299 171.355693,16.2361299 C172.395693,14.8711299 173.630693,13.6361299 174.995693,12.5311299 C176.880693,11.0361299 179.155693,9.80112988 181.430693,9.08612988 C182.795693,8.69612988 184.615693,8.37112988 186.305693,8.43612988 C187.605693,8.50112988 188.905693,8.76112988 189.880693,9.34612988 C190.985693,9.93112988 191.570693,11.0361299 190.790693,12.5311299 C189.685693,13.8961299 188.190693,14.6761299 186.695693,15.5861299 C185.785693,16.1711299 184.875693,16.8861299 184.225693,17.7961299 C183.705693,19.8761299 183.185693,23.4511299 182.990693,26.8311299 C182.795693,29.4961299 182.795693,32.0311299 182.990693,33.7211299 C185.915693,30.4061299 188.710693,26.8961299 190.595693,23.0611299 C191.375693,22.2161299 191.765693,23.1261299 191.830693,23.8411299 C191.830693,24.3611299 191.700693,24.8811299 191.440693,25.3361299 Z M193.325693,40.1561299 C191.310693,42.0411299 188.905693,43.7311299 186.240693,45.0961299 C183.250693,46.5911299 180.065693,47.6961299 176.880693,47.8261299 C174.930693,47.5661299 173.110693,47.0461299 171.940693,45.1611299 C171.030693,43.7961299 170.965693,41.9761299 170.900693,40.3511299 C170.640693,35.9961299 170.575693,31.7061299 170.770693,27.3511299 C170.835693,26.7011299 170.965693,25.7261299 171.810693,25.2711299 C172.525693,25.1411299 173.045693,25.5311299 173.500693,25.9861299 C173.565693,26.1161299 173.695693,26.2461299 173.825693,26.3761299 C174.020693,26.6361299 173.890693,26.8961299 173.760693,27.0261299 L173.565693,27.2211299 L173.370693,27.3511299 L172.915693,28.3911299 C172.850693,33.3961299 172.980693,37.8811299 173.305693,42.7561299 C173.695693,44.3161299 174.670693,45.3561299 176.230693,45.6161299 C177.530693,45.8761299 179.350693,45.5511299 181.300693,44.9011299 C184.030693,43.9911299 186.825693,42.5611299 188.320693,41.5861299 C190.595693,40.0911299 192.740693,38.2711299 194.820693,36.4511299 C195.145693,36.2561299 195.730693,36.2561299 195.925693,36.8411299 C195.210693,38.0761299 194.365693,39.1811299 193.325693,40.1561299 Z M163.945693,36.5161299 C162.905693,38.9861299 161.410693,41.3261299 159.135693,43.2111299 C158.680693,43.4061299 158.030693,43.4061299 157.575693,43.0811299 C157.250693,42.9511299 157.055693,42.7561299 156.925693,42.4961299 L156.470693,41.7811299 C156.600693,39.8311299 157.185693,38.1411299 157.445693,36.2561299 L157.835693,33.1361299 C157.965693,32.1611299 157.965693,31.1211299 157.900693,30.0811299 C157.510693,29.3661299 156.860693,29.0411299 156.080693,28.9111299 C155.495693,28.7811299 154.845693,28.8461299 154.195693,28.8461299 C153.545693,28.8461299 152.895693,28.9111299 152.310693,28.9111299 C151.205693,29.1061299 149.450693,29.4961299 148.540693,29.6911299 C147.370693,29.3011299 147.370693,28.3261299 147.890693,27.6111299 C150.295693,26.5061299 152.570693,25.5311299 154.585693,23.4511299 C155.235693,23.3211299 155.235693,24.1661299 155.040693,24.4261299 C154.455693,25.2061299 153.480693,26.1811299 152.635693,26.8311299 C153.220693,26.8311299 153.805693,26.7661299 154.390693,26.7661299 C155.170693,26.7011299 156.015693,26.7011299 156.730693,26.8311299 C157.965693,27.0261299 159.005693,27.5461299 159.720693,28.5861299 C160.110693,29.1711299 160.240693,29.8211299 160.240693,30.4711299 C160.175693,31.1211299 160.110693,31.7711299 160.110693,32.4211299 C159.720693,35.2161299 159.330693,38.0761299 158.615693,40.7411299 C158.615693,40.7411299 158.875693,40.9361299 158.940693,40.8711299 C160.240693,39.4411299 161.085693,38.0111299 161.930693,36.4511299 C163.230693,33.9811299 164.335693,31.3161299 165.115693,28.6511299 C165.245693,28.3261299 165.570693,28.2611299 165.765693,28.3911299 C166.025693,28.4561299 166.155693,28.6511299 166.155693,28.9761299 C165.765693,31.6411299 164.920693,34.1111299 163.945693,36.5161299 Z M162.255693,12.2061299 C161.930693,11.9461299 161.605693,11.6211299 161.215693,11.3611299 C159.395693,10.4511299 157.510693,9.80112988 155.560693,9.28112988 C155.105693,8.95612988 154.520693,8.56612988 154.455693,7.98112988 C154.260693,7.33112988 154.780693,6.87612988 155.235693,6.68112988 C155.820693,6.74612988 156.340693,6.94112988 156.795693,7.13612988 C157.315693,7.33112988 157.770693,7.59112988 158.290693,7.72112988 C159.525693,8.11112988 161.020693,8.63112988 162.190693,9.54112988 C163.100693,10.2561299 163.945693,11.4261299 163.685693,12.9211299 C163.035693,12.7911299 162.645693,12.4661299 162.255693,12.2061299 Z M204.245693,58.9411299 C203.920693,59.1361299 203.530693,58.8111299 203.530693,58.4861299 C204.830693,56.2761299 207.170693,50.8161299 206.845693,48.2811299 C206.130693,48.3461299 205.415693,48.5411299 204.765693,48.4761299 C203.855693,48.3461299 203.400693,47.7611299 203.270693,46.9161299 C203.140693,45.9411299 203.595693,44.9011299 204.115693,44.1211299 C204.635693,43.4061299 205.350693,43.0161299 206.195693,42.8861299 C208.275693,42.6261299 209.315693,44.4461299 209.380693,46.2661299 C209.510693,49.9061299 207.430693,55.1061299 204.245693,58.9411299 Z M278.865693,47.1111299 C277.890693,47.1761299 277.045693,47.1111299 276.265693,46.8511299 L273.860693,46.0711299 C271.780693,45.4211299 269.700693,44.5111299 267.685693,43.4061299 C266.255693,44.6411299 264.825693,45.8761299 263.200693,46.8511299 C261.575693,47.8911299 259.885693,48.5411299 257.805693,48.5411299 C257.025693,48.5411299 256.440693,47.9561299 256.960693,47.3711299 C258.715693,47.1111299 260.405693,46.5261299 261.900693,45.5511299 C263.200693,44.7061299 264.500693,43.5361299 265.670693,42.3011299 C263.070693,40.7411299 260.535693,38.9861299 258.065693,37.1011299 C256.830693,40.3511299 255.530693,43.5361299 253.255693,46.4611299 C252.995693,46.7211299 252.410693,46.3961299 252.410693,46.0061299 C254.100693,42.7561299 255.335693,39.4411299 256.310693,35.9961299 C256.180693,35.8011299 255.790693,35.7361299 255.595693,35.6711299 C255.270693,35.5411299 254.880693,35.3461299 254.945693,34.7611299 C255.465693,34.1761299 256.115693,34.0461299 256.765693,34.1761299 C257.610693,31.5761299 258.260693,28.7811299 259.170693,26.1811299 C259.820693,24.2311299 260.665693,22.4111299 261.770693,20.5911299 C262.030693,20.3311299 262.615693,19.8111299 263.135693,20.2661299 C263.525693,20.5911299 263.525693,21.1761299 263.395693,21.5661299 C262.420693,23.3211299 261.705693,25.2061299 261.055693,27.0911299 C260.145693,29.6261299 259.430693,32.3561299 258.715693,35.0211299 C261.315693,37.1661299 264.175693,38.9861299 267.035693,40.7411299 C269.570693,37.8811299 271.455693,34.6311299 272.755693,31.1861299 C273.015693,30.0161299 272.885693,28.6511299 271.910693,27.8711299 C271.585693,27.6111299 271.195693,27.3511299 270.805693,27.1561299 L269.570693,26.3761299 C268.790693,25.8561299 267.880693,25.3361299 267.230693,24.6861299 C266.255693,23.7111299 265.735693,22.4111299 266.255693,20.6561299 C267.750693,17.6661299 269.505693,14.8061299 270.870693,11.6861299 C271.000693,10.7761299 271.000693,9.86612988 270.415693,9.21612988 C269.765693,8.63112988 269.115693,8.30612988 268.400693,8.24112988 C266.580693,7.98112988 264.565693,8.04612988 262.745693,7.72112988 C261.055693,7.46112988 259.495693,6.74612988 258.390693,5.25112988 C258.325693,4.73112988 258.650693,4.21112988 259.170693,4.08112988 C260.665693,4.86112988 262.095693,5.44612988 263.655693,5.70612988 C264.630693,5.90112988 265.670693,5.90112988 266.710693,5.96612988 C267.750693,6.03112988 268.790693,6.09612988 269.765693,6.35612988 C271.130693,6.74612988 272.365693,7.52612988 273.015693,9.02112988 C273.600693,10.3211299 273.145693,11.6861299 272.690693,12.7911299 C271.520693,15.5861299 269.895693,18.2511299 268.400693,20.9811299 C268.270693,21.7611299 268.400693,22.6711299 268.855693,23.2561299 C269.180693,23.5811299 269.570693,23.8411299 269.960693,24.1661299 L271.325693,24.9461299 C272.235693,25.4661299 273.210693,26.0511299 273.925693,26.7661299 C274.900693,27.7411299 275.550693,29.0411299 275.030693,30.8611299 C273.860693,34.8261299 271.780693,38.5311299 269.050693,41.8461299 C271.975693,43.4061299 274.640693,44.5761299 278.020693,45.2261299 C278.735693,45.3561299 279.385693,45.3561299 280.035693,45.2261299 C280.685693,45.0311299 281.335693,44.8361299 281.920693,44.5761299 C282.180693,44.5111299 282.375693,44.7711299 282.440693,44.9661299 C282.505693,45.1611299 282.440693,45.4211299 282.245693,45.6811299 C281.335693,46.4611299 280.035693,46.9811299 278.865693,47.1111299 Z M254.100693,30.5361299 C253.125693,30.7961299 252.280693,30.5361299 251.565693,30.0811299 C250.720693,29.6261299 250.070693,28.9111299 249.355693,28.2611299 L248.900693,27.8711299 C248.640693,32.2261299 248.510693,39.9611299 248.250693,44.5761299 C248.445693,45.1611299 248.185693,45.6811299 247.925693,46.2011299 C246.885693,46.2661299 246.495693,45.4211299 246.300693,44.9011299 C246.105693,40.9361299 246.430693,36.1911299 246.495693,32.0311299 C246.495693,30.8611299 246.625693,29.6911299 246.625693,28.5211299 C246.105693,29.4961299 245.650693,30.5361299 245.195693,31.5111299 C244.610693,32.6811299 244.025693,33.9161299 243.180693,35.0861299 C242.465693,36.0611299 241.880693,36.9711299 241.165693,37.8811299 C240.515693,38.7261299 239.670693,39.5711299 238.565693,40.2211299 C237.850693,40.6111299 236.485693,40.6111299 236.290693,39.6361299 C237.525693,38.7911299 238.435693,37.9461299 239.215693,36.9711299 C239.995693,35.9961299 240.710693,35.0211299 241.490693,33.9161299 C242.465693,32.6161299 243.180693,31.1861299 243.895693,29.7561299 C244.545693,28.3911299 245.130693,26.9611299 245.845693,25.6611299 L245.260693,25.4661299 C245.000693,25.4011299 244.740693,25.2711299 244.415693,25.0111299 C244.545693,24.4911299 244.870693,24.2961299 245.195693,24.1661299 C245.520693,24.0361299 245.845693,23.9711299 246.105693,23.8411299 L246.885693,23.8411299 C246.950693,22.5411299 247.145693,20.3311299 247.340693,18.7061299 C244.740693,19.9411299 241.945693,21.3061299 240.710693,21.9561299 C240.255693,22.2161299 239.735693,22.1511299 239.280693,21.9561299 C238.890693,21.8261299 238.435693,21.5661299 238.045693,21.3711299 C237.460693,21.1111299 237.655693,20.4611299 237.915693,20.2011299 C241.100693,18.9011299 244.935693,17.4061299 247.470693,16.3011299 C247.600693,15.5211299 247.600693,14.7411299 247.665693,13.9611299 C247.730693,13.1811299 247.860693,12.4011299 248.250693,11.5561299 C248.900693,10.9711299 249.680693,11.5561299 250.005693,12.1411299 C250.070693,12.7911299 250.135693,13.3761299 250.005693,13.9611299 L249.745693,15.3261299 C251.305693,14.8061299 252.865693,14.1561299 254.425693,13.5711299 C255.075693,13.4411299 255.855693,13.6361299 256.050693,14.3511299 C256.050693,14.7411299 255.790693,15.0011299 255.530693,15.1311299 C255.400693,15.1961299 255.335693,15.2611299 255.205693,15.2611299 L254.880693,15.4561299 C253.060693,16.0411299 251.305693,16.7561299 249.680693,17.6011299 L249.030693,25.0761299 L249.875693,25.7911299 L250.785693,26.6361299 C251.435693,27.2211299 252.085693,27.8061299 252.735693,28.0011299 C253.320693,28.2611299 254.035693,28.2611299 254.750693,27.8061299 C255.530693,27.2861299 255.790693,26.3111299 256.375693,25.5961299 C256.765693,25.0761299 257.480693,24.9461299 257.285693,25.9211299 C256.960693,27.7411299 255.855693,29.5611299 254.100693,30.5361299 Z M334.115693,40.2861299 C332.425693,39.9611299 331.125693,38.7911299 329.825693,37.8811299 L328.525693,36.9711299 C325.730693,35.4111299 323.000693,33.3961299 319.815693,32.6811299 C319.815693,35.8661299 319.555693,41.5861299 319.360693,44.3811299 L318.840693,46.2011299 C318.580693,46.8511299 318.255693,47.3711299 317.605693,47.8911299 C317.085693,47.8911299 317.020693,47.2411299 317.085693,46.8511299 L317.410693,45.2911299 C317.475693,40.7411299 317.670693,35.7361299 317.605693,31.5761299 C315.915693,33.2661299 314.290693,35.0211299 312.730693,36.7761299 C311.105693,38.6611299 309.545693,40.6111299 307.920693,42.5611299 C307.530693,42.8861299 307.140693,43.2111299 306.750693,43.4711299 C306.295693,43.7311299 305.840693,43.9261299 305.255693,43.8611299 C304.865693,43.4061299 305.190693,42.8861299 305.515693,42.5611299 C307.400693,40.2211299 309.220693,37.8161299 311.170693,35.4761299 C313.120693,33.1361299 315.200693,30.9261299 317.605693,28.9111299 L317.605693,26.7011299 L316.695693,27.1561299 C315.590693,27.8711299 314.485693,28.7811299 313.185693,28.9761299 C312.405693,28.7161299 312.015693,27.6761299 312.665693,27.1561299 C313.250693,26.7011299 314.225693,26.1811299 315.135693,25.5961299 C316.045693,25.0761299 316.955693,24.5561299 317.540693,24.1661299 C317.540693,22.7361299 317.475693,20.3311299 317.410693,18.5111299 C315.590693,19.5511299 313.900693,21.2411299 313.185693,23.1261299 C312.925693,23.7761299 312.860693,24.4261299 312.730693,25.0761299 C312.600693,25.7261299 312.470693,26.4411299 312.015693,27.1561299 C310.910693,27.2211299 310.715693,26.2461299 310.455693,25.4661299 C310.390693,25.2061299 310.325693,25.0111299 310.195693,24.8161299 C309.870693,23.1261299 309.350693,21.4361299 309.025693,19.7461299 C308.700693,17.9911299 308.505693,16.2361299 308.765693,14.3511299 C309.545693,12.6611299 311.430693,11.7511299 313.185693,11.4261299 C313.510693,11.3611299 313.965693,11.4911299 314.160693,11.9461299 C313.770693,12.5961299 313.250693,12.9211299 312.730693,13.1811299 C312.145693,13.4411299 311.625693,13.7011299 311.300693,14.2211299 C310.780693,14.6111299 310.650693,15.2611299 310.715693,15.9761299 C310.780693,17.9911299 311.170693,19.9411299 311.690693,21.8261299 L312.080693,21.1761299 C312.210693,20.7861299 312.405693,20.3961299 312.665693,20.0061299 C314.095693,18.4461299 315.655693,17.1461299 317.345693,16.0411299 C317.215693,13.6361299 317.085693,8.24112988 316.955693,6.74612988 C315.915693,6.68112988 314.810693,6.81112988 313.705693,6.87612988 C312.535693,6.94112988 311.365693,7.00612988 310.260693,6.87612988 C309.870693,6.42112988 309.610693,5.83612988 309.935693,5.44612988 L311.040693,4.99112988 L316.890693,4.73112988 C316.890693,4.27612988 316.825693,3.82112988 316.760693,3.30112988 C316.695693,2.78112988 316.695693,2.19612988 316.760693,1.61112988 C317.410693,0.57112988 318.710693,1.28612988 318.775693,2.06612988 L319.035693,4.99112988 C319.490693,5.12112988 320.010693,5.18612988 320.595693,5.31612988 C321.180693,5.44612988 321.765693,5.64112988 322.285693,5.83612988 C323.325693,6.29112988 324.170693,6.94112988 324.625693,8.24112988 C324.690693,8.63112988 324.235693,9.15112988 323.780693,8.82612988 C322.415693,7.91612988 320.790693,7.46112988 319.165693,7.07112988 C319.100693,9.73612988 319.360693,12.4011299 319.425693,15.0011299 L321.115693,14.4811299 C321.765693,14.2861299 322.480693,14.0261299 323.195693,13.9611299 C324.170693,13.8961299 325.210693,13.9611299 326.185693,14.6111299 C326.770693,15.0011299 327.355693,15.7811299 327.355693,16.6911299 C327.355693,17.2111299 327.160693,17.6011299 326.965693,18.0561299 L329.175693,16.5611299 C329.695693,16.4311299 329.955693,17.0811299 329.825693,17.5361299 C329.630693,18.0561299 329.240693,18.4461299 328.850693,18.8361299 C325.730693,20.9811299 322.740693,23.3861299 319.685693,25.3361299 C319.685693,26.9611299 319.750693,29.6911299 319.815693,31.1861299 C323.780693,31.3161299 327.030693,33.7861299 330.410693,35.7361299 C331.840693,36.9061299 333.790693,37.6211299 334.830693,39.3111299 C334.895693,39.7661299 334.440693,40.1561299 334.115693,40.2861299 Z M336.585693,48.9961299 C336.195693,49.1911299 335.805693,49.3211299 335.415693,49.5811299 C332.425693,51.1411299 329.110693,52.1161299 325.535693,52.7011299 C321.180693,53.3511299 316.630693,53.2861299 312.210693,52.6361299 C309.805693,52.2461299 308.440693,51.8561299 307.205693,51.2711299 C305.970693,50.7511299 304.865693,49.9711299 302.980693,48.9311299 C299.470693,47.0461299 295.960693,45.0311299 292.450693,43.0811299 C290.955693,42.5611299 289.395693,42.2361299 287.640693,42.2361299 C287.250693,42.1061299 287.185693,41.3911299 287.510693,41.1961299 C288.420693,40.6761299 289.395693,40.5461299 290.370693,40.6761299 C291.670693,40.8711299 292.905693,41.2611299 293.945693,41.7161299 C297.130693,43.1461299 300.185693,45.0961299 303.240693,46.8511299 C305.125693,47.8911299 306.230693,48.6061299 307.465693,49.1911299 C308.635693,49.7111299 310.000693,50.1011299 312.275693,50.4911299 C316.500693,51.1411299 320.855693,51.2061299 325.080693,50.6211299 C329.370693,50.0361299 333.465693,48.7361299 337.040693,46.7211299 C338.145693,46.5911299 338.080693,47.4361299 337.625693,48.0861299 C337.365693,48.5411299 336.975693,48.7361299 336.585693,48.9961299 Z M296.090693,40.0911299 C295.895693,40.2861299 295.050693,40.0911299 295.115693,39.7661299 C295.180693,39.3111299 295.310693,38.9861299 295.505693,38.7261299 C295.570693,38.5311299 295.635693,38.4011299 295.765693,38.2711299 C295.830693,38.1411299 295.895693,37.9461299 295.895693,37.7511299 C296.675693,36.3861299 296.415693,35.2161299 295.895693,34.1111299 C295.570693,33.5261299 295.115693,32.8761299 294.595693,32.2261299 L293.880693,31.3161299 L293.295693,30.4061299 C292.580693,29.5611299 292.450693,28.0661299 293.035693,27.0911299 C294.140693,25.3361299 295.960693,24.1661299 297.845693,23.8411299 C298.040693,23.7761299 298.235693,23.9711299 298.235693,24.2311299 C298.300693,24.3611299 298.235693,24.6211299 298.040693,24.7511299 C297.585693,25.4011299 296.805693,25.9211299 296.155693,26.3761299 L295.570693,26.8961299 C294.985693,27.4161299 294.660693,28.0011299 294.985693,28.9111299 C295.310693,29.5611299 295.765693,30.1461299 296.155693,30.7311299 C296.610693,31.3161299 297.130693,31.9011299 297.455693,32.6161299 C297.975693,33.4611299 298.300693,34.5011299 298.235693,35.6061299 C298.105693,37.3611299 297.455693,38.9861299 296.090693,40.0911299 Z M324.495693,16.2361299 C323.910693,15.9761299 323.260693,15.9761299 322.675693,16.1061299 C322.090693,16.2361299 321.570693,16.4311299 321.050693,16.6911299 L319.555693,17.2761299 C319.555693,18.7711299 319.685693,21.3061299 319.750693,22.8011299 C320.855693,21.9561299 322.870693,20.6561299 323.650693,20.0711299 L324.495693,18.7711299 C324.755693,18.3161299 324.950693,17.9261299 325.015693,17.4711299 C325.145693,16.7561299 325.015693,16.4311299 324.495693,16.2361299 Z M299.795693,19.1611299 C297.910693,16.8861299 295.245693,16.2361299 292.450693,15.7161299 C291.930693,15.2611299 291.410693,14.4811299 292.190693,14.0261299 C293.425693,13.6361299 294.465693,13.7011299 295.570693,14.0261299 C297.065693,14.5461299 298.430693,15.4561299 299.795693,16.3011299 C300.575693,16.9511299 301.095693,17.7311299 301.030693,18.9011299 C300.965693,19.5511299 300.055693,19.6161299 299.795693,19.1611299 Z M387.740693,36.9711299 C385.855693,36.9711299 383.840693,35.4761299 382.150693,33.7211299 C380.655693,32.0961299 379.355693,30.2761299 378.640693,28.9761299 C378.315693,28.4561299 378.445693,27.8061299 378.835693,27.4811299 C379.160693,27.1561299 379.745693,27.0911299 380.200693,27.5461299 C381.305693,29.2361299 382.605693,31.0561299 384.035693,32.6161299 C385.205693,33.9161299 386.635693,35.1511299 388.130693,35.9311299 C388.650693,36.3211299 388.455693,36.9061299 387.740693,36.9711299 Z M373.895693,33.2011299 C372.985693,35.8661299 371.685693,38.3361299 370.775693,39.8311299 C369.670693,41.5861299 368.370693,42.8211299 366.680693,43.6661299 C364.925693,44.5111299 362.845693,44.9661299 360.765693,44.8361299 C360.180693,44.6411299 359.790693,44.1211299 359.725693,43.4711299 C361.545693,43.5361299 363.625693,43.2761299 364.990693,42.5611299 C366.485693,41.7161299 367.720693,40.6761299 368.695693,39.2461299 C369.995693,37.2311299 371.035693,34.8261299 371.880693,32.2911299 C372.725693,29.7561299 373.375693,27.0911299 373.505693,24.4911299 C373.570693,23.3211299 373.570693,22.0211299 373.440693,20.9811299 C373.050693,19.6161299 371.815693,18.4461299 370.515693,18.3811299 C369.475693,18.3161299 368.435693,18.3161299 367.395693,18.4461299 C366.160693,23.6461299 364.405693,28.3261299 362.325693,33.0061299 C360.960693,36.0611299 358.880693,39.7661299 356.215693,42.6911299 C354.265693,44.8361299 351.990693,46.4611299 349.390693,47.1111299 C347.895693,47.4361299 346.530693,47.4361299 345.035693,46.8511299 C343.930693,46.4611299 342.630693,45.4861299 342.240693,44.1861299 C342.175693,43.7961299 342.695693,43.2761299 343.085693,43.7311299 C343.995693,44.7061299 345.295693,45.1611299 346.595693,45.2261299 C348.025693,45.3561299 349.325693,45.1611299 350.560693,44.5761299 C352.055693,43.7961299 353.420693,42.6261299 354.655693,41.2611299 C356.150693,39.6361299 357.385693,37.6861299 358.490693,35.8661299 C356.475693,35.0211299 354.265693,33.9811299 352.510693,32.4211299 C351.210693,31.2511299 350.170693,29.8211299 349.585693,28.1311299 C349.585693,27.6761299 349.845693,27.2211299 350.365693,27.0261299 C351.210693,27.0911299 351.665693,27.6111299 351.990693,28.1311299 C352.315693,28.6511299 352.575693,29.3011299 353.030693,29.6911299 C354.785693,31.7061299 356.995693,33.1361299 359.270693,34.1761299 C361.285693,30.2111299 363.495693,24.5561299 364.860693,18.9011299 C362.520693,19.4211299 360.245693,20.2011299 358.165693,21.0461299 C357.645693,21.1111299 357.190693,21.1761299 356.670693,21.1761299 C356.215693,21.1111299 355.695693,21.0461299 355.175693,20.6561299 C354.590693,20.3311299 354.655693,19.5511299 355.240693,19.3561299 C356.020693,19.1611299 356.995693,19.0311299 357.775693,18.8361299 C360.245693,18.1211299 362.845693,17.2111299 365.445693,16.6911299 C366.160693,12.9861299 366.485693,9.41112988 366.680693,6.42112988 C366.745693,5.51112988 367.785693,5.25112988 368.370693,6.35612988 C368.825693,7.13612988 368.825693,8.30612988 368.760693,9.21612988 C368.695693,11.6861299 368.305693,14.0911299 367.850693,16.3661299 C369.410693,16.2361299 371.100693,16.4311299 372.465693,16.8211299 C373.635693,17.4711299 374.805693,18.5111299 375.390693,19.9411299 C376.040693,21.4361299 375.975693,23.5161299 375.650693,25.7911299 C375.325693,28.2611299 374.740693,30.7961299 373.895693,33.2011299 Z M435.970693,43.0161299 L435.190693,43.4061299 C434.930693,43.4711299 434.670693,43.6011299 434.540693,43.7311299 C429.925693,46.2661299 425.505693,49.3861299 421.345693,52.8311299 C421.020693,53.0911299 420.760693,53.0261299 420.565693,52.8961299 C420.305693,52.7661299 420.240693,52.7661299 419.980693,52.5711299 C419.785693,52.3111299 419.655693,52.1161299 419.395693,51.8561299 C419.265693,51.5311299 419.200693,51.2061299 419.460693,50.8161299 C421.215693,49.5161299 423.035693,48.0861299 424.595693,46.4611299 C426.675693,44.3161299 428.495693,41.9111299 429.535693,39.3111299 C429.860693,38.5961299 430.315693,37.2311299 430.120693,36.4511299 C429.990693,35.9311299 429.470693,35.4111299 428.950693,35.2161299 C427.715693,34.8261299 426.350693,35.0211299 425.245693,35.4761299 C425.180693,38.2061299 425.245693,40.9361299 424.530693,43.6011299 C424.075693,44.1861299 423.425693,44.5761299 422.840693,44.7061299 C421.475693,44.5111299 420.370693,43.6661299 419.265693,42.8861299 C418.030693,41.7161299 416.470693,40.4161299 416.665693,38.5311299 C416.795693,37.3611299 417.640693,36.5811299 418.615693,35.9961299 C419.200693,35.6061299 420.110693,35.1511299 420.955693,34.7611299 C421.800693,34.4361299 422.580693,34.1111299 423.035693,33.8511299 C423.035693,31.8361299 422.970693,29.2361299 422.905693,27.6761299 C422.190693,27.8061299 421.345693,27.5461299 420.695693,27.0911299 C420.370693,27.1561299 420.045693,27.0911299 419.720693,27.0261299 C419.460693,26.9611299 419.265693,26.8961299 419.070693,26.9611299 C419.135693,27.2861299 419.070693,27.7411299 418.615693,28.0011299 C417.510693,27.5461299 416.925693,26.7661299 416.470693,25.8561299 C416.080693,25.0111299 415.820693,24.0361299 415.495693,23.1911299 C415.170693,22.2811299 415.170693,21.3711299 414.975693,20.4611299 C413.155693,25.2711299 411.075693,30.0161299 407.955693,34.3061299 C406.980693,35.6711299 405.745693,37.1661299 404.120693,37.8811299 C403.340693,38.2061299 402.430693,38.3361299 401.585693,38.0111299 C399.635693,37.1661299 399.375693,35.1511299 399.375693,33.3961299 L399.375693,31.1211299 C398.790693,31.4461299 398.335693,31.8361299 397.750693,32.2261299 C397.165693,32.6811299 396.515693,33.1361299 395.800693,33.3961299 C394.955693,33.6561299 394.175693,33.7211299 393.200693,33.3311299 C392.875693,33.1361299 392.680693,32.6811299 393.005693,32.3561299 C395.085693,31.5111299 396.905693,30.2761299 398.725693,29.1061299 L399.310693,28.7161299 C399.505693,28.5861299 399.570693,28.4561299 399.570693,28.2611299 C399.700693,26.9611299 399.895693,25.7261299 400.025693,24.4911299 C400.220693,23.1911299 400.415693,22.0211299 400.935693,20.8511299 C401.390693,20.2011299 402.040693,19.8111299 402.820693,19.9411299 C404.965693,20.7211299 406.850693,22.4111299 408.280693,24.1661299 C408.280693,24.4261299 408.345693,24.6211299 408.345693,24.7511299 C408.345693,24.9461299 408.280693,25.1411299 408.150693,25.4011299 C405.940693,26.8311299 403.665693,28.1311299 401.650693,29.6911299 C401.585693,30.5361299 401.585693,31.5111299 401.585693,32.4211299 C401.585693,33.3311299 401.715693,34.2411299 401.910693,35.0861299 C402.365693,35.4761299 402.885693,35.7361299 403.405693,35.4761299 C405.940693,34.3711299 407.695693,31.7711299 409.125693,29.5611299 C411.465693,25.7911299 413.090693,21.6961299 414.715693,17.6011299 C414.910693,12.9861299 415.560693,8.63112988 417.575693,4.73112988 C418.290693,4.53612988 418.680693,5.05612988 418.940693,5.44612988 C419.005693,6.55112988 418.745693,7.46112988 418.420693,8.37112988 C418.160693,9.28112988 417.835693,10.1261299 417.640693,11.1011299 C416.990693,14.3511299 416.665693,17.6011299 417.250693,20.9161299 C418.420693,18.8361299 420.500693,17.3411299 422.580693,16.4961299 C422.645693,16.3011299 422.645693,16.1061299 422.775693,15.9111299 C422.840693,15.6511299 423.035693,15.3911299 423.360693,15.3261299 C423.620693,15.3261299 423.815693,15.3911299 424.010693,15.5861299 C424.140693,15.6511299 424.205693,15.7811299 424.335693,15.9111299 C424.855693,15.7811299 425.440693,15.5861299 426.090693,15.4561299 C426.740693,15.2611299 427.455693,15.1311299 428.105693,15.1311299 C429.080693,15.1961299 429.925693,15.3911299 430.575693,16.3011299 C430.835693,17.7311299 430.315693,19.0311299 429.795693,20.2011299 C429.470693,20.9161299 429.015693,21.5661299 428.625693,22.2161299 C430.770693,20.4611299 432.460693,18.0561299 433.565693,15.7811299 C434.150693,14.6111299 434.280693,13.1161299 433.630693,12.0111299 C431.225693,9.54112988 427.975693,8.50112988 424.595693,8.50112988 C423.360693,8.50112988 422.840693,9.08612988 422.450693,10.0611299 C422.060693,11.0361299 421.865693,12.0111299 421.150693,12.7261299 C420.760693,12.8561299 420.565693,12.6611299 420.500693,12.4011299 L420.370693,11.8161299 C420.435693,10.9711299 420.435693,10.1261299 420.565693,9.34612988 C420.760693,8.56612988 421.020693,7.78612988 421.605693,7.13612988 C421.930693,6.74612988 422.385693,6.48612988 422.905693,6.35612988 C423.620693,6.22612988 424.530693,6.16112988 425.310693,6.22612988 C427.520693,6.29112988 429.600693,6.94112988 431.485693,7.85112988 C432.070693,8.11112988 432.785693,8.50112988 433.435693,8.95612988 C434.085693,9.34612988 434.735693,9.86612988 435.255693,10.4511299 C435.970693,11.3611299 436.490693,12.2711299 436.360693,13.5061299 C436.165693,14.9361299 435.645693,16.3661299 434.995693,17.6661299 C433.045693,21.6311299 429.275693,25.0761299 425.115693,26.2461299 L425.245693,33.2661299 C426.480693,33.0711299 427.975693,32.8111299 429.340693,33.1361299 C430.380693,33.3311299 431.485693,34.1111299 431.875693,35.2161299 C432.200693,36.2561299 432.265693,37.1661299 432.135693,38.0111299 C431.875693,39.5711299 431.160693,41.0011299 430.185693,42.3661299 C429.470693,43.4061299 428.690693,44.3811299 427.910693,45.4211299 L431.160693,43.2761299 C432.395693,42.4311299 433.825693,41.8461299 435.450693,41.3261299 C435.775693,41.2611299 436.295693,41.3261299 436.620693,41.5211299 C436.880693,42.3661299 436.425693,42.7561299 435.970693,43.0161299 Z M407.435693,21.0461299 C406.655693,20.7861299 406.720693,20.2661299 406.850693,19.8761299 C406.980693,19.4861299 407.240693,19.0311299 407.110693,18.6411299 C406.980693,18.1211299 406.525693,17.4711299 406.005693,17.2761299 C403.535693,16.7561299 401.325693,17.9261299 398.985693,18.4461299 C398.205693,18.5761299 397.555693,18.3811299 396.970693,17.9261299 C396.580693,17.6661299 396.450693,17.1461299 396.580693,16.6911299 C399.180693,15.8461299 402.040693,14.8061299 404.835693,14.9361299 C405.875693,15.0011299 406.850693,15.3261299 407.760693,15.6511299 C408.345693,15.9111299 408.670693,16.4311299 408.995693,16.8861299 C409.255693,18.3811299 408.930693,20.0711299 407.435693,21.0461299 Z M422.775693,25.4661299 L422.580693,18.8361299 C420.890693,19.4861299 419.135693,21.1111299 418.550693,22.7361299 C418.355693,23.5161299 418.290693,24.4261299 418.875693,24.9461299 C419.200693,25.2061299 419.720693,25.2711299 420.175693,25.2061299 C420.240693,24.6861299 420.370693,24.1661299 420.760693,23.7111299 C421.345693,23.7111299 421.410693,24.0361299 421.475693,24.4261299 L421.605693,24.8811299 L421.800693,25.2061299 C422.125693,25.3361299 422.450693,25.5311299 422.775693,25.4661299 Z M421.020693,37.1011299 C420.305693,37.4261299 419.655693,37.8811299 419.070693,38.5311299 C418.810693,39.1161299 419.070693,39.7661299 419.460693,40.3511299 L420.890693,41.5211299 C421.345693,41.9111299 421.800693,42.1711299 422.385693,42.1711299 C422.515693,42.1711299 422.645693,42.1061299 422.775693,41.8461299 C422.775693,40.4161299 422.905693,37.7511299 422.970693,36.2561299 C422.320693,36.5161299 421.670693,36.7761299 421.020693,37.1011299 Z M428.300693,17.0811299 C427.130693,16.9511299 425.830693,17.2111299 424.790693,17.7311299 C424.985693,19.8111299 424.985693,21.7611299 425.050693,23.9061299 C426.545693,22.0211299 427.975693,20.0061299 428.365693,17.7961299 C428.495693,17.3411299 428.365693,17.0811299 428.300693,17.0811299 Z M403.080693,22.0861299 C402.820693,22.1511299 402.690693,22.2161299 402.690693,22.4111299 C402.365693,23.8411299 402.105693,25.3361299 401.975693,26.8311299 C403.080693,26.2461299 404.185693,25.4661299 405.355693,24.7511299 C405.420693,24.4911299 405.615693,24.2311299 405.550693,23.9061299 C404.900693,23.1261299 404.055693,22.3461299 403.080693,22.0861299 Z M452.876106,48.8652013 C452.421106,49.5802013 451.446106,49.9702013 450.601106,49.7752013 C450.081106,49.5152013 449.496106,49.1252013 449.301106,48.4752013 C448.716106,46.7202013 448.976106,44.5752013 450.146106,43.2102013 C450.666106,42.6252013 451.511106,42.1702013 452.356106,42.3002013 C453.201106,42.4952013 453.526106,43.4052013 453.656106,43.9902013 C454.111106,45.6152013 453.526106,47.5652013 452.876106,48.8652013 Z" id="全球签证,-极速办理-."></path>
            </g>
        </g>
    </g>
</svg>