<svg xmlns="http://www.w3.org/2000/svg" width="112" height="99" viewBox="0 0 112 99">
  <g fill="#FFF" fill-rule="evenodd">
    <path d="M73.7553 3.1975C74.1993 3.2155 74.6423 3.5875 74.5103 3.9285 74.3953 4.2245 74.0633 4.4365 73.8913 4.6175 73.3083 4.4855 72.9803 4.3195 72.9743 3.8475 72.9693 3.4725 73.3333 3.1805 73.7553 3.1975M50.5633 2.4895C50.9543 2.3595 51.3503 2.2005 51.7553 2.1535 53.7253 1.9245 55.6933 1.6655 57.6713 1.5425 59.1813 1.4485 60.7573 1.3075 61.9953 2.5265 62.0543 2.5845 62.1713 2.6025 62.2623 2.6045 63.6963 2.6365 65.1323 2.6795 66.5683 2.6785 67.0313 2.6785 67.5173 2.4395 67.9533 2.5205 68.7653 2.6715 69.5713 2.9185 70.3363 3.2325 71.5023 3.7115 72.6203 4.2935 72.9463 5.6895 72.9633 5.7585 73.0143 5.8325 73.0703 5.8775 73.2563 6.0245 73.4513 6.1595 73.6443 6.2995 73.7723 6.1075 73.8873 5.9065 74.0303 5.7285 74.1673 5.5575 74.3343 5.2835 74.4853 5.2855 74.6743 5.2875 74.9203 5.4895 75.0303 5.6715 75.1503 5.8685 75.1393 6.1425 75.1873 6.3835 75.3093 7.0005 75.7513 7.3575 76.2703 7.6015 76.7343 7.8195 77.0303 7.4945 77.3393 7.1845 77.4423 7.0825 77.7863 7.0595 77.8933 7.1505 78.4223 7.6005 78.9953 8.0375 79.3943 8.5935 80.4933 10.1255 79.8473 12.8265 78.2553 13.6115 76.8503 14.3035 76.6533 15.1445 77.6363 16.3935 78.1853 17.0915 78.7703 17.7615 79.3463 18.4375 80.2303 19.4725 80.4413 19.4855 81.4063 18.5405 81.4253 18.6765 81.4523 18.7795 81.4513 18.8815 81.4423 19.9705 81.7953 20.5645 82.8543 20.7555 83.7113 20.9105 84.6153 20.8505 85.4973 20.8195 85.8393 20.8075 85.9643 20.8995 86.0633 21.1985 86.1743 21.5365 86.3213 21.8685 86.5053 22.1725 86.5663 22.2735 86.7843 22.2805 86.9313 22.3295 86.9573 22.1835 87.0413 22.0195 87.0003 21.8965 86.8463 21.4315 86.6363 20.9855 86.4743 20.5225 85.9923 19.1435 85.5923 17.7485 85.7073 16.2615 85.8103 14.9245 86.6073 14.1315 87.9363 14.0955 89.4253 14.0555 90.8983 14.2345 92.2633 14.8435 93.5263 15.4085 94.7343 16.0975 95.8903 16.6925 95.8883 16.6895 95.8213 16.5845 95.7393 16.4935 93.6413 14.1755 91.3713 12.0375 88.8793 10.1445 84.1843 6.5775 79.0373 3.8925 73.3813 2.1755 70.8413 1.4045 68.2633.8525 65.6463.4495 65.2773.3925 65.0233.3975 64.7693.8045 64.5903 1.0925 64.0683 1.3405 63.7313 1.3055 63.3643 1.2675 62.8183.9415 62.7343.6355 62.5763.0555 62.2353.0705 61.8203.0535 58.2983-.0865 54.7893.0355 51.3033.5835 50.1883.7595 49.0833 1.0055 47.9363 1.2265 48.2393 2.6965 49.5683 2.8225 50.5633 2.4895M102.1147 93.2976C100.2877 93.2976 98.8007 91.8106 98.8007 89.9836 98.8007 88.1556 100.2877 86.6686 102.1147 86.6686 103.9427 86.6686 105.4287 88.1556 105.4287 89.9836 105.4287 91.8106 103.9427 93.2976 102.1147 93.2976M102.1147 86.2166C100.0377 86.2166 98.3477 87.9066 98.3477 89.9836 98.3477 92.0606 100.0377 93.7496 102.1147 93.7496 104.1917 93.7496 105.8817 92.0606 105.8817 89.9836 105.8817 87.9066 104.1917 86.2166 102.1147 86.2166"/>
    <path d="M103.3822 91.2742C103.3202 91.2622 103.2442 91.2902 103.1582 91.3562 103.0452 91.4582 102.9232 91.5402 102.7912 91.6032 102.6602 91.6662 102.5012 91.6992 102.3132 91.7032 102.0782 91.7032 101.8662 91.6612 101.6782 91.5762 101.4902 91.4922 101.3322 91.3732 101.2022 91.2182 101.0732 91.0642 100.9752 90.8802 100.9052 90.6692 100.8372 90.4582 100.8032 90.2272 100.8032 89.9762 100.8032 89.7722 100.8342 89.5672 100.8982 89.3622 100.9602 89.1562 101.0502 88.9732 101.1672 88.8132 101.2842 88.6522 101.4282 88.5212 101.5962 88.4192 101.7652 88.3172 101.9542 88.2662 102.1662 88.2662 102.3192 88.2662 102.4552 88.2922 102.5772 88.3432 102.6982 88.3942 102.8062 88.4492 102.9012 88.5072 102.9942 88.5662 103.0752 88.6182 103.1442 88.6632 103.2122 88.7082 103.2702 88.7252 103.3182 88.7132 103.3612 88.7052 103.3952 88.6912 103.4202 88.6692 103.4452 88.6482 103.4622 88.6212 103.4702 88.5892 103.4782 88.5352 103.4622 88.4702 103.4232 88.3962 103.3722 88.3292 103.3062 88.2642 103.2232 88.1992 103.1412 88.1342 103.0472 88.0772 102.9422 88.0252 102.8352 87.9752 102.7182 87.9342 102.5892 87.9022 102.4592 87.8712 102.3242 87.8552 102.1842 87.8552 101.9132 87.8552 101.6652 87.9112 101.4412 88.0232 101.2152 88.1342 101.0232 88.2862 100.8612 88.4782 100.7012 88.6702 100.5752 88.8952 100.4832 89.1532 100.3912 89.4122 100.3452 89.6862 100.3452 89.9762 100.3452 90.3092 100.3922 90.6072 100.4862 90.8722 100.5802 91.1362 100.7132 91.3602 100.8852 91.5442 101.0582 91.7292 101.2652 91.8692 101.5082 91.9672 101.7512 92.0652 102.0192 92.1142 102.3132 92.1142 102.4822 92.1142 102.6402 92.0892 102.7882 92.0412 102.9382 91.9912 103.0682 91.9332 103.1792 91.8642 103.2912 91.7962 103.3792 91.7262 103.4442 91.6562 103.5082 91.5862 103.5422 91.5282 103.5462 91.4852 103.5502 91.4422 103.5382 91.4002 103.5112 91.3592 103.4842 91.3182 103.4412 91.2902 103.3822 91.2742M54.9447 78.9836C55.0847 79.1396 55.3137 79.2196 55.6377 79.2196 55.9607 79.2196 56.1887 79.1446 56.3287 78.9966 56.4657 78.8516 56.5357 78.6836 56.5357 78.5006L56.5357 71.0506 58.3047 71.0506C58.4697 71.0506 58.6317 70.9916 58.7877 70.8706 58.9447 70.7516 59.0237 70.5436 59.0237 70.2486 59.0237 69.9636 58.9487 69.7586 58.8007 69.6346 58.6527 69.5096 58.4877 69.4476 58.3047 69.4476L52.9687 69.4476C52.7857 69.4476 52.6207 69.5096 52.4717 69.6346 52.3247 69.7586 52.2517 69.9636 52.2517 70.2486 52.2517 70.5436 52.3297 70.7516 52.4857 70.8706 52.6417 70.9916 52.8027 71.0506 52.9687 71.0506L54.7377 71.0506 54.7377 78.5006C54.7377 78.6656 54.8077 78.8266 54.9447 78.9836M66.6098 75.6658C66.5258 76.0918 66.3838 76.4598 66.1818 76.7728 65.9788 77.0858 65.7138 77.3318 65.3868 77.5118 65.0588 77.6908 64.6508 77.7818 64.1638 77.7818 63.6758 77.7818 63.2678 77.6798 62.9418 77.4768 62.6128 77.2738 62.3478 77.0068 62.1448 76.6758 61.9418 76.3428 61.8008 75.9658 61.7168 75.5418 61.6348 75.1188 61.5928 74.6908 61.5928 74.2568 61.5928 73.7778 61.6398 73.3258 61.7298 72.9018 61.8228 72.4778 61.9708 72.1078 62.1728 71.7908 62.3768 71.4728 62.6408 71.2188 62.9678 71.0288 63.2948 70.8418 63.6938 70.7468 64.1638 70.7468 64.6328 70.7468 65.0328 70.8398 65.3588 71.0228 65.6848 71.2078 65.9498 71.4618 66.1528 71.7838 66.3558 72.1058 66.5038 72.4828 66.5958 72.9168 66.6888 73.3498 66.7328 73.8108 66.7328 74.2978 66.7328 74.7878 66.6938 75.2428 66.6098 75.6658M66.1048 69.5648C65.5568 69.3018 64.9088 69.1718 64.1638 69.1718 63.3888 69.1718 62.7268 69.3018 62.1798 69.5648 61.6308 69.8268 61.1808 70.1868 60.8258 70.6438 60.4708 71.0998 60.2108 71.6378 60.0458 72.2598 59.8798 72.8818 59.7968 73.5478 59.7968 74.2568 59.7968 74.9958 59.8878 75.6768 60.0738 76.3038 60.2568 76.9298 60.5328 77.4678 60.9008 77.9198 61.2688 78.3708 61.7258 78.7228 62.2708 78.9768 62.8128 79.2308 63.4448 79.3558 64.1638 79.3558 64.9088 79.3558 65.5568 79.2258 66.1048 78.9638 66.6538 78.7008 67.1078 78.3418 67.4678 77.8848 67.8248 77.4288 68.0938 76.8898 68.2678 76.2678 68.4428 75.6458 68.5308 74.9758 68.5308 74.2568 68.5308 73.5378 68.4428 72.8708 68.2678 72.2538 68.0938 71.6358 67.8248 71.0998 67.4678 70.6438 67.1078 70.1868 66.6538 69.8268 66.1048 69.5648M70.9506 78.4783C71.3096 78.7513 71.7166 78.9523 72.1726 79.0873 72.6296 79.2213 73.0926 79.2883 73.5616 79.2883 74.0416 79.2883 74.5096 79.2213 74.9656 79.0873 75.4226 78.9523 75.8256 78.7493 76.1806 78.4713 76.5356 78.1963 76.8206 77.8523 77.0386 77.4413 77.2556 77.0333 77.3626 76.5503 77.3626 75.9993L77.3626 70.0273C77.3626 69.8443 77.2926 69.6773 77.1556 69.5313 77.0166 69.3833 76.7876 69.3093 76.4656 69.3093 76.1236 69.3093 75.8876 69.3883 75.7596 69.5443 75.6296 69.7013 75.5646 69.8623 75.5646 70.0273L75.5646 75.1413C75.5646 75.5463 75.5386 75.9063 75.4836 76.2193 75.4286 76.5333 75.3246 76.7973 75.1726 77.0133 75.0206 77.2293 74.8146 77.3973 74.5566 77.5123 74.2996 77.6263 73.9726 77.6843 73.5756 77.6843 73.1696 77.6843 72.8366 77.6243 72.5746 77.5053 72.3116 77.3843 72.1036 77.2143 71.9526 76.9943 71.8006 76.7733 71.6916 76.5043 71.6286 76.1903 71.5616 75.8773 71.5306 75.5293 71.5306 75.1413L71.5306 70.0273C71.5306 69.8443 71.4626 69.6773 71.3236 69.5313 71.1846 69.3833 70.9556 69.3093 70.6336 69.3093 70.3086 69.3093 70.0796 69.3883 69.9406 69.5443 69.8046 69.7013 69.7326 69.8623 69.7326 70.0273L69.7326 75.9993C69.7326 76.5613 69.8456 77.0463 70.0726 77.4573 70.2986 77.8673 70.5916 78.2073 70.9506 78.4783M81.9643 73.469L80.5133 73.469 80.5133 71.023 81.9643 71.023C82.1673 71.023 82.3633 71.04 82.5513 71.071 82.7403 71.104 82.9063 71.164 83.0493 71.252 83.1933 71.338 83.3053 71.462 83.3893 71.618 83.4713 71.775 83.5133 71.971 83.5133 72.212 83.5133 72.728 83.3803 73.065 83.1173 73.228 82.8563 73.389 82.4723 73.469 81.9643 73.469M83.2923 74.878C83.9073 74.741 84.4003 74.459 84.7643 74.036 85.1273 73.612 85.3083 72.999 85.3083 72.198 85.3083 71.673 85.2373 71.232 85.0943 70.877 84.9513 70.524 84.7393 70.24 84.4593 70.028 84.1793 69.816 83.8283 69.666 83.4093 69.578 82.9893 69.492 82.5093 69.448 81.9643 69.448L79.8773 69.448C79.6373 69.448 79.4433 69.459 79.2913 69.483 79.1393 69.505 79.0223 69.549 78.9383 69.613 78.8543 69.677 78.7973 69.77 78.7663 69.889 78.7333 70.01 78.7173 70.167 78.7173 70.359L78.7173 78.5C78.7173 78.666 78.7813 78.827 78.9113 78.984 79.0393 79.14 79.2643 79.219 79.5883 79.219 79.9103 79.219 80.1453 79.144 80.2923 78.997 80.4403 78.851 80.5133 78.683 80.5133 78.5L80.5133 75.156 84.1773 79.012C84.3333 79.169 84.5403 79.237 84.7993 79.219 85.0553 79.199 85.2773 79.098 85.4603 78.915 85.6463 78.73 85.7323 78.518 85.7233 78.28 85.7143 78.039 85.6173 77.827 85.4343 77.642L82.7253 74.975C82.8263 74.967 82.9243 74.953 83.0143 74.933 83.1073 74.916 83.1993 74.898 83.2923 74.878M71.1107 62.2942L71.1107 36.3552C71.1107 34.6942 69.7447 33.3472 68.0587 33.3472 66.3737 33.3472 65.0067 34.6942 65.0067 36.3552L65.0067 45.4872 49.6907 45.4872 49.6907 36.3552C49.6907 34.6942 48.3247 33.3472 46.6387 33.3472 44.9537 33.3472 43.5877 34.6942 43.5877 36.3552L43.5877 62.2942C43.5877 63.9562 44.9537 65.3022 46.6387 65.3022 48.3247 65.3022 49.6907 63.9562 49.6907 62.2942L49.6907 51.3472 65.0067 51.3472 65.0067 62.2942C65.0067 63.9562 66.3737 65.3022 68.0587 65.3022 69.7447 65.3022 71.1107 63.9562 71.1107 62.2942M18.9115 60.9031L18.9115 60.9021 23.9625 54.1731 31.3795 64.0561C32.3825 65.3931 34.2995 65.6781 35.6605 64.6941 37.0215 63.7081 37.3125 61.8251 36.3085 60.4881L27.7655 49.1051 36.3135 37.6951C37.2665 36.4261 37.0485 34.6481 35.8155 33.6381 34.4735 32.5381 32.4645 32.7761 31.4265 34.1581L23.9945 44.0801 16.5565 34.1691C15.5535 32.8321 13.6365 32.5471 12.2745 33.5311 10.9135 34.5171 10.6225 36.3991 11.6265 37.7361L20.1905 49.1481 11.3605 60.9131C8.0955 65.2641 3.1685 62.9171 3.1685 62.9171 4.6465 64.9741 7.7085 65.7791 7.7085 65.7791 10.6855 66.4971 14.9585 66.1701 18.9115 60.9031"/>
    <path d="M18.8666 32.4441L24.0056 39.2901 29.1416 32.4331C30.2516 30.9551 32.0246 30.0721 33.8856 30.0721 35.2556 30.0721 36.5926 30.5491 37.6486 31.4151 39.0736 32.5821 39.7876 34.2781 39.7716 35.9851 40.1256 35.7761 40.4746 35.5711 40.8286 35.3651 41.3056 32.5941 43.7266 30.4741 46.6516 30.4741 47.4256 30.4741 48.1606 30.6321 48.8386 30.9011 49.3666 30.6171 49.6766 30.4541 49.6766 30.4541L57.4186 30.8801C57.6756 30.5271 58.0246 30.2381 58.4516 30.0031 59.6306 29.3551 60.9156 29.0241 62.2416 28.9271 63.6146 28.8271 64.8926 28.5241 65.7146 27.3461 66.0756 26.8291 66.4526 26.6031 67.0396 26.5721 67.5586 26.5451 68.1276 26.4501 68.3956 27.0051 68.6206 27.4711 68.3476 27.8691 68.0886 28.2481 68.7176 28.4941 69.2686 28.9131 69.6716 29.4631 69.7916 28.8331 69.9196 28.2041 70.0756 27.5841 70.2346 26.9591 70.6696 26.4651 71.2926 26.2411 72.2866 25.8831 72.9806 25.1761 73.5666 24.3551 73.9706 23.7881 74.2296 23.1271 73.9236 22.4331 73.7546 22.0491 73.8706 21.7961 74.0666 21.5011 74.4396 20.9401 74.7956 20.3681 75.1796 19.7681 75.0316 19.7061 74.9516 19.6491 74.8646 19.6391 73.0536 19.4321 71.2766 19.5111 69.5866 20.2931 69.4166 20.3711 69.2346 20.4431 69.0526 20.4681 68.1726 20.5891 67.2946 20.7371 66.4106 20.7951 63.8276 20.9621 61.2426 21.1071 58.6566 21.2231 57.8306 21.2601 56.9926 21.2311 56.1726 21.1341 55.4726 21.0521 54.8006 20.7331 54.0756 21.0111 53.9706 21.0511 53.8146 20.9911 53.6906 20.9511 52.2276 20.4801 50.6896 20.2451 49.3276 19.4461 48.6906 19.0721 48.6426 19.1531 49.0426 18.5991 49.5396 17.9091 49.2916 17.3451 48.4276 17.2071 48.0906 17.1531 47.7496 17.0661 47.4146 17.0801 46.7946 17.1071 46.3376 16.8501 45.8986 16.4441 45.6646 16.2271 45.3316 16.0021 45.0346 15.9901 44.0066 15.9481 42.9536 15.8281 42.0316 16.5141 41.5376 16.8811 40.9716 16.7381 40.4106 16.6161 40.7986 15.6951 40.7986 15.6951 39.9846 15.0721 39.8946 15.0041 39.7856 14.9441 39.7266 14.8531 39.5276 14.5471 39.2506 14.5131 38.9356 14.5991 38.3706 14.7541 37.8096 14.9221 37.2446 15.0731 36.9616 15.1481 36.6776 15.2021 36.5426 14.8231 36.3106 14.1751 36.0126 13.5741 35.4376 13.1421 35.3026 13.0401 35.1876 12.8301 35.1726 12.6601 35.1226 12.1621 35.0656 11.6521 35.1236 11.1601 35.3086 9.5651 35.9056 8.2371 37.5926 7.6901 37.9986 7.5581 38.1976 7.2291 38.1786 6.8141 38.1396 6.0351 36.7846 5.2671 36.0956 5.6281 32.1366 7.7041 28.5166 10.2681 25.2556 13.3251 21.6616 16.6941 18.6196 20.4881 16.1626 24.7371 15.5596 25.7701 14.3906 27.5971 14.3906 27.5971 13.7366 28.5811 13.1716 29.4941 12.6946 30.2931 13.1546 30.1811 13.6186 30.0721 14.1016 30.0721 15.9706 30.0721 17.7526 30.9591 18.8666 32.4441M9.2025 61.6794C6.6295 60.9034 5.3145 58.0484 5.9015 55.1314 6.9775 49.7894 12.3975 47.4034 12.3975 47.4034 5.5665 47.8504.9505 51.3804.1435 55.1144-.4145 57.7014.7585 59.6604 1.8125 60.6334 4.9395 63.5174 9.2025 61.6794 9.2025 61.6794M109.7572 37.6301C109.7572 37.6301 106.8652 33.6331 97.4942 33.3621L97.4902 33.3471 77.9292 33.3471C76.2802 33.3471 74.9442 34.6591 74.9442 36.2771 74.9442 37.8951 76.2802 39.2071 77.9292 39.2071L86.0032 39.2071 86.0032 64.6051C86.0032 64.9901 86.3152 65.3021 86.7002 65.3021L91.4092 65.3021C91.7942 65.3021 92.1072 64.9901 92.1072 64.6051L92.1072 39.2071 97.9112 39.2071 99.1642 39.2071C99.1642 39.2071 107.4302 39.2071 106.6582 45.1831 106.2982 47.9781 101.5112 50.4551 98.8712 50.9201 98.8712 50.9201 105.5182 51.7461 109.1522 48.1631 111.8202 45.5331 112.4612 40.6301 109.7572 37.6301M108.1967 69.2859C107.0057 69.3599 103.5927 69.1989 101.5067 65.2969 101.4577 65.2049 101.3297 65.1869 101.3237 65.2909 101.2597 66.4189 100.7867 70.1159 97.3137 72.0679 97.2207 72.1199 97.2347 72.2489 97.3417 72.2509 98.5537 72.2779 102.3647 72.6519 104.0907 76.1999 104.1387 76.2989 104.2707 76.2999 104.2717 76.1889 104.2877 74.9839 104.6657 71.6059 108.2207 69.4699 108.3147 69.4129 108.3067 69.2789 108.1967 69.2859M99.2787 77.6995C99.0637 77.9165 98.8487 78.1335 98.6357 78.3525 95.5607 81.5215 92.0077 84.0415 88.0697 86.0055 82.8037 88.6315 77.2207 90.0645 71.3377 90.3585 66.8817 90.5805 62.5077 90.1165 58.1977 88.9935 54.0927 87.9245 50.2427 86.2625 46.6427 84.0175 43.4147 82.0035 40.5237 79.5835 37.9877 76.7505 35.6807 74.1745 33.7717 71.3305 32.2747 68.2235L13.2997 68.2235C18.1387 80.5275 30.9037 95.0295 51.1917 98.2725 70.3687 101.3375 87.7847 92.7055 97.5737 80.0935 98.2277 79.3095 98.8547 78.5115 99.4417 77.6925 99.5717 77.5125 99.4607 77.5165 99.2787 77.6995"/>
  </g>
</svg>
