<?xml version="1.0" encoding="UTF-8"?>
<svg width="69px" height="62px" viewBox="0 0 69 62" version="1.1" xmlns="http://www.w3.org/2000/svg" xmlns:xlink="http://www.w3.org/1999/xlink">
    <!-- Generator: Sketch 49.2 (51160) - http://www.bohemiancoding.com/sketch -->
    <title>16</title>
    <desc>Created with Sketch.</desc>
    <defs></defs>
    <g id="Page-1" stroke="none" stroke-width="1" fill="none" fill-rule="evenodd">
        <g id="欣宏途移动端" transform="translate(-149.000000, -3493.000000)" fill="#62C8F2" fill-rule="nonzero">
            <g id="icon-出境线路-copy" transform="translate(149.000000, 3493.000000)">
                <g id="Group-26">
                    <path d="M46.5542354,22.5613491 C36.4728474,28.4358656 27.0758464,33.1194482 20.901831,36.0460195 L11.0813266,36.0460195 L0,25.1840085 L5.02252903,23.52485 L14.2994681,26.9326707 L17.1819901,28.3213142 C19.5777057,26.5066005 21.9961904,24.7200677 24.4369081,22.962112 L12.4445647,4.25216115 C12.3912808,3.47969062 12.4507927,2.76900437 12.8064802,2.10039823 C13.8109168,0.212470912 16.2287615,-0.541965285 18.2051107,0.414856187 L39.6847609,10.8116482 C40.2338621,11.0781556 40.6424876,11.4705693 40.9832971,11.9050631 C53.4278618,4.35569157 65.6589448,-0.940390421 68.6542627,5.0653759 C70.2839204,8.33292958 65.4842151,11.5320196 46.5542354,22.5613491 Z M34.0928005,35.8131489 C34.1280924,35.326222 34.2042123,34.8723579 34.2519603,34.3947821 C35.7951181,33.6146303 37.4095519,32.7863869 39.0966455,31.9010349 C38.9174178,33.1724552 38.770714,34.4746007 38.6956321,35.8131489 L51.2706386,35.8131489 C51.0761869,32.2483627 50.4886797,28.8508951 49.5998069,26.1460793 C50.3309039,25.728618 51.0595789,25.3134944 51.7982879,24.8833422 C52.3712631,24.5493731 52.8913004,24.2447932 53.4376336,23.9248508 C54.8278597,27.2234636 55.8042703,31.28386 56.1350459,35.8131489 L63.6300875,35.8131489 C62.7079987,30.4482693 59.3701414,25.8742285 54.7230218,23.1747562 C56.4419474,22.1678394 58.0086333,21.2417431 59.4666752,20.3720876 C65.2483272,24.6031421 69,31.2828581 69,38.8248822 C69,51.3417101 58.7099743,61.5127391 45.8526321,61.9522424 C45.6986624,61.9656012 45.5457306,62 45.3896848,62 C45.3336329,62 45.2772349,61.9849714 45.220145,61.9833015 C45.1447171,61.9833015 45.0720572,61.9933206 44.9955913,61.9933206 C32.3977488,61.9933206 22.0869631,52.6204778 21.0904845,40.7091359 C23.2723575,39.7252629 26.8787105,38.0584232 31.4185702,35.8131489 L34.0924545,35.8131489 L34.0928005,35.8131489 Z M63.8010112,40.1484018 L56.2609897,40.1484018 C56.1329699,46.1451509 54.9600315,51.4205268 53.1155081,55.2688528 C59.2332434,52.4479546 63.3125151,46.675608 63.8010112,40.1484018 Z M45.0087393,57.0519138 C48.7351541,57.0519138 51.0651149,48.5697666 51.3266905,40.1484018 L38.6378502,40.1484018 C38.9053078,48.5697666 41.2823245,57.0519138 45.0083933,57.0519138 L45.0087393,57.0519138 Z M37.5427617,55.5757704 C35.4851025,51.7020628 34.1235944,46.3051221 33.9779286,40.1484018 L26.2005514,40.1484018 C26.7275087,47.0829362 31.2196205,52.9517752 37.5427617,55.5757704 Z" id="Shape"></path>
                </g>
            </g>
        </g>
    </g>
</svg>