<?xml version="1.0" encoding="UTF-8"?>
<svg width="223px" height="95px" viewBox="0 0 223 95" version="1.1" xmlns="http://www.w3.org/2000/svg" xmlns:xlink="http://www.w3.org/1999/xlink">
    <!-- Generator: Sketch 49.2 (51160) - http://www.bohemiancoding.com/sketch -->
    <title>2</title>
    <desc>Created with Sketch.</desc>
    <defs></defs>
    <g id="Page-1" stroke="none" stroke-width="1" fill="none" fill-rule="evenodd">
        <g id="欣宏途PC端官网首页" transform="translate(-737.000000, -231.000000)">
            <g id="Group-3" transform="translate(737.000000, 231.000000)">
                <g id="Group-4">
                    <path d="M92.3535325,73.194 L40.5,88.694" id="Path-2" stroke="#FFFFFF" stroke-width="3"></path>
                    <path d="M48.3535325,68.194 L15.5,78.694" id="Path-2-Copy" stroke="#FFFFFF" stroke-width="3"></path>
                    <path d="M22.5,85.694 L0.5,92.694" id="Path-2-Copy-2" stroke="#FFFFFF" stroke-width="3"></path>
                    <path d="M205.338585,42.4923992 C198.892152,44.414579 133.341007,63.1081441 133.341007,63.1081441 C133.341007,63.1081441 115.192734,69.0947804 101.763906,52.9543395 L116.66663,46.8503183 C119.257114,47.7160328 121.668943,47.6426672 124.869828,46.6302213 L141.812186,42.4923992 L116.398649,5.39873154 C116.398649,5.39873154 111.247458,-2.65681576 129.097974,1.27558256 C129.097974,1.27558256 161.389691,25.6476482 167.210836,30.1229523 C167.210836,30.1229523 170.188403,31.7956889 175.682015,30.1229523 L201.095552,21.8766543 C201.095552,21.8766543 218.305891,16.6970401 222.266055,25.9998033 C226.43465,35.7574335 211.770131,40.5702195 205.338585,42.4923992 Z M98.9054412,49.9756945 C92.2654661,42.6684768 91,38.3692503 91,38.3692503 C91,38.3692503 92.369681,29.4333153 103.699325,38.3692503 C107.004424,40.981067 110.517954,42.7711887 112.751129,44.2385015 L98.9054412,49.9756945 Z" id="Shape" fill="#FEFEFE" fill-rule="nonzero"></path>
                </g>
            </g>
        </g>
    </g>
</svg>