<?xml version="1.0" encoding="UTF-8"?>
<svg width="1920px" height="653px" viewBox="0 0 1920 653" version="1.1" xmlns="http://www.w3.org/2000/svg" xmlns:xlink="http://www.w3.org/1999/xlink">
    <!-- Generator: Sketch 49.2 (51160) - http://www.bohemiancoding.com/sketch -->
    <title>23</title>
    <desc>Created with Sketch.</desc>
    <defs></defs>
    <g id="Page-1" stroke="none" stroke-width="1" fill="none" fill-rule="evenodd">
        <g id="欣宏途PC端官网首页" transform="translate(0.000000, -4561.000000)" stroke="#62C8F2" stroke-width="7">
            <g id="Group-42" transform="translate(-4.000000, 4561.000000)">
                <g id="Group-43" transform="translate(0.000000, 1.000000)">
                    <path d="M0,0 C98.8756532,149.12456 130.374724,337.390966 139.05615,391.566386 C147.737576,445.741807 154.21174,547.736786 269.597859,533.876395 C384.983978,520.016005 434.994922,498.282186 422.618413,547.736786 C410.241904,597.191386 420.303861,689.430866 475.192802,627.359048 C530.081744,565.28723 578.212757,414.774634 666.043913,504.095499 C724.598017,563.642742 768.843982,522.160283 798.781808,379.648124 C820.337276,299.907679 875.243418,299.907679 963.500234,379.648124 C1095.88546,499.25879 1168.44677,482.349173 1229.34871,438.467145 C1290.25065,394.585116 1371.95533,432.023045 1455.35172,489.879916 C1538.7481,547.736786 1717.75165,552.4532 1811.50809,454.802708 C1874.01239,389.70238 1912.84302,330.505515 1928,277.212113" id="Path-3"></path>
                </g>
            </g>
        </g>
    </g>
</svg>