<?xml version="1.0" encoding="UTF-8"?>
<svg width="192px" height="260px" viewBox="0 0 192 260" version="1.1" xmlns="http://www.w3.org/2000/svg" xmlns:xlink="http://www.w3.org/1999/xlink">
    <!-- Generator: Sketch 49.2 (51160) - http://www.bohemiancoding.com/sketch -->
    <title>25</title>
    <desc>Created with Sketch.</desc>
    <defs></defs>
    <g id="Page-1" stroke="none" stroke-width="1" fill="none" fill-rule="evenodd">
        <g id="欣宏途PC端官网首页" transform="translate(-221.000000, -4787.000000)" fill="#FFFFFF" fill-rule="nonzero">
            <g id="位置-2" transform="translate(221.000000, 4787.000000)">
                <g id="Group-45">
                    <path d="M192,92.4684129 C192,94.281519 191.953932,96.0040182 191.861797,97.6359104 C191.769662,99.2678027 191.631557,100.990302 191.447483,102.803408 C189.789835,117.852286 186.428667,132.311783 181.36398,146.1819 C176.299292,160.052017 169.899331,173.378395 162.164097,186.161035 C154.428863,198.943675 145.496461,211.227445 135.36689,223.012345 C125.237318,234.797245 114.279021,246.129206 102.491998,257.00823 C100.834349,259.002743 98.7163195,260 96.1379082,260 C93.3752264,260 91.1651595,259.002743 89.5077076,257.00823 C77.7206844,246.129593 66.7164177,234.707024 56.4949076,222.740524 C46.2733975,210.774023 37.2489579,198.263591 29.4215887,185.209227 C21.5942194,172.154863 15.1481911,158.601919 10.0835037,144.550394 C5.01881626,130.49887 1.7497836,115.858062 0.276405695,100.627971 C0.276405695,99.1774858 0.230338079,97.8176078 0.138202847,96.5483369 C0.0460676158,95.2790659 0,93.9191879 0,92.468703 C0,79.7769601 2.53234371,67.8104596 7.59703114,56.5692015 C12.6617186,45.3279435 19.522159,35.5371703 28.1783524,27.1968821 C36.8345458,18.8565939 47.0100865,12.2387082 58.7049745,7.3432249 C70.3998625,2.44774163 82.877507,0 96.1379082,0 C109.398309,0 121.829984,2.44774163 133.432934,7.3432249 C145.035883,12.2387082 155.165356,18.8565939 163.821353,27.1968821 C172.47735,35.5371703 179.33779,45.3279435 184.402674,56.5692015 C189.467558,67.8104596 191.999902,79.7769601 191.999705,92.468703 L192,92.4684129 Z" id="Shape"></path>
                </g>
            </g>
        </g>
    </g>
</svg>