<svg xmlns="http://www.w3.org/2000/svg" xmlns:xlink="http://www.w3.org/1999/xlink" width="782" height="368" viewBox="0 0 782 368">
  <defs>
    <linearGradient id="3-a" x1="69.754%" x2="11.161%" y1="50%" y2="50%">
      <stop offset="0%" stop-color="#13A2D0"/>
      <stop offset="39.27%" stop-color="#0371A2"/>
      <stop offset="100%" stop-color="#40B5E5"/>
    </linearGradient>
    <polygon id="3-b" points=".405 .705 72.332 .705 72.332 82 .405 82"/>
  </defs>
  <g fill="none" fill-rule="evenodd" transform="translate(0 -52)">
    <g transform="translate(2 52)">
      <path fill="url(#3-a)" d="M770.462992,164.684969 L770.462992,121.846946 C770.462992,115.424943 769.279991,110.20494 766.851989,106.014938 C769.279991,105.214937 771.389993,104.013937 773.165995,102.413936 C775.844997,100.004935 779.033,95.5309322 779.033,87.9219281 C779.033,79.6699238 775.495997,75.1569214 772.527994,72.8219201 L772.492994,72.7949201 C769.044991,70.1039187 764.574987,68.793918 758.830982,68.793918 L722.619951,68.793918 L722.506951,68.5629179 C719.038947,61.5159141 713.788943,58.7789127 709.98294,57.7169121 C705.640936,56.5119115 701.111932,56.6569116 696.368928,58.2019124 C690.221922,60.2989135 686.929919,63.9959155 685.256918,66.7139169 C684.839918,67.3859173 684.481917,68.0799176 684.177917,68.793918 L646.421884,68.793918 C640.421879,68.793918 635.594874,70.3979189 632.081871,73.5649205 C629.402869,75.9769218 626.213866,80.4509242 626.213866,88.0569282 C626.213866,89.0109287 626.263866,89.9189292 626.351866,90.7769297 L626.057866,90.7769297 L609.778852,90.7769297 C609.269851,83.5729258 605.962848,79.3269236 603.141846,76.9749223 C600.556844,74.8259212 596.07184,72.2649198 589.380834,72.2649198 C584.096829,72.2649198 579.564825,73.6359206 575.923822,76.329922 C572.852819,78.5939232 569.236816,82.8979255 568.711816,90.7769297 L533.644785,90.7379296 C533.350785,90.2669294 533.050785,89.8009291 532.741784,89.3399289 C533.030785,89.0849288 533.316785,88.8249286 533.600785,88.5699285 C535.729787,86.6439275 537.917789,84.4829263 540.375791,81.8409249 C544.805795,76.7689222 547.150797,70.7889191 547.150797,64.5499157 C547.150797,61.1389139 546.392796,57.9659123 545.071795,55.0659107 C548.282798,53.76991 550.4998,51.843909 551.947801,50.0809081 C554.837804,46.5389062 556.299805,41.9829038 556.299805,36.5419009 C556.299805,31.101898 554.837804,26.5468956 551.899801,22.9408937 C549.476799,20.0098921 544.902795,16.5168903 536.858788,16.5168903 L514.006768,16.5168903 C513.495768,14.2348891 512.642767,12.3268881 511.769766,10.8208873 C509.056764,6.1918848 504.79776,2.86888303 499.459755,1.20988215 L497.737754,0.807881941 C492.356749,-0.0651185219 486.993744,1.33488222 482.677741,4.74288403 C480.013738,6.84188514 476.510735,10.7618872 474.999734,17.2698907 C474.895734,17.6808909 474.785734,18.0568911 474.680734,18.4598913 C472.823732,17.944891 470.71773,17.6058909 468.263728,17.6058909 L466.442726,17.6058909 C465.839726,16.1168901 465.191725,14.5938893 464.603725,13.2488885 C461.542722,5.50988444 456.444718,2.4218828 452.701714,1.19288215 C448.350711,-0.239118614 443.591706,-0.131118557 438.955702,1.51488232 C431.224696,4.24488376 427.912693,9.04188631 426.494691,12.6018882 C425.714691,14.5618892 425.27369,16.5808903 425.16969,18.6258914 C423.807689,19.0328916 422.583688,19.5988919 421.431687,20.2468923 C421.382687,20.1968922 421.348687,20.1608922 421.299687,20.1098922 C419.032685,17.806891 416.315682,15.2608896 413.21968,12.5398882 C408.818676,8.451886 403.216671,6.58988501 397.412666,7.26688537 C393.644663,7.7128856 388.145658,9.44988652 383.327654,15.2288896 C378.91665,20.5518924 377.989649,25.6978951 377.989649,29.0758969 C377.989649,34.6148999 380.569651,39.8249026 385.726656,44.6299052 C386.569656,45.4029056 387.335657,46.133906 388.012658,46.8229063 C388.221658,47.0369065 388.405658,47.2549066 388.608658,47.4689067 C386.183656,48.8169074 384.067654,50.6479084 382.395653,52.7979095 C379.23165,56.7459116 377.521648,60.8719138 377.126648,65.050916 L351.100625,65.050916 C350.683625,64.0009155 350.158625,63.0149149 349.521624,62.0879144 L344.291619,57.2039119 C342.437618,56.0459112 340.263616,55.0799107 337.775614,54.3069103 L337.236613,54.1519102 C329.210606,52.0479091 323.725601,54.1669102 320.570599,56.3109114 C315.208594,59.9389133 313.011592,65.9069165 311.867591,70.0649187 C310.76959,69.9419186 309.620589,69.8779186 308.419588,69.8779186 L304.107584,69.8779186 C303.988584,69.6349184 303.871584,69.3949183 303.753584,69.1599182 C302.483583,66.5769168 301.491582,64.7249158 300.667581,63.3709151 C297.180578,57.2459119 292.445574,54.5639105 289.074571,53.3989098 C283.266566,51.3909088 277.006561,52.3959093 271.850556,55.9749112 C271.585556,56.1439113 271.325556,56.3159114 271.070555,56.4929115 L268.072553,58.9529128 C264.88955,62.0649144 262.985548,65.8799165 262.431548,70.0079186 C261.852547,70.0649187 261.288547,70.1359187 260.733546,70.2269188 L213.377505,70.2269188 C210.653502,63.7139153 206.694499,59.351913 201.598494,57.2479119 C196.39849,55.1159107 190.672485,55.2609108 185.678481,57.5839121 C179.290475,60.4219136 175.032471,64.4109157 173.021469,69.4189183 C172.923469,69.6699185 172.819469,69.9369186 172.722469,70.2269188 L143.541444,70.2269188 C135.039436,70.2269188 130.374432,73.7589206 127.95043,76.7339222 C126.821429,78.1189229 125.977428,79.6969238 125.286428,81.3739247 L125.286428,74.6959211 C125.286428,66.3309167 121.641424,61.5749142 118.556422,59.0339128 C115.99942,56.9389117 111.525416,54.4419104 104.75041,54.4419104 C99.7414053,54.4419104 95.3754015,55.7249111 91.7843983,58.2419124 C88.3303953,60.6549137 84.2093917,65.4699162 84.2093917,74.6959211 L84.2093917,89.3299289 L79.3033874,89.3299289 C78.4313867,89.3299289 77.643386,89.4029289 76.8493853,89.471929 C74.7433834,85.796927 70.9023801,81.6229248 63.983374,79.5139237 C63.3193734,77.6489227 62.3633726,75.8689218 61.1323715,74.2229209 L50.7363624,60.2939135 C47.1453593,55.9629112 42.293355,53.3729098 36.6913501,52.8029095 C31.3723455,52.2559092 26.251341,53.6049099 21.9143372,56.7009116 C17.8963337,59.5829131 15.2023313,63.4809152 14.1283304,67.9769176 C13.5393298,70.4419189 13.1223295,74.8209212 15.3893315,79.4989237 C12.1173286,80.6879243 9.8263266,82.4719253 8.27532524,84.0909261 C5.8323231,86.6759275 2.91832055,91.2779299 2.91832055,98.5239338 C2.91832055,104.533937 4.67532209,109.43894 8.14332513,113.103942 C11.7933283,116.964944 17.0373329,118.922945 23.7303388,118.922945 L24.0823391,118.922945 C20.0793356,123.396947 15.3503314,127.811949 10.0123268,132.059952 C4.8023222,136.190954 1.70631949,140.449956 0.564318491,145.001958 C-0.853682751,150.530961 0.436318379,156.334964 4.03232153,161.107967 C8.31032527,167.07397 14.3993306,170.115972 21.2273366,169.762972 C21.9143372,169.717972 22.5963378,169.643971 23.2773384,169.536971 L23.2773384,192.966984 C23.2773384,202.062989 27.379342,206.850991 30.838345,209.279993 C34.4483482,211.800994 38.858352,213.080995 43.9513565,213.080995 C46.4733587,213.080995 54.1553654,213.080995 59.5623701,207.385992 C59.7263703,207.211991 59.8373704,206.997991 59.9923705,206.816991 C62.7063729,208.038992 65.8723757,208.695992 69.5353789,208.695992 L112.727417,208.695992 C138.443439,208.695992 147.289447,207.090991 151.22445,205.47299 C161.188459,202.700989 170.239467,199.378987 178.138474,195.591985 C183.481479,193.035984 188.553483,190.258982 193.297487,187.295981 C198.008491,190.305982 203.069496,193.022984 208.3975,195.463985 L200.611494,195.463985 C192.228486,195.463985 187.557482,199.025987 185.09948,202.033989 C182.185477,205.614991 180.708476,210.279993 180.708476,215.896996 C180.708476,220.945999 182.063477,225.341001 184.72748,228.947003 C185.947481,230.610004 187.758482,232.435005 190.363485,233.843006 C188.342483,236.355007 186.939482,239.412008 186.173481,242.95801 C185.658481,245.348012 185.26648,248.129013 184.93348,251.838015 L183.731479,271.599026 C183.617479,275.534028 183.775479,278.781029 184.201479,281.490031 C184.91748,286.081033 186.762481,289.923035 189.681484,292.896037 C192.109486,295.368038 195.151489,297.115039 198.737492,298.09604 C198.737492,298.09604 188.761483,301.212041 185.751481,313.225048 C180.889476,332.628058 201.097494,338.020061 201.097494,338.020061 C206.366499,339.404062 212.273504,340.502062 218.650509,341.273063 C224.999515,342.043063 231.906521,342.435063 239.191527,342.435063 C240.722529,342.435063 242.25853,342.411063 243.783531,342.362063 C245.334533,342.313063 246.840534,342.234063 248.145535,342.146063 C252.756539,341.896063 257.020543,340.978062 260.816546,339.423062 C261.553547,339.124061 262.274548,338.790061 262.971548,338.433061 L277.060561,338.433061 C277.380561,338.763061 277.631561,339.152061 277.983561,339.457062 C281.554564,342.588063 286.366569,344.172064 292.288574,344.172064 C297.626579,344.172064 302.174583,342.769063 305.823586,339.982062 C306.389586,339.551062 307.996588,338.792061 309.034589,336.79706 L311.410591,330.112057 C312.410591,325.872054 330.951608,344.455064 334.425611,347.449066 C338.585614,351.031068 342.245618,354.47007 345.22362,357.580071 C350.801625,363.506074 356.80663,364.801075 361.010634,364.801075 C361.133634,364.801075 361.260634,364.801075 361.383634,364.796075 C365.059638,364.725075 368.411641,363.605074 371.358643,361.735073 C375.235646,364.568075 379.08865,365.301075 381.458652,365.410075 C386.438656,365.645075 391.19166,364.095075 395.699664,360.848073 C397.623666,359.469072 399.468668,358.061071 401.229669,356.623071 L412.011679,346.634065 C414.331681,349.097067 420.014686,354.84807 422.388688,357.673071 C428.824693,365.228075 435.251699,366.352076 439.622703,365.920076 C444.322707,365.449075 448.801711,363.266074 452.858714,359.488072 C459.55072,353.366069 463.572724,341.867063 453.050715,329.788056 C452.167714,328.737056 451.347713,327.822055 450.496712,326.843055 C452.832714,324.042053 454.359716,320.509052 454.887716,316.384049 C454.983716,316.430049 455.067716,316.493049 455.164716,316.537049 C458.187719,317.92605 461.615722,318.39205 465.373725,317.91105 C466.428726,317.77805 467.537727,317.56705 468.714728,317.26805 L468.714728,329.200056 C468.714728,337.34306 470.57373,343.510064 474.381733,348.028066 C478.678737,353.145069 485.359743,355.73507 494.230751,355.73507 L555.127804,355.73507 C563.791812,355.73507 570.403817,353.219069 574.770821,348.264066 C578.813825,343.696064 580.775826,337.45606 580.775826,329.200056 L580.775826,293.058037 C580.775826,288.883035 580.265826,285.228033 579.225825,282.039031 C582.885828,281.205031 585.906831,279.54203 588.236833,277.064028 C591.538836,273.561027 593.211837,268.872024 593.211837,263.117021 C593.211837,256.720018 590.764835,252.466015 588.693833,249.998014 C587.589832,248.693013 586.025831,247.271013 583.865829,246.108012 C586.735832,243.12501 588.786833,239.824009 589.954834,236.331007 C590.948835,233.393005 591.889836,227.895002 588.441833,221.723999 C591.518836,222.622 595.051839,223.267 599.354843,223.664 C601.860845,223.86 604.867848,223.987 608.390851,224.037 C611.623853,224.081 629.049869,224.105 632.365872,224.105 C635.795875,224.105 639.081877,224.056 642.22288,223.963 C645.592883,223.865 648.344886,223.713 650.708888,223.487 C665.878901,221.784999 676.01891,213.007994 679.384913,198.726987 C680.002913,196.984986 680.395914,195.110985 680.575914,193.079984 C683.264916,193.746984 686.237919,194.080984 689.484922,194.080984 L715.569944,194.080984 C715.829945,195.252985 716.192945,196.400986 716.663945,197.514986 C718.371947,201.571988 722.41395,206.826991 731.916959,208.812992 C743.778969,211.378994 752.785977,210.441993 759.448983,205.947991 C766.758989,201.027988 770.462992,192.132983 770.462992,179.510977 L770.462992,173.485974 L770.462992,164.684969 Z"/>
      <g transform="translate(12 12.194)">
        <path fill="#FEFEFE" d="M59.8612 139.9241C62.2492 137.6851 63.3242 135.5411 63.0972 133.4871 62.8662 131.4371 61.4672 129.0581 58.9012 126.3521 56.7892 124.1121 54.3142 121.6421 51.4732 118.9371 48.6282 116.2311 45.6962 113.4791 42.6672 110.6801 46.3382 105.5531 49.5012 100.4681 52.1592 95.4301 54.9132 90.4871 55.3232 86.3371 53.3982 82.9791 51.4732 79.6211 47.4372 77.9411 41.2932 77.9411L37.7182 77.9411C39.0022 76.9151 39.7342 75.5421 39.9182 73.8151 40.1012 72.0881 39.5942 70.4351 38.4032 68.8471 37.1202 67.0761 36.0202 65.5581 35.1042 64.2991 34.1882 63.0411 33.3582 61.9211 32.6252 60.9421 31.8922 59.9631 31.2022 59.0531 30.5662 58.2141 29.9202 57.3731 29.2342 56.4871 28.5022 55.5551 27.0352 53.7841 25.1542 52.7801 22.8632 52.5481 20.5672 52.3151 18.5032 52.8491 16.6712 54.1571 15.1132 55.2761 14.1482 56.6051 13.7812 58.1431 13.4152 59.6831 13.9222 61.2931 15.2962 62.9701 16.8532 65.0231 18.3922 67.0521 19.9022 69.0561 21.4172 71.0631 22.9502 73.2781 24.5122 75.7031 25.2462 76.7291 25.8872 77.4751 26.4372 77.9411L11.1682 77.9411C8.2352 77.9411 6.1272 78.6201 4.8402 79.9691 3.5562 81.3231 2.9152 83.2581 2.9152 85.7761 2.9152 88.4841 3.5132 90.4631 4.7042 91.7241 5.8952 92.9821 8.0512 93.6121 11.1682 93.6121L31.6662 93.6121C34.1392 93.6121 34.7812 94.7311 33.5902 96.9701 30.3782 102.6611 26.4372 108.1881 21.7582 113.5501 17.0852 118.9151 11.5822 124.1121 5.2552 129.1511 2.3172 131.4841.6242 133.5561.1662 135.3771-.2968 137.1941.2102 139.0861 1.6802 141.0431 3.4172 143.4691 5.5052 144.6121 7.9362 144.4721 10.3672 144.3301 12.9572 143.0491 15.7112 140.6231 16.9942 139.5051 18.2532 138.3621 19.4922 137.1941 20.7312 136.0291 21.9902 134.8421 23.2732 133.6281L23.2732 180.2191C23.2732 183.2041 24.0072 185.2081 25.4722 186.2361 26.9392 187.2611 28.9122 187.7741 31.3902 187.7741 34.5972 187.7741 36.7542 187.1901 37.8532 186.0251 38.9532 184.8581 39.5032 182.9241 39.5032 180.2191L39.5032 129.4301C40.6942 130.6421 41.8412 131.8571 42.9422 133.0681 44.0472 134.2801 45.1462 135.5411 46.2462 136.8461 51.2862 142.7231 55.8292 143.7481 59.8612 139.9241M279.7284 191.9402C276.9294 191.9402 274.9154 192.4302 273.6914 193.4082 272.4674 194.3882 271.8554 196.3902 271.8554 199.4142L271.8554 311.2522C271.8554 314.1902 272.4674 316.1902 273.6914 317.2582 274.9154 318.3272 276.9294 318.8612 279.7284 318.8612 282.2634 318.8612 284.2314 318.3272 285.6334 317.2582 287.0314 316.1902 287.7354 314.1902 287.7354 311.2522L287.7354 199.4142C287.7354 196.3902 287.0314 194.3882 285.6334 193.4082 284.2314 192.4302 282.2634 191.9402 279.7284 191.9402M240.0106 258.0022L201.3056 258.0022C199.9036 258.0022 199.2906 257.3822 199.4696 256.1342L200.3876 243.5902C200.5606 242.3452 201.2596 241.7202 202.4886 241.7202L240.0106 241.7202C245.3446 241.7202 248.9746 240.5862 250.9026 238.3172 252.8246 236.0482 253.7886 232.3342 253.7886 227.1732L253.7886 209.6902C253.7886 206.7542 253.6106 204.3532 253.2636 202.4822 252.9116 200.6152 252.2336 199.1472 251.2296 198.0792 250.2246 197.0102 248.8226 196.2762 247.0316 195.8772 245.2376 195.4752 242.8966 195.2752 240.0106 195.2752L188.0516 195.2752C185.2516 195.2752 183.3296 195.9232 182.2796 197.2102 181.2286 198.5022 180.7026 200.4802 180.7026 203.1492 180.7026 205.4652 181.2286 207.3322 182.2796 208.7562 183.3296 210.1802 185.2516 210.8912 188.0516 210.8912L235.9466 210.8912C237.5166 210.8912 238.3066 211.4722 238.3066 212.6262L238.3066 223.8372C238.3066 224.6362 238.1546 225.1702 237.8476 225.4382 237.5366 225.7052 236.9496 225.8372 236.0726 225.8372L198.4186 225.8372C195.6186 225.8372 193.4106 226.0392 191.7946 226.4392 190.1726 226.8382 188.8826 227.5512 187.9246 228.5732 186.9606 229.5982 186.2816 231.0222 185.8896 232.8452 185.4966 234.6702 185.1656 237.0042 184.9056 239.8532L183.7226 259.2032C183.6356 262.3202 183.7426 264.8542 184.0536 266.8102 184.3546 268.7682 185.0326 270.2792 186.0836 271.3482 187.1336 272.4172 188.6436 273.1302 190.6116 273.4822 192.5796 273.8402 195.1806 274.0172 198.4186 274.0172L237.2566 274.0172C238.1286 274.0172 238.7196 274.1312 239.0266 274.3512 239.3316 274.5742 239.4856 275.0852 239.4856 275.8872L239.4856 287.8972C239.4856 290.4782 239.3576 292.6152 239.0926 294.3032 238.8316 295.9922 238.4346 297.3272 237.9136 298.3082 237.3886 299.2852 236.7316 299.9752 235.9466 300.3752 235.1556 300.7762 234.1916 301.0212 233.0596 301.1112 231.7436 301.2882 230.3876 301.4202 228.9896 301.5112 227.5876 301.5992 226.1906 301.6432 224.7936 301.6432 219.5406 301.6432 214.4916 301.2642 209.6376 300.5092 204.7826 299.7522 200.6936 298.8862 197.3676 297.9062L197.5006 297.9062C194.1766 296.7492 191.6616 296.5722 189.9536 297.3742 188.2506 298.1732 186.9606 299.5972 186.0836 301.6432 184.8596 304.9342 184.6606 307.4942 185.4966 309.3172 186.3226 311.1402 188.4896 312.4092 191.9886 313.1222L191.7286 313.1222C196.4496 314.3672 201.7436 315.3442 207.6036 316.0582 213.4626 316.7682 219.8066 317.1262 226.6286 317.1262 228.0266 317.1262 229.4286 317.1032 230.8256 317.0592 232.2236 317.0122 233.5796 316.9442 234.8956 316.8592 238.1286 316.6802 240.9936 316.0782 243.4886 315.0572 245.9816 314.0322 248.0826 312.4092 249.7856 310.1862 251.4936 307.9602 252.7796 305.0902 253.6566 301.5782 254.5286 298.0612 254.9666 293.6812 254.9666 288.4322L254.9666 272.1492C254.9666 266.8102 253.8296 263.1192 251.5556 261.0722 249.2816 259.0262 245.4366 258.0022 240.0106 258.0022"/>
        <path fill="#FEFEFE" d="M201.7625,171.6419 C209.4985,175.1209 218.4985,178.2279 228.7675,180.9629 C229.7415,181.2109 230.7835,181.2919 231.8825,181.2109 C232.9825,181.1279 234.0195,180.8579 234.9985,180.4039 C235.9725,179.9479 236.8505,179.3049 237.6215,178.4759 C238.3985,177.6469 238.9055,176.5699 239.1515,175.2459 C239.8025,172.5919 239.3535,170.4789 237.8055,168.9069 C236.2575,167.3319 234.1835,166.2529 231.5745,165.6739 L231.6995,165.6739 C223.7945,163.7679 216.6855,161.4499 210.3765,158.7149 C204.0635,155.9799 198.2175,152.7079 192.8395,148.8959 C197.4845,144.1739 201.5555,139.2019 205.0615,133.9819 C208.5635,128.7619 211.7375,123.1279 214.5915,117.0789 C216.3815,118.7369 218.1755,120.4559 219.9695,122.2369 C221.7585,124.0179 223.8375,125.9849 226.2005,128.1389 L226.0755,128.1389 C227.5415,129.5499 228.8055,130.6069 229.8665,131.3109 C230.9225,132.0149 231.8825,132.4289 232.7365,132.5519 C233.5895,132.6769 234.4245,132.5129 235.2405,132.0569 C236.0545,131.5999 236.9515,130.9179 237.9305,130.0059 C239.7205,128.4309 240.5985,126.4829 240.5545,124.1629 C240.5165,121.8449 239.1895,119.5239 236.5845,117.2039 C233.8995,114.7999 231.4345,112.5849 229.1915,110.5539 C226.9535,108.5249 224.6915,106.5359 222.4095,104.5879 C220.1285,102.6409 217.7275,100.6929 215.2005,98.7459 C212.6775,96.7999 209.7835,94.7079 206.5285,92.4709 C204.6525,91.0629 202.6355,90.4199 200.4795,90.5429 C198.3195,90.6679 196.6695,91.8089 195.5315,93.9619 C192.8395,98.1859 193.8195,101.7499 198.4635,104.6499 L198.3385,104.5239 C199.1535,105.1059 199.9295,105.6259 200.6625,106.0789 C201.3965,106.5359 202.0855,107.0119 202.7375,107.5069 C202.4955,107.9239 202.2875,108.3779 202.1285,108.8759 L202.2495,108.8759 C199.5635,115.0889 196.5875,120.7039 193.3315,125.7159 C190.0715,130.7319 186.2415,135.3919 181.8435,139.6999 C174.2665,132.0759 167.7495,122.6709 162.2955,111.4859 C162.0495,111.0709 161.8035,110.6599 161.5625,110.2429 C161.3165,109.8299 160.9885,109.4569 160.5825,109.1239 C161.2345,108.2139 161.9055,107.3209 162.5995,106.4529 C163.2885,105.5819 164.0025,104.6079 164.7365,103.5309 L164.3685,103.5309 C166.4865,100.9629 167.4035,98.6229 167.1175,96.5079 C166.8335,94.3959 165.5125,92.7189 163.1495,91.4749 L163.2695,91.4749 C160.9065,90.1499 158.8515,89.9029 157.1015,90.7289 C155.3505,91.5579 153.8215,92.9269 152.5195,94.8299 C150.7245,97.6489 149.0365,100.1339 147.4495,102.2879 C145.8585,104.4439 144.1655,106.4329 142.3755,108.2529 C140.5815,110.0779 138.6095,111.8589 136.4485,113.5979 C134.2925,115.3399 131.7025,117.2039 128.6935,119.1909 L128.8135,119.0679 C126.6965,120.4759 125.3505,122.1739 124.7815,124.1629 C124.2125,126.1519 124.5345,128.0999 125.7605,130.0059 L125.6355,129.7559 C126.8605,131.9119 128.5295,133.1549 130.6465,133.4839 C132.7635,133.8179 135.0445,133.0299 137.4905,131.1239 L137.4905,131.2469 C140.0945,129.4269 142.3955,127.6849 144.3925,126.0269 C146.3885,124.3709 148.2835,122.7129 150.0745,121.0549 C153.0875,126.7729 156.2035,131.9319 159.4205,136.5309 C162.6375,141.1269 166.1195,145.4149 169.8675,149.3939 C164.6545,152.9579 158.8135,156.1269 152.3355,158.9019 C146.9835,161.1939 141.0275,163.2929 134.5345,165.2199 C123.3205,168.0509 107.3245,168.3999 101.9845,168.4329 L100.1675,168.4329 L100.1675,104.3389 L116.4615,104.3389 C119.3025,104.3389 121.2555,103.6179 122.3075,102.1709 C123.3635,100.7259 123.8895,98.6979 123.8895,96.0849 C123.8895,93.5659 123.3635,92.5279 122.3075,91.0809 C121.2555,89.6339 119.3025,89.1379 116.4615,89.1379 L100.1675,89.1379 L100.1675,61.9449 C100.1675,59.1459 99.4535,57.1669 98.0355,55.9989 C96.6135,54.8339 94.6645,54.2499 92.1905,54.2499 C89.8025,54.2499 87.8785,54.7629 86.4115,55.7879 C84.9415,56.8159 84.2075,58.8669 84.2075,61.9449 L84.2075,89.1379 L66.7395,89.1379 C63.6225,89.1379 61.6025,89.8619 60.6865,91.3089 C59.7695,92.7559 59.3115,93.5659 59.3115,96.0849 C59.3115,98.6979 59.7695,100.7259 60.6865,102.1709 C61.6025,103.6179 63.6225,104.3389 66.7395,104.3389 L84.2075,104.3389 L84.2075,168.4329 L56.9725,168.4329 C54.0395,168.4329 52.0915,169.0369 51.1265,170.2509 C50.1665,171.4619 49.6845,172.8939 49.6845,175.8819 C49.6845,178.9609 50.1665,180.3529 51.1265,181.5679 C52.0915,182.7769 54.0395,183.3859 56.9725,183.3859 L100.1675,183.3859 C130.7595,183.3859 134.0665,180.9629 134.0665,180.9629 C143.8425,178.3089 152.5375,175.1619 160.1545,171.5169 C167.7695,167.8699 174.6765,163.8099 180.8685,159.3359 C187.0575,164.0599 194.0215,168.1619 201.7625,171.6419"/>
        <path fill="#FEFEFE" d="M308.7381 99.0657C311.0011 95.7537 313.0311 92.5607 314.8441 89.4797 316.6481 86.3987 318.3221 83.2027 319.8601 79.8937L369.7591 79.8937C372.5621 79.8937 374.4631 79.2267 375.4561 77.8917 376.4501 76.5597 376.9461 74.6977 376.9461 72.3067 376.9461 69.6397 376.4501 67.7337 375.4561 66.5817 374.4631 65.4337 372.5621 64.8587 369.7591 64.8587L325.8271 64.8587C325.8271 64.6747 325.8701 64.5377 325.9621 64.4447 327.0471 61.1327 327.3841 58.7437 326.9791 57.2727 326.5691 55.8027 324.7411 54.5617 321.4861 53.5487 318.6831 52.8127 316.5371 52.9497 315.0471 53.9607 313.5511 54.9737 312.3121 57.3187 311.3191 60.9957 310.2331 64.8587 308.9651 68.4447 307.5181 71.7537 306.0711 75.0657 304.4461 78.1907 302.6371 81.1347 302.9071 80.2147 303.0431 78.9737 303.0431 77.4107 303.0431 74.3747 302.5891 72.3307 301.6871 71.2717 300.7851 70.2167 298.8421 69.6867 295.8561 69.6867L283.5181 69.6867C282.2501 66.8367 281.0531 64.2607 279.9261 61.9617 278.7921 59.6637 277.9141 58.0077 277.2821 56.9947 276.0131 54.6987 274.3881 53.2027 272.3961 52.5137 270.4091 51.8237 268.2821 52.2607 266.0251 53.8237 261.6841 56.5827 261.0521 60.4907 264.1251 65.5487 264.7571 66.8367 265.5721 68.2147 266.5651 69.6867L252.7381 69.6867C251.4091 69.6867 250.3041 69.8117 249.3771 70.0347L191.7121 70.0347C191.2851 68.5677 190.8621 67.2087 190.4401 65.9567 190.0131 64.7077 189.6761 63.6497 189.4211 62.7837 187.9791 59.1607 186.2561 56.9387 184.2661 56.1177 182.2721 55.2977 180.2581 55.3637 178.2171 56.3127 174.9121 57.7807 172.8731 59.4647 172.1091 61.3607 171.3451 63.2617 171.6871 65.4187 173.1291 67.8347 173.3001 68.1797 173.4911 68.5247 173.7021 68.8697 173.9131 69.2147 174.1031 69.6027 174.2741 70.0347L130.9791 70.0347C128.0951 70.0347 126.1461 70.6607 125.1271 71.9127 124.1071 73.1647 123.5991 74.9997 123.5991 77.4137 123.5991 79.8307 124.1071 81.7087 125.1271 83.0447 126.1461 84.3837 128.0951 85.0527 130.9791 85.0527L259.1091 85.0527 259.1091 103.2037C259.1091 110.3767 258.9061 116.9747 258.5011 122.9967 258.0921 129.0187 257.4351 134.7187 256.5331 140.0987 255.6271 145.4777 254.4301 150.6507 252.9401 155.6157 251.4501 160.5837 249.5691 165.6857 247.3111 170.9267 246.4971 172.7647 245.9321 174.3267 245.6191 175.6177 245.3001 176.9027 245.2331 178.0307 245.4111 178.9947 245.5941 179.9617 246.0241 180.7877 246.7041 181.4777 247.3801 182.1697 248.3051 182.8807 249.4821 183.6167 253.3051 186.0357 256.8001 182.8877 258.3591 179.6117 263.4821 170.0667 267.8711 158.7897 270.0421 147.7537 272.2121 136.7207 273.8001 124.7677 274.1621 111.8917L280.9431 111.8917C281.9361 111.8917 282.6351 112.0977 283.0411 112.5127 283.4511 112.9267 283.6531 113.6857 283.6531 114.7887 283.6531 118.0097 283.5861 121.3877 283.4511 124.9267 283.3161 128.4667 283.1571 132.0997 282.9731 135.8227 282.7951 139.5467 282.5451 143.2727 282.2311 146.9967 281.9131 150.7197 281.5751 154.2837 281.2131 157.6867 280.6681 162.3767 279.9681 165.1797 279.1101 166.0997 278.2521 167.0177 276.9161 166.9267 275.1121 165.8227 273.3031 164.8097 271.5381 164.6497 269.8211 165.3397 268.1041 166.0307 266.7491 167.4317 265.7551 169.5487 263.4931 174.6047 264.7571 178.1907 269.5501 180.3077 284.6471 186.1897 293.2371 181.0867 295.3161 164.9957 295.7641 161.4097 296.1981 157.5027 296.6031 153.2707 297.0091 149.0447 297.3701 144.7197 297.6891 140.3067 298.0031 135.8917 298.2291 131.4327 298.3691 126.9257 298.5041 122.4227 298.5231 118.1007 298.4361 113.9617 298.3441 110.4667 298.0031 107.5947 297.4191 105.3397 296.8301 103.0887 295.9711 101.2947 294.8431 99.9607 293.7101 98.6287 292.2391 97.7097 290.4341 97.2037 288.6261 96.6987 286.4121 96.4427 283.7891 96.4427L274.2971 96.4427 274.2971 84.9957 295.8561 84.9957C298.2101 84.9957 299.9261 84.5807 301.0111 83.7537 300.5581 84.4927 300.0811 85.2727 299.5891 86.0997 299.0881 86.9257 298.5231 87.7547 297.8911 88.5817 295.9911 91.2507 294.8431 93.4777 294.4331 95.2707 294.0281 97.0637 294.8191 98.8817 296.8061 100.7187L296.6711 100.4437C298.7501 102.5617 300.8291 103.4787 302.9071 103.2037 304.9861 102.9267 306.9291 101.5477 308.7381 99.0657M380.702 60.0486C382.13 61.1916 384.117 63.0046 386.669 65.4936 389.215 67.9836 391.766 70.6816 394.317 73.5866 396.252 75.7646 398.345 76.9836 400.588 77.2416 402.831 77.5016 404.871 76.8016 406.708 75.1416 408.744 73.0666 409.814 70.9156 409.921 68.6826 410.021 66.4556 408.541 63.6816 405.483 60.3606 403.135 57.7676 400.891 55.5106 398.75 53.5906 396.609 51.6716 394.212 49.6776 391.563 47.5996 386.669 43.8666 382.689 43.9696 379.632 47.9116 377.794 50.1946 376.901 52.3216 376.955 54.2916 377.003 56.2636 378.252 58.1816 380.702 60.0486M381.6561 22.6277C382.6741 23.5597 383.5941 24.4427 384.4101 25.2727 385.2241 26.1037 385.9921 26.9327 386.7061 27.7617 387.4201 28.5937 388.1811 29.4497 389.0021 30.3307 389.8161 31.2127 390.7811 32.2747 391.9051 33.5187 394.2541 36.4257 396.5741 37.8507 398.8651 37.7997 401.1601 37.7477 403.4801 36.8917 405.8291 35.2317 407.7631 33.7787 408.7861 31.9397 408.8861 29.7077 408.9881 27.4777 407.6091 24.7027 404.7591 21.3817 403.5331 20.0347 401.8741 18.2987 399.7861 16.1697 397.6921 14.0447 395.1701 11.6857 392.2141 9.0897 390.4771 7.4317 388.5141 6.7327 386.3251 6.9907 384.1301 7.2507 382.1671 8.4157 380.4351 10.4907 378.8011 12.4627 377.9851 14.4077 377.9851 16.3267 377.9851 18.2467 379.2111 20.3467 381.6561 22.6277"/>
        <path fill="#FEFEFE" d="M419.4793 85.0223C418.9203 91.2993 417.9993 97.1073 416.7253 102.4503 415.4533 107.7933 413.7693 112.8753 411.6803 117.6983 409.5873 122.5223 406.9583 127.5783 403.7993 132.8693 401.5573 136.6033 400.5873 139.5073 400.8913 141.5823 401.2003 143.6573 402.5753 145.5753 405.0253 147.3393 407.1663 148.7913 409.3843 149.1303 411.6803 148.3523 413.9713 147.5753 415.9883 145.6293 417.7193 142.5173 420.2703 138.0553 422.6153 133.2323 424.7553 128.0463 426.8973 122.8563 428.7593 117.1283 430.3413 110.8523 431.9233 104.5773 433.1963 97.7303 434.1663 90.3133 435.1353 82.8973 435.6703 74.7273 435.7723 65.8053L445.9953 65.8053C447.0123 65.8053 447.8083 66.5313 448.3683 67.9833 448.9273 69.4383 449.1593 72.3403 449.0583 76.6963 448.9523 80.4323 448.8503 84.5043 448.7493 88.9123 448.6483 93.3233 448.5223 97.7823 448.3683 102.2933 448.2133 106.8073 448.0113 111.2173 447.7553 115.5203 447.5003 119.8243 447.1673 123.7913 446.7623 127.4233 446.4583 129.2903 445.8453 130.3533 444.9243 130.6123 444.0083 130.8703 442.2233 130.3793 439.5713 129.1363 438.1433 128.3043 436.5613 128.3313 434.8303 129.2123 433.0933 130.0923 431.8203 131.9353 431.0053 134.7363 430.1903 137.4323 430.0363 139.5343 430.5463 141.0383 431.0583 142.5413 432.4813 143.7603 434.8303 144.6953 438.3993 146.1473 441.7123 147.0793 444.7753 147.4963 447.8333 147.9083 450.5343 147.5753 452.8823 146.4833 455.2263 145.3943 457.1903 143.4243 458.7713 140.5713 460.3483 137.7163 461.4493 133.8043 462.0613 128.8243 462.4653 124.6743 462.8233 120.0853 463.1313 115.0533 463.4353 110.0223 463.6673 104.8373 463.8173 99.4923 463.9703 94.1523 464.0723 88.8613 464.1253 83.6213 464.1733 78.3843 464.2033 73.4833 464.2033 68.9183 464.2033 65.0793 463.9953 61.9693 463.5893 59.5803 463.1793 57.1953 462.4173 55.3803 461.2933 54.1343 460.1703 52.8913 458.5933 52.0623 456.5523 51.6453 454.5123 51.2323 451.8603 51.0243 448.5993 51.0243L435.7723 51.0243 435.7723 32.5063 455.7033 32.5063C458.5583 32.5063 460.5213 31.9383 461.5913 30.7943 462.6633 29.6543 463.1983 27.7353 463.1983 25.0373 463.1983 22.4473 462.6093 20.5263 461.4423 19.2803 460.2653 18.0373 458.3553 17.4143 455.7033 17.4143L444.7953 17.4143C443.9813 14.4063 443.2433 12.0713 442.5783 10.4103 441.9163 8.7523 441.1733 6.9883 440.3643 5.1223 439.3413 2.5293 437.9613.9473 436.2303.3763 434.4943-.1937 432.6083-.1147 430.5733.6083 427.9193 1.5433 426.2603 2.8403 425.6003 4.4993 424.9343 6.1593 425.0113 7.9203 425.8273 9.7903 426.3373 10.9303 426.8973 12.1233 427.5103 13.3693 428.1233 14.6123 428.6823 15.9613 429.1933 17.4143L420.3243 17.4143C417.0583 17.4143 414.9653 18.0123 414.0483 19.2023 413.1323 20.3973 412.6743 22.3413 412.6743 25.0373 412.6743 27.8383 413.1323 29.7843 414.0483 30.8733 414.9653 31.9623 417.0583 32.5063 420.3243 32.5063L420.3243 63.1593C420.3243 71.4593 420.0393 78.7473 419.4793 85.0223M724.2508 107.3548C726.8888 107.3548 728.6198 107.7128 729.4598 108.4288 730.2938 109.1458 730.7088 110.5288 730.7088 112.5838L730.7088 125.5928C730.3558 125.1458 730.0278 124.7658 729.7198 124.4518 729.4108 124.1398 729.0828 123.7598 728.7308 123.3128 726.4448 120.9878 724.1198 118.7308 721.7468 116.5408 719.3738 114.3508 716.3408 111.7798 712.6508 108.8318 712.2068 108.5618 711.8358 108.2938 711.5268 108.0268 711.2188 107.7568 710.8908 107.5358 710.5388 107.3548L724.2508 107.3548zM710.5388 130.1518L676.9218 130.1518C676.1308 130.1518 675.3828 130.1748 674.6838 130.2188 673.9798 130.2658 673.3188 130.3318 672.7058 130.4198 674.8138 128.7228 676.9218 126.9568 679.0338 125.1238 681.1418 123.2918 683.3358 121.2578 685.6228 119.0208 687.2038 117.4118 688.2178 115.4908 688.6558 113.2568 689.0948 111.0218 688.3908 109.1458 686.5488 107.6248 686.4568 107.6248 686.3268 107.5358 686.1528 107.3548L703.8148 107.3548C703.6418 107.5358 703.4868 107.6688 703.3568 107.7568 703.2218 107.8478 703.0668 107.9828 702.8948 108.1588 700.9598 109.6798 700.1018 111.4238 700.3228 113.3888 700.5398 115.3558 701.9728 117.3678 704.6058 119.4228 706.3668 120.8558 708.3628 122.5528 710.6058 124.5208 712.8488 126.4878 715.3278 128.7668 718.0528 131.3588 716.0318 130.5548 713.5288 130.1518 710.5388 130.1518zM710.0128 151.8758C710.0128 153.4848 709.6848 154.5788 709.0238 155.1598 708.3628 155.7418 707.2878 156.0308 705.7928 156.0308L682.1978 156.0308C680.4378 156.0308 679.1838 155.7418 678.4408 155.1598 677.6928 154.5788 677.3598 153.3498 677.4518 151.4738L677.5818 147.1808C677.7558 144.4998 678.8128 143.1578 680.7458 143.1578L703.6858 143.1578C706.2308 143.1578 707.9248 143.4278 708.7588 143.9628 709.5928 144.4998 710.0128 145.6628 710.0128 147.4508L710.0128 151.8758zM667.1018 118.0148C664.5988 120.0268 661.7198 122.0188 658.4688 123.9828 657.4118 124.6088 656.4428 125.2808 655.5648 125.9948L655.5648 112.8548C655.5648 110.7078 655.9838 109.2558 656.8188 108.4958 657.6528 107.7368 659.4768 107.3548 662.2878 107.3548L677.8478 107.3548C677.0568 108.0708 676.2658 108.8758 675.4748 109.7688 672.3968 113.2568 669.6048 116.0038 667.1018 118.0148zM712.6508 81.8778C712.0338 82.8618 711.4648 84.1568 710.9338 85.7658 710.0558 88.1798 708.6478 91.1748 706.7188 94.7508L679.2948 94.7508C679.2078 93.8578 678.9418 92.6958 678.5038 91.2638 677.9788 89.7448 677.4718 88.4718 676.9888 87.4418 676.5068 86.4168 675.7778 85.0078 674.8138 83.2178 674.6358 83.0408 674.5048 82.8148 674.4188 82.5478 674.3318 82.2808 674.1968 82.0578 674.0228 81.8778L712.6508 81.8778zM584.7288 136.1728L610.6958 136.1728 610.6958 147.7048C610.6958 150.0298 610.3238 151.5728 609.5768 152.3308 608.8298 153.0908 607.4448 153.4718 605.4248 153.4718L584.7288 153.4718 584.7288 136.1728zM584.7288 106.6218L605.2938 106.6218C607.3148 106.6218 608.7188 106.9128 609.5098 107.4948 610.3008 108.0758 610.6958 109.2158 610.6958 110.9138L610.6958 122.0928 584.7288 122.0928 584.7288 106.6218zM752.1998 69.9418C751.0578 69.0488 749.0798 68.6028 746.2678 68.6028L701.0468 68.6028C700.0818 65.5638 699.2908 63.1498 698.6738 61.3588 697.5298 59.0368 695.9918 57.6058 694.0638 57.0688 692.1288 56.5318 690.0598 56.6228 687.8648 57.3368 685.7578 58.0548 684.2628 59.1268 683.3848 60.5548 682.5018 61.9868 682.7678 64.4008 684.1758 67.7978L684.5708 68.6028 633.8598 68.6028C631.0438 68.6028 629.0658 69.1178 627.9278 70.1438 626.7848 71.1738 626.2108 72.8928 626.2108 75.3068 626.2108 77.8998 626.7848 79.6438 627.9278 80.5368 629.0658 81.4318 631.0438 81.8778 633.8598 81.8778L661.8938 81.8778C660.4888 83.9338 660.4888 86.3918 661.8938 89.2518 662.3318 90.2378 662.7948 91.1528 663.2768 92.0018 663.7598 92.8528 664.2658 93.7678 664.7968 94.7508L654.1178 94.7508C649.0208 94.7508 645.5478 95.8698 643.6998 98.1018 641.8568 100.3388 640.9318 104.0038 640.9318 109.0988L640.9318 177.7348C640.9318 177.7668 640.9368 177.7908 640.9368 177.8218 640.4478 181.7508 636.4988 182.7528 634.7718 182.8378 629.2348 183.1938 609.9288 183.3508 604.9608 183.3068 599.9988 183.2598 594.5238 183.0588 588.5488 182.7028 587.5838 182.6118 586.7058 182.0528 585.9148 181.0278 585.1238 179.9978 584.7288 178.3218 584.7288 175.9998L584.7288 168.0858 613.4648 168.0858C618.4758 168.0858 621.9238 166.9478 623.8138 164.6668 625.7048 162.3878 626.6498 158.8338 626.6498 154.0058L626.6498 104.1228C626.6498 99.2948 625.7378 96.0598 623.8478 93.8698 621.9568 91.6788 618.5078 90.5848 613.4968 90.5848L584.7608 90.5848 584.7288 79.9858C584.7288 77.1258 583.9998 75.0918 582.5538 73.8848 581.1018 72.6788 579.1908 72.0748 576.8178 72.0748 574.2678 72.0748 572.2708 72.6098 570.8178 73.6838 569.3668 74.7558 568.6438 76.8578 568.6438 79.9858L568.6758 90.5848 552.2338 90.5848 539.0138 90.5848 522.9708 90.5848C522.8028 90.5778 522.6608 90.5458 522.4838 90.5458L513.4608 90.5458C512.3368 87.8508 510.9858 85.3608 509.4048 83.0768 507.8218 80.7958 506.0628 78.8258 504.1278 77.1658 503.2118 76.3358 502.8788 75.6078 503.1348 74.9848 503.3858 74.3638 504.5858 73.1718 506.7278 71.4058 508.7678 69.8508 510.7308 68.2168 512.6168 66.5048 514.5028 64.7948 516.4168 62.9008 518.3558 60.8258 520.8018 58.0248 522.0258 55.0178 522.0258 51.8018 522.0258 49.1058 521.2068 46.8758 519.5758 45.1098 517.9458 43.3488 515.6498 42.4658 512.6928 42.4658L483.9338 42.4658C481.4878 42.4658 479.7518 43.0638 478.7338 44.2538 477.7118 45.4488 477.2058 47.3938 477.2058 50.0898 477.2058 53.0998 477.6348 55.1238 478.5028 56.1578 479.3708 57.1958 481.1798 57.7128 483.9338 57.7128L497.0908 57.7128C498.5188 57.7128 499.1798 58.0008 499.0778 58.5698 498.9768 59.1408 497.7518 60.3598 495.4078 62.2268 494.5928 62.9528 493.7248 63.6548 492.8088 64.3268 491.8868 65.0038 491.0228 65.7538 490.2088 66.5838L490.3578 66.5838C486.9968 69.4878 485.3138 72.4458 485.3138 75.4538 485.3138 77.0078 485.6938 78.4358 486.4608 79.7308 487.2238 81.0308 488.1628 82.2478 489.2868 83.3888 491.6318 85.3608 493.8788 87.7448 496.0208 90.5458L477.5098 90.5458C474.7558 90.5458 472.9708 91.3238 472.1558 92.8788 471.3408 94.4368 470.9308 96.4578 470.9308 98.9478 470.9308 101.3368 471.3408 103.2548 472.1558 104.7048 472.9708 106.1588 474.7558 106.8828 477.5098 106.8828L501.0698 106.8828C501.1668 108.0258 501.2198 109.0628 501.2198 109.9958L501.2198 112.6428C501.2198 113.2298 501.1168 113.7438 501.0988 114.3178L501.0858 114.3178C501.0858 162.4518 473.3538 176.5158 460.6218 180.4348 457.0838 181.5238 454.7788 184.9118 455.1998 188.5888L455.2008 188.6008C455.7268 193.1948 460.2348 196.3788 464.6758 195.0838 486.0958 188.8398 516.1568 166.7918 516.1568 114.3178L516.1548 114.3178C516.1708 113.7588 516.2148 113.2008 516.2148 112.6428L516.2148 109.9958C516.2148 109.0628 516.1608 108.0258 516.0608 106.8828L522.4838 106.8828C523.2098 106.8828 523.8588 106.8128 524.4588 106.6958L552.2338 106.6958 552.2338 106.6218 568.6438 106.6218 568.6438 122.0928 557.3658 122.0928C553.5438 122.0928 550.4448 125.2448 550.4448 129.1328 550.4448 133.0218 553.5438 136.1728 557.3658 136.1728L568.6438 136.1728 568.6438 153.4718 547.9478 153.4718C545.4828 153.4718 543.8568 153.1578 543.0658 152.5318 542.2748 151.9058 541.8798 150.4318 541.8798 148.1068L541.8798 125.6618C541.8798 121.1818 538.3098 117.5498 533.9048 117.5498 529.5008 117.5498 525.9308 121.1818 525.9308 125.6618L525.9308 154.0058C525.9308 158.8338 526.8518 162.3878 528.6988 164.6668 530.5458 166.9478 533.9708 168.0858 538.9808 168.0858L568.6438 168.0858 568.6438 173.7178C568.6438 178.4578 568.9088 182.3448 569.4348 185.3838 569.9598 188.4228 570.9488 190.8368 572.4008 192.6258 573.8528 194.4138 575.8058 195.7308 578.2658 196.5818 580.7258 197.4308 583.8898 198.0338 587.7578 198.3928 590.0438 198.5708 592.7878 198.6818 595.9998 198.7288 599.2078 198.7718 616.5118 198.7938 619.8068 198.7938 623.1048 198.7938 626.2698 198.7478 629.2978 198.6598 632.3318 198.5708 634.8148 198.4368 636.7498 198.2568 646.9518 197.1108 652.7598 192.0898 654.7768 182.2978 655.2868 181.1448 655.5648 179.6468 655.5648 177.7348L655.5648 174.8408C655.5968 173.6558 655.6048 172.4378 655.5648 171.1538L655.5648 135.6488C656.7948 137.5258 658.1158 138.3988 659.5208 138.2648 660.9288 138.1288 662.4668 137.5728 664.1358 136.5888 663.4318 138.2868 663.0788 140.6998 663.0788 143.8298L663.0788 155.0938C663.0788 160.2798 664.1548 163.8538 666.3108 165.8208 668.4618 167.7858 672.0018 168.7718 676.9218 168.7718L710.5388 168.7718C715.4628 168.7718 719.0218 167.7858 721.2168 165.8208 723.4158 163.8538 724.5158 160.2798 724.5158 155.0938L724.5158 143.8298C724.5158 140.8788 724.1198 138.3768 723.3288 136.3188 724.5598 137.3048 725.7218 137.8618 726.8208 137.9968 727.9208 138.1288 729.2138 137.5728 730.7088 136.3188L730.7088 165.1508C730.7088 167.6528 730.4478 169.3288 729.9178 170.1798 729.3928 171.0278 728.0268 170.9598 725.8328 169.9788 723.4598 168.9928 721.4148 168.6808 719.7018 169.0388 717.9898 169.3948 716.6488 170.9158 715.6798 173.5988 714.8888 175.9218 714.8888 178.0238 715.6798 179.9008 716.4708 181.7768 718.5828 183.0728 722.0078 183.7888 730.2698 185.5768 736.2268 185.2408 739.8718 182.7828 743.5188 180.3248 745.3418 174.9828 745.3418 166.7598L745.3418 109.0988C745.3418 104.0038 744.3538 100.3388 742.3758 98.1018 740.3978 95.8698 736.9058 94.7508 731.8958 94.7508L722.4028 94.7508C722.6688 94.1258 722.9338 93.5008 723.1938 92.8728 723.4598 92.2498 723.7248 91.5768 723.9848 90.8608 724.8628 88.6288 725.2148 86.8188 725.0418 85.4298 724.8628 84.0468 724.2508 82.8618 723.1938 81.8778L746.2678 81.8778C749.0798 81.8778 751.0578 81.3628 752.1998 80.3348 753.3388 79.3078 753.9118 77.5858 753.9118 75.1718 753.9118 72.5818 753.3388 70.8378 752.1998 69.9418zM317.6297 255.3655C321.0927 251.8465 324.1657 248.1425 326.8517 244.2505 329.5367 240.3615 332.6087 235.9155 336.0727 230.9135 336.7977 229.6175 337.5707 228.8075 338.3937 228.4825 339.2117 228.1585 340.2127 228.7385 341.3997 230.2195 342.8537 231.8865 344.1517 233.3915 345.2897 234.7355 346.4287 236.0785 347.4957 237.4215 348.5007 238.7625 349.5007 240.1085 350.5277 241.5415 351.5727 243.0705 352.6177 244.5995 353.7827 246.3835 355.0587 248.4185 357.0597 251.6635 359.1087 253.2375 361.2037 253.1425 363.2977 253.0525 365.2547 251.9875 367.0767 249.9475 368.8067 248.0955 369.5357 246.1955 369.2607 244.2505 368.9887 242.3055 367.8957 239.8975 365.9837 237.0255 364.7067 235.0815 363.4577 233.2765 362.2267 231.6075 360.9987 229.9415 359.6337 228.2045 358.1317 226.3975 356.6287 224.5935 354.9657 222.6485 353.1427 220.5635 351.3237 218.4785 349.1857 216.0475 346.7267 213.2675 345.0857 211.4185 343.5167 210.2605 342.0137 209.7965 340.5107 209.3335 339.0287 209.1005 337.5707 209.1005 335.8417 209.1005 333.9957 209.6815 332.0397 210.8375 330.0837 211.9975 328.6037 213.4555 327.6027 215.2155 325.6907 218.4575 323.9607 221.3045 322.4137 223.7585 320.8617 226.2145 319.3367 228.4825 317.8387 230.5675 316.3357 232.6505 314.8057 234.5945 313.2587 236.4015 311.7107 238.2085 310.0257 240.0835 308.2077 242.0285 307.2027 243.1405 306.3167 244.2985 305.5437 245.5015 304.7707 246.7065 304.2237 247.9115 303.9027 249.1155 303.5827 250.3185 303.5617 251.5005 303.8367 252.6565 304.1087 253.8165 304.7927 254.9045 305.8867 255.9215 307.7987 257.6835 309.6837 258.5605 311.5507 258.5605 313.4187 258.5605 315.4457 257.4975 317.6297 255.3655M361.8885 288.8494C363.6135 285.7014 364.4805 282.6914 364.4805 279.8194 364.4805 276.2064 363.3205 273.6604 360.9985 272.1764 358.6785 270.6974 355.0095 269.9534 350.0035 269.9534L314.7615 269.9534C312.0315 269.9534 310.0525 270.5794 308.8215 271.8304 307.5935 273.0804 306.9755 275.0484 306.9755 277.7344 306.9755 280.2354 307.5935 282.1804 308.8215 283.5694 310.0525 284.9594 312.0315 285.6544 314.7615 285.6544L342.9025 285.6544C344.5385 285.6544 344.8595 286.4414 343.8585 288.0154 342.0345 291.0724 340.1455 293.9894 338.1895 296.7684 336.2285 299.5484 334.0235 302.4194 331.5645 305.3824 330.4705 304.4574 329.3765 303.5754 328.2865 302.7434 327.1935 301.9094 326.0055 301.0294 324.7345 300.1044 322.6405 298.5304 320.5685 297.8334 318.5185 298.0194 316.4685 298.2064 314.5785 299.4554 312.8495 301.7704 311.3025 303.8084 310.8935 305.8684 311.6215 307.9534 312.3465 310.0364 313.8055 311.9124 315.9925 313.5794 320.9105 317.4694 325.5975 321.3364 330.0615 325.1804 334.5215 329.0224 338.4385 332.7044 341.8085 336.2274 343.9035 338.4504 346.1575 339.5354 348.5675 339.4904 350.9815 339.4424 352.9155 338.3554 354.3735 336.2274 355.6455 334.1874 356.2375 332.1974 356.1485 330.2524 356.0595 328.3074 354.8275 326.1754 352.4615 323.8624 350.9095 322.2864 349.4075 320.8044 347.9525 319.4134 346.4945 318.0254 345.0365 316.6824 343.5825 315.3864 347.0415 310.9404 350.2515 306.5874 353.2135 302.3274 356.1705 298.0664 359.0605 293.5734 361.8885 288.8494"/>
        <path fill="#FEFEFE" d="M346.1795,248.1429 C344.3565,246.4739 342.3555,244.7619 340.1675,242.9999 C338.0745,241.3339 336.0735,240.5699 334.1565,240.7099 C332.2435,240.8479 330.6525,241.7049 329.3765,243.2789 C327.5535,245.6889 326.7575,247.7039 326.9895,249.3229 C327.2155,250.9449 328.4645,252.7739 330.7455,254.8109 C332.6585,256.4779 334.4985,258.1449 336.2775,259.8109 C338.0515,261.4799 340.0305,263.3799 342.2175,265.5079 C344.4935,267.6399 346.6555,268.6349 348.7045,268.4949 C350.7545,268.3569 352.3685,267.5019 353.5555,265.9259 C355.1035,263.7959 355.8995,261.8959 355.9435,260.2299 C355.9885,258.5609 354.8715,256.6159 352.5995,254.3929 C350.1415,251.8919 347.9975,249.8099 346.1795,248.1429"/>
        <g transform="translate(362 258.69)">
          <mask id="3-c" fill="#fff">
            <use xlink:href="#3-b"/>
          </mask>
          <path fill="#FEFEFE" d="M60.1903,56.7644 C57.5933,54.1254 54.7483,51.4634 51.6533,48.7774 C46.8243,44.7024 42.7733,44.6094 39.4973,48.4994 C39.3143,48.6844 39.2253,48.8254 39.2253,48.9154 C41.4983,43.3594 43.1603,37.3624 44.2103,30.9234 C45.2543,24.4884 45.7793,17.2384 45.7793,9.1814 C45.7793,3.5324 43.3203,0.7054 38.4033,0.7054 C35.5793,0.7054 33.6233,1.4474 32.5293,2.9284 C31.4393,4.4114 30.8923,6.8174 30.8923,10.1534 C30.8923,17.0074 30.4573,23.1424 29.5943,28.5604 C28.7273,33.9814 27.2953,38.8904 25.2913,43.2884 C23.2903,47.6894 20.6483,51.7424 17.3713,55.4464 C14.0893,59.1504 10.0403,62.7164 5.2143,66.1444 C2.3913,67.9014 0.8173,69.8464 0.5023,71.9784 C0.1813,74.1094 0.6583,76.0534 1.9333,77.8134 C3.5743,80.1284 5.4193,81.3334 7.4643,81.4264 C9.5143,81.5174 11.6303,80.7774 13.8193,79.2034 C19.3723,75.2194 24.0863,71.0514 27.9543,66.6984 C31.8273,62.3454 35.0813,57.5284 37.7223,52.2504 C37.4473,53.6394 37.6073,55.0974 38.1983,56.6264 C38.7903,58.1554 39.9503,59.7514 41.6843,61.4204 C44.1433,63.7334 46.6903,66.2824 49.3323,69.0614 C51.9733,71.8414 54.6593,74.8484 57.3883,78.0914 C59.7583,80.8704 61.8973,82.1664 63.8093,81.9834 C65.7213,81.7954 67.7213,80.7324 69.8213,78.7854 C73.4623,75.4524 73.1423,71.3294 68.8653,66.4204 C65.6763,62.6214 62.7873,59.4054 60.1903,56.7644" mask="url(#3-c)"/>
        </g>
        <path fill="#FEFEFE" d="M426.9032 213.5462L371.8572 213.5462C368.9402 213.5462 366.9172 214.0572 365.7792 215.0752 364.6402 216.0942 364.0712 218.0392 364.0712 220.9112 364.0712 223.6882 364.5962 225.6332 365.6412 226.7462 366.6862 227.8582 368.7622 228.4122 371.8572 228.4122L392.0702 228.4122C391.8872 229.9882 391.6612 231.5172 391.3892 232.9982 391.1142 234.4802 390.8432 235.9162 390.5722 237.3042L384.8322 237.3042C381.6432 237.3042 379.0512 237.4922 377.0462 237.8602 375.0452 238.2312 373.4712 238.9252 372.3382 239.9452 371.1942 240.9652 370.4212 242.3992 370.0112 244.2512 369.6022 246.1052 369.3982 248.5592 369.3982 251.6142L369.3982 300.3802C369.3982 305.7532 371.9952 308.4402 377.1832 308.4402 379.8252 308.4402 381.6922 307.7452 382.7862 306.3552 383.8762 304.9662 384.4232 302.9762 384.4232 300.3802L384.4232 256.2002C384.4232 254.3482 384.7642 253.1902 385.4502 252.7262 386.1302 252.2652 387.4282 252.0322 389.3402 252.0322L410.2382 252.0322C411.7852 252.0322 412.9462 252.3102 413.7192 252.8642 414.4932 253.4212 414.8842 254.5332 414.8842 256.2002L414.8842 300.3802C414.8842 302.7912 415.5202 304.7352 416.7972 306.2162 418.0682 307.6982 419.8462 308.4402 422.1232 308.4402 427.4012 308.4402 430.0422 305.7532 430.0422 300.3802L430.0422 252.1702C430.0422 249.0222 429.8382 246.4532 429.4282 244.4592 429.0192 242.4692 428.2462 240.9652 427.1072 239.9452 425.9692 238.9252 424.3782 238.2312 422.3282 237.8602 420.2782 237.4922 417.6592 237.3042 414.4702 237.3042L405.5962 237.3042C405.8672 235.9162 406.1162 234.4802 406.3472 232.9982 406.5702 231.5172 406.7792 229.9882 406.9612 228.4122L426.9032 228.4122C430.0872 228.4122 432.2082 227.7182 433.2532 226.3292 434.2982 224.9392 434.8272 223.1342 434.8272 220.9112 434.8272 218.4102 434.2982 216.5582 433.2532 215.3532 432.2082 214.1502 430.0872 213.5462 426.9032 213.5462M524.1658 237.8997C521.5768 239.7917 518.8978 241.6577 516.1338 243.5057L510.1718 243.5057 510.1718 228.3637 537.1458 228.3637C534.7248 230.2987 526.7588 236.0077 524.1658 237.8997zM537.3838 280.4367C538.5018 280.4367 539.2368 280.5937 539.5838 280.9007 539.9268 281.2087 540.1028 281.8877 540.1028 282.9437L540.1028 291.3867 484.1328 291.3867 484.1328 282.5487C484.1328 281.1417 485.0388 280.4367 486.8518 280.4367L537.3838 280.4367zM540.1028 313.5467C540.1028 314.6877 539.8868 315.4357 539.4528 315.7897 539.0198 316.1377 538.3298 316.3147 537.3838 316.3147L486.9828 316.3147C485.9448 316.3147 485.2108 316.2047 484.7768 315.9867 484.3448 315.7667 484.1328 315.0407 484.1328 313.8107L484.1328 304.9727 540.1028 304.9727 540.1028 313.5467zM560.7028 243.5057L540.3598 243.5057C544.5088 240.4267 548.3958 237.3047 552.0218 234.1397 555.6528 230.9737 559.0208 227.8547 562.1288 224.7757 563.7698 223.1047 564.8938 221.3667 565.4968 219.5647 566.1018 217.7627 565.6278 215.8507 564.0718 213.8257 563.0348 212.5947 561.9978 211.7617 560.9598 211.3207 559.9278 210.8797 558.8908 210.7497 557.8538 210.9237 556.8158 211.1037 555.7588 211.5647 554.6808 212.3107 553.5988 213.0587 552.4948 214.0047 551.3728 215.1457 550.0778 216.4657 548.6988 217.8057 547.2278 219.1697 545.7578 220.5337 544.1618 221.9177 542.4348 223.3247 545.0598 217.1577 539.3678 214.3187 535.3098 214.3187L510.1718 214.3187 510.1718 202.7947C510.1718 199.6287 509.5018 197.5627 508.1678 196.5937 506.8228 195.6277 504.9898 195.1437 502.6578 195.1437 500.2408 195.1437 498.4028 195.6277 497.1548 196.5937 495.9008 197.5627 495.2758 199.6287 495.2758 202.7947L495.2758 214.3187 466.4898 214.3187C463.9868 214.3187 462.1078 214.7597 460.8548 215.6367 459.6018 216.5187 458.9768 218.1007 458.9768 220.3867 458.9768 222.6727 459.0688 228.3637 466.2868 228.3637L495.2758 228.3637 495.2758 243.5057 451.4818 243.5057C449.2358 243.5057 447.4188 244.0977 446.0388 245.2867 444.6588 246.4737 443.9688 248.1217 443.9688 250.2317 443.9688 252.6947 444.5278 254.4997 445.6508 255.6397 446.7738 256.7827 448.7178 257.3547 451.4818 257.3547L494.3648 257.3547C486.5948 261.9277 478.9908 265.9957 471.5638 269.5557 464.1368 273.1167 457.3128 275.8667 451.0948 277.7997 447.5498 279.0327 445.3688 280.3527 444.5478 281.7567 443.7278 283.1647 443.7068 285.1437 444.4878 287.6937 444.8298 288.7467 445.2638 289.6927 445.7818 290.5287 446.3008 291.3637 446.9898 291.9797 447.8518 292.3747 448.7178 292.7717 449.8408 292.8817 451.2208 292.7047 452.6048 292.5307 454.3728 292.0457 456.5328 291.2537L456.6638 291.2537C458.5628 290.5517 460.5308 289.8027 462.5608 289.0107 464.5898 288.2217 466.6398 287.3427 468.7138 286.3737L468.7138 316.4477C468.7138 321.4597 469.6198 325.0427 471.4338 327.1987 473.2458 329.3517 476.6598 330.4277 481.6698 330.4277L542.5648 330.4277C547.4898 330.4277 550.8988 329.3517 552.7978 327.1987 554.7008 325.0427 555.6528 321.4597 555.6528 316.4477L555.6528 280.3067C555.6528 275.3817 554.7008 271.8447 552.7978 269.6867 550.8988 267.5337 547.4898 266.4567 542.5648 266.4567L506.5458 266.4567C511.2948 263.5557 516.0888 260.5207 520.9278 257.3547L560.7028 257.3547C563.5538 257.3547 565.4968 256.8057 566.5338 255.7067 567.5718 254.6077 568.0908 252.8277 568.0908 250.3647 568.0908 248.2527 567.5718 246.5837 566.5338 245.3507 565.4968 244.1207 563.5538 243.5057 560.7028 243.5057zM359.7088 138.5159L359.7108 138.5239C359.7108 138.5229 359.7108 138.5219 359.7098 138.5209 359.7098 138.5189 359.7088 138.5169 359.7088 138.5159M359.9852 139.6214L359.7112 138.5244C359.7182 138.5564 359.7182 138.5884 359.7272 138.6204L359.9852 139.6214z"/>
        <path fill="#FEFEFE" d="M370.826,143.6717 C381.197,137.9617 398.15,124.7757 407.893,96.6937 C409.443,92.2287 407.002,87.2927 402.674,86.0107 C398.764,84.8537 394.696,87.1197 393.293,91.1507 C385.15,114.5277 371.375,124.9657 363.634,129.1877 C360.404,130.9487 358.801,134.8157 359.71,138.5207 C360.991,143.6207 366.393,146.1117 370.826,143.6717"/>
        <path fill="#FEFEFE" d="M437.6395 183.1526C404.7075 183.3566 380.0565 175.1016 364.2595 158.4906 345.6315 138.8966 344.6225 112.7466 344.7875 104.7566 347.6335 104.0896 350.2455 103.4096 352.6095 102.7206 355.9085 101.7546 359.5445 100.6306 363.5235 99.3396 367.8645 98.0546 370.3915 96.5366 371.1155 94.7896 371.8385 93.0436 371.4775 90.6526 370.0305 87.6176 368.6745 85.0446 367.0495 83.6636 365.1495 83.4796 363.2535 83.2956 360.6735 83.8916 357.4225 85.2726 355.5225 86.0996 353.1495 86.9256 350.3035 87.7556 347.4525 88.5816 344.3375 89.3886 340.9475 90.1686 337.5565 90.9516 334.0065 91.6406 330.3025 92.2366 326.5935 92.8376 322.9765 93.3186 319.4505 93.6866 315.0235 94.2376 311.7005 96.0776 309.4865 99.2026 307.2675 102.3306 306.1625 105.9606 306.1625 110.0986L306.1625 168.7196C306.1625 183.0646 311.0435 187.8916 320.8105 183.2016 324.5145 181.3616 333.1945 175.5256 336.7195 173.1366 339.9755 170.9286 341.7795 168.8606 342.1455 166.9276 342.5025 164.9976 342.0545 162.9736 340.7855 160.8596 338.9765 158.1926 337.1245 156.8826 335.2295 156.9296 333.3285 156.9766 332.0635 158.2376 332.0635 158.2376 330.2535 159.5266 328.7405 160.5366 327.5195 161.2726 326.2995 162.0066 325.0545 162.7416 323.7905 163.4776 322.9765 163.9386 322.3005 164.0076 321.7555 163.6866 321.2155 163.3626 320.9895 162.5576 321.0805 161.2726L321.0805 111.4776C321.0805 110.7436 321.4185 110.1926 322.0985 109.8236 322.7735 109.4566 323.7435 109.1346 325.0115 108.8576L327.0465 108.4436 329.6925 107.9056C329.8955 120.4476 332.9245 147.2926 353.1975 168.7236 371.7365 188.3256 399.6755 198.2336 436.3375 198.2336 436.7745 198.2336 437.2115 198.2316 437.6515 198.2286 441.9065 198.2016 445.2875 194.6146 445.1085 190.3636 444.9385 186.3546 441.6515 183.1276 437.6395 183.1526M464.203 46.8592C468.198 49.3742 472.419 49.3742 474.638 45.7642 475.773 43.9512 476.898 42.1042 477.968 40.0542 479.294 37.5132 480.669 34.5822 482.101 31.2602L524.297 31.2602C526.844 31.2602 528.628 30.6402 529.65 29.3942 530.668 28.1512 531.179 26.2842 531.179 23.7942 531.179 21.3042 530.668 19.4352 529.65 18.1912 528.628 16.9482 526.844 16.3252 524.297 16.3252L487.301 16.3252C487.604 15.4952 487.884 14.6672 488.14 13.8352 488.395 13.0052 488.627 12.1232 488.829 11.1882 489.644 8.5982 489.49 6.3412 488.371 4.4212 487.247 2.5022 485.516 1.1802 483.172.4542 481.233.1432 479.473.6092 477.891 1.8522 476.308 3.0982 475.214 5.0192 474.606 7.6092 472.87 14.4582 471.008 20.3452 469.021 25.2712 467.034 30.1982 464.863 34.4272 462.519 37.9522 462.519 37.9522 459.333 43.7942 464.203 46.8592"/>
      </g>
    </g>
  </g>
</svg>
