<?xml version="1.0" encoding="UTF-8"?>
<svg width="90px" height="90px" viewBox="0 0 90 90" version="1.1" xmlns="http://www.w3.org/2000/svg" xmlns:xlink="http://www.w3.org/1999/xlink">
    <!-- Generator: Sketch 49.2 (51160) - http://www.bohemiancoding.com/sketch -->
    <title>32</title>
    <desc>Created with Sketch.</desc>
    <defs></defs>
    <g id="Page-1" stroke="none" stroke-width="1" fill="none" fill-rule="evenodd">
        <g id="欣宏途PC端官网首页" transform="translate(-425.000000, -5776.000000)" fill="#62C8F2" fill-rule="nonzero">
            <g id="icon-出境线路" transform="translate(425.000000, 5776.000000)">
                <g id="Group-54" transform="translate(5.000000, 9.000000)">
                    <path d="M54.6506241,26.5641691 C42.8159512,33.4809385 31.7846893,38.9954794 24.536932,42.441281 L13.0085138,42.441281 L0,29.652139 L5.89601233,27.6986137 L16.7863322,31.7110477 L20.1701623,33.3460635 C22.9825241,31.2093844 25.8216148,29.1058862 28.6868051,27.0360351 L14.6088368,5.00657683 C14.5462861,4.09705508 14.616148,3.26027934 15.0336942,2.47304953 C16.2128154,0.250167365 19.0511548,-0.638120416 21.3712169,0.488459704 L46.5864584,12.7298439 C47.2310555,13.0436348 47.7107463,13.5056703 48.110827,14.0172517 C62.7196639,5.12847555 77.0778918,-1.10723388 80.5941344,5.96407163 C82.5072109,9.81135257 76.8727742,13.5780231 54.6506241,26.5641691 Z M40.0219832,42.1670947 C40.0634128,41.5937775 40.152771,41.0593892 40.2088229,40.4970822 C42.020356,39.5785163 43.9155609,38.6033266 45.8960621,37.5608959 C45.6856643,39.0578908 45.5134468,40.5910622 45.4253072,42.1670947 L60.1872714,42.1670947 C59.959002,37.9698464 59.2693197,33.9696023 58.2258603,30.7848999 C59.0841046,30.2933728 59.9395057,29.8045982 60.8066858,29.2981287 C61.4793088,28.904907 62.0897874,28.5462888 62.7311351,28.1695824 C64.3631396,32.053433 65.5093608,36.8342222 65.8976625,42.1670947 L74.6961896,42.1670947 C73.6137376,35.8503816 69.6953833,30.4648174 64.2400691,27.2864065 C66.2579383,26.1008432 68.0970912,25.0104395 69.8087057,23.9864902 C76.5958624,28.9682157 81,36.8330425 81,45.7131678 C81,60.4507232 68.9204046,72.4262896 53.8270029,72.9437693 C53.6462558,72.9594982 53.4667272,73 53.283543,73 C53.2177429,73 53.1515367,72.982305 53.0845181,72.9803389 C52.9959723,72.9803389 52.9106759,72.9921356 52.8209116,72.9921356 C38.0321399,72.9921356 25.9281741,61.9563691 24.7583949,47.9317245 C27.319724,46.7732935 31.5532688,44.810724 36.8826693,42.1670947 L40.021577,42.1670947 L40.0219832,42.1670947 Z M74.8968393,47.2715053 L66.0455096,47.2715053 C65.8952255,54.3321939 64.5182978,60.5435235 62.3529877,65.074617 C69.534677,61.7532369 74.3233872,54.9567643 74.8968393,47.2715053 Z M52.8363462,67.1740276 C57.2108331,67.1740276 59.9460045,57.1869833 60.2530715,47.2715053 L45.3574763,47.2715053 C45.6714483,57.1869833 48.4618592,67.1740276 52.83594,67.1740276 L52.8363462,67.1740276 Z M44.0719376,65.4359877 C41.6564247,60.8750094 40.0581326,54.520547 39.8871336,47.2715053 L30.7571691,47.2715053 C31.3757711,55.4363603 36.6491197,62.346445 44.0719376,65.4359877 Z" id="Shape"></path>
                </g>
            </g>
        </g>
    </g>
</svg>