<?xml version="1.0" encoding="UTF-8"?>
<svg width="90px" height="90px" viewBox="0 0 90 90" version="1.1" xmlns="http://www.w3.org/2000/svg" xmlns:xlink="http://www.w3.org/1999/xlink">
    <!-- Generator: Sketch 49.2 (51160) - http://www.bohemiancoding.com/sketch -->
    <title>33</title>
    <desc>Created with Sketch.</desc>
    <defs></defs>
    <g id="Page-1" stroke="none" stroke-width="1" fill="none" fill-rule="evenodd">
        <g id="欣宏途PC端官网首页" transform="translate(-1397.000000, -5771.000000)" fill="#62C8F2" fill-rule="nonzero">
            <g id="钱" transform="translate(1397.000000, 5771.000000)">
                <g id="Group-55" transform="translate(0.000000, 7.000000)">
                    <path d="M89.9125837,48.322716 C89.9125837,41.0818392 80.1177362,35.4096293 68.1161374,35.4096293 C67.3174001,35.4096293 66.3569258,35.4384368 65.5824122,35.4875301 L65.5824122,14.3586498 C65.6941359,13.8234413 65.6525044,13.2801741 65.6525044,12.7249578 C65.6525044,5.58958516 56.5455915,0 44.5439005,0 C32.5419333,0 23.141757,5.58967788 23.141757,12.7249578 C23.141757,13.2801741 23.2176518,13.823534 23.328915,14.3586498 L23.328915,20.1523886 C22.6516647,20.1158928 21.9653879,20.092921 21.2675981,20.092921 C9.26599924,20.092921 0.0406388421,25.6816724 0.0406388421,32.816304 C0.0406388421,33.3730951 -0.058650725,33.9163622 0.0531651707,34.4515708 L0.0531651707,64.0447674 L0.199059959,64.0447674 C0.575678613,70.7901732 9.68019688,76.0188771 21.2675981,76.0188771 C32.8462493,76.0188771 42.53186,70.7986951 42.9218338,64.0446747 L43.0673602,64.0446747 L43.0673602,62.8120648 C43.7527159,62.8521731 43.8386502,62.9166426 44.5439005,62.9166426 C45.3448484,62.9166426 46.1270067,62.8825552 46.9010598,62.8317021 L46.9010598,63.1798007 L47.0571783,63.1798007 L47.0118624,63.9861333 C47.0118624,70.9418989 56.4195913,77 68.4294797,77 C80.4409337,77 89.8481101,71.469234 89.8481101,64.395089 L89.8247153,63.5921836 L89.9592809,63.5921836 L89.9592809,49.9815104 C90.0729388,49.4382432 89.9125837,48.8877509 89.9125837,48.322716 Z M68.4293876,39.5148398 C78.9880646,39.5148398 86.3458975,44.1566483 86.3458975,48.322716 C86.3458975,52.488413 78.9879724,57.1302215 68.4293876,57.1302215 C57.8714475,57.1302215 50.5134303,52.4884131 50.5134303,48.322716 C50.5135223,44.1566483 57.8714475,39.5148398 68.4293876,39.5148398 Z M86.5363714,55.5424733 L86.5363714,57.7705636 C85.526805,62.2312831 77.5018531,65.960699 68.4292033,65.960699 C59.3631852,65.960699 51.3389702,62.2338766 50.3230485,57.777696 L50.3230485,55.5424733 C54.1811559,58.9991904 60.7839095,61.235432 68.4292033,61.235432 C76.0757866,61.235432 82.6782639,58.9992831 86.5363714,55.5424733 Z M44.5439005,37.5767699 C43.8475844,37.5767699 43.7468211,37.5464803 43.0672681,37.502667 L43.0672681,34.4515708 C43.1365313,34.1203307 43.1833209,33.7853854 43.215834,33.4470127 C43.8442686,33.4849905 43.8953871,33.5079624 44.5439927,33.5079624 C52.1482074,33.5079624 58.3848424,31.2507867 62.0931866,27.7929579 L62.0931866,29.5068665 C61.0979887,33.9006155 53.4823529,37.5767699 44.5439005,37.5767699 Z M62.3863578,35.8680486 C62.0766077,35.9179755 61.7643707,35.9626225 61.460331,36.0197744 C61.774318,35.7710664 62.1041471,35.5296761 62.3863578,35.2667033 L62.3863578,35.8680486 Z M44.5439005,4.04602078 C54.9476564,4.04602078 61.9045549,8.61965457 61.9045549,12.7248651 C61.9045549,16.8291493 54.9476563,21.4026905 44.5438084,21.4026905 C34.1396841,21.4026905 26.8897064,16.8290567 26.8897064,12.7248651 C26.8897065,8.61965457 34.1396842,4.04602078 44.5439005,4.04602078 Z M26.7016275,19.8380069 C27.0247329,20.1279346 27.3937068,20.3961873 27.7554044,20.6677746 C27.4112989,20.6043239 27.0533776,20.5596769 26.7016275,20.5065081 L26.7016275,19.8380069 Z M21.2675981,24.1375523 C31.6717223,24.1375523 39.2148712,28.712205 39.2148712,32.8163966 C39.2148712,36.9220704 31.6717223,41.4942221 21.2675981,41.4942221 C10.8638422,41.4942221 3.61386451,36.9220704 3.61386451,32.8163966 C3.61386458,28.7122051 10.8638423,24.1375523 21.2675981,24.1375523 Z M3.42532501,39.9310205 C7.22816918,43.3368845 13.7335675,45.5405208 21.2675982,45.5405208 C28.8016287,45.5405208 35.6005666,43.3367919 39.4019371,39.9310205 L39.4019371,42.1262276 C38.4078445,46.5212734 30.2066031,50.1965942 21.2675982,50.1965942 C12.3333827,50.1965942 4.4271545,46.5237743 3.42532501,42.1320632 L3.42532501,39.9310205 Z M3.42532501,47.8898621 C7.13357703,51.3437078 13.6625544,53.6008835 21.2675981,53.6008835 C28.8718128,53.6008835 35.6950666,51.3437078 39.4019371,47.8859717 L39.4019371,49.5985833 C38.4078444,53.993629 30.206603,57.6687646 21.2675981,57.6687646 C12.3333825,57.6687646 4.42715443,53.9974268 3.42532486,49.6058083 L3.42532501,47.8898621 Z M3.42532501,55.3628662 C7.13357703,58.8173603 13.6625544,61.0739802 21.2675982,61.0739802 C28.871813,61.0739802 35.6950667,58.8173603 39.4019371,55.3589758 L39.4019371,57.0715875 C38.4078445,61.4670963 30.2066031,65.1418615 21.2675982,65.1418615 C12.3333827,65.1418615 4.4271545,61.4709868 3.42532501,57.0777011 L3.42532501,55.3628662 Z M21.2675981,72.6139394 C11.993606,72.6139394 3.84679888,68.6557306 3.36177223,64.0447674 L3.42532486,64.0447674 L3.42532486,62.8352221 C7.13357695,66.2879563 13.6625543,68.5453172 21.2675981,68.5453172 C28.8718128,68.5453172 35.6950666,66.2880488 39.4019371,62.8317949 L39.4019371,64.0447674 L39.4644767,64.0447674 C38.9796343,68.6556379 30.5408533,72.6139394 21.2675981,72.6139394 Z M42.7390048,30.0114149 C42.0326492,28.0791807 40.0272402,26.3267386 38.054897,24.8493111 C40.0984376,25.2241794 42.2656756,25.4474145 44.5440848,25.4474145 C52.0781153,25.4474145 58.2904346,23.2439634 62.0932788,19.8380067 L62.0932788,22.0333992 C61.0981729,26.4284449 53.4825371,30.1035804 44.5440848,30.1035804 C43.7359528,30.1036731 43.524571,30.0681038 42.7390048,30.0114149 Z M46.9009676,59.4139816 C46.1259935,59.4719672 45.3412563,59.5123534 44.5439005,59.5123534 C43.8475844,59.5123534 43.7468211,59.4831753 43.0672681,59.4379724 L43.0672681,55.8529646 C43.7450711,55.896778 43.8442686,55.925956 44.5439005,55.925956 C45.347151,55.925956 46.1279278,55.8856625 46.9009676,55.8286032 L46.9009676,59.4139816 Z M46.9009676,52.4216277 C46.1259935,52.4803543 45.3412563,52.521574 44.5439005,52.521574 C43.8475844,52.521574 43.7468211,52.4907287 43.0672681,52.4475638 L43.0672681,48.3793121 C43.7450711,48.423218 43.8442686,48.4533224 44.5439005,48.4533224 C45.2880194,48.4533224 46.0124277,48.4181235 46.7289149,48.3698639 C46.7475202,48.8440301 46.8066518,49.3096746 46.9010598,49.7683718 L46.9009676,52.4216277 Z M47.4050601,44.9159256 C46.4676122,45.0003104 45.5142301,45.0493109 44.5439927,45.0493109 C43.8476765,45.0493109 43.7469133,45.0199476 43.0673603,44.9747449 L43.0673603,40.9087162 C43.7451633,40.9508622 43.8443608,40.9810592 44.5439927,40.9810592 C46.8400861,40.9810592 49.0206794,40.7531 51.0738911,40.3700804 C49.3756533,41.6968011 48.1181394,43.2336962 47.4050601,44.9159256 Z M68.4293876,73.5446723 C58.780619,73.5446723 50.3083117,69.3252506 50.2127985,64.4944796 L50.243009,63.5921836 L50.2941274,63.5921836 C54.0508269,67.113185 60.691528,69.4159341 68.4293876,69.4159341 C76.1645761,69.4159341 82.8032509,67.1141113 86.561332,63.5921836 L86.6189899,63.5921836 L86.6472663,64.4108358 C86.6470819,69.2762501 78.1348009,73.5446723 68.4293876,73.5446723 Z M19.5718471,35.4667812 C19.4148997,35.2771703 19.2921233,34.9051735 19.2043469,34.3507908 L16.6605823,34.3507908 C16.6414244,35.5695064 17.1688194,36.4319721 18.2426753,36.9378173 C18.8520441,37.2191306 19.7755841,37.4082784 21.0134795,37.5050753 L21.0134795,38.818828 L21.92698,38.818828 L21.9269801,37.4918294 C22.9010858,37.4399574 23.7420074,37.2589609 24.4516788,36.9514337 C25.6137716,36.4503125 26.1956009,35.6449061 26.1956009,34.5361409 C26.1956009,33.6956282 25.7732981,33.0444486 24.9289686,32.5826946 C24.4164025,32.3062906 23.4156783,31.9869996 21.9270722,31.6255624 L21.9270722,29.1114347 C22.5479541,29.1426506 22.9755991,29.3140137 23.2118492,29.627006 C23.3478887,29.8074466 23.4413756,30.0925577 23.4904677,30.4841918 L25.9693902,30.4841918 C25.931627,29.4292438 25.3842451,28.6650572 24.3281656,28.1943181 C23.7468889,27.899481 22.9455727,27.7238571 21.9270722,27.6667052 L21.9270722,26.7755246 L21.0135716,26.7755246 L21.0135716,27.6534593 C20.3731634,27.688936 19.8849132,27.7432165 19.5532418,27.8185236 C19.0057678,27.9375514 18.5099649,28.1536542 18.0646358,28.4649792 C17.7192408,28.7073884 17.4504775,28.9948152 17.2589906,29.32939 C17.0671352,29.6645206 16.9711614,30.0354984 16.9711614,30.444454 C16.9711614,31.0650663 17.2175432,31.5953654 17.7100303,32.0356296 C18.2034384,32.4747822 19.0506231,32.8179714 20.2504791,33.0651047 L21.0135716,33.2231292 L21.0135716,36.0405232 C20.2974528,35.9529891 19.8171235,35.7614331 19.5718471,35.4667812 Z M21.9271642,33.4412698 C22.4487566,33.577156 22.8187437,33.709152 23.0357437,33.8363311 C23.402323,34.0570652 23.5850599,34.3557001 23.5850599,34.7338104 C23.5850599,35.2311338 23.3904413,35.5804366 22.9981648,35.7831082 C22.7751778,35.8972267 22.4177171,35.97698 21.9271642,36.0206081 L21.9271642,33.4412698 Z M19.9952553,31.11101 C19.6000314,30.895463 19.4015444,30.6033122 19.4015444,30.2330754 C19.4015444,29.8947027 19.5341761,29.6279323 19.7981498,29.4315594 C20.0610184,29.2361129 20.4668345,29.1344066 21.0137558,29.1248657 L21.0137558,31.4411386 C20.5546108,31.3404513 20.2148344,31.2301305 19.9952553,31.11101 Z M66.4529917,50.2809789 C66.2953995,50.0918311 66.1731757,49.7208531 66.0848467,49.1666558 L63.5411743,49.1666559 C63.5226611,50.3855567 64.0495036,51.2476518 65.1233594,51.7534971 C65.7327282,52.0348104 66.6567287,52.2238655 67.8942557,52.3214035 L67.8942557,53.6335814 L68.8083089,53.6335814 L68.8083089,52.3078798 C69.7818621,52.2547109 70.6232441,52.0737144 71.3330077,51.7670209 C72.4950083,51.2649734 73.0764691,50.459567 73.0764691,49.3508017 C73.0764691,48.5103817 72.6537979,47.8604989 71.8095605,47.3982818 C71.2970865,47.1203957 70.2968228,46.8016604 68.8083089,46.4412422 L68.8083089,43.9270219 C69.4285461,43.9572188 69.8562831,44.1296935 70.0924412,44.4417595 C70.2298623,44.6222001 70.3220597,44.9082375 70.3719808,45.2998716 L72.8499822,45.2998716 C72.8123111,44.2439047 72.2652976,43.480737 71.2092181,43.0104611 C70.6274809,42.7157167 69.8276383,42.538518 68.8081246,42.4814587 L68.8081246,41.5912044 L67.8941636,41.5912044 L67.8941636,42.4681202 C67.2536633,42.5046159 66.7667946,42.5593595 66.4337418,42.6332771 C65.8868204,42.7523049 65.3910175,42.9678519 64.9453199,43.2807516 C64.5997407,43.5222346 64.3316222,43.8112361 64.1396748,44.1442361 C63.948372,44.4792741 63.8524904,44.851734 63.8524904,45.2602265 C63.8524904,45.8798197 64.0985957,46.4103042 64.5921881,46.8503831 C65.0848595,47.290462 65.9314915,47.6337439 67.1311633,47.8797657 L67.8942558,48.0387164 L67.8942558,50.8561104 C67.1778605,50.7678353 66.6978076,50.5757234 66.4529917,50.2809789 Z M68.8083089,48.2559306 C69.3294407,48.3928359 69.6991515,48.523998 69.9168884,48.650992 C70.2833754,48.8717262 70.4658361,49.1713798 70.4658361,49.5499533 C70.4658361,50.0457021 70.2710333,50.396209 69.8796778,50.5987879 C69.655862,50.7129064 69.2984012,50.7917335 68.8084009,50.8354542 L68.8083089,48.2559306 Z M66.8761235,45.9257636 C66.4805312,45.7111429 66.2834258,45.4188994 66.2834258,45.049311 C66.2834258,44.7105679 66.4144918,44.4426858 66.6786498,44.2473319 C66.9429921,44.0510517 67.3472423,43.9491602 67.8940715,43.9406383 L67.8940715,46.2558922 C67.4355712,46.1552048 67.0967158,46.0447914 66.8761235,45.9257636 Z M42.698939,15.5773653 C42.5418994,15.3882175 42.4192152,15.0157577 42.3310704,14.4619307 L39.7876743,14.4619307 C39.7686085,15.6806463 40.2968325,16.543112 41.3707804,17.048494 C41.9792281,17.3302704 42.9026761,17.5193256 44.1407557,17.6163078 L44.1407557,18.929412 L45.0542563,18.929412 L45.0542563,17.6027842 C46.0278094,17.5495226 46.8692836,17.3700083 47.5788629,17.0618326 C48.7409556,16.5597852 49.3223244,15.7558608 49.3223244,14.6461693 C49.3223244,13.8065829 48.9004821,13.1554033 48.0557842,12.6930935 C47.543126,12.4166895 46.5426781,12.0965648 45.0542563,11.7366097 L45.0542563,9.22211152 C45.6745855,9.25369788 46.1037963,9.42459784 46.3390332,9.73749756 C46.4759017,9.91701194 46.568007,10.2035124 46.6185728,10.5953318 L49.0960216,10.5953318 C49.0582584,9.53899433 48.511337,8.77582659 47.4551654,8.30545815 C46.8735203,8.0107137 46.0735857,7.8346266 45.0541641,7.77793778 L45.0541641,6.8861088 L44.1406635,6.8861088 L44.1406635,7.76450661 C43.4997947,7.79942761 43.0129261,7.85426384 42.6797811,7.92957097 C42.1339649,8.04804311 41.6371489,8.26266368 41.1912671,8.57565604 C40.845688,8.81723173 40.5774773,9.10604786 40.3857141,9.44053005 C40.1942271,9.77427123 40.0983455,10.1466385 40.0983455,10.555131 C40.0983455,11.1762989 40.3446352,11.7060424 40.8380433,12.1451949 C41.3305304,12.5852738 42.1771625,12.9290188 43.3770184,13.17467 L44.1406636,13.334084 L44.1406636,16.1510149 C43.4238078,16.0625543 42.9436628,15.8719246 42.698939,15.5773653 Z M45.0540719,13.5509277 C45.5752037,13.6877402 45.9451908,13.8201067 46.1628357,13.9473785 C46.5293227,14.1667232 46.7120597,14.4667476 46.7120597,14.8448578 C46.7120597,15.3421812 46.5168885,15.691484 46.1260857,15.8941556 C45.9017171,16.0079036 45.5442564,16.0870085 45.054164,16.1316555 L45.0540719,13.5509277 Z M43.1222551,11.2220573 C42.7264785,11.0060472 42.5294652,10.7137111 42.5294652,10.3441227 C42.5294652,10.0057501 42.6607152,9.73740478 42.9251496,9.54214354 C43.1890313,9.34725285 43.5932815,9.24406446 44.1405713,9.23535741 L44.1405713,11.552186 C43.6815185,11.4500165 43.3426631,11.3411778 43.1222551,11.2220573 Z" id="Shape"></path>
                </g>
            </g>
        </g>
    </g>
</svg>