<?xml version="1.0" encoding="UTF-8"?>
<svg width="37px" height="37px" viewBox="0 0 37 37" version="1.1" xmlns="http://www.w3.org/2000/svg" xmlns:xlink="http://www.w3.org/1999/xlink">
    <!-- Generator: Sketch 49.2 (51160) - http://www.bohemiancoding.com/sketch -->
    <title>6</title>
    <desc>Created with Sketch.</desc>
    <defs></defs>
    <g id="Page-1" stroke="none" stroke-width="1" fill="none" fill-rule="evenodd">
        <g id="欣宏途PC端官网首页" transform="translate(-942.000000, -925.000000)" fill="#FFFFFF" fill-rule="nonzero">
            <g id="箭头" transform="translate(960.500000, 943.500000) rotate(-270.000000) translate(-960.500000, -943.500000) translate(942.000000, 925.000000)">
                <g id="Group-13">
                    <path d="M18.4998998,37 C18.2214705,37 17.942999,36.8937829 17.7304979,36.6810951 C17.3051997,36.2560999 17.3051997,35.5673786 17.7304979,35.1424678 L28.6120332,24.2600714 C29.0371199,23.8349494 29.7257925,23.8349494 30.1508793,24.2600714 C30.5761774,24.6850666 30.5761774,25.3737879 30.1508793,25.7988254 L19.2694286,36.6811374 C19.0568006,36.8937829 18.7783291,37 18.4998998,37 Z M35.9115404,19.5883347 L1.08838613,19.5883347 C0.487378096,19.5883347 0,19.1008513 0,18.5000528 C0,17.8989585 0.487378096,17.4116864 1.08838613,17.4116864 L33.2840967,17.4116864 L17.7304979,1.85768002 C17.3051997,1.43255803 17.3051997,0.743963498 17.7304979,0.318841499 C18.1555846,-0.1062805 18.8442573,-0.1062805 19.2694286,0.318841499 L36.6809423,17.7306335 C36.9923991,18.0418911 37.0858573,18.5096859 36.9167868,18.9166403 C36.7489426,19.3230031 36.3514282,19.5883347 35.9115404,19.5883347 Z" id="Shape"></path>
                </g>
            </g>
        </g>
    </g>
</svg>