<?xml version="1.0" encoding="UTF-8"?>
<svg width="55px" height="54px" viewBox="0 0 55 54" version="1.1" xmlns="http://www.w3.org/2000/svg" xmlns:xlink="http://www.w3.org/1999/xlink">
    <!-- Generator: Sketch 49.2 (51160) - http://www.bohemiancoding.com/sketch -->
    <title>8</title>
    <desc>Created with Sketch.</desc>
    <defs></defs>
    <g id="Page-1" stroke="none" stroke-width="1" fill="none" fill-rule="evenodd">
        <g id="欣宏途PC端官网首页" transform="translate(-933.000000, -1170.000000)" fill="#62C8F2" fill-rule="nonzero">
            <g id="AK-TR旅游" transform="translate(933.000000, 1170.000000)">
                <g id="Group-16">
                    <path d="M5.03904857,12.0113225 C5.03904857,12.0113225 -2.17615084,22.5758214 2.68037418,34.549349 C3.99842616,35.8172063 5.03904857,35.6056365 5.66324973,32.2252042 C5.24701307,28.7391433 5.45540828,24.512869 9.61765179,22.9281254 C13.7798953,21.3433819 18.6713067,25.3580239 18.6713067,25.3580239 C18.6713067,25.3580239 27.8289438,28.4216948 28.1408906,17.6456886 C28.4528373,6.8696824 34.4885457,6.97543608 36.3618876,6.76424105 C38.2352294,6.55304602 42.0850339,4.75667019 37.6107206,1.90475647 C33.1364073,-0.947157245 21.6893762,-0.736337007 13.7805106,3.48925015 C6.60032058,8.34873473 5.03947926,12.011385 5.03947926,12.011385 L5.03904857,12.0113225 Z M53.9996775,30.2180082 C53.9996775,30.2180082 53.4273444,25.4635277 51.4503894,29.2670371 C49.7856274,32.0136344 50.4099516,34.1265217 47.2184348,34.1973573 C44.0269179,34.2681929 41.3213489,30.6755662 38.2691928,32.9999608 C35.2170368,35.3243555 37.367439,40.1132543 37.367439,40.1132543 C37.367439,40.1132543 39.5730318,44.1981072 36.6318107,45.8178938 C33.6905896,47.4376803 31.6786253,46.3108696 30.9159862,42.2965399 C30.1533471,38.2822102 28.9730562,32.7886409 21.6196035,40.606355 L20.7870687,41.8035641 C20.7870687,41.8035641 19.4690167,45.1841213 16.9714122,46.1702603 C14.4738076,47.1563993 11.3523096,43.0010231 10.7970813,42.6484692 C10.241853,42.2959153 4.27597879,42.0852824 8.02217023,45.2543947 C11.7683617,48.423507 18.289095,55.3258553 29.3891698,53.7765296 C40.4892447,52.2272038 49.0911613,47.8601328 53.6702568,33.4218512 C54.0169668,31.9426739 53.999862,30.2171961 53.999862,30.2171961 L53.9996775,30.2180082 Z" id="Shape"></path>
                    <path d="M54.8048796,9.48841861 C55.1140447,8.57040461 55.0556964,7.86283786 54.6306409,7.36553424 C54.1283871,6.94445562 53.4132645,6.88762443 52.4855212,7.1927085 C51.5578398,7.49877454 50.7267028,8.01498097 49.9926682,8.74200289 L47.6742399,11.0370379 L38.0378498,8.7564255 C37.8833293,8.70880022 37.7380477,8.74697409 37.6034933,8.87082435 L35.7481926,10.706791 C35.6420993,10.8119839 35.5987566,10.9411123 35.6177927,11.0941146 C35.6465017,11.2471783 35.7285985,11.3621909 35.864145,11.4386 L43.2257595,15.4403506 L39.4720634,19.1556744 L36.6606823,18.3955112 C36.6416463,18.3860598 36.6027681,18.3810886 36.5446059,18.3810886 C36.4089354,18.3810886 36.2982535,18.424295 36.2112582,18.5100941 L34.8204493,19.9015377 C34.7234709,20.015998 34.6805003,20.135859 34.6898633,20.259832 C34.7088373,20.4128957 34.771774,20.5231212 34.8779294,20.5897721 L38.5299345,23.3006076 L41.2687679,26.9153415 C41.3559492,27.0205344 41.4719016,27.0826437 41.6166251,27.1019147 L41.6456442,27.1019147 C41.7813148,27.1019147 41.8922446,27.0586469 41.9790539,26.9729091 L43.3698629,25.5962564 C43.4951163,25.4619727 43.5339945,25.3141257 43.4864354,25.1513037 L42.7182971,22.368662 L46.4719931,18.6532768 L50.5150741,25.9398212 C50.5729263,26.0637942 50.6741832,26.1404488 50.8189687,26.1696009 C50.8476778,26.1790523 50.8822155,26.1834711 50.9202875,26.1834711 C51.0356199,26.1834711 51.1276378,26.1550555 51.195659,26.0977333 L53.0508357,24.7211419 C53.2149053,24.5867969 53.2730675,24.4294985 53.2249504,24.2477123 L50.906274,14.2648164 L53.2390259,11.9554201 C53.9734945,11.2284596 54.4949704,10.406003 54.8043215,9.48768214 L54.8048796,9.48841861 Z M2.8309752,35.4634647 C2.8309752,35.4634647 0.104605203,40.6060738 12.8986214,34.9207452 C25.6926377,29.2354166 30.9348031,23.7343291 30.9348031,23.7343291 C30.9348031,23.7343291 33.4071939,21.658088 34.6885611,22.5926113 C35.9699284,23.5271346 38.9064389,25.4988578 36.4945045,28.1974802 C34.0825702,30.8961026 28.6293962,33.6988132 28.6293962,33.6988132 C28.6293962,33.6988132 22.0225886,37.7813303 14.1573562,39.8918174 C6.29212388,42.0023045 0.209644453,40.7570508 0,38.992338 C0.104977243,37.8506816 -0.419474926,37.8506816 1.36346403,35.9823101 C2.20241388,35.3077619 2.83171928,35.463526 2.83171928,35.463526 L2.8309752,35.4634647 Z" id="Shape"></path>
                </g>
            </g>
        </g>
    </g>
</svg>