<?xml version="1.0" encoding="UTF-8"?>
<svg width="59px" height="49px" viewBox="0 0 59 49" version="1.1" xmlns="http://www.w3.org/2000/svg" xmlns:xlink="http://www.w3.org/1999/xlink">
    <!-- Generator: Sketch 49.3 (51167) - http://www.bohemiancoding.com/sketch -->
    <title>PCDINGZHI@2x</title>
    <desc>Created with Sketch.</desc>
    <defs></defs>
    <g id="Page-1" stroke="none" stroke-width="1" fill="none" fill-rule="evenodd">
        <g id="招商加盟" transform="translate(-1532.000000, -806.000000)" fill="#FFFFFF" fill-rule="nonzero">
            <g id="Group-4" transform="translate(1045.000000, 801.000000)">
                <g id="PCDINGZHI" transform="translate(487.000000, 5.000000)">
                    <path d="M56.0131582,0 L3.36035744,0 C1.49377738,0 0,1.12160533 0,2.99198752 L0,36.6566688 C0,38.1530171 1.49384867,39.6492945 2.98755476,39.6492945 L24.0944323,39.6492945 L23.5252113,45.6339077 L19.4178939,45.6339077 C17.9240452,45.6339077 16.8030705,47.5036517 16.8030705,49 L41.8234138,49 C42.1962165,47.8783947 41.0765251,45.6339077 39.5827478,45.6339077 L35.474147,45.6339077 L34.9055677,39.6492945 L56.0124452,39.6492945 C57.5062939,39.6492945 59,38.1529462 59,36.6566688 L59,2.99205843 C59,1.1223144 57.5061513,7.09068992e-05 56.0124452,7.09068992e-05 L56.0131582,0 Z M55.6397851,31.0461604 L3.73444344,31.0461604 L3.73444344,3.36673048 L55.6397851,3.36673048 L55.6397851,31.0461604 Z M17.9241165,13.0909026 C18.8160195,13.0860979 19.6700526,12.7317515 20.3009564,12.1047295 C20.9284221,11.4690939 21.2815708,10.6149335 21.2851869,9.72417216 C21.2851869,8.84258668 20.9231498,7.9670992 20.3009564,7.34361483 C19.6698522,6.7169696 18.8158936,6.36288345 17.9241165,6.35807984 C17.0325962,6.3631155 16.1789446,6.71718055 15.5479895,7.34361483 C14.9204298,7.9792463 14.5670488,8.83334987 14.5630461,9.72417216 C14.5630461,10.6057576 14.9250832,11.4818833 15.5479895,12.1047295 C16.1787443,12.7315405 17.0324703,13.0858657 17.9241165,13.0909026 Z M45.5572869,17.5798766 L31.3676138,17.5798766 L31.3676138,27.3053251 L45.5572869,27.3053251 L45.5572869,17.5798766 Z M45.5572869,7.85442814 L31.3676138,7.85442814 L31.3676138,8.97596256 L45.5572869,8.97596256 L45.5572869,7.85442814 Z M45.5572869,10.098277 L31.3676138,10.098277 L31.3676138,11.2205205 L45.5572869,11.2205205 L45.5572869,10.098277 Z M28.0066147,17.5798766 L13.8168704,17.5798766 L13.8168704,18.701482 L28.0066147,18.701482 L28.0066147,17.5798766 Z M28.0066147,19.8237254 L13.8168704,19.8237254 L13.8168704,20.9459689 L28.0066147,20.9459689 L28.0066147,19.8237254 Z M28.0066147,21.6941076 L13.8168704,21.6941076 L13.8168704,22.8163511 L28.0066147,22.8163511 L28.0066147,21.6941076 Z M28.0066147,23.9385946 L13.8168704,23.9385946 L13.8168704,25.0608381 L28.0066147,25.0608381 L28.0066147,23.9385946 Z M28.0066147,26.1824435 L13.8168704,26.1824435 L13.8168704,27.3046869 L28.0066147,27.3046869 L28.0066147,26.1824435 Z" id="Shape"></path>
                </g>
            </g>
        </g>
    </g>
</svg>