<?xml version="1.0" encoding="UTF-8"?>
<svg width="136px" height="136px" viewBox="0 0 136 136" version="1.1" xmlns="http://www.w3.org/2000/svg" xmlns:xlink="http://www.w3.org/1999/xlink">
    <!-- Generator: Sketch 49.3 (51167) - http://www.bohemiancoding.com/sketch -->
    <title>pcfuwuhao</title>
    <desc>Created with Sketch.</desc>
    <defs></defs>
    <g id="Page-1" stroke="none" stroke-width="1" fill="none" fill-rule="evenodd">
        <g id="免费开通个人旅行社" transform="translate(-892.000000, -1554.000000)" fill="#FFFFFF" fill-rule="nonzero">
            <g id="Group-3" transform="translate(426.000000, 1552.000000)">
                <g id="pcfuwuhao" transform="translate(476.000000, 2.000000)">
                    <path d="M91.7918182,93.1 C85.1235926,104.603397 72.8459417,111.694534 59.553,111.72 C46.2571345,111.695054 33.9760675,104.604284 27.3035455,93.1 C26.2555479,91.4508581 26.1957271,89.3597103 27.147734,87.6533158 C28.0997408,85.9469214 29.9103134,84.8999898 31.8636209,84.9264377 C33.8169283,84.9528855 35.5985112,86.048455 36.504,87.78 C41.27765,95.9964397 50.0529431,101.060061 59.553,101.08 C69.0483763,101.063364 77.8188459,95.9978517 82.5807273,87.78 C83.5239684,86.1204218 85.2838166,85.0936489 87.1922201,85.089452 C89.1006235,85.0852551 90.8649677,86.1042779 91.815494,87.7596913 C92.7660203,89.4151048 92.7569851,91.4530854 91.7918182,93.1 M106.406182,26.6 L10.5938182,26.6 C4.74544423,26.605865 0.00586303595,31.3470666 0,37.19744 L0,122.3866 C0,128.24392 4.74913636,133 10.5938182,133 L106.406182,133 C112.256276,132.988275 116.99415,128.244023 117,122.39192 L117,37.20276 C116.994143,31.3515225 112.255416,26.6087959 106.406182,26.6 M58.5,10.64 C67.2962727,10.64 74.4545455,17.80072 74.4545455,26.6 L85.0909091,26.6 C85.0909091,11.93276 73.1622273,0 58.5,0 C43.8377727,0 31.9090909,11.93276 31.9090909,26.6 L42.5454545,26.6 C42.5454545,17.80072 49.7037273,10.64 58.5,10.64" id="Shape"></path>
                </g>
            </g>
        </g>
    </g>
</svg>