<?xml version="1.0" encoding="UTF-8"?>
<svg width="73px" height="73px" viewBox="0 0 73 73" version="1.1" xmlns="http://www.w3.org/2000/svg" xmlns:xlink="http://www.w3.org/1999/xlink">
    <!-- Generator: Sketch 49.3 (51167) - http://www.bohemiancoding.com/sketch -->
    <title>pcgengduo</title>
    <desc>Created with Sketch.</desc>
    <defs></defs>
    <g id="Page-1" stroke="none" stroke-width="1" fill="none" fill-rule="evenodd">
        <g id="首页" transform="translate(-1519.000000, -2725.000000)" fill="#000000" fill-rule="nonzero">
            <g id="Group-8" transform="translate(329.000000, 2713.000000)">
                <g id="pcgengduo" transform="translate(1191.000000, 38.000000)">
                    <path d="M9,19 C13.9705627,19 18,14.746705 18,9.5 C18,4.25329496 13.9705627,0 9,0 C4.02943725,0 0,4.25329496 0,9.5 C0,14.746705 4.02943725,19 9,19 Z M36,19 C40.9705627,19 45,14.746705 45,9.5 C45,4.25329496 40.9705627,0 36,0 C31.0294373,0 27,4.25329496 27,9.5 C27,14.746705 31.0294373,19 36,19 Z M63,19 C67.9705627,19 72,14.746705 72,9.5 C72,4.25329496 67.9705627,0 63,0 C58.0294373,0 54,4.25329496 54,9.5 C54,14.746705 58.0294373,19 63,19 Z" id="Shape"></path>
                </g>
            </g>
        </g>
    </g>
</svg>