<?xml version="1.0" encoding="UTF-8"?>
<svg width="123px" height="123px" viewBox="0 0 123 123" version="1.1" xmlns="http://www.w3.org/2000/svg" xmlns:xlink="http://www.w3.org/1999/xlink">
    <!-- Generator: Sketch 49.3 (51167) - http://www.bohemiancoding.com/sketch -->
    <title>pcgognnkf@2x</title>
    <desc>Created with Sketch.</desc>
    <defs>
        <filter x="-8.5%" y="-6.1%" width="117.1%" height="117.1%" filterUnits="objectBoundingBox" id="filter-1">
            <feOffset dx="0" dy="2" in="SourceAlpha" result="shadowOffsetOuter1"></feOffset>
            <feGaussianBlur stdDeviation="2" in="shadowOffsetOuter1" result="shadowBlurOuter1"></feGaussianBlur>
            <feColorMatrix values="0 0 0 0 0   0 0 0 0 0   0 0 0 0 0  0 0 0 0.29 0" type="matrix" in="shadowBlurOuter1" result="shadowMatrixOuter1"></feColorMatrix>
            <feMerge>
                <feMergeNode in="shadowMatrixOuter1"></feMergeNode>
                <feMergeNode in="SourceGraphic"></feMergeNode>
            </feMerge>
        </filter>
    </defs>
    <g id="Page-1" stroke="none" stroke-width="1" fill="none" fill-rule="evenodd">
        <g id="首页" transform="translate(-897.000000, -7956.000000)" fill="#5BC1DF" fill-rule="nonzero">
            <g id="Group-19" transform="translate(199.000000, 7948.000000)">
                <g id="pcgognnkf" filter="url(#filter-1)" transform="translate(720.000000, 26.000000)">
                    <path d="M32.8,5.46666658 L32.8,32.8 L5.46666669,32.8 L5.46666669,5.46666658 L32.8,5.46666658 Z M32.8,0 L5.46666669,0 C2.4475633,0 0,2.44756331 0,5.46666658 L0,32.8 C0,35.8191033 2.4475633,38.2666667 5.46666669,38.2666667 L32.8,38.2666667 C35.8191034,38.2666667 38.2666667,35.8191033 38.2666667,32.8 L38.2666667,5.46666658 C38.2666667,2.44742656 35.81924,-1.12361621e-07 32.8,0 Z M32.8,49.2 L32.8,76.5333333 L5.46666669,76.5333333 L5.46666669,49.2 L32.8,49.2 Z M32.8,43.7333333 L5.46666669,43.7333333 C2.4475633,43.7333333 0,46.1808967 0,49.2 L0,76.5333333 C0,79.5524367 2.4475633,82 5.46666669,82 L32.8,82 C35.8191034,82 38.2666667,79.5524367 38.2666667,76.5333333 L38.2666667,49.2 C38.2666667,46.18076 35.81924,43.7333333 32.8,43.7333333 Z M62.8666666,5.46666658 C70.4024666,5.46666658 76.5333333,11.5975333 76.5333333,19.1333333 C76.5333333,26.6691333 70.4024666,32.8 62.8666666,32.8 C55.3308667,32.8 49.2,26.6691333 49.2,19.1333333 C49.2,11.5975333 55.3308667,5.46666658 62.8666666,5.46666658 Z M62.8666666,2.84217094e-14 C52.2996,2.84217094e-14 43.7333333,8.56626663 43.7333333,19.1333333 C43.7333333,29.7003999 52.2995999,38.2666667 62.8666666,38.2666667 C73.4337334,38.2666667 82,29.7004 82,19.1333333 C82,8.56626651 73.4337334,-1.12361592e-07 62.8666666,2.84217094e-14 Z M76.5333333,49.2 L76.5333333,76.5333333 L49.2,76.5333333 L49.2,49.2 L76.5333333,49.2 Z M76.5333333,43.7333333 L49.2,43.7333333 C46.1808966,43.7333333 43.7333333,46.1808967 43.7333333,49.2 L43.7333333,76.5333333 C43.7333333,79.5524367 46.1808966,82 49.2,82 L76.5333333,82 C79.5524367,82 82,79.5524367 82,76.5333333 L82,49.2 C82,46.18076 79.5525733,43.7333333 76.5333333,43.7333333 Z" id="Shape"></path>
                </g>
            </g>
        </g>
    </g>
</svg>