<?xml version="1.0" encoding="UTF-8"?>
<svg width="134px" height="134px" viewBox="0 0 134 134" version="1.1" xmlns="http://www.w3.org/2000/svg" xmlns:xlink="http://www.w3.org/1999/xlink">
    <!-- Generator: Sketch 49.3 (51167) - http://www.bohemiancoding.com/sketch -->
    <title>pcguangao</title>
    <desc>Created with Sketch.</desc>
    <defs></defs>
    <g id="Page-1" stroke="none" stroke-width="1" fill="none" fill-rule="evenodd">
        <g id="首页" transform="translate(-1357.000000, -10127.000000)" fill="#000000" fill-rule="nonzero">
            <g id="Group-14" transform="translate(381.000000, 10123.000000)">
                <g id="pcguangao" transform="translate(984.000000, 12.000000)">
                    <path d="M119,85.9045905 C119,88.3528353 117.007004,90.3330333 114.542935,90.3330333 L65.8534308,90.3330333 L65.8534308,112.607261 C65.8534308,116.675668 62.5076127,120 58.4129111,120 C54.3182095,120 50.9723914,116.675668 50.9723914,112.607261 L50.9723914,90.3450345 L4.45706456,90.3450345 C1.99299635,90.3450345 0,88.3648365 0,85.9165917 C0,83.4683468 1.99299635,81.4881488 4.45706456,81.4881488 L114.542935,81.4881488 C117.007004,81.4761476 119,83.4563456 119,85.9045905 Z M77.0021315,25.1785179 L73.0765327,25.1785179 L73.0765327,48.8448845 L77.0021315,48.8448845 C84.3580999,49.1329133 87.9454933,45.1365137 87.752233,36.8676868 C87.8488632,28.9708971 84.2735485,25.0825083 77.0021315,25.1785179 Z M35.8618555,40.90009 L45.887231,40.90009 L40.8020706,26.8946895 L35.8618555,40.90009 Z M114.98985,11.8211821 L114.98985,73.9033903 L4.01015022,73.9033903 L4.01015022,11.8211821 C4.01015022,5.31653165 9.37312221,0 15.9077345,0 L103.080187,0 C109.626878,0 114.98985,5.31653165 114.98985,11.8211821 Z M56.6373325,52.4572457 L44.5827243,21.4221422 L37.3233861,21.4221422 L25.1238327,52.4572457 L31.5134998,52.4572457 L34.4244823,44.6684668 L47.3487617,44.6684668 L50.4046894,52.4572457 L56.6373325,52.4572457 Z M93.8520097,36.7236724 C93.9486399,26.4266427 88.3803289,21.3261326 77.1470767,21.4221422 L66.976756,21.4221422 L66.976756,52.4572457 L77.4369671,52.4572457 C88.8634795,52.9372937 94.3351604,47.6927693 93.8520097,36.7236724 Z" id="Shape"></path>
                </g>
            </g>
        </g>
    </g>
</svg>