<?xml version="1.0" encoding="UTF-8"?>
<svg width="134px" height="134px" viewBox="0 0 134 134" version="1.1" xmlns="http://www.w3.org/2000/svg" xmlns:xlink="http://www.w3.org/1999/xlink">
    <!-- Generator: Sketch 49.3 (51167) - http://www.bohemiancoding.com/sketch -->
    <title>pchulianwang</title>
    <desc>Created with Sketch.</desc>
    <defs></defs>
    <g id="Page-1" stroke="none" stroke-width="1" fill="none" fill-rule="evenodd">
        <g id="首页" transform="translate(-890.000000, -10125.000000)" fill="#000000" fill-rule="nonzero">
            <g id="Group-14" transform="translate(381.000000, 10123.000000)">
                <g id="pchulianwang" transform="translate(509.000000, 2.000000)">
                    <path d="M98.3294229,40 L70,40 L70,64 L102,64 C101.753525,55.402439 100.464273,47.2841463 98.3294229,40 Z" id="Shape"></path>
                    <path d="M70,128 C80.999859,126.382262 90.5000705,115.177378 96,99 L70,99 L70,128 Z" id="Shape"></path>
                    <path d="M70,5 L70,32 L96,32 C90.3141376,16.9012916 80.8626548,6.54547927 70,5 Z" id="Shape"></path>
                    <path d="M64.9962085,70 L33,70 C33.2540284,78.9700375 34.5810427,87.4382022 36.7952607,95 L65,95 L65,70 L64.9962085,70 Z" id="Shape"></path>
                    <path d="M102,70 L70,70 L70,95 L98.2080815,95 C100.41877,87.4344569 101.745941,78.9700375 102,70 Z" id="Shape"></path>
                    <path d="M103,95 L127.841662,95 C131.435919,87.329588 133.583384,78.8951311 134,70 L106.666219,70 C106.423824,78.8951311 105.143677,87.329588 103,95 Z" id="Shape"></path>
                    <path d="M32.4117116,33 C39.365278,13.365129 52.2475171,0.11057746 67,0.11057746 C81.7524829,0.11057746 94.634722,13.365129 101.588288,33 L125,33 C113.359603,13.3024684 91.7508061,0 67,0 C42.2491939,0 20.6403973,13.3061544 9,33 L32.4117116,33 Z" id="Shape"></path>
                    <path d="M103,40 C105.079848,47.3792683 106.311787,55.4792683 106.551331,64 L134,64 C133.608365,55.4792683 131.551331,47.3792683 128.08365,40 L103,40 Z" id="Shape"></path>
                    <path d="M31.7746094,99 L8,99 C19.4320462,119.836008 41.5879588,134 67,134 C51.8284644,134 38.5941191,119.836008 31.7746094,99 Z" id="Shape"></path>
                    <path d="M102.229138,99 C95.4096278,119.836008 82.1752826,134 67,134 C92.4120412,134 114.567954,119.836008 126,99 L102.229138,99 Z" id="Shape"></path>
                    <path d="M5.91634981,40 C2.4486692,47.3829268 0.391634981,55.4792683 0,64 L27.4486692,64 C27.6882129,55.4756098 28.9239544,47.3792683 31,40 L5.91634981,40 Z" id="Shape"></path>
                    <path d="M64,5 C53.1373452,6.54180829 43.6858624,16.9012916 38,32 L64,32 L64,5 Z" id="Shape"></path>
                    <path d="M65,40 L36.6739336,40 C34.535545,47.2841463 33.250237,55.402439 33,64 L64.9962085,64 L64.9962085,40 L65,40 Z" id="Shape"></path>
                    <path d="M63,128 L63,99 L37,99 C42.4962629,115.177378 52.000141,126.382262 63,128 Z" id="Shape"></path>
                    <path d="M27.3337813,70 L0,70 C0.416615761,78.8951311 2.56408064,87.329588 6.15833842,95 L31,95 C28.86011,87.329588 27.5799633,78.8951311 27.3337813,70 Z" id="Shape"></path>
                </g>
            </g>
        </g>
    </g>
</svg>