<?xml version="1.0" encoding="UTF-8"?>
<svg width="136px" height="136px" viewBox="0 0 136 136" version="1.1" xmlns="http://www.w3.org/2000/svg" xmlns:xlink="http://www.w3.org/1999/xlink">
    <!-- Generator: Sketch 49.3 (51167) - http://www.bohemiancoding.com/sketch -->
    <title>pcjiagedi</title>
    <desc>Created with Sketch.</desc>
    <defs></defs>
    <g id="Page-1" stroke="none" stroke-width="1" fill="none" fill-rule="evenodd">
        <g id="免费开通个人旅行社" transform="translate(-426.000000, -1553.000000)" fill="#FFFFFF" fill-rule="nonzero">
            <g id="Group-3" transform="translate(426.000000, 1552.000000)">
                <g id="pcjiagedi" transform="translate(7.000000, 7.000000)">
                    <path d="M112.27386,0 L10.7261402,0 C4.8046875,0 0,4.8046875 0,10.7261402 L0,112.27386 C0,118.195312 4.8046875,123 10.7261402,123 L112.27386,123 C118.195312,123 123,118.195312 123,112.27386 L123,10.7261402 C123,4.8046875 118.195312,9.22685352e-16 112.27386,0 Z M87.1855997,55.1630068 L87.1855997,63.9802576 L67.0059122,63.9802576 L67.0059122,76.2387035 L87.172614,76.2387035 L87.172614,85.107897 L67.0059122,85.107897 L67.0059122,102.742399 L55.9811022,102.742399 L55.9811022,85.107897 L35.1910895,85.107897 L35.1910895,76.2387035 L55.9811022,76.2387035 L55.9811022,63.9802576 L35.1910895,63.9802576 L35.1910895,55.1630068 L52.7087204,55.1630068 L31.295397,20.2576014 L43.8914696,20.2576014 L58.8639147,46.3457559 C59.6949958,48.0728463 60.629962,50.2804054 61.6947846,52.9554476 L61.9155405,52.9554476 C62.6687078,50.8128167 63.6426309,48.5143581 64.8502956,46.0600718 L79.8876689,20.2576014 L91.704603,20.2576014 L70.0055954,55.1630068 L87.1855997,55.1630068 Z" id="Shape"></path>
                </g>
            </g>
        </g>
    </g>
</svg>