<?xml version="1.0" encoding="UTF-8"?>
<svg width="59px" height="59px" viewBox="0 0 59 59" version="1.1" xmlns="http://www.w3.org/2000/svg" xmlns:xlink="http://www.w3.org/1999/xlink">
    <!-- Generator: Sketch 49.3 (51167) - http://www.bohemiancoding.com/sketch -->
    <title>PCLIRUN@2x</title>
    <desc>Created with Sketch.</desc>
    <defs></defs>
    <g id="Page-1" stroke="none" stroke-width="1" fill="none" fill-rule="evenodd">
        <g id="招商加盟" transform="translate(-1045.000000, -801.000000)" fill="#FFFFFF" fill-rule="nonzero">
            <g id="Group-4" transform="translate(1045.000000, 801.000000)">
                <g id="PCLIRUN">
                    <path d="M41.0082418,22.7318038 C31.0668498,22.7318038 23.0087651,30.8536392 23.0087651,40.8659019 C23.0087651,50.8781646 31.0668498,59 41.0082418,59 C50.9419152,59 59,50.8781646 59,40.8659019 C59,30.8536392 50.9419152,22.7318038 41.0082418,22.7318038 Z M45.0218472,38.4231276 C45.3228676,38.4775843 45.6161695,38.5087025 45.8631607,38.5087025 L48.5954998,38.5087025 C48.8579278,38.5087025 49.0817635,38.6098365 49.2747253,38.835443 C49.4676871,39.05327 49.5603087,39.2633175 49.5603087,39.4889241 L49.5603087,41.4649262 C49.5603087,41.8616825 49.2824437,42.0406119 48.7575877,42.0406118 L44.0184458,42.0406118 C43.8100471,42.0406118 43.6093668,42.0950685 43.416405,42.2117616 C43.2234432,42.3128956 43.1462585,42.4840454 43.1462585,42.7018724 C43.1462585,42.9352585 43.1539769,43.1530854 43.1771324,43.4020306 C43.2080063,43.6509758 43.2157248,43.8610232 43.2157247,44.0166139 C43.2157247,44.3433544 43.5013082,44.4600475 44.0261643,44.3433544 L48.6881214,44.3433544 C49.220696,44.3433544 49.4908425,44.5922996 49.4908425,45.0901899 L49.4908425,46.9106013 C49.4908425,47.4473892 49.1049189,47.7274525 48.3562271,47.7274525 L47.3142334,47.7274525 C46.8974359,47.7274525 46.4652014,47.7430116 46.0020932,47.7663502 C45.5544218,47.8052479 45.1299058,47.8130274 44.7594192,47.8130274 L44.0338828,47.8130274 C43.563056,47.8130274 43.3160649,48.0930907 43.3160649,48.6454377 L43.3160649,51.9361814 C43.3160649,52.2240242 43.0999477,52.3562764 42.6677133,52.3562764 L40.0897436,52.3562764 C39.3950811,52.3562764 39.0477498,52.0528745 39.0477498,51.4538502 C39.0477498,51.2204642 39.0709053,50.7614715 39.0940607,50.0379747 C39.1326531,49.3300369 39.1094976,48.8321466 39.0554684,48.5598629 C39.0554684,48.2875791 39.0245945,48.1086498 38.9705651,48.0230749 C38.9242543,47.9452796 38.7698849,47.9063819 38.4920199,47.9063819 L33.6756933,47.9063819 C32.9810309,47.9063819 32.6336996,47.5485232 32.6336996,46.8328059 C32.6336996,46.6772152 32.6182627,46.4671677 32.5565149,46.210443 C32.5024856,45.9692774 32.5024856,45.7203323 32.5565149,45.4324895 C32.6182627,45.1602057 32.6954474,44.9112606 32.7957875,44.685654 C32.9038462,44.4756066 33.1122449,44.3900316 33.4287023,44.4444884 L38.8084772,44.4444884 C38.9165359,44.4444884 38.9628467,44.3122362 38.9628467,44.0243934 L38.9628467,42.4607067 C38.9628467,42.1806434 38.6463893,42.0483913 38.0134746,42.0483914 L33.359236,42.0483914 C33.1431188,42.0483914 32.9578755,42.0406119 32.7957875,42.0172732 C32.6259812,41.9861551 32.5565149,41.8383438 32.5565149,41.5660601 L32.5565149,40.5625 C32.5565149,40.1346255 32.5333595,39.8001055 32.4793302,39.574499 C32.3712716,39.2477585 32.4561748,38.9676952 32.7108844,38.7576477 C32.9810309,38.5242616 33.3360806,38.4309072 33.7528781,38.4309072 C34.1851125,38.4853639 34.6559393,38.500923 35.1730769,38.4698048 C35.6747776,38.4386867 36.0684197,38.4309071 36.3308477,38.4309072 L37.2802198,38.4309072 C37.6043956,38.4309072 37.7124542,38.3142142 37.6043956,38.1041667 C37.5040555,37.9796941 37.1798797,37.5673787 36.6550235,36.8672205 C36.107012,36.1359441 35.551282,35.4046677 34.9723966,34.6344937 C34.2777342,33.6931699 33.4672946,32.6740506 32.5565149,31.5771361 C32.1860283,30.9703323 32.263213,30.472442 32.7957875,30.0990243 C33.0582156,29.9278745 33.3360805,29.7256066 33.6293825,29.4688819 C33.9226845,29.2277163 34.2622972,28.9943302 34.6405024,28.7765032 C35.1730769,28.4419831 35.6747776,28.745385 36.1610414,29.6789293 C36.3308477,29.9123154 36.6318681,30.3012922 37.087258,30.8847574 C37.5426479,31.4682225 38.0134746,32.0672468 38.4843014,32.7362869 C38.9551282,33.405327 39.4182365,33.9887922 39.850471,34.5022415 C40.2827054,35.03125 40.5142596,35.3579905 40.5760073,35.4591245 C40.6763474,35.6769514 40.8693093,35.8169831 41.1626112,35.8714399 C41.4636316,35.9258966 41.6720304,35.8325422 41.7723705,35.6224947 C41.8186813,35.5058017 42.042517,35.1712816 42.451596,34.5800369 C42.8529565,34.0121308 43.2929094,33.3742089 43.7714547,32.650712 C44.2577185,31.9349947 44.7053898,31.2659547 45.1299058,30.6202532 C45.5698587,29.9901108 45.8322867,29.5933544 45.9403454,29.4299842 C46.2027734,29.0410074 46.4420461,28.7998418 46.6118524,28.6909283 C46.8048142,28.5820147 47.1058346,28.6131329 47.5457875,28.7687236 C47.8082156,28.8776372 48.109236,29.0410074 48.4179749,29.2588344 C48.7498692,29.484441 48.9659864,29.6555907 49.0663265,29.7645042 C49.6606489,30.371308 49.8227368,30.8925369 49.5525903,31.3281909 C49.4522502,31.4993407 49.1512297,31.9116561 48.6804029,32.5729167 C48.1787022,33.2263977 47.6692831,33.9265559 47.1058346,34.6733914 C46.5346677,35.4124473 46.0406855,36.1048259 45.5852957,36.7738661 C45.1299058,37.4351266 44.8751962,37.8241034 44.8134484,37.9252373 C44.6745159,38.1897415 44.7362637,38.3531118 45.0218472,38.4231276 Z M22.1597331,0 C9.91823651,0 0,4.95556433 0,11.0780591 C0,17.1927743 9.91823651,22.1561182 22.1597331,22.1561181 C34.3935112,22.1561181 44.3117478,17.2005538 44.3117478,11.0780591 C44.3194662,4.95556433 34.3935112,0 22.1597331,0 Z" id="Shape"></path>
                    <path d="M28.9372822,24.7252874 C26.7526133,25.0764368 24.4299652,25.2706897 22,25.2706897 C11.5289199,25.278161 2.78257839,21.7367816 0.559581919,17 C0.199303155,17.762069 5.74912891e-08,18.5465517 0,19.3609196 C0,25.2333334 9.85017419,30.0000001 22.0076655,30 C22.5979094,30 23.1804878,29.9775862 23.7554007,29.9551724 C25.1121951,27.9005747 26.8752613,26.1224138 28.9372822,24.7252874 Z M43.4020906,21.7965517 C43.7853659,21.012069 44,20.1977012 44,19.3609196 C44,18.5465518 43.7930314,17.762069 43.4404181,17 C42.6508711,18.6810345 41.0181185,20.2126437 38.7951219,21.4902299 C39.1094077,21.4752874 39.4160278,21.4454023 39.7303136,21.4454023 C40.9874564,21.4454023 42.2139373,21.5724138 43.4020906,21.7965517 Z" id="Shape"></path>
                    <path d="M22.5367019,32.2924582 C11.8101741,32.2924582 2.8504609,28.7449626 0.573233224,24 C0.204165263,24.7633851 5.88938203e-08,25.5492228 0,26.3649971 C0,32.0829016 9.5329464,36.7380541 21.4923182,37 C21.7750085,35.3459988 22.2854217,33.7593552 23,32.2849741 C22.8429498,32.2849741 22.6937521,32.2924582 22.5367019,32.2924582 Z" id="Shape"></path>
                    <path d="M20.5743758,39.2625216 C10.7470164,38.9930915 2.66775649,35.5503742 0.554836259,31 C0.197615906,31.7633851 4.69563256e-06,32.5492228 4.63862931e-06,33.3649971 C-0.007595775,39.1128382 9.32573548,43.7904433 21,44 C20.7111835,42.7052389 20.543974,41.3655728 20.543974,39.9810017 C20.543974,39.7415083 20.5667753,39.5094991 20.5743758,39.2625216 Z" id="Shape"></path>
                    <path d="M0.573002942,39 C0.204086193,39.762069 4.6370378e-06,40.5465517 4.57816811e-06,41.3609196 C-0.00784469433,47.2333334 10.0784957,52.0000001 22.527473,52 C23.3673473,52 24.1915229,51.9775862 25,51.9327586 C23.9089484,50.5206897 23.037677,48.9517241 22.4018843,47.2706897 C11.7346963,47.2482759 2.84144835,43.7143679 0.573002942,39 Z" id="Shape"></path>
                    <path d="M26.3723608,54.0614942 C24.9673704,54.195977 23.5239923,54.2781609 22.0345489,54.2781609 C11.547025,54.2781609 2.78694817,50.7367816 0.56046069,46 C0.199616142,46.762069 5.75815738e-08,47.5465517 0,48.3609195 C0,54.2408046 9.86564296,59 22.0422265,59 C25.6276391,59 29.0057581,58.5741379 32,57.841954 C29.8886756,56.9155172 27.9846449,55.637931 26.3723608,54.0614942 Z" id="Shape"></path>
                </g>
            </g>
        </g>
    </g>
</svg>