<?xml version="1.0" encoding="UTF-8"?>
<svg width="386px" height="156px" viewBox="0 0 386 156" version="1.1" xmlns="http://www.w3.org/2000/svg" xmlns:xlink="http://www.w3.org/1999/xlink">
    <!-- Generator: Sketch 49.3 (51167) - http://www.bohemiancoding.com/sketch -->
    <title>pcqinlogo@2x</title>
    <desc>Created with Sketch.</desc>
    <defs>
        <polygon id="path-1" points="0.0109209138 0.0812694137 31.9115424 0.0812694137 31.9115424 33.8353665 0.0109209138 33.8353665"></polygon>
        <polygon id="path-3" points="0.0577339504 0.083010101 74.9205227 0.083010101 74.9205227 34.8250389 0.0577339504 34.8250389"></polygon>
        <polygon id="path-5" points="0.0890518611 0.0181700405 134.956346 0.0181700405 134.956346 47.4216867 0.0890518611 47.4216867"></polygon>
    </defs>
    <g id="Page-1" stroke="none" stroke-width="1" fill="none" fill-rule="evenodd">
        <g id="招商加盟" transform="translate(-111.000000, -58.000000)">
            <g id="Group-3" transform="translate(111.000000, 58.000000)">
                <g id="pcqinlogo">
                    <path d="M214.880289,25.9940332 C215.229137,25.5172229 215.604819,25.213993 216.008453,25.0822005 C216.41656,24.950408 216.857091,25.0254119 217.333402,25.3061406 C217.809713,25.5879409 218.075821,25.9104575 218.136198,26.270476 C218.190985,26.6315661 218.084766,26.9894416 217.828721,27.3408883 L212.922495,33.9187272 L218.795878,41.8444926 C218.979246,42.0930768 219.039624,42.379163 218.974774,42.7038226 C218.909924,43.0306251 218.639344,43.3434984 218.164151,43.6424424 C217.645352,43.9606731 217.219356,44.0656785 216.879453,43.9606731 C216.539551,43.8524532 216.233191,43.6156553 215.953666,43.2470649 L210.937866,36.5877932 L205.948901,43.2727805 C205.375316,44.0656785 204.64296,44.1803272 203.742889,43.6156553 C203.37168,43.3874292 203.137996,43.0841993 203.037367,42.7038226 C202.93562,42.3266603 203.04184,41.9237824 203.35379,41.5026893 L208.95212,33.9465858 L204.073847,27.4201781 C203.871471,27.1212342 203.825628,26.7719304 203.93632,26.3765529 C204.047012,25.9811754 204.26616,25.6661592 204.597118,25.4379332 C205.073429,25.1218454 205.481535,24.9771951 205.824792,25.0029107 C206.164695,25.0296978 206.490062,25.2450661 206.800894,25.6490155 L210.964701,31.2775197 L214.880289,25.9940332 Z" id="Fill-1" fill="#6DC7E2"></path>
                    <path d="M223,42.3032068 C223,42.869521 222.880112,43.2918387 222.64221,43.5744585 C222.404308,43.8560036 222.016547,44 221.478926,44 C220.937559,44 220.55729,43.8560036 220.333437,43.5744585 C220.111458,43.2918387 220,42.8759686 220,42.3289972 L220,26.694644 C220,25.5641649 220.491727,25 221.478926,25 C221.969716,25 222.347175,25.123579 222.607555,25.3707369 C222.868873,25.6178949 223,26.0509587 223,26.6688536 L223,42.3032068 Z" id="Fill-3" fill="#6DC7E2"></path>
                    <path d="M230.503793,42.6201357 C230.503793,42.9747738 230.3692,43.2917986 230.100015,43.5744344 C229.830829,43.8559955 229.382186,44 228.752991,44 C228.120514,44 227.67187,43.8473982 227.403779,43.5475679 C227.134593,43.2477376 227,42.9371606 227,42.6201357 L227,26.244457 C227,25.9274321 227.089729,25.6383484 227.269186,25.3825792 C227.448643,25.12681 227.861176,25 228.506784,25 C228.87117,25 229.162241,25.1053167 229.386563,25.3170249 C229.610884,25.528733 229.803472,25.7393665 229.965422,25.953224 L238.49183,37.2156674 L238.49183,26.3766403 C238.49183,26.0596154 238.626423,25.7511878 238.899985,25.4492081 C239.169171,25.1493778 239.617814,25 240.244821,25 C240.874015,25 241.327035,25.1407805 241.596221,25.4223416 C241.865407,25.7049774 242,26.0241516 242,26.3766403 L242,42.8049774 C242,43.106957 241.910271,43.3809955 241.730814,43.6270928 C241.551357,43.8742647 241.147578,44 240.514006,44 C240.155092,44 239.855267,43.8914593 239.612343,43.6797511 C239.371608,43.4691176 239.169171,43.2574095 239.007222,43.0457014 L230.503793,32.1540158 L230.503793,42.6201357 Z" id="Fill-5" fill="#6DC7E2"></path>
                    <path d="M256.541532,26.3765635 C256.541532,26.0595563 256.660194,25.7511459 256.903991,25.4491831 C257.143474,25.1493695 257.590076,25 258.243797,25 C258.867314,25 259.314995,25.1407727 259.588997,25.4223181 C259.862999,25.7049381 260,26.0240945 260,26.3765635 L260,42.6191529 C260,42.9737711 259.872708,43.2875545 259.615965,43.5605031 C259.359223,43.8334517 258.921251,43.9785227 258.297735,43.9989402 C257.678533,44.0139846 257.231931,43.8689135 256.95685,43.5605031 C256.678533,43.2520927 256.541532,42.9372347 256.541532,42.6191529 L256.541532,35.7298879 L248.455232,35.7298879 L248.455232,42.6191529 C248.455232,42.9737711 248.326861,43.2875545 248.06904,43.5605031 C247.813376,43.8334517 247.375405,43.9785227 246.756203,43.9989402 C246.132686,44.0139846 245.686084,43.8689135 245.412082,43.5605031 C245.137001,43.2520927 245,42.9372347 245,42.6191529 L245,26.3765635 C245,26.0595563 245.137001,25.7511459 245.412082,25.4491831 C245.686084,25.1493695 246.132686,25 246.756203,25 C247.375405,25 247.813376,25.1407727 248.06904,25.4223181 C248.326861,25.7049381 248.455232,26.0240945 248.455232,26.3765635 L248.455232,32.7618408 L256.541532,32.7618408 L256.541532,26.3765635 Z" id="Fill-7" fill="#6DC7E2"></path>
                    <path d="M271.502181,41.9065698 C272.450019,41.9065698 273.242974,41.7304941 273.882138,41.3761417 C274.516938,41.0239903 275.030669,40.5408826 275.429873,39.9257181 C275.822533,39.3094531 276.100667,38.5875426 276.261003,37.7555849 C276.42243,36.9225267 276.503144,36.0267415 276.503144,35.0671289 C276.503144,34.1086167 276.413705,33.2040277 276.234826,32.3555629 C276.055948,31.5048971 275.769088,30.7620777 275.370974,30.1282051 C274.978314,29.4965335 274.463493,28.9980191 273.828692,28.6370639 C273.188438,28.2761087 272.415116,28.0934302 271.502181,28.0934302 C270.584884,28.0934302 269.811562,28.2805106 269.171308,28.6502696 C268.536507,29.0211291 268.022777,29.5196434 267.629026,30.1425113 C267.230912,30.7664796 266.944052,31.4960933 266.765174,32.3258501 C266.586295,33.1589083 266.496856,34.0447893 266.496856,34.9856938 C266.496856,35.8363596 266.57757,36.6793221 266.738997,37.5112799 C266.899333,38.3410366 267.177467,39.0838561 267.57449,39.7353362 C267.969331,40.3857159 268.483062,40.911742 269.117862,41.3090129 C269.757026,41.7073842 270.549981,41.9065698 271.502181,41.9065698 M271.502181,25 C272.951752,25 274.212627,25.2597117 275.277172,25.7736327 C276.34608,26.2908551 277.227384,26.9940574 277.929809,27.8898426 C278.62678,28.7856278 279.145964,29.8398811 279.48627,31.0515021 C279.830938,32.2631231 280,33.5759877 280,34.9856938 C280,36.3965005 279.830938,37.7137669 279.48627,38.9352922 C279.145964,40.155717 278.62678,41.2143722 277.929809,42.1101574 C277.227384,43.0059426 276.34608,43.7113459 275.277172,44.2263673 C274.212627,44.7424893 272.951752,45 271.502181,45 C270.102785,45 268.87245,44.7490921 267.81663,44.2527787 C266.756448,43.7564653 265.870781,43.0642676 265.150905,42.1772862 C264.435391,41.2903048 263.898755,40.2327501 263.540998,39.002421 C263.178878,37.7731925 263,36.4350171 263,34.9856938 C263,33.5935952 263.164699,32.2851326 263.486462,31.0647078 C263.809316,29.844283 264.314321,28.7856278 265.003657,27.8898426 C265.697357,26.9940574 266.573207,26.2908551 267.642115,25.7736327 C268.70666,25.2597117 269.994803,25 271.502181,25" id="Fill-9" fill="#6DC7E2"></path>
                    <path d="M286.503793,42.6201357 C286.503793,42.9747738 286.3692,43.2917986 286.100015,43.5744344 C285.830829,43.8559955 285.382186,44 284.752991,44 C284.120514,44 283.67187,43.8473982 283.403779,43.5475679 C283.134593,43.2477376 283,42.9371606 283,42.6201357 L283,26.244457 C283,25.9274321 283.089729,25.6383484 283.269186,25.3825792 C283.448643,25.12681 283.861176,25 284.507879,25 C284.87117,25 285.162241,25.1053167 285.386563,25.3170249 C285.611978,25.528733 285.803472,25.7393665 285.965422,25.953224 L294.49183,37.2156674 L294.49183,26.3766403 C294.49183,26.0596154 294.626423,25.7511878 294.899985,25.4492081 C295.169171,25.1493778 295.617814,25 296.244821,25 C296.874015,25 297.327035,25.1407805 297.596221,25.4223416 C297.865407,25.7049774 298,26.0241516 298,26.3766403 L298,42.8049774 C298,43.106957 297.910271,43.3809955 297.730814,43.6270928 C297.551357,43.8742647 297.148672,44 296.514006,44 C296.155092,44 295.855267,43.8914593 295.612343,43.6797511 C295.371608,43.4691176 295.169171,43.2574095 295.007222,43.0457014 L286.503793,32.1540158 L286.503793,42.6201357 Z" id="Fill-11" fill="#6DC7E2"></path>
                    <path d="M313.319903,37.0759285 L310.293893,37.0759285 C309.613413,37.0759285 309.123422,36.962586 308.821624,36.7370014 C308.519827,36.5114168 308.370649,36.1075653 308.370649,35.5298487 C308.370649,34.9499312 308.530154,34.5350757 308.849165,34.2797799 C309.17047,34.0277854 309.660462,33.901238 310.323728,33.901238 L315.048068,33.901238 C315.819202,33.901238 316.336733,34.0905089 316.604106,34.4723521 C316.869183,34.8508941 317,35.5122421 317,36.4508941 C317,37.592022 316.854265,38.6781293 316.562795,39.709216 C316.265587,40.7403026 315.785924,41.6492435 315.118067,42.4349381 C314.449063,43.2217331 313.583833,43.8467675 312.530409,44.30674 C311.471248,44.7700138 310.182583,45 308.652939,45 C307.161163,45 305.824302,44.7623109 304.634324,44.2935351 C303.443198,43.8236589 302.432233,43.1579092 301.593395,42.2995873 C300.752263,41.4390646 300.110799,40.4035763 299.669004,39.192022 C299.222619,37.9804677 299,36.6247593 299,35.1215956 C299,33.69326 299.218029,32.3650619 299.641464,31.1325997 C300.063751,29.9034388 300.681117,28.8360385 301.494709,27.9303989 C302.30371,27.0269601 303.297463,26.3138927 304.478261,25.7878955 C305.654469,25.264099 307.00051,25 308.511794,25 C309.377024,25 310.190616,25.0682256 310.944537,25.2057772 C311.69731,25.3411279 312.501721,25.6437414 313.348591,26.1125172 C313.856942,26.4217331 314.327426,26.7507565 314.765778,27.1028886 C315.198393,27.4572215 315.546092,27.8093535 315.810022,28.1614856 C316.072804,28.5158184 316.218539,28.8580468 316.247227,29.1925722 C316.275915,29.5281981 316.119852,29.813205 315.782481,30.0475928 C315.611501,30.1939477 315.409537,30.3204952 315.174296,30.4283356 C314.939054,30.5372765 314.688895,30.6 314.426112,30.618707 C314.157593,30.6363136 313.894811,30.6099037 313.630881,30.5372765 C313.366951,30.4646492 313.12253,30.3204952 312.897616,30.1015131 C312.144843,29.3257221 311.42879,28.7953232 310.760933,28.5158184 C310.091929,28.2352132 309.301288,28.09326 308.398189,28.09326 C307.604106,28.09326 306.859365,28.2583219 306.163968,28.5829436 C305.461686,28.9086657 304.859238,29.3708391 304.352034,29.9661623 C303.842535,30.5647868 303.434018,31.2888583 303.13222,32.1372765 C302.83157,32.9878955 302.681244,33.9375516 302.681244,34.9862448 C302.681244,36.0536451 302.825832,37.0121045 303.11845,37.8627235 C303.40992,38.7133425 303.825322,39.4363136 304.352034,40.0338377 C304.878745,40.6313618 305.508734,41.0913343 306.247737,41.4170564 C306.98215,41.743879 307.791151,41.90674 308.680479,41.90674 C309.320796,41.90674 309.917506,41.7845942 310.477496,41.5381018 C311.034043,41.2949106 311.522887,40.9603851 311.946322,40.5345254 C312.374347,40.1097662 312.709422,39.6046768 312.953844,39.015956 C313.198266,38.429436 313.319903,37.7823934 313.319903,37.0759285" id="Fill-13" fill="#6DC7E2"></path>
                    <path d="M326.227058,29.116898 L326.227058,43.6006654 C326.227058,43.9603074 326.089367,44.2828955 325.825817,44.5684295 C325.561192,44.8539635 325.120149,45 324.501614,45 C323.879851,45 323.438808,44.8452449 323.174183,44.5411839 C322.909557,44.2382127 322.777245,43.9221636 322.777245,43.6006654 L322.777245,29.116898 L319.381216,29.116898 C319.062805,29.116898 318.754075,29.0002868 318.453951,28.7681542 C318.149524,28.5360216 318,28.1316967 318,27.5573592 C318,27.0026385 318.140918,26.6048526 318.428134,26.3618217 C318.709971,26.1198807 319.028382,26 319.381216,26 L329.618784,26 C329.971618,26 330.293256,26.1198807 330.576169,26.3618217 C330.859082,26.6048526 331,27.0026385 331,27.5573592 C331,28.1316967 330.8494,28.5360216 330.550352,28.7681542 C330.244849,29.0002868 329.936119,29.116898 329.618784,29.116898 L326.227058,29.116898 Z" id="Fill-15" fill="#6DC7E2"></path>
                    <path d="M334,26.4390833 C334,26.1076785 334.135562,25.7852609 334.406686,25.4695838 C334.67781,25.1561535 335.128582,25 335.767818,25 C336.399339,25 336.851212,25.1471662 337.122337,25.4414986 C337.393461,25.7369544 337.529023,26.0706061 337.529023,26.4390833 L337.529023,36.6901646 C337.529023,37.463068 337.592946,38.1651969 337.7241,38.7954277 C337.849743,39.421165 338.063556,39.9581531 338.361132,40.3996517 C338.659809,40.8445206 339.066495,41.1849127 339.58119,41.4253216 C340.101396,41.6668539 340.756062,41.7870584 341.5518,41.7870584 C342.334313,41.7870584 342.975753,41.6713475 343.481631,41.4388024 C343.991918,41.2085042 344.395298,40.8770994 344.692873,40.4412178 C344.99155,40.0087064 345.194342,39.4762119 345.303453,38.8493512 C345.411462,38.2213672 345.465467,37.5023872 345.465467,36.6901646 L345.465467,26.4390833 C345.465467,26.1076785 345.592212,25.7852609 345.845702,25.4695838 C346.102498,25.1561535 346.563189,25 347.233284,25 C347.865907,25 348.32219,25.1471662 348.593314,25.4414986 C348.864438,25.7369544 349,26.0706061 349,26.4390833 L349,38.4056058 C349,39.5132843 348.787289,40.4782902 348.362968,41.3006235 C347.93424,42.1229568 347.373255,42.8116048 346.676708,43.3643206 C345.975753,43.9204067 345.181117,44.3293265 344.286187,44.5966972 C343.386848,44.8640679 342.469875,45 341.524247,45 C340.602866,45 339.689199,44.8640679 338.795371,44.5966972 C337.900441,44.3293265 337.095885,43.9237769 336.390522,43.3789249 C335.685158,42.8351963 335.106539,42.151042 334.664585,41.3287086 C334.220426,40.5086221 334,39.5335056 334,38.4056058 L334,26.4390833 Z" id="Fill-17" fill="#6DC7E2"></path>
                    <path d="M211.226663,61.116898 L211.226663,75.6017552 C211.226663,75.9613973 211.090036,76.2828955 210.825389,76.5684295 C210.560741,76.8539635 210.119662,77 209.501076,77 C208.879262,77 208.438183,76.8452449 208.174611,76.5411839 C207.909964,76.2382127 207.77764,75.9221636 207.77764,75.6017552 L207.77764,61.116898 L204.380255,61.116898 C204.062893,61.116898 203.754138,61.0002868 203.452913,60.7681542 C203.149537,60.5360216 203,60.1316967 203,59.5573592 C203,59.0026385 203.139854,58.6048526 203.427094,58.3618217 C203.71003,58.1198807 204.027392,58 204.380255,58 L214.618669,58 C214.971533,58 215.294273,58.1198807 215.57721,58.3618217 C215.85907,58.6048526 216,59.0026385 216,59.5573592 C216,60.1316967 215.850463,60.5360216 215.550314,60.7681542 C215.245862,61.0002868 214.937107,61.116898 214.618669,61.116898 L211.226663,61.116898 Z" id="Fill-19" fill="#6DC7E2"></path>
                    <path d="M226.501636,74.9065698 C227.449413,74.9065698 228.242317,74.7304941 228.88144,74.3761417 C229.516199,74.0239903 230.029897,73.5419831 230.429076,72.9257181 C230.822801,72.3094531 231.099827,71.5875426 231.260153,70.7555849 C231.421569,69.9225267 231.502278,69.0267415 231.502278,68.0671289 C231.502278,67.1086167 231.412844,66.2040277 231.233977,65.3555629 C231.05511,64.5048971 230.768268,63.7631782 230.37018,63.1282051 C229.977545,62.4965335 229.462757,61.9980191 228.827998,61.6370639 C228.187785,61.2761087 227.414512,61.0934302 226.501636,61.0934302 C225.584397,61.0934302 224.811125,61.2805106 224.170912,61.6502696 C223.536152,62.0211291 223.022455,62.5196434 222.628729,63.1425113 C222.230641,63.7664796 221.943799,64.4960933 221.764932,65.3258501 C221.586065,66.1589083 221.496632,67.0447893 221.496632,67.9856938 C221.496632,68.8363596 221.57734,69.6793221 221.738757,70.5112799 C221.899083,71.3410366 222.177199,72.0838561 222.574196,72.7364367 C222.969013,73.3857159 223.48271,73.911742 224.11747,74.3090129 C224.757683,74.7084846 225.549496,74.9065698 226.501636,74.9065698 M226.501636,58 C227.951113,58 229.211907,58.2597117 230.276384,58.7736327 C231.345224,59.2908551 232.226471,59.9940574 232.928851,60.8898426 C233.625778,61.7856278 234.146019,62.8398811 234.485212,64.0515021 C234.829858,65.2631231 235,66.5759877 235,67.9856938 C235,69.3965005 234.829858,70.7137669 234.485212,71.9352922 C234.146019,73.155717 233.625778,74.2143722 232.928851,75.1101574 C232.226471,76.0059426 231.345224,76.7113459 230.276384,77.2263673 C229.211907,77.7424893 227.951113,78 226.501636,78 C225.102329,78 223.872073,77.7490921 222.816321,77.2527787 C221.756207,76.7564653 220.871688,76.0642676 220.150767,75.1772862 C219.435299,74.2903048 218.898698,73.2327501 218.540964,72.002421 C218.178867,70.7731925 218,69.4350171 218,67.9856938 C218,66.5935952 218.164689,65.2851326 218.486431,64.0647078 C218.809264,62.844283 219.314236,61.7856278 220.003529,60.8898426 C220.697184,59.9940574 221.572977,59.2908551 222.641817,58.7736327 C223.706294,58.2597117 224.994354,58 226.501636,58" id="Fill-21" fill="#6DC7E2"></path>
                    <path d="M238,59.4402067 C238,59.1088019 238.135562,58.7852609 238.406686,58.4707072 C238.67781,58.1572769 239.129684,58 239.767818,58 C240.399339,58 240.851212,58.1482896 241.122337,58.442622 C241.393461,58.7380779 241.529023,59.0717295 241.529023,59.4402067 L241.529023,69.6901646 C241.529023,70.4641914 241.592946,71.1663203 241.7241,71.7954277 C241.849743,72.4222884 242.063556,72.9581531 242.361132,73.4007752 C242.659809,73.845644 243.066495,74.1860361 243.58119,74.4253216 C244.101396,74.6679773 244.756062,74.7870584 245.552902,74.7870584 C246.334313,74.7870584 246.975753,74.6724709 247.482733,74.4399259 C247.991918,74.2085042 248.395298,73.8782228 248.692873,73.4423412 C248.99155,73.0098298 249.194342,72.4773353 249.303453,71.8504746 C249.411462,71.2213672 249.465467,70.5035106 249.465467,69.6901646 L249.465467,59.4402067 C249.465467,59.1088019 249.593314,58.7852609 249.845702,58.4707072 C250.102498,58.1572769 250.563189,58 251.233284,58 C251.865907,58 252.32219,58.1482896 252.593314,58.442622 C252.864438,58.7380779 253,59.0717295 253,59.4402067 L253,71.4056058 C253,72.5144077 252.787289,73.4794136 252.362968,74.3017469 C251.93424,75.1229568 251.373255,75.8127282 250.676708,76.365444 C249.975753,76.9204067 249.181117,77.3304499 248.286187,77.5978206 C247.386848,77.8640679 246.469875,78 245.524247,78 C244.602866,78 243.689199,77.8640679 242.795371,77.5978206 C241.900441,77.3304499 241.095885,76.9249003 240.390522,76.3789249 C239.685158,75.8351963 239.107641,75.151042 238.664585,74.3287086 C238.221528,73.5086221 238,72.534629 238,71.4056058 L238,59.4402067 Z" id="Fill-23" fill="#6DC7E2"></path>
                    <path d="M259.587289,65.8184825 L262.490272,65.8184825 C263.499372,65.8184825 264.272157,65.6594108 264.795187,65.3467151 C265.318217,65.0340194 265.581411,64.3748524 265.581411,63.3724829 C265.581411,62.9072527 265.497413,62.5215583 265.332776,62.2175788 C265.16702,61.9135994 264.941904,61.6771709 264.65743,61.5050248 C264.371835,61.3350578 264.038082,61.2184779 263.660649,61.1563746 C263.284337,61.0942712 262.893464,61.0626748 262.490272,61.0626748 L259.587289,61.0626748 L259.587289,65.8184825 Z M256,59.7737583 C256,59.3956906 256.032479,59.0917112 256.096318,58.8596408 C256.160157,58.6275705 256.275515,58.4467082 256.440151,58.321412 C256.605908,58.1961158 256.841103,58.1111323 257.143497,58.0664615 C257.447012,58.0217906 257.841244,58 258.319474,58 L262.490272,58 C263.574411,58 264.537592,58.0849835 265.374215,58.2549505 C266.214199,58.423828 266.911945,58.7169121 267.473054,59.1276657 C268.033043,59.5405984 268.459755,60.0908121 268.745349,60.780486 C269.029824,61.4690703 269.172061,62.324353 269.172061,63.3452446 C269.172061,64.9043651 268.809188,66.0952237 268.078962,66.9199995 C267.353217,67.7447753 266.375476,68.2895414 265.13902,68.5575663 C264.955344,68.5924313 264.772787,68.6283858 264.589111,68.6643404 C264.405435,68.702474 264.211678,68.7286228 264.008962,68.7449658 L269.419576,73.9322282 C269.786929,74.2895947 269.979565,74.7003484 269.998604,75.1677576 C270.017644,75.6318983 269.841808,76.0459205 269.474455,76.4021975 C269.108222,76.7595641 268.665831,76.9567694 268.151761,76.994903 C267.634331,77.0286785 267.219939,76.894666 266.907465,76.5906866 L259.587289,69.0957951 L259.587289,75.5970333 C259.587289,75.9565789 259.439452,76.2779909 259.146018,76.5634483 C258.852584,76.8499952 258.384433,76.994903 257.741566,76.994903 C257.093098,76.994903 256.642867,76.8401894 256.386392,76.53621 C256.128797,76.23332 256,75.9184453 256,75.5970333 L256,59.7737583 Z" id="Fill-25" fill="#6DC7E2"></path>
                    <path d="M220.885167,114.021984 C220.476924,115.08277 220.025019,115.68381 219.531635,115.825103 C219.036068,115.967484 218.488105,115.837059 217.886657,115.43709 C217.585387,115.224064 217.369258,115.018645 217.240454,114.816487 C217.112742,114.617589 217.041791,114.393694 217.031967,114.145887 C217.021051,113.899168 217.063622,113.620928 217.159679,113.313344 C217.256828,113.006846 217.380174,112.6547 217.5319,112.253644 C217.918312,111.286329 218.251237,110.3201 218.530676,109.353872 C218.811207,108.38547 219.041525,107.389895 219.224907,106.362802 C219.407197,105.337883 219.545825,104.259706 219.644065,103.128273 C219.740123,101.99684 219.809982,100.780631 219.854736,99.4839939 C219.897307,98.588412 220.045759,97.9395498 220.30555,97.5384943 C220.562066,97.1385257 221.079464,96.9613657 221.853379,97.0070143 C222.605463,97.0559235 223.090115,97.262429 223.30406,97.6276178 C223.519097,97.9928065 223.604239,98.7057941 223.561668,99.7676673 C223.540928,99.9567829 223.523463,100.132856 223.514731,100.29806 C223.501632,100.462178 223.487442,100.628469 223.465611,100.792587 L230.30204,100.792587 C231.206941,100.792587 231.915363,101.099085 232.43167,101.713167 C232.947977,102.326162 233.205584,103.374993 233.205584,104.860746 C233.205584,105.615035 233.178295,106.346499 233.124809,107.052965 C233.071323,107.761605 232.975265,108.480027 232.834454,109.211492 C232.694735,109.942956 232.516811,110.690724 232.303957,111.456968 C232.087829,112.224299 231.819305,113.0438 231.496204,113.915471 C231.130532,114.929521 230.711374,115.513171 230.237638,115.667507 C229.766084,115.819669 229.227946,115.719677 228.626498,115.365357 C228.110191,115.012124 227.819836,114.587157 227.755434,114.091544 C227.691032,113.597017 227.851491,112.86664 228.237903,111.900411 C228.689808,110.766805 229.029283,109.695149 229.254144,108.680012 C229.481188,107.667048 229.59471,106.618217 229.59471,105.532433 C229.59471,105.296581 229.561963,105.143333 229.49647,105.072686 C229.432068,105.000952 229.249777,104.966173 228.948507,104.966173 L227.174725,104.966173 L227.174725,105.993266 C227.174725,106.983406 227.158352,107.902899 227.126697,108.751745 C227.09395,109.600592 227.055745,110.413571 227.013175,111.191771 C227.291522,113.195962 227.621173,114.977344 227.99776,116.532657 C228.373256,118.089056 228.796781,119.481338 229.271609,120.707329 C229.744253,121.93332 230.276934,123.018017 230.867467,123.961422 C231.459091,124.903739 232.108568,125.764541 232.819173,126.542741 C233.163013,126.943796 233.426079,127.280727 233.608369,127.551357 C233.791751,127.821988 233.909639,128.068708 233.963126,128.292604 C234.016612,128.516499 234.012246,128.740395 233.947844,128.966464 C233.883442,129.190359 233.775378,129.455556 233.624743,129.760967 C232.89449,131.199984 231.819305,131.17716 230.40028,129.691407 C229.238862,128.418681 228.232445,127.038354 227.383213,125.552601 C226.535072,124.067935 225.820102,122.369155 225.238301,120.459522 C224.616113,122.205038 223.803994,123.813607 222.805218,125.287405 C221.804259,126.761202 220.519495,128.264345 218.949834,129.796834 C218.562331,130.173978 218.214124,130.439174 217.901939,130.59351 C217.589753,130.745672 217.305948,130.817406 217.046157,130.804363 C216.789641,130.792408 216.558231,130.704371 216.354109,130.540253 C216.148896,130.375049 215.970972,130.173978 215.821429,129.938127 C215.455757,129.23166 215.337868,128.652358 215.466672,128.204567 C215.596568,127.756776 215.951324,127.26225 216.530942,126.719901 C217.67162,125.660201 218.692227,124.497249 219.594945,123.236479 C220.498756,121.974621 221.268304,120.535603 221.901408,118.920513 C222.535603,117.305422 223.019163,115.48926 223.35318,113.474201 C223.686105,111.456968 223.853114,109.164756 223.853114,106.593219 C223.853114,106.406277 223.85748,106.169339 223.867304,105.886753 C223.87822,105.603079 223.884769,105.296581 223.884769,104.966173 L223.046452,104.966173 C222.830324,106.664952 222.550885,108.227873 222.208136,109.652761 C221.863203,111.08091 221.422214,112.537318 220.885167,114.021984 M206.790968,128.064361 C206.489698,129.125147 206.13385,129.78053 205.725607,130.02725 C205.317364,130.275057 204.769402,130.233756 204.080629,129.903347 C203.437701,129.572938 203.081853,129.159927 203.017451,128.665401 C202.951958,128.169787 203.070938,127.450278 203.372208,126.507961 C203.672386,125.56347 203.936543,124.550506 204.163587,123.465808 C204.387357,122.381111 204.57183,121.161641 204.710458,119.804139 C204.851269,118.448811 204.951692,116.928278 205.018277,115.24254 C205.081588,113.555716 205.114335,111.639562 205.114335,109.492991 L205.114335,103.05654 C205.114335,101.925107 205.392682,101.046915 205.952651,100.420877 C206.510437,99.7970128 207.241781,99.449214 208.146683,99.3774805 C209.649759,99.2600984 210.913783,99.0894596 211.935482,98.8655642 C212.956089,98.6416687 213.821694,98.4221207 214.532299,98.2112677 C215.369524,97.9515054 215.998261,97.9167255 216.41742,98.1036674 C216.836578,98.292783 217.144397,98.7307921 217.337603,99.4133473 C217.5319,100.167636 217.493696,100.745851 217.224081,101.14582 C216.954466,101.547962 216.498195,101.85446 215.854175,102.0664 C214.950365,102.396809 214.069478,102.662005 213.210422,102.863077 C212.349182,103.063061 211.31766,103.209789 210.113671,103.304346 C209.553702,103.352169 209.194579,103.469551 209.031937,103.65758 C208.871478,103.846695 208.790703,104.177104 208.790703,104.647719 L208.790703,107.267079 L215.72428,107.267079 C216.477455,107.267079 217.021051,107.436631 217.355068,107.777909 C217.68581,108.12136 217.855002,108.634363 217.855002,109.316918 C217.855002,110.072294 217.68581,110.608121 217.355068,110.926575 C217.021051,111.245028 216.477455,111.403711 215.72428,111.403711 L214.595609,111.403711 L214.595609,128.947987 C214.595609,129.749011 214.423143,130.29136 214.080393,130.575033 C213.735461,130.858707 213.295563,131 212.757425,131 C212.198547,131 211.747734,130.858707 211.402801,130.575033 C211.05896,130.29136 210.887586,129.749011 210.887586,128.947987 L210.887586,111.403711 L208.759047,111.403711 C208.737216,113.267695 208.682638,114.977344 208.597497,116.532657 C208.510172,118.089056 208.387918,119.534595 208.225275,120.866012 C208.065908,122.198516 207.866153,123.453853 207.628193,124.633108 C207.392416,125.812363 207.114069,126.955752 206.790968,128.064361" id="Fill-27" fill="#6DC7E2"></path>
                    <path d="M263.930378,121.081094 C263.430656,120.266624 263.228335,119.619026 263.325626,119.139405 C263.424022,118.66089 263.658405,118.253102 264.02988,117.917147 C264.530707,117.581192 265.019373,117.443052 265.499194,117.503834 C265.97791,117.56351 266.434514,117.940354 266.871218,118.635473 C267.677185,120.003606 268.449985,121.465675 269.190723,123.023889 C269.930356,124.583207 270.584859,126.08064 271.150915,127.519501 C271.454949,128.382597 271.57988,129.023564 271.525707,129.443508 C271.471533,129.863452 271.216144,130.253558 270.75954,130.612721 C269.407417,131.379672 268.461041,131.007247 267.914885,129.497659 C267.871767,129.376096 267.823122,129.276636 267.768949,129.192647 C267.714775,129.107553 267.66613,129.004777 267.623012,128.885424 L253.640752,129.892185 C252.662315,129.94081 251.882881,129.737469 251.305769,129.282161 C250.728657,128.825748 250.440101,128.190306 250.440101,127.375836 C250.440101,126.535948 250.766247,125.697164 251.420749,124.857276 C252.769556,123.036045 253.934836,121.42368 254.91438,120.020183 C255.895028,118.618896 256.787231,117.246342 257.594303,115.901415 C258.00779,115.160987 258.474344,114.692418 258.998389,114.500128 C259.521328,114.308943 260.065273,114.417244 260.632435,114.823927 C261.219498,115.231715 261.509159,115.741173 261.498103,116.353408 C261.485942,116.963432 261.262615,117.581192 260.827017,118.204477 C260.109496,119.331696 259.39087,120.398133 258.671138,121.404893 C257.952511,122.411654 257.1576,123.526716 256.287509,124.75008 C256.025487,125.08493 255.921562,125.343527 255.977947,125.523661 C256.031015,125.70269 256.276453,125.744684 256.712051,125.648539 L265.923737,125.110348 C265.553368,124.390917 265.204005,123.677012 264.877859,122.968633 C264.551713,122.262464 264.235518,121.633653 263.930378,121.081094 Z M267.295761,99.4661284 C269.016042,99.4661284 270.229968,99.7788763 270.937538,100.402162 C271.646215,101.026552 272,102.020052 272,103.385975 C272,103.747348 271.939193,104.221443 271.820896,104.80826 C271.699282,105.395076 271.487011,106.071407 271.184083,106.840568 C270.856831,107.679351 270.496412,108.183284 270.105037,108.350157 C269.712557,108.517029 269.200674,108.470615 268.569388,108.206492 C267.82865,107.869431 267.415163,107.487061 267.327822,107.056066 C267.241587,106.62286 267.415163,105.988524 267.850761,105.148635 C268.090672,104.67012 268.155901,104.286645 268.047554,103.99821 C267.936997,103.709774 267.687136,103.567214 267.295761,103.567214 L246.617008,103.567214 C246.42132,103.567214 246.267645,103.603683 246.160404,103.674411 C246.050951,103.747348 245.996778,103.891013 245.996778,104.106511 L245.996778,105.76087 C245.996778,106.455988 245.844208,106.977603 245.540174,107.324609 C245.235034,107.673826 244.734207,107.846224 244.037692,107.846224 C243.383189,107.846224 242.898945,107.702559 242.583855,107.414124 C242.267659,107.126793 242.109562,106.599653 242.109562,105.831597 L242.109562,102.846679 C242.109562,101.744878 242.349472,100.90499 242.828188,100.330329 C243.308009,99.7545637 244.101815,99.4661284 245.212922,99.4661284 L254.68663,99.4661284 C254.600395,99.1799033 254.556172,98.8726811 254.556172,98.548882 C254.556172,98.225083 254.600395,97.9145454 254.68663,97.6139538 C254.773971,97.3155725 254.91438,97.0392934 255.110067,96.787327 C255.305755,96.5364656 255.557827,96.349701 255.862966,96.2292433 C256.53737,95.9430182 257.08242,95.9242313 257.495907,96.1761977 C257.909394,96.4270591 258.236645,96.9133102 258.474344,97.6327408 C258.517462,97.7764059 258.567213,98.0460542 258.621386,98.4427909 C258.676665,98.8373173 258.726417,99.1799033 258.769534,99.4661284 L267.295761,99.4661284 Z M244.885671,128.41796 C244.494296,128.802541 244.144933,129.084345 243.839793,129.263374 C243.535759,129.443508 243.258258,129.533023 243.008397,129.533023 C242.757431,129.533023 242.518626,129.443508 242.289771,129.263374 C242.059811,129.084345 241.815478,128.825748 241.555666,128.490898 C241.096851,127.866507 240.92217,127.290742 241.031622,126.763602 C241.139969,126.236461 241.574461,125.648539 242.339522,125.000941 C243.253836,124.235096 244.139405,123.388577 245.000651,122.465805 C245.860792,121.543033 246.694398,120.567215 247.500366,119.536142 C248.305227,118.503964 249.062549,117.437527 249.77012,116.334621 C250.47769,115.231715 251.12556,114.116653 251.712622,112.988329 L244.037692,112.988329 C243.296954,112.988329 242.796126,112.815931 242.534104,112.468925 C242.272082,112.121918 242.142729,111.622406 242.142729,110.974808 C242.142729,110.352627 242.272082,109.873007 242.534104,109.537052 C242.796126,109.202201 243.296954,109.033119 244.037692,109.033119 L253.281439,109.033119 C253.630802,108.05067 253.923781,107.103586 254.164797,106.19297 C254.337267,105.401707 254.632457,104.824836 255.045943,104.465674 C255.45943,104.106511 256.046493,104.058991 256.809342,104.322009 C257.505857,104.514299 257.948089,104.849149 258.13272,105.328769 C258.317352,105.80839 258.236645,106.576445 257.887282,107.631831 C257.801047,107.894849 257.725867,108.14129 257.658427,108.368944 C257.594303,108.596598 257.516913,108.817621 257.430678,109.033119 L269.548931,109.033119 C270.354898,109.033119 270.861253,109.230934 271.069102,109.626566 C271.275846,110.023303 271.378665,110.532761 271.378665,111.154942 C271.378665,111.80254 271.275846,112.270004 271.069102,112.558439 C270.861253,112.845769 270.354898,112.988329 269.548931,112.988329 L255.862966,112.988329 C254.556172,115.962197 252.992883,118.738248 251.174205,121.315379 C249.355527,123.89251 247.260455,126.248617 244.885671,128.382597 L244.885671,128.41796 Z" id="Fill-29" fill="#6DC7E2"></path>
                    <path d="M309.17435,121.320035 C309.506899,122.046796 309.660815,122.602936 309.638346,122.989534 C309.617,123.375052 309.317031,123.733573 308.742934,124.060777 C308.100305,124.389062 307.574518,124.477612 307.165572,124.324269 C306.755503,124.173085 306.385879,123.778928 306.05333,123.147197 C305.676965,122.375081 305.296106,121.666678 304.908507,121.021988 C304.520907,120.377298 304.040059,119.597623 303.464839,118.684042 C303.019942,117.981038 302.810975,117.395742 302.833445,116.927073 C302.855914,116.459484 303.154759,116.061007 303.728856,115.732723 C304.350139,115.380681 304.85795,115.281332 305.256785,115.432516 C305.654496,115.585859 306.074676,116.001614 306.51845,116.68194 C306.959976,117.361186 307.386897,118.05771 307.795843,118.771513 C308.205912,119.487475 308.664291,120.336262 309.17435,121.320035 Z M298.817014,101.219101 C298.041814,102.038732 297.256504,102.788171 296.459959,103.467417 C295.663413,104.147743 294.844398,104.802152 294.002914,105.434963 L304.726504,105.434963 C303.951304,104.873424 303.125549,104.253571 302.252607,103.572165 C301.378542,102.893999 300.541551,102.130522 299.745006,101.288214 C299.524804,101.053879 299.354036,100.937252 299.231577,100.937252 C299.109118,100.937252 298.97093,101.031202 298.817014,101.219101 Z M294.601727,118.157059 C294.157954,119.047962 293.699575,119.856794 293.224344,120.581396 C292.746867,121.308157 292.166029,122.093231 291.480708,122.93662 C290.970649,123.546753 290.513394,123.897715 290.103325,123.991665 C289.693256,124.085615 289.233753,123.897715 288.725942,123.427966 C288.283292,123.030569 288.060843,122.609415 288.060843,122.163424 C288.060843,121.718512 288.316996,121.191529 288.824808,120.581396 C289.157357,120.207756 289.434856,119.879472 289.655057,119.597623 C289.876382,119.316853 290.06962,119.036084 290.235895,118.755314 C290.40217,118.473465 290.567321,118.168938 290.734719,117.840654 C290.89987,117.512369 291.104343,117.13873 291.349261,116.716496 C291.679563,116.083685 292.055928,115.661451 292.476109,115.450874 C292.896289,115.240296 293.361409,115.287811 293.871467,115.591258 C294.511849,115.9433 294.873609,116.318019 294.950005,116.716496 C295.026402,117.113893 294.910684,117.59552 294.601727,118.157059 Z M301.305516,121.389148 C301.305516,122.726042 301.024646,123.697937 300.460661,124.30807 C299.895552,124.916044 298.839483,125.221651 297.289085,125.221651 C296.781273,125.221651 296.34424,125.197894 295.97911,125.150379 C295.615104,125.103944 295.209528,125.021873 294.766878,124.905246 C294.014149,124.716266 293.550153,124.411739 293.373767,123.991665 C293.195134,123.569431 293.173788,123.054327 293.306358,122.445273 C293.373767,122.163424 293.444546,121.92369 293.520942,121.724991 C293.600709,121.526293 293.704069,121.379429 293.838886,121.285479 C293.970333,121.191529 294.15346,121.138615 294.38602,121.126736 C294.617456,121.115938 294.93203,121.144015 295.330864,121.214207 C295.840923,121.308157 296.244251,121.37295 296.543096,121.408586 C296.841941,121.443142 297.073377,121.443142 297.240775,121.408586 C297.405926,121.37295 297.511533,121.301677 297.555349,121.198009 C297.599164,121.09218 297.621634,120.946396 297.621634,120.757417 L297.621634,114.712234 L290.351613,114.712234 C289.975248,114.712234 289.67191,114.666879 289.43935,114.572929 C289.207913,114.480059 289.036021,114.356953 288.925921,114.203609 C288.813573,114.051346 288.742794,113.869926 288.707966,113.659348 C288.675385,113.446612 288.659657,113.226316 288.659657,112.991981 C288.659657,112.710132 288.675385,112.463918 288.707966,112.253341 C288.742794,112.042764 288.813573,111.861344 288.925921,111.708001 C289.036021,111.556817 289.207913,111.43911 289.43935,111.357039 C289.67191,111.274968 289.975248,111.235012 290.351613,111.235012 L297.621634,111.235012 L297.621634,108.914344 L293.206369,108.914344 C292.653618,108.914344 292.254784,108.762081 292.012112,108.457554 C291.768318,108.153027 291.613278,107.859299 291.548116,107.57961 C291.193098,107.790187 290.827968,107.965128 290.451603,108.106592 C290.075238,108.246977 289.722466,108.329048 289.389917,108.351726 C289.058491,108.375483 288.751782,108.329048 288.47653,108.212421 C288.200154,108.093634 287.994558,107.884136 287.861988,107.57961 C287.574378,107.040748 287.496858,106.572079 287.629428,106.173602 C287.763122,105.775126 288.149598,105.400407 288.791103,105.049445 C289.587649,104.627211 290.323526,104.17582 290.998736,103.696352 C291.675069,103.214724 292.32781,102.694221 292.956957,102.130522 C293.589474,101.570063 294.218622,100.95345 294.850016,100.286083 C295.48141,99.6187152 296.137521,98.875756 296.825089,98.0561252 C297.446372,97.3520417 298.197978,97 299.083278,97 C299.503458,97 299.906787,97.0766717 300.294386,97.2289351 C300.680862,97.3822784 301.052733,97.6328112 301.406629,97.9848529 C302.867149,99.4599725 304.222062,100.725595 305.472492,101.78064 C306.721799,102.834606 308.012674,103.748186 309.338377,104.521382 C310.158516,105.012729 310.606783,105.528913 310.684303,106.067774 C310.760699,106.606635 310.602289,107.134698 310.203455,107.648722 C309.938314,108.000764 309.670927,108.235098 309.406909,108.351726 C309.141769,108.469433 308.881122,108.510468 308.626093,108.474832 C308.371063,108.439196 308.118281,108.335527 307.862128,108.159506 C307.607099,107.983486 307.336341,107.767509 307.049854,107.508337 C306.93863,107.790187 306.765615,108.093634 306.534178,108.422998 C306.301619,108.751282 305.954464,108.914344 305.490468,108.914344 L301.305516,108.914344 L301.305516,111.235012 L307.980093,111.235012 C308.686761,111.235012 309.156374,111.391595 309.388934,111.708001 C309.622617,112.024406 309.738335,112.45312 309.738335,112.991981 C309.738335,113.45957 309.622617,113.863446 309.388934,114.203609 C309.156374,114.542692 308.686761,114.712234 307.980093,114.712234 L301.305516,114.712234 L301.305516,121.389148 Z M286.667732,104.836708 C286.203736,105.306457 285.721764,105.494356 285.224063,105.400407 C284.726363,105.306457 284.189341,104.955495 283.612997,104.345361 C283.126532,103.831337 282.678264,103.366988 282.268195,102.957712 C281.859249,102.547357 281.344697,102.038732 280.725661,101.429678 C279.596566,100.351955 279.519046,99.2612741 280.494225,98.1597939 C280.935751,97.6684473 281.400871,97.4287134 281.887336,97.4395122 C282.374925,97.4513909 282.917565,97.7515983 283.514131,98.3358147 C284.088228,98.875756 284.615139,99.3897801 285.09037,99.8822066 C285.566724,100.374633 286.058807,100.925373 286.568866,101.535507 C287.120493,102.189916 287.41372,102.769813 287.447425,103.274118 C287.480006,103.777343 287.220482,104.298926 286.667732,104.836708 Z M311,128.103858 C311,128.899731 310.86743,129.443992 310.602289,129.73664 C310.336025,130.029288 309.838325,130.177232 309.106941,130.177232 L293.970333,130.177232 C292.797423,130.177232 291.790787,130.117839 290.950427,130.001211 C290.107819,129.883504 289.367447,129.702084 288.725942,129.456951 C288.083313,129.209657 287.523821,128.899731 287.04859,128.523932 C286.57336,128.149213 286.123969,127.693502 285.704912,127.154641 C285.262262,127.904079 284.774673,128.54229 284.244391,129.069273 C283.71411,129.597335 283.11642,130.083282 282.451322,130.528194 L282.483903,130.528194 C281.908682,130.926671 281.350314,131.072455 280.808798,130.966626 C280.266159,130.861878 279.829126,130.528194 279.4977,129.964495 L279.530281,130.035768 C279.153916,129.425634 279.014605,128.864095 279.115718,128.348991 C279.215708,127.833887 279.684198,127.317703 280.526805,126.801519 C280.858231,126.590942 281.189657,126.315572 281.522206,125.976489 C281.854755,125.636326 282.1536,125.257287 282.418741,124.833973 C282.683882,124.411739 282.892848,123.978706 283.049012,123.533795 C283.204052,123.089963 283.280448,122.65477 283.280448,122.234696 L283.280448,112.322454 C283.280448,111.925057 283.220904,111.650767 283.099568,111.497424 C282.977109,111.34516 282.750167,111.269568 282.418741,111.269568 L280.891936,111.269568 C280.161675,111.269568 279.661728,111.110826 279.397711,110.79442 C279.13257,110.478014 279,109.957511 279,109.23075 C279,108.503989 279.13257,107.971607 279.397711,107.631444 C279.661728,107.292361 280.161675,107.122819 280.891936,107.122819 L283.978127,107.122819 C284.598287,107.122819 285.111716,107.173574 285.522908,107.280482 C285.931854,107.386311 286.258786,107.591488 286.500334,107.896015 C286.744128,108.200542 286.91602,108.609818 287.014886,109.124922 C287.115999,109.641105 287.165432,110.297674 287.165432,111.093547 L287.165432,121.91829 L287.165432,122.425835 C287.165432,122.579178 287.154197,122.726042 287.132851,122.867507 C287.796826,124.014342 288.652916,124.840453 289.70449,125.344758 C290.754942,125.847983 292.178387,126.099596 293.970333,126.099596 L309.106941,126.099596 C309.838325,126.099596 310.336025,126.251859 310.602289,126.556386 C310.86743,126.860913 311,127.377097 311,128.103858 Z" id="Fill-31" fill="#6DC7E2"></path>
                    <path d="M336.860745,110.394322 C336.545103,110.463229 336.302653,110.54721 336.132251,110.638729 C335.965281,110.7324 335.879509,110.872369 335.879509,111.059712 L335.879509,123.709659 C335.856636,124.034817 335.913818,124.240464 336.04991,124.322292 C336.183715,124.403043 336.352972,124.385816 336.555395,124.269534 C336.872181,124.082191 337.180962,123.894849 337.485168,123.709659 C337.789374,123.522316 338.166773,123.266066 338.617364,122.937677 L338.584199,122.937677 C339.21434,122.447787 339.766714,122.19692 340.239034,122.185076 C340.711354,122.173233 341.173382,122.507004 341.623973,123.182084 C341.939615,123.719349 342.051691,124.234004 341.962488,124.724971 C341.872141,125.215938 341.42155,125.740283 340.610715,126.301235 C339.733549,126.908484 338.942155,127.441442 338.245684,127.896879 C337.546924,128.351239 336.736089,128.812059 335.812034,129.280416 C333.379529,130.471228 332.162705,129.245963 332.162705,125.601391 L332.162705,110.70979 C332.162705,109.65787 332.43832,108.73623 332.990694,107.940561 C333.543068,107.147046 334.369914,106.678689 335.473519,106.53872 C336.352972,106.446125 337.253011,106.323383 338.177066,106.172648 C339.10112,106.019759 339.985148,105.84426 340.831436,105.645073 C341.675436,105.44804 342.453106,105.242394 343.163301,105.033517 C343.87121,104.821411 344.462467,104.611458 344.935931,104.402581 C345.746766,104.051583 346.389488,103.89977 346.861808,103.946068 C347.334128,103.993442 347.740117,104.343364 348.078632,104.997987 C348.438876,105.767815 348.528079,106.376141 348.349673,106.819734 C348.168979,107.263328 347.538838,107.649857 346.456962,107.975015 C345.464289,108.303403 344.558533,108.589801 343.736261,108.834208 C342.91399,109.079692 341.973924,109.319792 340.916064,109.552355 C341.094471,110.370635 341.292319,111.135079 341.506179,111.847843 C341.720038,112.561684 341.939615,113.220614 342.166054,113.826787 C343.021491,113.407957 343.838044,112.951443 344.614571,112.461553 C345.39224,111.970585 346.006371,111.528069 346.456962,111.129696 L346.456962,111.165226 C347.583439,110.183292 348.540659,110.254353 349.328622,111.37518 L349.294313,111.304119 C349.746048,111.889834 349.924454,112.396952 349.835251,112.829778 C349.746048,113.261528 349.340058,113.757879 348.618426,114.317754 C347.131705,115.415971 345.42998,116.444203 343.516684,117.401374 C344.350392,119.247885 345.251574,120.936124 346.219086,122.463937 C347.188886,123.993903 348.144963,125.226705 349.093034,126.161266 C349.632828,126.723295 349.931316,127.254099 349.987354,127.755833 C350.043392,128.257568 349.913018,128.743152 349.599663,129.209355 C348.741939,130.308649 347.740117,130.261275 346.590767,129.069387 L346.590767,129.104917 C345.601525,128.100372 344.648879,126.920327 343.736261,125.564784 C342.824786,124.210317 341.973924,122.726648 341.184818,121.11593 C340.396855,119.504136 339.682085,117.786826 339.038221,115.965079 C338.397787,114.142255 337.839694,112.250523 337.36623,110.288807 L336.860745,110.394322 Z M331.385035,102.404258 C331.385035,102.80263 331.351869,103.118098 331.284395,103.350662 C331.734986,102.603444 332.139832,101.807775 332.500076,100.967963 C332.861464,100.127073 333.177106,99.2161996 333.447003,98.2353414 C333.694028,97.3007807 334.003952,96.705375 334.375633,96.4480478 C334.747313,96.1907206 335.283676,96.1551901 335.980148,96.3425329 C336.790984,96.6009368 337.248436,96.9164049 337.35022,97.2889372 C337.452003,97.6636228 337.36623,98.2697953 337.096333,99.1106846 C337.074604,99.1343717 337.063168,99.1688255 337.063168,99.2161996 L348.011158,99.2161996 C348.70763,99.2161996 349.182237,99.3626284 349.429262,99.6533328 C349.67743,99.9461906 349.800942,100.430698 349.800942,101.107931 C349.800942,101.716257 349.67743,102.188921 349.429262,102.528076 C349.182237,102.866155 348.70763,103.035194 348.011158,103.035194 L335.575303,103.035194 C335.192186,103.87716 334.775904,104.688979 334.324169,105.470651 C333.874722,106.253399 333.368093,107.065218 332.805426,107.906107 C332.353691,108.537044 331.869935,108.886965 331.351869,108.958027 C330.833804,109.026934 330.314595,108.793294 329.79653,108.256029 L329.830839,108.32709 C329.335646,107.85981 329.137798,107.397913 329.239581,106.941399 C329.342508,106.485963 329.629559,105.920704 330.10188,105.242394 C330.259701,105.033517 330.400368,104.821411 330.525023,104.611458 C330.647392,104.402581 330.765186,104.204471 330.879549,104.016052 C330.607365,104.227082 330.179647,104.33152 329.594107,104.33152 L324.222467,104.33152 L324.222467,107.240717 L326.587498,107.240717 C327.240512,107.240717 327.791743,107.305318 328.244621,107.432367 C328.694068,107.562645 329.060031,107.795209 329.342508,108.133287 C329.622698,108.471366 329.836557,108.927879 329.982942,109.500675 C330.13047,110.07347 330.213955,110.803461 330.235684,111.690648 C330.259701,112.740414 330.253983,113.839707 330.219674,114.984221 C330.186508,116.128735 330.13047,117.261405 330.050416,118.382232 C329.972649,119.504136 329.881159,120.602352 329.781663,121.676882 C329.679879,122.751411 329.572378,123.744113 329.458015,124.656063 C328.941093,128.743152 326.801357,130.039478 323.039951,128.543965 C321.846,128.006701 321.530357,127.095827 322.093024,125.811344 C322.341192,125.274079 322.679707,124.917697 323.107426,124.743275 C323.535144,124.567775 323.973155,124.607613 324.42489,124.86494 C324.875481,125.145954 325.207134,125.168564 325.420993,124.934924 C325.63714,124.701284 325.810972,123.98852 325.945921,122.797709 C326.035124,121.933132 326.119753,121.027642 326.198663,120.082314 C326.277574,119.13591 326.340474,118.189506 326.385075,117.243102 C326.429677,116.296697 326.469704,115.375057 326.502869,114.476026 C326.537178,113.576996 326.553189,112.717803 326.553189,111.900601 C326.553189,111.619587 326.502869,111.427937 326.40223,111.322422 C326.300447,111.216907 326.124327,111.165226 325.877303,111.165226 L324.189302,111.165226 C324.097811,114.435112 323.783312,117.471358 323.242374,120.275041 C322.701436,123.078723 321.958076,125.612158 321.012292,127.878575 C320.696649,128.672091 320.24034,129.197512 319.643364,129.455916 C319.045245,129.712166 318.512312,129.687403 318.038848,129.384855 C317.746079,129.197512 317.515065,129.017706 317.345807,128.843283 C317.17655,128.666707 317.069048,128.456754 317.024447,128.212347 C316.979845,127.965787 316.995856,127.679389 317.07591,127.353154 C317.154821,127.025842 317.295488,126.629623 317.496767,126.161266 C318.060577,124.830486 318.528323,123.53416 318.900003,122.273364 C319.271684,121.011492 319.570172,119.696862 319.795467,118.330551 C320.019619,116.964241 320.183159,115.516102 320.286085,113.985059 C320.387869,112.456169 320.437045,110.778697 320.437045,108.958027 L320.437045,104.33152 L318.849684,104.33152 C318.129195,104.33152 317.643152,104.186168 317.396127,103.89331 C317.147959,103.602606 317.024447,103.106255 317.024447,102.404258 C317.024447,101.633353 317.147959,101.114392 317.396127,100.845221 C317.643152,100.577127 318.129195,100.442541 318.849684,100.442541 L322.296591,100.442541 C322.047279,100.068932 321.846,99.7179338 321.687035,99.3906222 C320.920801,98.1072162 321.079766,97.1145145 322.160498,96.4125173 C322.724309,96.0152213 323.253811,95.9053996 323.750147,96.0808989 C324.24534,96.2553216 324.650185,96.6353906 324.964684,97.2200295 C325.122505,97.47628 325.343226,97.897263 325.625704,98.4797485 C325.905893,99.065464 326.204381,99.7179338 326.51888,100.442541 L329.594107,100.442541 C330.338611,100.442541 330.823511,100.577127 331.047663,100.845221 C331.272959,101.114392 331.385035,101.633353 331.385035,102.404258 Z" id="Fill-33" fill="#6DC7E2"></path>
                    <g id="Group-37" transform="translate(354.000000, 97.000000)">
                        <mask id="mask-2" fill="white">
                            <use xlink:href="#path-1"></use>
                        </mask>
                        <g id="Clip-36"></g>
                        <path d="M20.687629,24.2361292 C20.0926448,24.2361292 19.706073,24.0729725 19.5290344,23.7434174 C19.3531163,23.4160233 19.264597,22.9827394 19.264597,22.4435657 C19.264597,21.8795403 19.3531163,21.4224852 19.5290344,21.0713199 C19.706073,20.7201547 20.0926448,20.5440318 20.687629,20.5440318 L24.6934083,20.5440318 C24.2306427,19.9119343 23.7454672,19.3727606 23.2378818,18.9254301 C22.9958543,18.6682691 22.7908032,18.3938199 22.6249695,18.0999216 C22.4591359,17.8060233 22.376219,17.4840318 22.376219,17.1328665 C22.376219,16.4521462 22.7403808,15.7843919 23.4687043,15.1296038 L23.4362099,15.1296038 C23.612128,14.9415953 23.8003716,14.7719555 23.9986997,14.6185233 C24.1981483,14.4661716 24.3852714,14.3084174 24.56231,14.1430996 C25.068775,13.7227818 25.334333,13.4472521 25.3567429,13.3186716 C25.3791529,13.1890106 25.2346087,13.1241801 24.9264718,13.1241801 L22.0792872,13.1241801 C21.4820619,13.1241801 21.0898877,13.0074852 20.9027646,12.7730148 C20.7156415,12.5385445 20.6215197,12.0804089 20.6215197,11.4007691 C20.6215197,10.7924428 20.7313284,10.3526758 20.953187,10.0814682 C21.173925,9.81350212 21.5492918,9.67735805 22.0792872,9.67735805 L28.3025313,9.67735805 C28.943456,9.67735805 29.4398365,9.87725212 29.7927933,10.2759597 C30.14575,10.6757479 30.3227887,11.1781843 30.3227887,11.7886716 C30.3227887,12.5158538 30.0583512,13.1933326 29.5283558,13.8265106 C29.1081692,14.2965318 28.6947055,14.7244131 28.2868444,15.1112352 C27.8767422,15.4969767 27.4531941,15.8665106 27.0128385,16.2176758 C26.547832,16.617464 26.2878765,16.8875911 26.2329721,17.0280572 C26.1769472,17.1674428 26.2509001,17.3327606 26.4503487,17.5207691 C26.8682943,17.894625 27.248143,18.340875 27.5910153,18.8562775 C27.9338876,19.3727606 28.2263375,19.934625 28.468365,20.5440318 L30.4213925,20.5440318 C30.9950873,20.5440318 31.3872615,20.7201547 31.5967946,21.0713199 C31.8063276,21.4224852 31.9116544,21.8676547 31.9116544,22.4068284 C31.9116544,22.9233114 31.8063276,23.3565953 31.5967946,23.7088411 C31.3872615,24.0600064 30.9950873,24.2361292 30.4213925,24.2361292 L29.0308548,24.2361292 C29.0532648,24.4932903 29.0644698,24.7288411 29.0644698,24.9384597 L29.0644698,25.5370614 C29.0644698,26.1940106 29.0207704,26.8498792 28.932251,27.5057479 C28.8426112,28.162697 28.7103925,28.8185657 28.5355949,29.4755148 C28.0918778,30.9525699 27.4643991,32.0482055 26.6475563,32.7635021 C25.8307134,33.4777182 24.8603624,33.8353665 23.7342623,33.8353665 C22.630572,33.8353665 21.405868,33.4247733 20.0590298,32.6046674 C19.5503239,32.2772733 19.2085721,31.8893708 19.0326539,31.4442013 C18.8556153,30.9990318 18.8892302,30.5300911 19.1312577,30.0373792 C19.4416356,29.4517436 19.8057973,29.0940953 20.2248635,28.9655148 C20.6439296,28.8369343 21.0742007,28.9244555 21.5156768,29.2291589 C21.8910435,29.4636292 22.2608078,29.6516377 22.6249695,29.7921038 C22.9891313,29.9325699 23.3039911,30.002803 23.5673081,30.002803 C23.9874947,30.002803 24.3180415,29.9206843 24.56231,29.7575275 C24.8043375,29.5922097 25.0474855,29.2410445 25.2906335,28.7018708 C25.4878411,28.2329301 25.6267829,27.7348157 25.7040972,27.2075275 C25.780291,26.6802394 25.8195085,26.1237775 25.8195085,25.5370614 L25.8195085,24.9384597 C25.8195085,24.7288411 25.8083035,24.4932903 25.787014,24.2361292 L20.687629,24.2361292 Z M20.3570822,10.7675911 C19.8707862,11.5185445 19.4024182,11.9107691 18.9497371,11.9453453 C18.497056,11.9810021 18.0735079,11.776786 17.6757312,11.3316165 C17.3664739,10.886447 17.2219297,10.4823369 17.2465806,10.1182055 C17.2656291,9.75515466 17.4886081,9.26892585 17.9076742,8.65843856 C18.4141392,7.86210381 18.8836277,6.90585381 19.3138989,5.79184958 C19.74417,4.67892585 20.1486696,3.34881992 20.5240364,1.80153178 C20.6551346,1.21589619 20.8926801,0.780451271 21.2344319,0.500599576 C21.5773042,0.218586864 21.9571529,0.112697034 22.376219,0.184010593 C22.884925,0.348247881 23.2591712,0.647548729 23.5023192,1.08083263 C23.7454672,1.51411653 23.7790822,2.02411653 23.600923,2.60975212 C23.5572236,2.82045127 23.5068012,3.02034534 23.4541378,3.20835381 C23.3969924,3.39636229 23.3364856,3.58220975 23.2714967,3.77021822 L30.1894495,3.77021822 C30.7418548,3.77021822 31.127306,3.91068432 31.3491646,4.19269703 C31.5687821,4.47470975 31.6808319,4.89610805 31.6808319,5.45905297 C31.6808319,6.02091737 31.5687821,6.44339619 31.3491646,6.72432839 C31.127306,7.0063411 30.7418548,7.14572669 30.1894495,7.14572669 L22.1453965,7.14572669 C21.8350187,7.89668008 21.5380868,8.55903178 21.2523599,9.13170127 C20.964392,9.70761229 20.6652191,10.2413835 20.3570822,10.7330148 L20.3570822,10.7675911 Z M7.74363968,5.73998517 C7.74363968,5.12949788 7.84224348,4.69081144 8.04169207,4.42176483 C8.24002016,4.15163771 8.69158073,4.01765466 9.39861477,4.01765466 L11.3191478,4.01765466 C11.207098,3.68809958 11.0872048,3.38447669 10.9538656,3.10246398 C10.8227673,2.82045127 10.7006331,2.55140466 10.5897038,2.29316314 C10.4126652,1.87176483 10.3969782,1.4730572 10.5404019,1.09704025 C10.6849461,0.723184322 11.0435054,0.429286017 11.6172002,0.218586864 C12.0575558,0.0554300847 12.465417,0.0370614407 12.8419042,0.166722458 C13.2161504,0.295302966 13.5153233,0.65403178 13.7360613,1.23858686 C13.9119795,1.66106568 14.0722106,2.05977331 14.2156344,2.43470975 C14.3601786,2.80964619 14.5192892,3.33693432 14.6952074,4.01765466 L16.351303,4.01765466 C16.9261183,4.01765466 17.3384614,4.15812076 17.5928144,4.43797246 C17.8460469,4.71998517 17.9726631,5.15434958 17.9726631,5.73998517 C17.9726631,6.34939195 17.8583724,6.78375636 17.6264293,7.04091737 C17.3933658,7.2991589 16.9698177,7.42773941 16.351303,7.42773941 L12.7421799,7.42773941 L12.7421799,11.6125487 L14.4318904,11.6125487 C15.1366835,11.6125487 15.7114988,11.6600911 16.1529749,11.7519343 C16.594451,11.8459386 16.9362028,12.033947 17.1782303,12.3159597 C17.4213783,12.5979725 17.5860914,13.0074852 17.6757312,13.5466589 C17.7642505,14.0858326 17.80795,14.7881631 17.80795,15.6558114 C17.80795,16.687697 17.8023475,17.7962987 17.7911425,18.978375 C17.778817,20.1626123 17.7575276,21.3587352 17.7239126,22.5656631 C17.6914182,23.7725911 17.6432368,24.9449428 17.5760069,26.0816377 C17.5098976,27.2194131 17.4325832,28.2567013 17.3451844,29.1935021 C17.2107247,30.3193919 16.9742997,31.2032479 16.6336684,31.8483114 C16.2896756,32.4944555 15.865007,32.939625 15.358542,33.1859809 C14.849836,33.4312564 14.2660567,33.5068919 13.6027221,33.4150487 C12.9416285,33.3210445 12.2233895,33.1081843 11.4513665,32.7818708 C10.9437811,32.5690106 10.6345237,32.2945614 10.524715,31.9552818 C10.4126652,31.6138411 10.4451596,31.1405784 10.6244392,30.5300911 C10.7992369,29.8969131 11.0759998,29.4809174 11.4513665,29.2821038 C11.8267333,29.0822097 12.1684851,29.0757267 12.4788629,29.2637352 C13.0514373,29.5457479 13.4368885,29.6581208 13.6374575,29.5986928 C13.8346651,29.5392648 13.9668839,29.3004725 14.0352342,28.8779936 C14.122633,28.0568072 14.1932244,27.1610657 14.2492493,26.1886081 C14.3030332,25.2139894 14.3489736,24.2177606 14.381468,23.1988411 C14.4139624,22.1788411 14.4408544,21.1718072 14.4643848,20.1744979 C14.4856743,19.1782691 14.5080843,18.2576758 14.5304942,17.4148792 C14.5517837,16.4294555 14.5013613,15.7735869 14.381468,15.4461928 C14.2593338,15.1177182 14.0878976,14.9534809 13.8682801,14.9534809 L12.7421799,14.9534809 C12.7208904,16.9686292 12.6032382,18.8152182 12.3948256,20.4910869 C12.184172,22.168036 11.9096501,23.7153242 11.5667778,25.1329513 C11.225026,26.5516589 10.8227673,27.8461081 10.3577608,29.0184597 C9.89499525,30.1908114 9.3874098,31.2810445 8.83612493,32.2891589 C8.45963771,32.9925699 8.0248846,33.4312564 7.52850412,33.6062987 C7.03212365,33.7824216 6.55143014,33.706786 6.08866459,33.3783114 C5.55754868,32.9796038 5.26061679,32.5463199 5.19338693,32.0773792 C5.12727757,31.6084386 5.33793113,30.9525699 5.82198614,30.1086928 C6.50773073,28.9125699 7.07694355,27.7704725 7.52850412,26.6802394 C7.98006469,25.5900064 8.34422644,24.4425064 8.62098937,23.2334174 C8.89663181,22.0275699 9.0949599,20.7136716 9.21709415,19.294964 C9.3369874,17.8773369 9.39861477,16.2295614 9.39861477,14.3548792 L9.39861477,7.42773941 C8.69158073,7.42773941 8.24002016,7.30456144 8.04169207,7.05820551 C7.84224348,6.81293008 7.74363968,6.37316314 7.74363968,5.73998517 Z M6.58504507,7.67409534 C6.07633911,8.05011229 5.57547665,8.2424428 5.07797567,8.25432839 C4.58047469,8.26621398 4.07961223,7.94314195 3.57202677,7.2861928 C3.32887877,7.0063411 3.11822521,6.76538771 2.94230707,6.56549364 C2.76526843,6.36668008 2.60055527,6.17326907 2.44704709,5.98526059 C2.29129791,5.79833263 2.12658475,5.61140466 1.94842561,5.42339619 C1.77250748,5.23646822 1.57305889,5.03549364 1.35344134,4.825875 C0.823445932,4.31155297 0.559008476,3.83504873 0.559008476,3.40068432 C0.559008476,2.96740042 0.734926614,2.52871398 1.08900388,2.08354449 C1.46437061,1.61352331 1.88791874,1.34987924 2.36300976,1.29153178 C2.83698029,1.23318432 3.26164891,1.39093856 3.63813614,1.76695551 C4.27681982,2.3525911 4.82474319,2.88636229 5.27630376,3.36610805 C5.72786433,3.84693432 6.08866459,4.24023941 6.35198155,4.54386229 C6.97161677,5.29481568 7.26742816,5.9225911 7.2472592,6.42502754 C7.22372875,6.92854449 7.0041112,7.34562076 6.58504507,7.67409534 Z M6.45282634,17.0626335 C6.05504966,17.4386504 5.61245307,17.5953242 5.12727757,17.5369767 C4.64210207,17.4797097 4.189421,17.2041801 3.77035486,16.7114682 C3.2179495,16.0545191 2.66666464,15.4461928 2.11537977,14.8821674 C1.56297441,14.320303 1.13270329,13.9097097 0.823445932,13.6514682 C0.293450523,13.2300699 0.0245310768,12.7957055 0.0133260999,12.350536 C0.00100062525,11.9053665 0.194846726,11.4256208 0.591502909,10.9091377 C1.25483754,10.0187987 2.11537977,9.99394703 3.17312959,10.8389047 C3.74906541,11.3089258 4.26673534,11.7584174 4.73062139,12.1927818 C5.19338693,12.6260657 5.67744194,13.1360657 6.18726839,13.7227818 C6.84948252,14.4715742 7.16882436,15.0982691 7.14641441,15.6028665 C7.12512495,16.107464 6.89318193,16.5936928 6.45282634,17.0626335 Z M7.11391998,21.8795403 C6.07633911,25.6775275 4.85051464,29.1243496 3.43868755,32.2178453 C3.12943018,32.8985657 2.73837649,33.3026758 2.26440596,33.4312564 C1.78931494,33.5598369 1.34223636,33.4604301 0.923170226,33.133036 C0.526514043,32.7332479 0.245269122,32.2718708 0.078314966,31.7445826 C-0.0863981948,31.2151335 0.0503025237,30.517125 0.49401961,29.6516377 C1.06547343,28.4555148 1.63468626,27.0443708 2.1971761,25.4138835 C2.76078644,23.7855572 3.26164891,22.1269767 3.7042455,20.4381419 L3.7042455,20.4737987 C3.85775368,19.6536928 4.14572159,19.1145191 4.56478773,18.8562775 C4.98385386,18.598036 5.48135484,18.5742648 6.05504966,18.7860445 L6.02255522,18.7493072 C6.59625004,18.9373157 6.97609876,19.2722733 7.16434237,19.7520191 C7.35146549,20.2339258 7.32345305,20.9427394 7.08030505,21.8795403 L7.11391998,21.8795403 Z" id="Fill-35" fill="#6DC7E2" mask="url(#mask-2)"></path>
                    </g>
                    <g id="Group-40" transform="translate(75.000000, 0.000000)">
                        <mask id="mask-4" fill="white">
                            <use xlink:href="#path-3"></use>
                        </mask>
                        <g id="Clip-39"></g>
                        <path d="M40.3648289,5.0576803 C41.0598357,5.08507929 41.7482443,5.66484192 41.5426015,6.19528636 C41.3633513,6.65558939 40.8453953,6.98547323 40.5759702,7.26823081 C39.666523,7.06109444 39.1540655,6.80354394 39.1452679,6.06925101 C39.1375701,5.48620051 39.706112,5.03137727 40.3648289,5.0576803 M4.15739428,3.95733687 C4.769924,3.75348838 5.3857528,3.50580152 6.02027641,3.43346818 C9.09282227,3.07728131 12.1675675,2.67506414 15.2555091,2.48327121 C17.6132537,2.33750859 20.0721701,2.11612475 22.0065324,4.01323081 C22.097807,4.10309949 22.2803562,4.1326904 22.4222168,4.13597828 C24.6622941,4.18420051 26.903471,4.25215 29.144648,4.25105404 C29.8671472,4.24995808 30.6259362,3.87733182 31.306647,4.00446313 C32.5734948,4.23899848 33.8337445,4.6236803 35.0269128,5.11247828 C36.8480065,5.85773081 38.5932214,6.76189747 39.1034795,8.93518535 C39.1276728,9.04258939 39.2068508,9.15656919 39.2948263,9.22671061 C39.5851456,9.45576616 39.8908606,9.6661904 40.1910772,9.8831904 C40.3901219,9.58508939 40.5704717,9.27274091 40.7948094,8.99546313 C41.0081501,8.73024091 41.2687776,8.30281667 41.5052119,8.30610455 C41.7999299,8.30829646 42.1837233,8.62283687 42.3563753,8.9066904 C42.5411239,9.21355909 42.5246285,9.63988737 42.5994077,10.0136096 C42.7896548,10.9747662 43.4802628,11.5293217 44.2907375,11.9085237 C45.0154361,12.2482712 45.4773077,11.7430338 45.9600735,11.2619076 C46.1195291,11.1018975 46.6583793,11.0668268 46.8244332,11.2082056 C47.6503036,11.9074278 48.544355,12.5891146 49.1678817,13.4538268 C50.8834048,15.835347 49.8738854,20.039448 47.3907757,21.259251 C45.1968856,22.3365793 44.8900709,23.6451551 46.4241444,25.5882914 C47.2808063,26.6743874 48.1924529,27.7177409 49.0931025,28.7698621 C50.4721191,30.3798268 50.8020274,30.3984581 52.3097083,28.9298722 C52.3394001,29.1413924 52.3811884,29.3014025 52.3800887,29.4603167 C52.3657927,31.1535742 52.9167396,32.0774682 54.5684804,32.3744732 C55.9090077,32.6166803 57.3199155,32.5224278 58.6967328,32.4753015 C59.2289848,32.4566702 59.4247304,32.5991449 59.5786876,33.0649278 C59.7524393,33.5909884 59.9833751,34.1060894 60.2692956,34.5795439 C60.364969,34.7373621 60.7047745,34.7472258 60.933511,34.8250389 C60.9752993,34.5981753 61.1050633,34.3417207 61.0423807,34.1499278 C60.8015476,33.4265944 60.472739,32.7317561 60.2209091,32.0128066 C59.4687182,29.8680136 58.8440918,27.6969177 59.023342,25.383347 C59.184997,23.3032157 60.4276516,22.0680692 62.5027747,22.0132712 C64.8275284,21.9518975 67.1280889,22.2302712 69.2570971,23.1782763 C71.2310483,24.0561399 73.117024,25.1290843 74.9205227,26.0540742 C74.9172236,26.0496904 74.8138523,25.8852965 74.6862878,25.7450136 C71.4080991,22.1371146 67.8659838,18.8108773 63.9763651,15.8660338 C56.6458029,10.3160944 48.6114364,6.13829646 39.7819909,3.46744293 C35.8153936,2.26846313 31.7905125,1.40923081 27.7051482,0.782341919 C27.1300081,0.693569192 26.7330184,0.700144949 26.3360288,1.33580152 C26.0567064,1.78185707 25.241833,2.16763485 24.7150794,2.11393283 C24.1432384,2.05584697 23.2909753,1.54622576 23.159012,1.07167525 C22.9126805,0.169700505 22.3804284,0.191619697 21.7327085,0.166412626 C16.2353367,-0.0527792929 10.75556,0.137917677 5.31427267,0.991670202 C3.57235691,1.26456414 1.84913595,1.64705404 0.0577339504,1.99118535 C0.530602497,4.27845303 2.60462593,4.4746298 4.15739428,3.95733687" id="Fill-38" fill="#5BB8DE" mask="url(#mask-4)"></path>
                    </g>
                    <path d="M159.000561,146.279663 C156.08892,146.279663 153.720337,143.91108 153.720337,140.999439 C153.720337,138.08892 156.08892,135.720337 159.000561,135.720337 C161.91108,135.720337 164.279663,138.08892 164.279663,140.999439 C164.279663,143.91108 161.91108,146.279663 159.000561,146.279663 M159.000561,135 C155.691725,135 153,137.691725 153,140.999439 C153,144.308275 155.691725,147 159.000561,147 C162.308275,147 165,144.308275 165,140.999439 C165,137.691725 162.308275,135 159.000561,135" id="Fill-41" fill="#5BB8DE"></path>
                    <path d="M162.742746,143.619914 C162.643756,143.600232 162.528267,143.645385 162.39408,143.754218 C162.215897,143.922097 162.025615,144.057559 161.819934,144.160602 C161.616454,144.263645 161.366778,144.318062 161.072006,144.32385 C160.705741,144.32385 160.375773,144.255541 160.082101,144.116606 C159.788429,143.978829 159.540953,143.782005 159.338572,143.527291 C159.138391,143.273735 158.983306,142.972709 158.875516,142.625372 C158.769926,142.276877 158.716031,141.89828 158.716031,141.486107 C158.716031,141.151505 158.764427,140.814588 158.863417,140.476513 C158.960208,140.138439 159.099895,139.838571 159.283577,139.573437 C159.46726,139.310619 159.691638,139.094112 159.954513,138.92739 C160.216288,138.75951 160.51326,138.67615 160.843228,138.67615 C161.081905,138.67615 161.296385,138.718988 161.485566,138.801191 C161.674748,138.88571 161.844132,138.976017 161.989318,139.072114 C162.136704,139.16821 162.263192,139.253887 162.370982,139.327985 C162.477672,139.402084 162.567863,139.429871 162.641556,139.410189 C162.708649,139.397453 162.762544,139.373139 162.80214,139.337248 C162.841737,139.302514 162.867034,139.258518 162.880233,139.206417 C162.892332,139.117268 162.867034,139.010751 162.80654,138.889183 C162.726248,138.779193 162.622858,138.671518 162.49417,138.565002 C162.365482,138.458485 162.219196,138.364704 162.054212,138.280185 C161.889228,138.196824 161.705545,138.129673 161.504265,138.077572 C161.301884,138.026629 161.090704,138 160.871825,138 C160.449466,138 160.062303,138.092623 159.710336,138.275554 C159.35947,138.458485 159.058099,138.708568 158.807323,139.023487 C158.556547,139.339563 158.359666,139.710056 158.216679,140.133807 C158.072593,140.558717 158,141.009097 158,141.486107 C158,142.032584 158.073693,142.523487 158.221079,142.958816 C158.366265,143.392987 158.575245,143.761164 158.843619,144.063348 C159.113093,144.366689 159.436463,144.598247 159.817026,144.758022 C160.19539,144.920112 160.61335,145 161.072006,145 C161.335981,145 161.583457,144.959477 161.815535,144.87959 C162.047613,144.798544 162.252193,144.702448 162.425976,144.590142 C162.59976,144.477837 162.737247,144.363215 162.838437,144.247436 C162.939627,144.131657 162.993522,144.037876 162.999022,143.967251 C163.004521,143.896626 162.986923,143.827158 162.944027,143.760007 C162.901131,143.691697 162.834037,143.645385 162.742746,143.619914" id="Fill-43" fill="#5BB8DE"></path>
                    <path d="M86.375286,123.63776 C86.6006865,123.878893 86.97254,124 87.5,124 C88.0228833,124 88.395881,123.885381 88.6212815,123.658304 C88.8432494,123.434472 88.9588101,123.177119 88.9588101,122.895978 L88.9588101,111.461073 L91.8318078,111.461073 C92.1006865,111.461073 92.3615561,111.370242 92.6167048,111.183175 C92.8707094,111.000433 93,110.682526 93,110.229455 C93,109.792604 92.8787185,109.47686 92.6384439,109.28763 C92.3981693,109.094074 92.1281465,109 91.8318078,109 L83.1647597,109 C82.8672769,109 82.5983982,109.094074 82.3581236,109.28763 C82.117849,109.47686 82,109.792604 82,110.229455 C82,110.682526 82.1258581,111.000433 82.3798627,111.183175 C82.6338673,111.370242 82.895881,111.461073 83.1647597,111.461073 L86.0377574,111.461073 L86.0377574,122.895978 C86.0377574,123.150087 86.1533181,123.397708 86.375286,123.63776" id="Fill-45" fill="#5BB8DE"></path>
                    <path d="M103.140231,119.202241 C103.015483,119.87066 102.805822,120.44944 102.503911,120.941901 C102.200952,121.434362 101.807838,121.81837 101.322474,122.10278 C100.832917,122.383871 100.22595,122.525522 99.4994758,122.525522 C98.7740505,122.525522 98.1670833,122.366164 97.6817192,122.047448 C97.1921619,121.728731 96.7980002,121.30931 96.496089,120.789182 C96.1941779,120.265735 95.9845174,119.673675 95.8597694,119.008577 C95.737118,118.342371 95.6752681,117.670632 95.6752681,116.987827 C95.6752681,116.235302 95.7444561,115.524831 95.8786388,114.859732 C96.0170148,114.194633 96.2371583,113.612533 96.5390694,113.113432 C96.8409806,112.614331 97.234094,112.215936 97.7205064,111.917139 C98.2069188,111.622769 98.800258,111.474478 99.4994758,111.474478 C100.198694,111.474478 100.793081,111.619449 101.279494,111.907179 C101.764858,112.198229 102.157971,112.596625 102.461979,113.102365 C102.762842,113.609213 102.982985,114.201273 103.120313,114.884078 C103.258689,115.563563 103.324732,116.287315 103.324732,117.054226 C103.324732,117.822244 103.264979,118.536035 103.140231,119.202241 M102.388598,109.616406 C101.575115,109.204731 100.609628,109 99.4994758,109 C98.3484396,109 97.3630352,109.204731 96.5485042,109.616406 C95.7318765,110.029188 95.0620111,110.593581 94.5336666,111.3118 C94.0042738,112.028911 93.6174502,112.874395 93.3710991,113.85157 C93.124748,114.828745 93,115.87564 93,116.987827 C93,118.148707 93.1383759,119.219947 93.4140795,120.203763 C93.6855899,121.187578 94.0965245,122.033061 94.6447867,122.743533 C95.1930489,123.450685 95.872349,124.005118 96.6837352,124.403514 C97.4909282,124.803016 98.4302072,125 99.4994758,125 C100.609628,125 101.575115,124.795269 102.388598,124.383594 C103.205225,123.970812 103.882429,123.405312 104.418111,122.6882 C104.949601,121.971089 105.349004,121.125605 105.608983,120.14843 C105.868962,119.171255 106,118.11772 106,116.987827 C106,115.857933 105.868962,114.811039 105.608983,113.840504 C105.349004,112.871075 104.949601,112.028911 104.418111,111.3118 C103.882429,110.593581 103.205225,110.029188 102.388598,109.616406" id="Fill-47" fill="#5BB8DE"></path>
                    <path d="M111.074864,123.702336 C111.688083,124.140538 112.379304,124.462413 113.155728,124.678125 C113.934552,124.893838 114.724176,125 115.523401,125 C116.339426,125 117.13625,124.893838 117.913874,124.678125 C118.692698,124.462413 119.379119,124.13715 119.985138,123.691043 C120.589957,123.249453 121.074772,122.697184 121.446783,122.039881 C121.813994,121.385967 122,120.611209 122,119.726901 L122,110.153102 C122,109.859462 121.878796,109.590668 121.645989,109.356886 C121.408382,109.120844 121.01837,109 120.468753,109 C119.886735,109 119.484723,109.127621 119.266316,109.378344 C119.045509,109.630197 118.936306,109.887697 118.936306,110.153102 L118.936306,118.351309 C118.936306,119.001835 118.891904,119.578951 118.798301,120.080398 C118.702299,120.582975 118.527093,121.007623 118.266685,121.353215 C118.007477,121.701066 117.658266,121.96873 117.219053,122.15282 C116.779839,122.33691 116.223022,122.429519 115.547401,122.429519 C114.85498,122.429519 114.288563,122.333522 113.840949,122.142655 C113.393335,121.948401 113.040524,121.676219 112.781316,121.321592 C112.520908,120.968095 112.337303,120.53667 112.228099,120.034093 C112.115296,119.532646 112.062494,118.973601 112.062494,118.351309 L112.062494,110.153102 C112.062494,109.859462 111.947291,109.590668 111.709683,109.356886 C111.473276,109.120844 111.082064,109 110.533647,109 C109.98163,109 109.590418,109.127621 109.352811,109.378344 C109.120004,109.630197 109,109.887697 109,110.153102 L109,119.726901 C109,120.629279 109.192006,121.406296 109.579618,122.064728 C109.96243,122.72203 110.461645,123.267523 111.074864,123.702336" id="Fill-49" fill="#5BB8DE"></path>
                    <path d="M128.098119,115.170438 L125.818895,115.170438 L125.818895,111.41607 L128.098119,111.41607 C128.416613,111.41607 128.724049,111.443096 129.01932,111.49066 C129.316802,111.541468 129.576684,111.633354 129.801179,111.768481 C130.026779,111.900365 130.202614,112.089543 130.334214,112.330609 C130.463602,112.570595 130.528849,112.872198 130.528849,113.240825 C130.528849,114.033209 130.320944,114.551016 129.909555,114.801811 C129.497061,115.048283 128.894355,115.170438 128.098119,115.170438 M130.182708,117.33355 C131.14925,117.123833 131.921156,116.690346 132.492897,116.040655 C133.063533,115.390965 133.347744,114.4494 133.347744,113.220285 C133.347744,112.414929 133.23605,111.738213 133.011556,111.193381 C132.785956,110.650711 132.453085,110.215062 132.01405,109.889676 C131.575014,109.56429 131.024285,109.335115 130.366285,109.198907 C129.708284,109.067023 128.952967,109 128.098119,109 L124.821389,109 C124.444283,109 124.139059,109.016215 123.900189,109.05297 C123.661318,109.087562 123.477741,109.155666 123.346141,109.252958 C123.214541,109.35133 123.124965,109.494024 123.076306,109.676716 C123.024329,109.862651 123,110.103717 123,110.397753 L123,122.892133 C123,123.146172 123.099529,123.392643 123.305224,123.63371 C123.506494,123.873695 123.859271,123.99585 124.367977,123.99585 C124.873365,123.99585 125.240518,123.881262 125.472754,123.654249 C125.704989,123.430479 125.818895,123.173197 125.818895,122.892133 L125.818895,117.760551 L131.571697,123.678031 C131.816097,123.918017 132.142332,124.022875 132.547085,123.99585 C132.949627,123.965582 133.299086,123.809915 133.586615,123.52777 C133.877462,123.244544 134.01238,122.919158 133.999109,122.553775 C133.984733,122.184068 133.833227,121.859763 133.545697,121.575456 L129.292473,117.48273 C129.45172,117.468677 129.603226,117.448138 129.745885,117.41895 C129.891861,117.390844 130.036732,117.363819 130.182708,117.33355" id="Fill-51" fill="#5BB8DE"></path>
                    <path d="M111,98.2926265 L111,57.7062714 C111,55.1073515 108.865022,53 106.231515,53 C103.598009,53 101.464131,55.1073515 101.464131,57.7062714 L101.464131,71.995922 L77.5347683,71.995922 L77.5347683,57.7062714 C77.5347683,55.1073515 75.3997901,53 72.7673841,53 C70.1338776,53 68,55.1073515 68,57.7062714 L68,98.2926265 C68,100.891546 70.1338776,103 72.7673841,103 C75.3997901,103 77.5347683,100.891546 77.5347683,98.2926265 L77.5347683,81.1637827 L101.464131,81.1637827 L101.464131,98.2926265 C101.464131,100.891546 103.598009,103 106.231515,103 C108.865022,103 111,100.891546 111,98.2926265" id="Fill-53" fill="#5BB8DE"></path>
                    <path d="M29.7312595,97.7439695 C29.7312595,97.7439695 29.7312595,97.7439695 29.732366,97.7428421 L37.6651803,86.973344 L49.3170891,102.79108 C50.8928078,104.929647 53.9037142,105.386221 56.0415573,103.810197 C58.1816134,102.233045 58.6375096,99.2207875 57.0606843,97.0810924 L43.6405181,78.8621183 L57.0695367,60.60256 C58.5666908,58.5710897 58.2225556,55.7256785 56.2861035,54.1079427 C54.1770305,52.3470345 51.0200604,52.7292035 49.3912275,54.9410485 L37.7171878,70.8196605 L26.0320827,54.9579586 C24.4552574,52.8182635 21.4454576,52.3628173 19.306508,53.9388414 C17.1675583,55.5148655 16.7105556,58.5282507 18.2873809,60.6679458 L31.7407434,78.9320136 L17.8702138,97.7597523 L17.8702138,97.7608796 C12.7413822,104.723344 5,100.96704 5,100.96704 C7.3237425,104.260006 12.1338895,105.548558 12.1338895,105.548558 C16.8101446,106.696192 23.5224408,106.173106 29.7312595,97.7439695" id="Fill-55" fill="#5BB8DE"></path>
                    <path d="M29.6813447,51.2494475 L37.7397412,62 L45.795928,51.2328572 C47.5359848,48.911313 50.3178662,47.525465 53.2356376,47.525465 C55.3855745,47.525465 57.4813763,48.2753492 59.1385732,49.6346526 C61.3735795,51.4673342 62.4927399,54.1295338 62.4684343,56.8083237 C63.0230429,56.4809407 63.5721275,56.1590877 64.1256313,55.8372347 C64.8735795,51.4861366 68.6707702,48.1570047 73.2589962,48.1570047 C74.4720644,48.1570047 75.6254735,48.404754 76.6882891,48.8272551 C77.5179924,48.3815275 78.0018939,48.12493 78.0018939,48.12493 L90.1458333,48.7940744 C90.5490846,48.2388504 91.0970644,47.7864866 91.7654672,47.4170747 C93.6137942,46.3995327 95.6289457,45.8797014 97.7092803,45.7281761 C99.8625316,45.5711207 101.868845,45.0955305 103.157039,43.2451524 C103.722696,42.4333309 104.314867,42.0782972 105.236269,42.0307382 C106.0494,41.9876032 106.942077,41.83829 107.363005,42.7098369 C107.715436,43.4409187 107.287879,44.0658222 106.880208,44.6608631 C107.867898,45.0490774 108.732955,45.7049496 109.363794,46.5687543 C109.55161,45.5788629 109.751578,44.5922896 109.996843,43.6189885 C110.246528,42.6368393 110.928188,41.8626225 111.90483,41.5098009 C113.464804,40.9490468 114.55303,39.8374928 115.471117,38.5489749 C116.106376,37.6586256 116.512942,36.6200692 116.03125,35.5306356 C115.766098,34.9289586 115.94839,34.53079 116.255524,34.067366 C116.842172,33.1869709 117.397885,32.2877735 118,31.3465471 C117.770202,31.249217 117.64315,31.1585231 117.508365,31.1441448 C114.666824,30.8189737 111.879419,30.9439544 109.229009,32.170535 C108.963857,32.2933036 108.677715,32.4061181 108.390467,32.4459349 C107.012784,32.636171 105.635101,32.8684361 104.24858,32.958024 C100.197285,33.2212577 96.1426768,33.4490986 92.0869634,33.6315926 C90.7910354,33.6891058 89.4785354,33.6437588 88.1903409,33.4922335 C87.0943813,33.3639348 86.0392992,32.8617999 84.9024621,33.2986794 C84.7367424,33.3617227 84.4936869,33.2677107 84.3003472,33.2046673 C82.0034722,32.4636313 79.5916982,32.0953253 77.4550189,30.8410942 C76.4573864,30.2549015 76.3822601,30.3820943 77.0086806,29.5116535 C77.7875631,28.42775 77.3986742,27.5418249 76.0430871,27.3250442 C75.5149937,27.2398803 74.9813763,27.1038394 74.4543876,27.1259599 C73.4821654,27.1690948 72.7662563,26.7642901 72.0779672,26.1272203 C71.7100694,25.7865649 71.1875,25.4337433 70.7212753,25.4149409 C69.109375,25.3485794 67.457702,25.1605554 66.0126263,26.2367166 C65.2381629,26.8140611 64.3510101,26.5895383 63.4704861,26.3981961 C64.078125,24.9515169 64.078125,24.9526229 62.8020833,23.9737917 C62.6606692,23.8654014 62.4894255,23.7724954 62.3966225,23.6298183 C62.0850694,23.1475918 61.6508838,23.0956087 61.1570391,23.2305436 C60.2709912,23.4738689 59.391572,23.7371026 58.5033144,23.9748977 C58.0602904,24.0921363 57.6150568,24.1761941 57.4029356,23.5811532 C57.0394571,22.5647172 56.5721275,21.6212788 55.6706124,20.9432862 C55.4584912,20.7818067 55.2795139,20.4533176 55.2529987,20.1856598 C55.1767677,19.4048069 55.087279,18.6040456 55.1767677,17.8309349 C55.4684343,15.3257907 56.4041982,13.2409356 59.0490846,12.381555 C59.6854482,12.1747286 59.9992109,11.6582154 59.9682765,11.0067673 C59.9086174,9.78461088 57.7840909,8.57683276 56.7035985,9.14422303 C50.4913194,12.4047815 44.8159722,16.4296026 39.6996528,21.2308524 C34.0640783,26.5198588 29.2924558,32.4769036 25.4389205,39.1495459 C24.4943182,40.7709769 22.6603535,43.638897 22.6603535,43.638897 C21.635101,45.1851184 20.7479482,46.6174194 20,47.8716505 C20.7225379,47.6957927 21.4483902,47.525465 22.2073864,47.525465 C25.1395202,47.525465 27.9335543,48.9179491 29.6813447,51.2494475" id="Fill-57" fill="#5BB8DE"></path>
                    <path d="M14.1030802,96.1064362 C10.1604983,94.9055093 8.14494513,90.4835676 9.04422516,85.9678205 C10.6938049,77.6954954 19,74 19,74 C8.53143043,74.6937235 1.45594265,80.1595226 0.220917019,85.9416423 C-0.635180297,89.9480043 1.1623002,92.9803176 2.77841329,94.4866574 C7.57061503,98.9522295 14.1030802,96.1064362 14.1030802,96.1064362" id="Fill-59" fill="#5BB8DE"></path>
                    <path d="M173.241698,59.7012014 C173.241698,59.7012014 168.65322,53.4474815 153.782304,53.0231456 L153.775597,53 L122.733789,53 C120.119307,53 118,55.0522429 118,57.5839303 C118,60.1156178 120.119307,62.1689629 122.733789,62.1689629 L135.546876,62.1689629 L135.546876,101.90885 C135.546876,102.510636 136.042052,103 136.653476,103 L144.125821,103 C144.736128,103 145.231304,102.510636 145.231304,101.90885 L145.231304,62.1689629 L154.442911,62.1689629 L156.431437,62.1689629 C156.431437,62.1689629 169.54856,62.1689629 168.324593,71.5186818 C167.752291,75.8931996 160.154755,79.7684338 155.966442,80.4958669 C155.966442,80.4958669 166.513793,81.7887138 172.281527,76.1819685 C176.513434,72.0664609 177.531729,64.3953488 173.241698,59.7012014" id="Fill-61" fill="#5BB8DE"></path>
                    <path d="M170.854889,109.620432 C168.910535,109.740879 163.345222,109.479337 159.940304,103.125477 C159.861012,102.975205 159.650719,102.94538 159.641526,103.1163 C159.538103,104.952829 158.764728,110.971732 153.101738,114.150383 C152.95005,114.235269 152.970735,114.446338 153.145405,114.448632 C155.124234,114.493369 161.339963,115.101339 164.156519,120.879349 C164.234661,121.042239 164.449551,121.043386 164.451849,120.863289 C164.477131,118.900579 165.091924,113.397876 170.892811,109.919829 C171.047946,109.826913 171.034156,109.608961 170.854889,109.620432" id="Fill-63" fill="#5BB8DE"></path>
                    <g id="Group-67" transform="translate(21.000000, 108.000000)">
                        <mask id="mask-6" fill="white">
                            <use xlink:href="#path-5"></use>
                        </mask>
                        <g id="Clip-66"></g>
                        <path d="M134.613571,14.6648195 C134.27632,14.9990588 133.941273,15.3354755 133.607329,15.6740698 C128.796544,20.5711655 123.238518,24.4666321 117.074322,27.5030927 C108.835922,31.5596909 100.101566,33.7763399 90.894397,34.2303392 C83.9234438,34.5743771 77.0803373,33.8547283 70.3375243,32.1203855 C63.9154303,30.4676974 57.8912042,27.8993895 52.2582331,24.4296153 C47.2071851,21.3169438 42.6840559,17.5760765 38.7152966,13.1983037 C35.1069328,9.21573894 32.1201687,4.82054651 29.7781488,0.0181700405 L0.0890518611,0.0181700405 C7.66066431,19.0349712 27.6334097,41.4496905 59.3746671,46.4621913 C89.3789724,51.1992441 116.630164,37.8579788 131.945321,18.3632264 C132.969197,17.1536503 133.95009,15.9190334 134.868162,14.6539322 C135.070953,14.375218 134.897919,14.3817504 134.613571,14.6648195" id="Fill-65" fill="#5BB8DE" mask="url(#mask-6)"></path>
                    </g>
                </g>
            </g>
        </g>
    </g>
</svg>