<?xml version="1.0" encoding="UTF-8"?>
<svg width="73px" height="73px" viewBox="0 0 73 73" version="1.1" xmlns="http://www.w3.org/2000/svg" xmlns:xlink="http://www.w3.org/1999/xlink">
    <!-- Generator: Sketch 49.3 (51167) - http://www.bohemiancoding.com/sketch -->
    <title>pcshengqian</title>
    <desc>Created with Sketch.</desc>
    <defs></defs>
    <g id="Page-1" stroke="none" stroke-width="1" fill="none" fill-rule="evenodd">
        <g id="首页" transform="translate(-329.000000, -2715.000000)" fill="#000000" fill-rule="nonzero">
            <g id="Group-8" transform="translate(329.000000, 2713.000000)">
                <g id="pcshengqian" transform="translate(0.000000, 5.000000)">
                    <path d="M66.4434869,6.54561818 C62.2000383,2.31530205 56.5603583,0 50.5602132,0 C44.5600682,0 38.9158253,2.31985078 34.6769396,6.54561818 L18.9944312,22.1750442 C18.2460143,22.9139421 18.0185532,24.0299003 18.4183493,25.0013874 C18.8181454,25.9728745 19.7662476,26.6080428 20.8195704,26.6100531 C21.5086819,26.6090226 22.1689052,26.3339623 22.6538353,25.8458669 L38.3317808,10.2164409 C41.5666182,6.97424573 45.9685854,5.15764487 50.5556504,5.17190262 C55.1778153,5.17190262 59.5033952,6.96410106 62.7612686,10.2027947 C69.4993579,16.9312058 69.4993579,27.8282681 62.7612686,34.5566791 L36.5020787,60.752798 L10.238326,34.5657766 C3.49520648,27.839441 3.49520648,16.9382277 10.238326,10.2118922 C13.450435,6.98310431 17.8276901,5.17404154 22.3891901,5.19009753 C23.2287541,5.19009753 24.0637553,5.24923098 24.8850679,5.35840043 C26.2998306,5.55615157 27.6097556,4.57928686 27.8189791,3.17046273 C28.019958,1.75941017 27.0388281,0.451896298 25.6242493,0.245631259 C22.2288536,-0.23004455 18.7695634,0.0638159002 15.5038526,1.10534067 C12.126664,2.17507436 9.06072422,4.04672157 6.56979631,6.55926436 C-2.1899321,15.3110831 -2.1899321,29.4802318 6.56979631,38.2320506 L34.6586882,66.2385628 C35.1420928,66.7258125 35.800954,67 36.4883902,67 C37.1758264,67 37.8346876,66.7258125 38.3180922,66.2385628 L66.4069841,38.2320506 C75.183402,29.4876646 75.1997346,15.310077 66.4434869,6.54561818 Z" id="Shape"></path>
                </g>
            </g>
        </g>
    </g>
</svg>