<?xml version="1.0" encoding="UTF-8"?>
<svg width="134px" height="134px" viewBox="0 0 134 134" version="1.1" xmlns="http://www.w3.org/2000/svg" xmlns:xlink="http://www.w3.org/1999/xlink">
    <!-- Generator: Sketch 49.3 (51167) - http://www.bohemiancoding.com/sketch -->
    <title>pcshejiao</title>
    <desc>Created with Sketch.</desc>
    <defs></defs>
    <g id="Page-1" stroke="none" stroke-width="1" fill="none" fill-rule="evenodd">
        <g id="首页" transform="translate(-381.000000, -10123.000000)" fill="#000000" fill-rule="nonzero">
            <g id="Group-14" transform="translate(381.000000, 10123.000000)">
                <g id="pcshejiao" transform="translate(2.000000, 3.000000)">
                    <path d="M52.9999725,0 C23.722604,0 0,21.1550719 0,47.2631169 C0,62.1640108 7.76831753,75.427905 19.8802104,84.1165954 L19.8802104,108 L43.1016325,93.6447726 C46.3175489,94.1904392 49.6169955,94.4842596 52.9999725,94.4842595 C82.2773412,94.4842595 105.999945,73.3291876 105.999945,47.2631169 C106.04171,21.1550719 82.2773412,2.09703999e-15 52.9999725,0 Z M26.5208688,54.0209871 C22.8455358,54.0209871 19.8802103,50.998834 19.8802104,47.2631169 C19.8802104,43.5273998 22.845536,40.5052466 26.5208688,40.5052468 C30.1962016,40.5052469 33.1615273,43.5273999 33.1615273,47.2631169 C33.1197623,50.998834 30.1544367,54.0209871 26.5208688,54.0209871 Z M52.9999725,54.0209871 C49.3246395,54.0209871 46.359314,50.998834 46.359314,47.2631169 C46.359314,43.5273998 49.3246395,40.5052466 52.9999725,40.5052468 C56.6753055,40.5052469 59.6406311,43.5273999 59.6406311,47.2631169 C59.6406311,50.998834 56.6753055,54.0209871 52.9999725,54.0209871 Z M79.5208413,54.0209871 C75.8455083,54.0209871 72.8801828,50.998834 72.8801829,47.2631169 C72.8801829,43.5273998 75.8455085,40.5052466 79.5208413,40.5052468 C83.1961742,40.5052469 86.1614999,43.5273999 86.1614999,47.2631169 C86.1614999,50.998834 83.1961743,54.0209871 79.5208413,54.0209871 Z" id="Shape"></path>
                    <path d="M114.537313,40 L114.746269,43.3664302 C114.78806,46.564539 114.746269,46.2699763 114.746269,49.2156028 C114.746269,80.2709219 90.758209,101.773995 57.4507462,101.773995 L46,101.773995 C55.1104478,110.821277 65.6835821,116.375886 80.3522388,116.375886 C83.4865671,116.375886 86.5373134,116.081324 89.5044775,115.576359 L110.901493,129 L110.901493,106.907801 C122.519403,98.7862883 130,86.2042552 130,72.0652481 C130,59.4411347 124.023881,48.0794326 114.537313,40 Z" id="Shape"></path>
                </g>
            </g>
        </g>
    </g>
</svg>