<?xml version="1.0" encoding="UTF-8"?>
<svg width="73px" height="73px" viewBox="0 0 73 73" version="1.1" xmlns="http://www.w3.org/2000/svg" xmlns:xlink="http://www.w3.org/1999/xlink">
    <!-- Generator: Sketch 49.3 (51167) - http://www.bohemiancoding.com/sketch -->
    <title>pcsuishou</title>
    <desc>Created with Sketch.</desc>
    <defs></defs>
    <g id="Page-1" stroke="none" stroke-width="1" fill="none" fill-rule="evenodd">
        <g id="首页" transform="translate(-924.000000, -2713.000000)" fill="#000000" fill-rule="nonzero">
            <g id="Group-8" transform="translate(329.000000, 2713.000000)">
                <g id="pcsuishou" transform="translate(596.000000, 1.000000)">
                    <path d="M35.5,0 C15.8705883,0 0,15.8705882 0,35.5 C0,55.1294118 15.8705882,71 35.5,71 C55.1294119,71 71.0000001,55.1294118 71,35.5 C70.9999999,15.8705882 55.1294118,5.56417657e-15 35.5,0 Z M35.5,66.6147059 C18.3764706,66.6147059 4.38529412,52.6235294 4.38529412,35.5 C4.38529412,18.3764706 18.3764706,4.38529411 35.5,4.38529411 C52.6235295,4.38529411 66.614706,18.3764705 66.6147059,35.5 C66.6147058,52.6235295 52.6235294,66.6147059 35.5,66.6147059 Z" id="Shape"></path>
                    <path d="M44.2508245,17.892499 L34.9404213,30.2471288 L25.630018,17.892499 C25.0228178,17.054897 23.8084174,16.8454964 22.9988172,17.473698 C22.1892169,18.1018995 21.9868168,19.3583025 22.594017,20.1959045 L33.1188207,34.2257385 L33.1188207,35.4821415 L26.6420184,35.4821415 C25.630018,35.4821415 24.8204178,36.3197435 24.8204178,37.5761465 C24.8204178,38.6231491 25.630018,39.6701515 26.6420184,39.6701515 L33.1188207,39.6701515 L33.1188207,41.1359551 L26.6420184,41.1359551 C25.630018,41.1359551 24.8204178,41.9735571 24.8204178,43.2299602 C24.8204178,44.2769627 25.630018,45.3239652 26.6420184,45.3239652 L33.1188207,45.3239652 L33.1188207,52.6529829 C33.1188207,53.6999855 33.9284209,54.746988 35.1428214,54.746988 C36.1548217,54.746988 37.166822,53.909386 37.166822,52.6529829 L37.166822,45.3239652 L43.6436243,45.3239652 C44.6556247,45.3239652 45.667625,44.4863632 45.667625,43.2299602 C45.667625,42.1829576 44.8580247,41.1359551 43.6436243,41.1359551 L37.166822,41.1359551 L37.166822,39.6701515 L43.6436243,39.6701515 C44.6556247,39.6701515 45.667625,38.8325495 45.667625,37.5761465 C45.667625,36.529144 44.8580247,35.4821415 43.6436243,35.4821415 L37.166822,35.4821415 L37.166822,34.2257385 L47.4892256,20.4053051 C48.0964258,19.5677031 48.0964258,18.3113 47.0844255,17.6830984 C46.0724251,16.8454964 44.8580247,17.0548969 44.2508245,17.892499 Z" id="Shape"></path>
                </g>
            </g>
        </g>
    </g>
</svg>