<?xml version="1.0" encoding="UTF-8"?>
<svg width="1920px" height="16px" viewBox="0 0 1920 16" version="1.1" xmlns="http://www.w3.org/2000/svg" xmlns:xlink="http://www.w3.org/1999/xlink">
    <!-- Generator: Sketch 49.3 (51167) - http://www.bohemiancoding.com/sketch -->
    <title>pcylmpsa@3x</title>
    <desc>Created with Sketch.</desc>
    <defs></defs>
    <g id="Page-1" stroke="none" stroke-width="1" fill="none" fill-rule="evenodd">
        <g id="招商加盟" transform="translate(0.000000, -399.000000)" stroke="#E3E3E3" stroke-width="3">
            <g id="pcylmpsa" transform="translate(0.000000, 401.000000)">
                <path d="M0,6 C6.5225436,-2 12.4240679,-2 17.704573,6 C22.9850781,14 28.2769747,14 33.5802628,6 C39.0617062,-1.81428227 45.1456746,-1.81428227 51.832168,6 C58.5186615,13.8142823 64.5746055,13.8142823 70,6" id="Oval-Copy-20"></path>
                <path d="M1120,6 C1126.52254,-2 1132.42407,-2 1137.70457,6 C1142.98508,14 1148.27697,14 1153.58026,6 C1159.06171,-1.81428227 1165.14567,-1.81428227 1171.83217,6 C1178.51866,13.8142823 1184.57461,13.8142823 1190,6" id="Oval-Copy-36"></path>
                <path d="M560,6 C566.522544,-2 572.424068,-2 577.704573,6 C582.985078,14 588.276975,14 593.580263,6 C599.061706,-1.81428227 605.145675,-1.81428227 611.832168,6 C618.518662,13.8142823 624.574605,13.8142823 630,6" id="Oval-Copy-28"></path>
                <path d="M1680,6 C1686.52254,-2 1692.42407,-2 1697.70457,6 C1702.98508,14 1708.27697,14 1713.58026,6 C1719.06171,-1.81428227 1725.14567,-1.81428227 1731.83217,6 C1738.51866,13.8142823 1744.57461,13.8142823 1750,6" id="Oval-Copy-37"></path>
                <path d="M280,6 C286.522544,-2 292.424068,-2 297.704573,6 C302.985078,14 308.276975,14 313.580263,6 C319.061706,-1.81428227 325.145675,-1.81428227 331.832168,6 C338.518662,13.8142823 344.574605,13.8142823 350,6" id="Oval-Copy-24"></path>
                <path d="M1400,6 C1406.52254,-2 1412.42407,-2 1417.70457,6 C1422.98508,14 1428.27697,14 1433.58026,6 C1439.06171,-1.81428227 1445.14567,-1.81428227 1451.83217,6 C1458.51866,13.8142823 1464.57461,13.8142823 1470,6" id="Oval-Copy-38"></path>
                <path d="M840,6 C846.522544,-2 852.424068,-2 857.704573,6 C862.985078,14 868.276975,14 873.580263,6 C879.061706,-1.81428227 885.145675,-1.81428227 891.832168,6 C898.518662,13.8142823 904.574605,13.8142823 910,6" id="Oval-Copy-29"></path>
                <path d="M140,6 C146.522544,-2 152.424068,-2 157.704573,6 C162.985078,14 168.276975,14 173.580263,6 C179.061706,-1.81428227 185.145675,-1.81428227 191.832168,6 C198.518662,13.8142823 204.574605,13.8142823 210,6" id="Oval-Copy-22"></path>
                <path d="M1260,6 C1266.52254,-2 1272.42407,-2 1277.70457,6 C1282.98508,14 1288.27697,14 1293.58026,6 C1299.06171,-1.81428227 1305.14567,-1.81428227 1311.83217,6 C1318.51866,13.8142823 1324.57461,13.8142823 1330,6" id="Oval-Copy-40"></path>
                <path d="M700,6 C706.522544,-2 712.424068,-2 717.704573,6 C722.985078,14 728.276975,14 733.580263,6 C739.061706,-1.81428227 745.145675,-1.81428227 751.832168,6 C758.518662,13.8142823 764.574605,13.8142823 770,6" id="Oval-Copy-30"></path>
                <path d="M1820,6 C1826.52254,-2 1832.42407,-2 1837.70457,6 C1842.98508,14 1848.27697,14 1853.58026,6 C1859.06171,-1.81428227 1865.14567,-1.81428227 1871.83217,6 C1878.51866,13.8142823 1884.57461,13.8142823 1890,6" id="Oval-Copy-41"></path>
                <path d="M420,6 C426.522544,-2 432.424068,-2 437.704573,6 C442.985078,14 448.276975,14 453.580263,6 C459.061706,-1.81428227 465.145675,-1.81428227 471.832168,6 C478.518662,13.8142823 484.574605,13.8142823 490,6" id="Oval-Copy-25"></path>
                <path d="M1540,6 C1546.52254,-2 1552.42407,-2 1557.70457,6 C1562.98508,14 1568.27697,14 1573.58026,6 C1579.06171,-1.81428227 1585.14567,-1.81428227 1591.83217,6 C1598.51866,13.8142823 1604.57461,13.8142823 1610,6" id="Oval-Copy-42"></path>
                <path d="M980,6 C986.522544,-2 992.424068,-2 997.704573,6 C1002.98508,14 1008.27697,14 1013.58026,6 C1019.06171,-1.81428227 1025.14567,-1.81428227 1031.83217,6 C1038.51866,13.8142823 1044.57461,13.8142823 1050,6" id="Oval-Copy-31"></path>
                <path d="M70,6 C76.5225436,-2 82.4240679,-2 87.704573,6 C92.9850781,14 98.2769747,14 103.580263,6 C109.061706,-1.81428227 115.145675,-1.81428227 121.832168,6 C128.518662,13.8142823 134.574605,13.8142823 140,6" id="Oval-Copy-21"></path>
                <path d="M1190,6 C1196.52254,-2 1202.42407,-2 1207.70457,6 C1212.98508,14 1218.27697,14 1223.58026,6 C1229.06171,-1.81428227 1235.14567,-1.81428227 1241.83217,6 C1248.51866,13.8142823 1254.57461,13.8142823 1260,6" id="Oval-Copy-44"></path>
                <path d="M630,6 C636.522544,-2 642.424068,-2 647.704573,6 C652.985078,14 658.276975,14 663.580263,6 C669.061706,-1.81428227 675.145675,-1.81428227 681.832168,6 C688.518662,13.8142823 694.574605,13.8142823 700,6" id="Oval-Copy-32"></path>
                <path d="M1750,6 C1756.52254,-2 1762.42407,-2 1767.70457,6 C1772.98508,14 1778.27697,14 1783.58026,6 C1789.06171,-1.81428227 1795.14567,-1.81428227 1801.83217,6 C1808.51866,13.8142823 1814.57461,13.8142823 1820,6" id="Oval-Copy-45"></path>
                <path d="M350,6 C356.522544,-2 362.424068,-2 367.704573,6 C372.985078,14 378.276975,14 383.580263,6 C389.061706,-1.81428227 395.145675,-1.81428227 401.832168,6 C408.518662,13.8142823 414.574605,13.8142823 420,6" id="Oval-Copy-26"></path>
                <path d="M1470,6 C1476.52254,-2 1482.42407,-2 1487.70457,6 C1492.98508,14 1498.27697,14 1503.58026,6 C1509.06171,-1.81428227 1515.14567,-1.81428227 1521.83217,6 C1528.51866,13.8142823 1534.57461,13.8142823 1540,6" id="Oval-Copy-46"></path>
                <path d="M910,6 C916.522544,-2 922.424068,-2 927.704573,6 C932.985078,14 938.276975,14 943.580263,6 C949.061706,-1.81428227 955.145675,-1.81428227 961.832168,6 C968.518662,13.8142823 974.574605,13.8142823 980,6" id="Oval-Copy-33"></path>
                <path d="M210,6 C216.522544,-2 222.424068,-2 227.704573,6 C232.985078,14 238.276975,14 243.580263,6 C249.061706,-1.81428227 255.145675,-1.81428227 261.832168,6 C268.518662,13.8142823 274.574605,13.8142823 280,6" id="Oval-Copy-23"></path>
                <path d="M1330,6 C1336.52254,-2 1342.42407,-2 1347.70457,6 C1352.98508,14 1358.27697,14 1363.58026,6 C1369.06171,-1.81428227 1375.14567,-1.81428227 1381.83217,6 C1388.51866,13.8142823 1394.57461,13.8142823 1400,6" id="Oval-Copy-48"></path>
                <path d="M770,6 C776.522544,-2 782.424068,-2 787.704573,6 C792.985078,14 798.276975,14 803.580263,6 C809.061706,-1.81428227 815.145675,-1.81428227 821.832168,6 C828.518662,13.8142823 834.574605,13.8142823 840,6" id="Oval-Copy-34"></path>
                <path d="M1890,6 C1896.52254,-2 1902.42407,-2 1907.70457,6 C1912.98508,14 1918.27697,14 1923.58026,6 C1929.06171,-1.81428227 1935.14567,-1.81428227 1941.83217,6 C1948.51866,13.8142823 1954.57461,13.8142823 1960,6" id="Oval-Copy-49"></path>
                <path d="M490,6 C496.522544,-2 502.424068,-2 507.704573,6 C512.985078,14 518.276975,14 523.580263,6 C529.061706,-1.81428227 535.145675,-1.81428227 541.832168,6 C548.518662,13.8142823 554.574605,13.8142823 560,6" id="Oval-Copy-27"></path>
                <path d="M1610,6 C1616.52254,-2 1622.42407,-2 1627.70457,6 C1632.98508,14 1638.27697,14 1643.58026,6 C1649.06171,-1.81428227 1655.14567,-1.81428227 1661.83217,6 C1668.51866,13.8142823 1674.57461,13.8142823 1680,6" id="Oval-Copy-50"></path>
                <path d="M1050,6 C1056.52254,-2 1062.42407,-2 1067.70457,6 C1072.98508,14 1078.27697,14 1083.58026,6 C1089.06171,-1.81428227 1095.14567,-1.81428227 1101.83217,6 C1108.51866,13.8142823 1114.57461,13.8142823 1120,6" id="Oval-Copy-35"></path>
            </g>
        </g>
    </g>
</svg>