<?xml version="1.0" encoding="UTF-8"?>
<svg width="55px" height="57px" viewBox="0 0 55 57" version="1.1" xmlns="http://www.w3.org/2000/svg" xmlns:xlink="http://www.w3.org/1999/xlink">
    <!-- Generator: Sketch 49.3 (51167) - http://www.bohemiancoding.com/sketch -->
    <title>PCZHIRU@2x</title>
    <desc>Created with Sketch.</desc>
    <defs></defs>
    <g id="Page-1" stroke="none" stroke-width="1" fill="none" fill-rule="evenodd">
        <g id="招商加盟" transform="translate(-1299.000000, -802.000000)" fill="#FFFFFF" fill-rule="nonzero">
            <g id="Group-4" transform="translate(1045.000000, 801.000000)">
                <g id="PCZHIRU" transform="translate(254.000000, 1.000000)">
                    <path d="M16.3437585,13.7766323 L12.9712368,23.1786942 L19.7811362,23.1786942 L16.4734708,13.7766323 L16.3437585,13.7766323 Z M37.8760117,13.0584193 L34.1792091,13.0584193 L34.1792091,28.4020619 L37.8111555,28.4020619 C40.3405467,28.4020619 42.221376,27.7491409 43.3887873,26.5085911 C44.5561987,25.2680412 45.1399043,23.3092784 45.1399043,20.6975945 C45.1399043,18.0859107 44.5561987,16.1271478 43.3887873,14.886598 C42.221376,13.7113402 40.4054029,13.0584193 37.8760117,13.0584193 Z M51.5606666,1.22324831e-15 L3.43737776,1.22324831e-15 C1.55654839,1.22324831e-15 0,1.63230238 0,3.65635741 L0,39.9587629 C0,41.9828179 1.55654844,43.6151203 3.43737776,43.6151203 L51.5606666,43.6151203 C53.441496,43.6151203 54.9980443,41.9828179 54.9980443,39.9587629 L54.9980443,3.5910653 C55.0629005,1.63230244 53.5063521,0 51.5606666,1.22324831e-15 Z M22.5699521,31.1443299 L20.6891228,25.790378 L11.9983941,25.790378 L10.1175647,31.1443299 L6.87475552,31.1443299 L14.6574976,10.3814433 L18.1597316,10.3814433 L25.9424738,31.1443299 L22.5699521,31.1443299 Z M45.72361,28.3367698 C44.0373492,30.2302405 41.5728142,31.1443299 38.3300049,31.1443299 L31.0661123,31.1443299 L31.0661123,10.3814433 L38.3948611,10.3814433 C41.6376704,10.3814433 44.1022053,11.2955327 45.7884662,13.1890034 C47.3450146,14.95189 48.188145,17.4329897 48.188145,20.7628866 C48.188145,23.9621993 47.3450146,26.5085911 45.72361,28.3367698 Z M7.10542736e-15,57 L54.9980443,57 L54.9980443,50.0790378 L7.10542736e-15,50.0790378 L7.10542736e-15,57 Z" id="Shape"></path>
                </g>
            </g>
        </g>
    </g>
</svg>