<?xml version="1.0" encoding="UTF-8"?>
<svg width="87px" height="87px" viewBox="0 0 87 87" version="1.1" xmlns="http://www.w3.org/2000/svg" xmlns:xlink="http://www.w3.org/1999/xlink">
    <!-- Generator: Sketch 49.3 (51167) - http://www.bohemiancoding.com/sketch -->
    <title>pczhiding</title>
    <desc>Created with Sketch.</desc>
    <defs></defs>
    <g id="Page-1" stroke="none" stroke-width="1" fill="none" fill-rule="evenodd" opacity="0.600000024">
        <g id="首页" transform="translate(-1757.000000, -7203.000000)" fill="#000000" fill-rule="nonzero">
            <g id="Group-12" transform="translate(1757.000000, 7203.000000)">
                <g id="pczhiding">
                    <path d="M81.2987053,0 L5.70129455,0 C2.55353129,0 0,2.55130979 0,5.70018384 L0,81.2964838 C0,84.4464686 2.55353129,87 5.70129455,87 L81.2987053,87 C84.4464686,87 87,84.4464686 87,81.2964838 L87,5.70018374 C87,2.55130979 84.4464686,0 81.2987053,0 Z M54.375,50.5519226 L54.375,70.4037123 L32.5650214,70.4037123 L32.6883107,50.6152334 L18.4967189,50.6152332 L43.5011106,26.4494306 L68.9353488,50.3675441 L54.375,50.5519226 Z M70.4037123,24.5278955 L16.5962873,24.5278955 L16.5962873,16.5951767 L70.4037123,16.5951767 L70.4037123,24.5278955 Z" id="Shape"></path>
                </g>
            </g>
        </g>
    </g>
</svg>