<?xml version="1.0" encoding="UTF-8"?>
<svg width="110px" height="7px" viewBox="0 0 110 7" version="1.1" xmlns="http://www.w3.org/2000/svg" xmlns:xlink="http://www.w3.org/1999/xlink">
    <!-- Generator: Sketch 49.3 (51167) - http://www.bohemiancoding.com/sketch -->
    <title>shoujiblchang</title>
    <desc>Created with Sketch.</desc>
    <defs></defs>
    <g id="Page-1" stroke="none" stroke-width="1" fill="none" fill-rule="evenodd">
        <g id="iPhone-8" transform="translate(-37.000000, -1045.000000)" stroke="#5CC1DF" stroke-width="1.5">
            <g id="shoujiblchang" transform="translate(38.000000, 1046.000000)">
                <path d="M0,2.5 C2.51583824,-0.833333333 4.79214049,-0.833333333 6.82890674,2.5 C8.86567298,5.83333333 10.9068331,5.83333333 12.9523871,2.5 C15.0666581,-0.755950947 17.4133316,-0.755950947 19.9924077,2.5 C22.5714837,5.75595095 24.9073478,5.75595095 27,2.5" id="Oval"></path>
                <path d="M27,2.5 C29.5158382,-0.833333333 31.7921405,-0.833333333 33.8289067,2.5 C35.865673,5.83333333 37.9068331,5.83333333 39.9523871,2.5 C42.0666581,-0.755950947 44.4133316,-0.755950947 46.9924077,2.5 C49.5714837,5.75595095 51.9073478,5.75595095 54,2.5" id="Oval-Copy"></path>
                <path d="M54,2.5 C56.5158382,-0.833333333 58.7921405,-0.833333333 60.8289067,2.5 C62.865673,5.83333333 64.9068331,5.83333333 66.9523871,2.5 C69.0666581,-0.755950947 71.4133316,-0.755950947 73.9924077,2.5 C76.5714837,5.75595095 78.9073478,5.75595095 81,2.5" id="Oval-Copy-2"></path>
                <path d="M81,2.5 C83.5158382,-0.833333333 85.7921405,-0.833333333 87.8289067,2.5 C89.865673,5.83333333 91.9068331,5.83333333 93.9523871,2.5 C96.0666581,-0.755950947 98.4133316,-0.755950947 100.992408,2.5 C103.571484,5.75595095 105.907348,5.75595095 108,2.5" id="Oval-Copy-3"></path>
            </g>
        </g>
    </g>
</svg>