<svg width="244px" height="16px" viewBox="0 0 244 16" version="1.1" xmlns="http://www.w3.org/2000/svg" xmlns:xlink="http://www.w3.org/1999/xlink">
    <g id="Page-1" stroke="none" stroke-width="1" fill="none" fill-rule="evenodd">
        <g id="首页" transform="translate(-207.000000, -1420.000000)" stroke="#5CC1DF" stroke-width="3">
            <g id="Group-6" transform="translate(207.000000, 1420.000000)">
                <g id="pcbeijin1" transform="translate(2.000000, 2.000000)">
                    <path d="M0,6 C5.59075166,-2 10.6492011,-2 15.1753483,6 C19.7014955,14 24.2374069,14 28.7830824,6 C33.4814624,-1.81428227 38.6962925,-1.81428227 44.4275726,6 C50.1588527,13.8142823 55.3496618,13.8142823 60,6" id="Oval">
                    </path>
                    <path d="M60,6 C65.5907517,-2 70.6492011,-2 75.1753483,6 C79.7014955,14 84.2374069,14 88.7830824,6 C93.4814624,-1.81428227 98.6962925,-1.81428227 104.427573,6 C110.158853,13.8142823 115.349662,13.8142823 120,6" id="Oval-Copy">
                    </path>
                    <path d="M120,6 C125.590752,-2 130.649201,-2 135.175348,6 C139.701496,14 144.237407,14 148.783082,6 C153.481462,-1.81428227 158.696292,-1.81428227 164.427573,6 C170.158853,13.8142823 175.349662,13.8142823 180,6" id="Oval-Copy-2">
                    </path>
                    <path d="M180,6 C185.590752,-2 190.649201,-2 195.175348,6 C199.701496,14 204.237407,14 208.783082,6 C213.481462,-1.81428227 218.696292,-1.81428227 224.427573,6 C230.158853,13.8142823 235.349662,13.8142823 240,6" id="Oval-Copy-3">
                    </path>
                    <path d="M240,6 C245.590752,-2 250.649201,-2 255.175348,6 C259.701496,14 264.237407,14 268.783082,6 C273.481462,-1.81428227 278.696292,-1.81428227 284.427573,6 C290.158853,13.8142823 295.349662,13.8142823 300,6" id="Oval-Copy-4">
                    </path>
                	<animateTransform
                        attributeName="transform"
                        attributeType="XML"
                        type="translate"
                        from="0" to="-50" dur="3.5s" 
                        repeatCount="indefinite">
                    </animateTransform>
                </g>
            </g>
        </g>
    </g>
</svg>